<svg width="199" height="46" viewBox="0 0 199 46" fill="none" xmlns="http://www.w3.org/2000/svg">
<path d="M191.875 21.2714V18.1648C189.789 18.515 188.398 19.0648 187.703 19.814C187.184 20.3851 186.92 21.2851 186.92 22.5187C186.92 23.9898 187.606 24.7253 188.964 24.7253C189.353 24.7273 189.739 24.6468 190.094 24.4891C190.449 24.3315 190.765 24.1004 191.022 23.8116C191.637 23.1024 191.948 22.1846 191.888 21.2532M197.997 26.5299H192.245L191.912 24.8487C190.512 26.1455 188.66 26.8606 186.739 26.8451C185.219 26.8451 184.037 26.4797 183.198 25.7395C182.769 25.3431 182.434 24.8585 182.216 24.32C181.998 23.7816 181.903 23.2025 181.938 22.6237C181.938 20.6927 182.889 19.2978 184.793 18.4389C186.52 17.8882 188.282 17.4471 190.067 17.1186C190.707 17.0372 191.323 16.824 191.875 16.4927V15.9993C191.875 14.5236 191.685 13.4728 191.304 12.8332C190.841 12.0839 190.067 11.7139 188.922 11.7139C187.86 11.7338 186.838 12.1239 186.039 12.8149C185.201 13.4506 184.595 14.3371 184.311 15.3414H183.17V12.2256C184.099 11.5085 185.177 11.003 186.327 10.7453C187.438 10.4265 188.59 10.2635 189.747 10.2611C192.027 10.2611 193.684 10.657 194.716 11.4489C195.921 12.3626 196.525 13.9784 196.528 16.2962V23.1903C196.502 23.7314 196.536 24.2737 196.63 24.8075C196.702 25.0056 196.842 25.1729 197.025 25.2811C197.209 25.3894 197.424 25.4319 197.636 25.4015H197.969L197.997 26.5299ZM169.897 26.5299H163.538C163.674 22.1806 163.74 18.0688 163.737 14.1946C163.734 10.3205 163.691 6.84831 163.607 3.7782C163.591 3.65126 163.549 3.52885 163.483 3.41816C163.418 3.30748 163.331 3.21076 163.228 3.13371C163.124 3.05666 163.006 3.00082 162.88 2.96949C162.754 2.93816 162.623 2.93197 162.495 2.95128H162.161V1.95532H168.571C168.435 7.43766 168.369 11.4596 168.372 14.021V20.3531C168.372 21.9126 168.406 23.4065 168.474 24.835C168.58 25.3192 168.937 25.5614 169.581 25.5614H169.883L169.897 26.5299ZM181.178 26.5299H175.087L174.953 26.3654C173.584 24.4344 171.503 21.541 168.71 17.6851C168.886 17.5054 170.048 16.3617 172.195 14.254C173.37 13.1291 174.481 11.941 175.523 10.6951H179.787C177.283 12.2158 174.943 13.9839 172.802 15.9718C173.919 17.5297 175.055 19.0831 176.191 20.6181C177.357 22.2547 178.612 23.8285 179.949 25.3329C180.177 25.4615 180.43 25.5409 180.691 25.5659H181.154L181.178 26.5299ZM159.357 26.5299H153.197C153.333 23.4111 153.4 20.6699 153.397 18.3064C153.397 16.351 153.364 14.4383 153.299 12.5682C153.207 12.0657 152.836 11.8098 152.192 11.8098H151.853V10.6905H158.032C157.916 13.5459 157.865 16.0998 157.865 18.3384C157.865 20.379 157.897 22.5552 157.962 24.8669C158.073 25.1959 158.425 25.3603 159.042 25.3603H159.343L159.357 26.5299ZM158.231 5.77925C158.239 6.12902 158.173 6.47665 158.038 6.79995C157.902 7.12325 157.699 7.41513 157.443 7.65696C157.194 7.90311 156.899 8.09844 156.574 8.23173C156.248 8.36501 155.9 8.43363 155.547 8.43363C155.195 8.43363 154.846 8.36501 154.521 8.23173C154.196 8.09844 153.9 7.90311 153.652 7.65696C153.397 7.41745 153.195 7.12869 153.059 6.80874C152.922 6.48879 152.854 6.14454 152.859 5.79753C152.855 5.4554 152.924 5.11626 153.06 4.80166C153.197 4.48705 153.398 4.20386 153.652 3.97008C154.159 3.48391 154.839 3.21195 155.547 3.21195C156.255 3.21195 156.935 3.48391 157.443 3.97008C157.693 4.202 157.893 4.48237 158.028 4.79367C158.164 5.10497 158.233 5.44049 158.231 5.77925ZM150.074 25.1319C149.49 25.7527 148.75 26.2085 147.928 26.4522C147.106 26.7306 146.243 26.8742 145.374 26.8771C141.95 26.8771 140.239 25.3177 140.239 22.1989C140.239 21.8943 140.266 20.7232 140.322 18.6856C140.378 16.648 140.406 14.8297 140.406 13.2307V12.4723C139.732 12.4703 139.059 12.5023 138.389 12.5682V10.6905C138.89 10.7316 139.562 10.7682 140.406 10.791V6.70212L145.309 5.97571C145.175 7.64782 145.105 8.63464 145.105 8.94531V10.823C147.067 10.823 148.444 10.7788 149.235 10.6905V12.5682C148.373 12.5043 146.982 12.4723 145.063 12.4723V13.8429C145.063 14.4551 145.04 15.6109 144.999 17.3013C144.957 18.9917 144.929 20.3668 144.929 21.4131C144.929 22.7745 145.096 23.7019 145.43 24.1954C145.768 24.6933 146.357 24.94 147.246 24.94C147.762 24.94 148.433 24.5547 149.258 23.7842L150.074 25.1319ZM136.007 26.5482H129.662C129.773 24.8578 129.831 21.6933 129.834 17.0546C129.834 15.4053 129.662 14.2312 129.328 13.5231C129.162 13.1392 128.878 12.816 128.517 12.5982C128.156 12.3805 127.735 12.279 127.312 12.3078C126.061 12.3078 125.064 12.9428 124.328 14.2221C123.682 15.4465 123.363 16.8127 123.401 18.1922V20.6364C123.401 21.7786 123.424 23.172 123.47 24.803C123.558 25.3055 123.934 25.5614 124.578 25.5614H124.861V26.5482H118.52C118.655 24.7436 118.719 22.8933 118.719 21.011V15.9855C118.719 14.9957 118.685 13.8627 118.617 12.5865C118.571 12.0839 118.205 11.8281 117.51 11.8281H117.176V10.6905H123.062C123.197 11.5641 123.287 12.444 123.331 13.3266C124.536 11.2403 126.263 10.1971 128.513 10.1971C130.367 10.1971 131.82 10.7195 132.874 11.7641C133.928 12.8088 134.458 14.2982 134.464 16.2323V21.5364C134.464 21.911 134.464 22.4501 134.515 23.172C134.566 23.8938 134.566 24.4283 134.566 24.803C134.566 25.3055 134.936 25.5614 135.673 25.5614H136.007V26.5482ZM108.05 21.2714V18.1648C105.96 18.5166 104.57 19.0785 103.879 19.814C103.36 20.3851 103.096 21.2851 103.096 22.5187C103.096 23.9898 103.775 24.7253 105.135 24.7253C105.525 24.7277 105.911 24.6473 106.267 24.4897C106.623 24.332 106.94 24.1008 107.197 23.8116C107.802 23.1041 108.107 22.1946 108.05 21.2714ZM114.159 26.5482H108.421L108.083 24.8669C106.683 26.1581 104.832 26.8667 102.915 26.8451C101.395 26.8451 100.213 26.4797 99.374 25.7395C98.9441 25.3437 98.6082 24.8592 98.3902 24.3206C98.1723 23.782 98.0778 23.2026 98.1133 22.6237C98.1133 20.6927 99.065 19.2978 100.968 18.4389C101.586 18.1739 103.343 17.7338 106.238 17.1186C106.88 17.0378 107.498 16.8246 108.05 16.4927V15.9993C108.05 14.5236 107.86 13.4728 107.48 12.8332C107.017 12.0839 106.238 11.7139 105.098 11.7139C104.027 11.7276 102.996 12.1181 102.192 12.8149C101.354 13.4506 100.747 14.3371 100.463 15.3414H99.323V12.2256C100.249 11.5084 101.326 11.0029 102.475 10.7453C103.597 10.4185 104.762 10.2508 105.932 10.2474C108.222 10.2474 109.879 10.6433 110.905 11.4352C112.11 12.3489 112.714 13.9647 112.717 16.2825V23.1903C112.691 23.7312 112.724 24.2734 112.815 24.8075C112.887 25.0065 113.028 25.1744 113.212 25.2827C113.396 25.391 113.613 25.433 113.825 25.4015H114.159V26.5482ZM97.0102 10.6905C95.2614 14.5373 93.0228 19.8887 90.2945 26.7446H86.0675C84.4303 21.7934 82.4894 16.9448 80.2556 12.2256C80.0074 11.9848 79.6766 11.8446 79.3286 11.8327H78.9764V10.6905H85.1174C86.2703 14.7899 87.7519 18.7924 89.5483 22.6603C91.292 19.2559 92.7177 15.7021 93.8076 12.0428C93.7381 11.9103 93.5481 11.8418 93.2329 11.8418H92.9363V10.6905H97.0288H97.0102ZM72.0659 21.2714V18.1648C69.9757 18.5166 68.5852 19.0785 67.8946 19.814C67.3802 20.3851 67.116 21.2851 67.116 22.5187C67.116 23.9898 67.7973 24.7253 69.1599 24.7253C69.5493 24.7267 69.9344 24.6459 70.2893 24.4883C70.6443 24.3307 70.9609 24.0999 71.2178 23.8116C71.8204 23.1034 72.1241 22.194 72.0659 21.2714ZM78.1745 26.5482H72.4321L72.0984 24.8669C70.697 26.1583 68.8442 26.867 66.926 26.8451C65.4011 26.8451 64.2193 26.4797 63.385 25.7395C62.9551 25.3437 62.6192 24.8592 62.4013 24.3206C62.1834 23.782 62.0888 23.2026 62.1244 22.6237C62.1244 20.6927 63.0745 19.2978 64.9747 18.4389C65.5927 18.1739 67.3508 17.7338 70.2491 17.1186C70.8909 17.0369 71.5082 16.8237 72.0613 16.4927V15.9993C72.0613 14.5236 71.8713 13.4728 71.4912 12.8332C71.0277 12.0839 70.2491 11.7139 69.109 11.7139C68.0379 11.7268 67.007 12.1174 66.203 12.8149C65.3647 13.4506 64.7581 14.3371 64.4742 15.3414H63.334V12.2256C64.2618 11.5076 65.3399 11.0019 66.4903 10.7453C67.6115 10.4189 68.7741 10.2512 69.9432 10.2474C72.2266 10.2474 73.8828 10.6433 74.9117 11.4352C76.1198 12.3489 76.7239 13.9647 76.7239 16.2825V23.1903C76.6962 23.7316 76.732 24.2743 76.8305 24.8075C76.903 25.0056 77.0427 25.1729 77.226 25.2811C77.4093 25.3894 77.6248 25.4319 77.8362 25.4015H78.1699L78.1745 26.5482Z" fill="#E92B2C"/>
<path d="M69.0162 34.1551H69.1599C69.2346 34.1472 69.3102 34.1553 69.3814 34.179C69.4526 34.2026 69.5178 34.2412 69.5724 34.2922C69.648 35.0848 69.6666 35.8817 69.628 36.677C69.628 38.011 69.6187 38.8928 69.6002 39.3222C69.6249 40.1424 69.4282 40.9544 69.0301 41.675C68.7852 41.9914 68.4628 42.2412 68.0931 42.401C67.7235 42.5608 67.3186 42.6255 66.9167 42.5888C65.7719 42.5888 64.9979 42.269 64.5993 41.6202C64.2563 41.0903 64.0848 40.1415 64.0848 38.774L64.1451 33.6982H62.129V34.1551H62.2634C62.3391 34.1459 62.4159 34.1553 62.4871 34.1824C62.5582 34.2095 62.6215 34.2535 62.6712 34.3104C62.6712 34.9561 62.6712 35.7739 62.6712 36.7638V39.2171C62.6712 42.036 64.006 43.4385 66.6803 43.4385C68.3396 43.4385 69.4612 42.9131 70.0869 41.8532C70.4947 41.1162 70.6986 39.939 70.6986 38.3217V36.6724C70.6986 35.9597 70.7125 35.1983 70.7404 34.3881C70.7821 34.2282 70.9304 34.1505 71.2038 34.1505H71.3475V33.6982H69.0301L69.0162 34.1551Z" fill="#808285"/>
<path d="M86.2714 34.1186H86.4151C86.495 34.1075 86.5765 34.1187 86.6502 34.151C86.724 34.1833 86.787 34.2354 86.8322 34.3013C86.9033 34.4201 86.9388 36.1912 86.9388 39.6146C86.9388 39.8522 86.9388 40.1628 86.911 40.5557C84.779 38.445 82.627 36.1607 80.4548 33.7028H79.843V35.1145C79.843 37.7704 79.7905 40.2862 79.6854 42.6619C79.6386 42.7241 79.5755 42.7727 79.5028 42.8025C79.4302 42.8322 79.3508 42.8421 79.2729 42.8309H79.1246V43.2558H81.442V42.8355H81.2937C81.2139 42.8463 81.1325 42.8364 81.0577 42.8067C80.983 42.7771 80.9173 42.7287 80.8673 42.6664C80.821 40.67 80.7978 39.0115 80.7978 37.7323C80.7978 37.3166 80.7978 36.8186 80.8256 36.2156L83.9402 39.5141C85.5932 41.2593 86.7411 42.5218 87.3838 43.3015H87.9121V40.2222C87.9121 38.244 87.94 36.2749 87.9956 34.283C88.0385 34.2171 88.0998 34.1647 88.1721 34.1323C88.2445 34.0999 88.3248 34.0888 88.4034 34.1003H88.5239V33.6982H86.2853L86.2714 34.1186Z" fill="#808285"/>
<path d="M98.6555 42.5888C98.6555 42.0588 98.6277 40.5786 98.6277 38.1572C98.6277 36.4973 98.6601 35.011 98.725 33.6982H96.6255V34.1551H96.7506C97.0194 34.1551 97.1724 34.2282 97.2141 34.3744C97.2373 35.1922 97.2558 36.444 97.2558 38.1389C97.2558 40.2405 97.2172 41.9522 97.1399 43.2741H99.2534V42.8355H99.1561C98.8687 42.8355 98.6926 42.7578 98.6555 42.5979" fill="#808285"/>
<path d="M113.881 34.1186H114.024C114.1 34.1085 114.176 34.1184 114.246 34.1473C114.316 34.1763 114.377 34.2231 114.423 34.283C113.169 37.81 112.255 40.2557 111.684 41.6202C110.303 38.4709 109.232 35.8303 108.472 33.6982H106.618V34.1186H106.762C106.867 34.1118 106.972 34.1357 107.063 34.1871C108.299 36.8704 109.57 39.9055 110.877 43.2923H111.962C113.084 40.408 114.403 37.21 115.92 33.6982H113.904L113.881 34.1186Z" fill="#808285"/>
<path d="M128.652 42.406C127.478 42.5004 126.405 42.5477 125.435 42.5477H125.222C125.203 40.839 125.194 39.6755 125.194 39.0572V38.5638C126.186 38.5638 127.342 38.5912 128.661 38.6461V37.81L125.194 37.8831V37.4262C125.194 36.444 125.194 35.4435 125.222 34.4109H125.412C126.475 34.4109 127.478 34.449 128.42 34.5252C128.527 34.5891 128.578 34.7673 128.578 35.0597H129.004V33.6982H123.178V34.1551H123.322C123.53 34.1551 123.669 34.2054 123.73 34.3059C123.835 35.6738 123.866 37.0464 123.822 38.4176C123.822 40.4674 123.784 42.0954 123.706 43.3015H129.208V41.9309H128.782C128.782 42.2096 128.735 42.3878 128.652 42.4471" fill="#808285"/>
<path d="M144.549 42.7989C144.472 42.7661 144.391 42.7431 144.308 42.7304L144.048 42.4928C142.757 40.7294 141.83 39.4227 141.268 38.573C142.899 38.2166 143.71 37.3668 143.71 36.0237C143.71 34.4703 142.629 33.6952 140.466 33.6983C140.151 33.6983 139.771 33.6983 139.321 33.6983H138.394C138.26 33.6983 138.06 33.6983 137.801 33.6983C137.541 33.6983 137.337 33.6983 137.208 33.6983H137.064V34.1277H137.208C137.284 34.1172 137.361 34.1254 137.433 34.1518C137.505 34.1781 137.569 34.2216 137.62 34.2785C137.688 34.3759 137.722 35.7815 137.722 38.4953C137.722 40.5329 137.68 42.1228 137.606 43.2649H139.692V42.8081H139.543C139.383 42.8131 139.224 42.7802 139.08 42.7121C139.052 42.1182 139.038 41.5654 139.038 41.0629V35.7861C139.033 35.3176 139.057 34.8493 139.108 34.3835C139.479 34.3835 139.766 34.3561 139.965 34.3561C140.582 34.3135 141.193 34.4974 141.68 34.8724C141.859 35.0402 141.999 35.2443 142.09 35.4707C142.182 35.6971 142.222 35.9403 142.208 36.1836C142.208 37.5176 141.356 38.1846 139.65 38.1846H139.437C139.764 38.5807 140.064 38.9974 140.336 39.4319C140.452 39.6055 140.748 40.0715 141.235 40.839C141.722 41.6065 142.106 42.2781 142.366 42.7167C142.506 42.9271 142.71 43.0874 142.95 43.1736C143.192 43.2356 143.442 43.2603 143.692 43.2467H144.734V42.7898H144.591L144.535 42.7624" fill="#808285"/>
<path d="M156.748 38.4222C156.098 38.0149 155.408 37.6721 154.69 37.3988C154.299 37.2617 153.947 37.0364 153.661 36.7409C153.431 36.4497 153.315 36.0861 153.336 35.7176C153.332 35.3152 153.487 34.9268 153.768 34.6348C153.911 34.4845 154.085 34.3661 154.278 34.2873C154.472 34.2085 154.68 34.1713 154.889 34.178C155.254 34.1817 155.615 34.2633 155.945 34.417C156.275 34.5708 156.568 34.7931 156.803 35.0688C156.874 35.1936 156.913 35.3328 156.919 35.4754V35.6171H157.35V34.1003C156.653 33.7412 155.88 33.5501 155.093 33.5429C154.292 33.5057 153.504 33.7574 152.878 34.251C152.599 34.501 152.38 34.808 152.235 35.1505C152.089 35.4929 152.022 35.8626 152.037 36.2334C152.052 36.6043 152.149 36.9675 152.322 37.2974C152.494 37.6274 152.738 37.9162 153.035 38.1435C153.675 38.5576 154.359 38.9008 155.075 39.1669C155.98 39.5415 156.433 40.1263 156.433 40.9212C156.437 41.1612 156.393 41.3997 156.304 41.6232C156.215 41.8466 156.082 42.0505 155.913 42.2233C155.743 42.4062 155.535 42.5511 155.303 42.648C155.071 42.7449 154.821 42.7917 154.569 42.7852C154.133 42.7753 153.703 42.6741 153.309 42.4882C152.915 42.3023 152.566 42.0361 152.284 41.707C152.233 41.5964 152.205 41.4768 152.201 41.3552V41.2273H151.742V42.6893C152.482 43.2099 153.378 43.4705 154.287 43.4294C155.19 43.4755 156.079 43.1889 156.78 42.6253C157.09 42.3496 157.334 42.0094 157.494 41.6294C157.655 41.2493 157.727 40.8389 157.707 40.4278C157.721 40.0414 157.641 39.6572 157.472 39.3081C157.303 38.9589 157.052 38.655 156.738 38.4222" fill="#808285"/>
<path d="M167.704 42.5888C167.704 42.0588 167.676 40.5786 167.676 38.1572C167.676 36.4973 167.709 35.011 167.774 33.6982H165.679V34.1551H165.804C166.073 34.1551 166.226 34.2282 166.267 34.3744C166.3 35.1922 166.314 36.444 166.314 38.1389C166.314 40.2405 166.275 41.9522 166.198 43.2741H168.316V42.8355H168.214C167.927 42.8355 167.751 42.7578 167.714 42.5979" fill="#808285"/>
<path d="M175.959 35.1145H176.39V34.9866C176.39 34.717 176.441 34.5526 176.547 34.4978C177.245 34.4312 177.946 34.4023 178.647 34.4109H178.888V38.011C178.888 38.6202 178.865 40.3669 178.818 43.2512H180.862V42.8355H180.719C180.587 42.8499 180.455 42.8157 180.348 42.7395C180.28 42.6756 180.246 41.1299 180.246 38.1024C180.246 36.3663 180.269 35.1389 180.315 34.4201H180.589C181.273 34.4222 181.956 34.4725 182.633 34.5708C182.709 34.6957 182.743 34.8413 182.73 34.9866V35.1237H183.161V33.6982H175.959V35.1145Z" fill="#808285"/>
<path d="M194.989 42.6573C194.947 41.9218 194.929 41.2136 194.929 40.542C194.929 40.309 194.929 39.8887 194.957 39.2765C196.193 37.0562 197.289 35.1967 198.247 33.6982H196.273V34.1551H196.417C196.51 34.1376 196.606 34.1376 196.699 34.1551C195.714 36.2384 194.991 37.6516 194.53 38.3948C193.516 36.9058 192.633 35.3346 191.888 33.6982H190.002V34.1551H190.146C190.222 34.1528 190.299 34.1621 190.373 34.1825C191.275 35.6567 192.313 37.3912 193.487 39.3862C193.538 40.0532 193.557 40.6517 193.557 41.2136C193.557 41.6705 193.534 42.3558 193.474 43.2923H195.545V42.8355H195.402C195.324 42.8471 195.244 42.8375 195.171 42.8077C195.099 42.7779 195.036 42.7291 194.989 42.6664" fill="#808285"/>
<path d="M22.8957 9.16008C24.6649 7.45939 26.8611 6.25316 29.2592 5.66509C27.5865 3.33842 25.4137 1.4041 22.8957 0C20.3783 1.40496 18.2057 3.33912 16.5322 5.66509C18.9296 6.2548 21.1254 7.46081 22.8957 9.16008Z" fill="#E92B2C"/>
<path d="M22.8957 36.22C21.1268 37.9201 18.9303 39.1249 16.5322 39.7104C18.204 42.0403 20.3768 43.9778 22.8957 45.3846C25.4176 43.9823 27.5938 42.0478 29.2685 39.7195C26.8661 39.1329 24.6661 37.9248 22.8957 36.22Z" fill="#E92B2C"/>
<path d="M45.7822 22.6879C44.37 20.197 42.419 18.0429 40.0675 16.3787C39.4785 18.7499 38.2632 20.9251 36.5451 22.6834C38.2569 24.4481 39.4642 26.6281 40.0444 29.0018C42.3971 27.337 44.3483 25.1811 45.759 22.6879H45.7822Z" fill="#E92B2C"/>
<path d="M9.24635 22.6924C7.52826 20.9341 6.31296 18.7589 5.72393 16.3877C3.37013 18.0483 1.41593 20.1992 0 22.6878C1.41154 25.1817 3.36257 27.3389 5.71466 29.0062C6.30369 26.635 7.51899 24.4598 9.23708 22.7015L9.24635 22.6924Z" fill="#E92B2C"/>
<path d="M32.5407 13.1394C35.0094 13.1837 37.4223 13.8709 39.5345 15.1314C40.0104 12.31 39.8522 9.42015 39.071 6.66571C36.2898 5.90278 33.3732 5.74687 30.5245 6.20885C31.8058 8.30295 32.5015 10.6943 32.5407 13.1394Z" fill="#E92B2C"/>
<path d="M13.2415 32.2591C10.7742 32.2197 8.36186 31.5338 6.2523 30.2717C5.77656 33.093 5.93477 35.9829 6.71578 38.7374C9.49314 39.4968 12.4054 39.6481 15.2484 39.1805C13.9687 37.086 13.2747 34.6947 13.2369 32.2499" fill="#E92B2C"/>
<path d="M39.5438 30.2626C37.4327 31.5262 35.0193 32.2151 32.5499 32.259C32.5077 34.7015 31.8105 37.0895 30.5292 39.1805C31.5463 39.3604 32.5779 39.4491 33.6113 39.4455C35.4581 39.4369 37.2962 39.1943 39.0803 38.7236C39.8613 35.9676 40.0195 33.0763 39.5438 30.2534V30.2626Z" fill="#E92B2C"/>
<path d="M6.24298 15.1222C8.3548 13.862 10.7685 13.1777 13.2368 13.1394C13.2729 10.6895 13.9687 8.29296 15.253 6.19512C12.4058 5.73322 9.49079 5.88913 6.71109 6.65198C5.93015 9.40802 5.77194 12.2993 6.24761 15.1222H6.24298Z" fill="#E92B2C"/>
<path d="M23.4287 9.73119C24.7857 11.2273 25.7038 13.0593 26.0844 15.0308C27.7603 13.8962 29.7223 13.2415 31.7527 13.1394C31.7142 10.7374 31.0106 8.39151 29.7181 6.35498C27.3504 6.88654 25.1773 8.05163 23.438 9.72205L23.4287 9.73119Z" fill="#E92B2C"/>
<path d="M39.3723 15.9262C37.3243 14.6441 34.9572 13.9438 32.5314 13.9023C32.4255 15.9168 31.7636 17.8645 30.6172 19.5354C32.6088 19.9112 34.4583 20.8164 35.9658 22.1533C37.656 20.4251 38.8327 18.2727 39.3677 15.9308L39.3723 15.9262Z" fill="#E92B2C"/>
<path d="M22.3535 35.6536C20.9965 34.1575 20.0784 32.3255 19.6977 30.354C18.0191 31.4819 16.0582 32.1331 14.0294 32.2363C14.0674 34.6375 14.7727 36.9825 16.0687 39.0161C18.4364 38.4845 20.6095 37.3194 22.3488 35.649L22.3535 35.6536Z" fill="#E92B2C"/>
<path d="M9.81641 23.2268C8.1267 24.9565 6.95152 27.1106 6.41913 29.4538C8.46876 30.7361 10.8374 31.4364 13.2647 31.4777C13.3683 29.472 14.0253 27.5322 15.1649 25.8675C13.1714 25.4865 11.3217 24.5748 9.81641 23.2314" fill="#E92B2C"/>
<path d="M31.7528 32.2362C29.728 32.1308 27.7717 31.478 26.0983 30.3494C25.7177 32.3208 24.7996 34.1529 23.4426 35.649C25.1827 37.3184 27.3554 38.4834 29.7227 39.016C31.0139 36.9786 31.7188 34.6335 31.762 32.2316L31.7528 32.2362Z" fill="#E92B2C"/>
<path d="M35.9657 23.2269C34.4633 24.5711 32.6144 25.4815 30.6218 25.8584C31.761 27.5237 32.4194 29.463 32.5267 31.4687C34.9525 31.4273 37.3196 30.7269 39.3676 29.4448C38.8352 27.1016 37.66 24.9475 35.9703 23.2178L35.9657 23.2269Z" fill="#E92B2C"/>
<path d="M14.0248 13.1394C16.0512 13.2436 18.0093 13.8964 19.6838 15.0263C20.0645 13.0548 20.9826 11.2228 22.3395 9.72669C20.6008 8.0555 18.4275 6.89029 16.0594 6.35962C14.7666 8.39435 14.063 10.7389 14.0248 13.1394Z" fill="#E92B2C"/>
<path d="M15.1649 19.5356C14.0253 17.8708 13.3683 15.931 13.2647 13.9253C10.8381 13.9589 8.46785 14.6513 6.41449 15.9263C6.95044 18.2693 8.12695 20.4228 9.81641 22.1534C11.3239 20.8165 13.1733 19.9113 15.1649 19.5356Z" fill="#E92B2C"/>
<path d="M29.7274 19.403C30.9177 17.8044 31.6131 15.9003 31.7296 13.9207C29.7326 14.0358 27.8136 14.7251 26.2096 15.9034C26.34 17.2705 26.1578 18.649 25.6766 19.9375C26.9705 19.455 28.359 19.2691 29.7366 19.3939" fill="#F37421"/>
<path d="M16.0548 25.9772C14.8638 27.5754 14.1683 29.4797 14.0526 31.4595C16.0475 31.3408 17.964 30.6518 19.568 29.4767C19.4403 28.1086 19.6272 26.7297 20.1149 25.4426C18.8209 25.9249 17.4322 26.1093 16.0548 25.9817" fill="#F37421"/>
<path d="M29.7274 25.9773C28.3531 26.1027 26.9679 25.9183 25.6766 25.4382C26.1629 26.7225 26.3498 28.0981 26.2235 29.4632C27.8309 30.6345 29.7482 31.3216 31.7435 31.4414C31.6278 29.4616 30.9323 27.5573 29.7413 25.9591L29.7274 25.9773Z" fill="#F37421"/>
<path d="M35.4096 22.6878C33.9179 21.3744 32.0708 20.5172 30.0935 20.2207C29.2146 21.2725 28.1054 22.1144 26.8492 22.6832C28.1054 23.252 29.2146 24.0939 30.0935 25.1457C32.069 24.8548 33.916 24.004 35.4096 22.6969V22.6878Z" fill="#F37421"/>
<path d="M22.8957 26.5757C22.3227 27.8242 21.4721 28.9297 20.4069 29.8103C20.7044 31.7631 21.5688 33.5893 22.8957 35.0687C24.2201 33.5894 25.0841 31.7654 25.3846 29.8148C24.3188 28.9329 23.4682 27.8259 22.8957 26.5757Z" fill="#F37421"/>
<path d="M19.5726 15.9172C17.968 14.7407 16.0491 14.0531 14.0526 13.939C14.1691 15.9186 14.8645 17.8227 16.0548 19.4213C16.3283 19.3985 16.611 19.3848 16.8937 19.3848C18.0022 19.3796 19.1021 19.5763 20.1381 19.965C19.651 18.6809 19.4625 17.3054 19.5865 15.94" fill="#F37421"/>
<path d="M22.8957 10.3022C21.5665 11.7837 20.7019 13.6136 20.4069 15.5699C21.4721 16.4504 22.3227 17.5559 22.8957 18.8044C23.4674 17.5564 24.3165 16.4509 25.38 15.5699C25.0842 13.6147 24.2215 11.7854 22.8957 10.3022Z" fill="#F37421"/>
<path d="M15.7118 25.1593C16.5898 24.1066 17.6993 23.2646 18.9561 22.6969C17.7002 22.1276 16.5911 21.2858 15.7118 20.2344C13.7317 20.5263 11.8801 21.3785 10.3818 22.6877C11.8726 24.0016 13.7203 24.8575 15.6979 25.1502L15.7118 25.1593Z" fill="#F37421"/>
<path d="M25.1714 21.0066C24.9863 21.3529 24.7788 21.6871 24.5503 22.0071C24.9391 22.0715 25.3231 22.1616 25.6997 22.2767C26.9844 21.8452 28.1438 21.1131 29.0785 20.1431C27.7229 20.11 26.3798 20.4049 25.1667 21.002L25.1714 21.0066Z" fill="#FFCE07"/>
<path d="M25.709 23.099C25.3323 23.2135 24.9483 23.3036 24.5596 23.3685C24.7877 23.6873 24.9952 24.0199 25.1806 24.3645C26.393 24.9591 27.734 25.2539 29.0877 25.2234C28.153 24.2534 26.9937 23.5213 25.709 23.0898" fill="#FFCE07"/>
<path d="M24.5921 24.9539C24.2443 24.7689 23.9084 24.5629 23.5863 24.3372C23.5188 24.723 23.4274 25.1044 23.3129 25.4793C23.7446 26.7505 24.4825 27.8996 25.4634 28.8281C25.4968 27.4866 25.1994 26.1572 24.5967 24.9539H24.5921Z" fill="#FFCE07"/>
<path d="M22.2098 24.3371C21.887 24.5618 21.5512 24.7678 21.204 24.9539C20.6056 26.1569 20.3084 27.4839 20.3373 28.8235C21.3124 27.8912 22.0481 26.7432 22.4832 25.4747C22.3659 25.1005 22.2746 24.7189 22.2098 24.3325" fill="#FFCE07"/>
<path d="M23.577 21.0523C23.9028 20.8314 24.2418 20.63 24.5921 20.4492C25.1947 19.2476 25.4921 17.9196 25.4588 16.5796C24.4778 17.5081 23.7399 18.6572 23.3082 19.9284C23.424 20.3045 23.5153 20.6875 23.5817 21.0751L23.577 21.0523Z" fill="#FFCE07"/>
<path d="M21.1901 20.4492C21.5365 20.6366 21.8723 20.8425 22.1959 21.066C22.2623 20.6814 22.3536 20.3014 22.4693 19.9284C22.0346 18.6586 21.2971 17.5102 20.3188 16.5796C20.2925 17.9195 20.5913 19.2461 21.1901 20.4492Z" fill="#FFCE07"/>
<path d="M20.0732 22.2766C20.4499 22.1621 20.8339 22.072 21.2226 22.0071C20.9934 21.6875 20.7859 21.3532 20.6015 21.0066C19.4515 20.4357 18.1813 20.1399 16.8937 20.1431H16.713C17.642 21.111 18.7949 21.843 20.0732 22.2766Z" fill="#FFCE07"/>
<path d="M20.6108 24.3737C20.7984 24.0303 21.0057 23.6977 21.2318 23.3777C20.8431 23.3128 20.4592 23.2227 20.0824 23.1082C18.7998 23.5388 17.6421 24.2693 16.7083 25.2371C18.0648 25.2806 19.4105 24.9852 20.6201 24.3782L20.6108 24.3737Z" fill="#FFCE07"/>
</svg>
