<?xml version="1.0" encoding="UTF-8"?>
<!DOCTYPE svg PUBLIC "-//W3C//DTD SVG 1.1//EN" "http://www.w3.org/Graphics/SVG/1.1/DTD/svg11.dtd">
<!-- Creator: CorelDRAW 2019 (64-Bit) -->
<svg xmlns="http://www.w3.org/2000/svg" xml:space="preserve" width="1026px" height="178px" version="1.1" style="shape-rendering:geometricPrecision; text-rendering:geometricPrecision; image-rendering:optimizeQuality; fill-rule:evenodd; clip-rule:evenodd"
viewBox="0 0 359.84 62.41"
 xmlns:xlink="http://www.w3.org/1999/xlink"
 xmlns:xodm="http://www.corel.com/coreldraw/odm/2003">
 <defs>
  <style type="text/css">
   <![CDATA[
    .fil1 {fill:#2B2A29;fill-rule:nonzero}
    .fil0 {fill:#393185;fill-rule:nonzero}
   ]]>
  </style>
 </defs>
 <g id="Layer_x0020_1">
  <metadata id="CorelCorpID_0Corel-Layer"/>
  <g id="_3054049334048">
   <path class="fil0" d="M158.85 2.25c0.66,0.07 1.09,0.15 1.45,0.25 0.56,0.2 0.64,0.43 0.66,1.28 0.05,0.79 0.05,2.67 0.05,5.48 0,3.06 0,4.9 -0.02,5.82 -0.05,0.92 -0.18,1.17 -0.89,1.35 -0.31,0.08 -0.77,0.15 -1.36,0.2 -0.1,0.11 -0.1,0.67 0,0.74 0.9,0 1.74,-0.07 3.29,-0.07 1.87,0 2.99,0.07 3.81,0.07 0.1,-0.1 0.12,-0.63 0.02,-0.74 -0.69,-0.07 -1.2,-0.12 -1.71,-0.23 -0.74,-0.18 -0.87,-0.51 -0.89,-1.35 -0.05,-1.07 -0.05,-3.19 -0.05,-4.74 0,-0.03 0.05,-0.13 0.13,-0.13 0.58,-0.03 3.29,0 4.2,0.05 0.46,0.03 0.74,0.28 0.9,0.82 0.1,0.3 0.2,0.58 0.3,1.12 0.18,0.08 0.69,0.08 0.82,-0.05 -0.03,-0.72 -0.05,-1.56 -0.05,-2.45 0,-0.89 0.08,-1.97 0.15,-2.55 -0.13,-0.1 -0.69,-0.13 -0.87,-0.08 -0.07,0.43 -0.17,0.82 -0.3,1.12 -0.15,0.44 -0.36,0.77 -1.02,0.82 -0.82,0.05 -2.99,0.05 -4.13,0.05 -0.03,0 -0.13,-0.05 -0.13,-0.13 0,-1.76 0.02,-4.28 0.05,-5.76 0,-0.16 0.13,-0.44 0.3,-0.46 0.62,-0.08 3.42,-0.03 4.32,0 0.63,0.02 0.94,0.3 1.14,0.87 0.16,0.46 0.26,0.91 0.39,1.73 0.1,0.13 0.74,0.08 0.81,-0.05 0.05,-1.4 0.21,-2.98 0.39,-3.6 -0.03,-0.05 -0.06,-0.15 -0.13,-0.15 -0.51,0.08 -1.46,0.13 -2.45,0.13l-6.02 0c-1.35,0 -2.63,-0.08 -3.14,-0.08 -0.08,0.08 -0.13,0.64 -0.02,0.72zm18.49 4.61c-1.2,0 -2.42,0.44 -3.34,1.02 -1.3,0.9 -2.22,2.25 -2.22,4.26 0,2.63 1.35,5.46 5.08,5.46 1.07,0 2.27,-0.48 2.96,-0.94 1.58,-1 2.37,-2.71 2.37,-4.67 0,-2.86 -1.79,-5.13 -4.85,-5.13zm-0.87 1c2.17,0 3.55,1.99 3.55,4.95 0,1.55 -0.28,2.57 -0.97,3.21 -0.43,0.41 -1.02,0.54 -1.56,0.54 -2.04,0 -3.54,-2.04 -3.54,-5.05 0,-1.94 0.64,-2.86 1.3,-3.3 0.33,-0.22 0.82,-0.35 1.22,-0.35zm7.1 0.23c0.46,0.07 0.94,0.15 1.17,0.23 0.31,0.12 0.38,0.43 0.41,0.86 0.07,1.08 0,3.75 0,4.98 0.02,1.71 0.53,3.44 3.03,3.44 0.79,0 1.92,-0.38 3.37,-1.6 0.06,-0.06 0.16,0 0.16,0.05 0,0.38 0,1.14 0.02,1.42 0.03,0.11 0.11,0.23 0.16,0.23 0.51,-0.12 2.37,-0.66 3.32,-1.04 0.1,-0.1 0.12,-0.61 0.1,-0.74 -0.38,0.02 -0.69,0.08 -1.07,0.05 -0.41,-0.03 -0.54,-0.26 -0.56,-0.94l0.02 -5.77c0.03,-0.97 0.03,-1.76 0.08,-2.22 -0.59,0.15 -2.71,0.36 -4.07,0.36 -0.1,0.07 -0.17,0.53 -0.12,0.69 0.72,0.1 1.28,0.15 1.63,0.28 0.39,0.1 0.46,0.43 0.49,0.74 0.02,3.06 0.02,5.18 0,5.53 -0.03,0.26 -0.13,0.49 -0.28,0.62 -0.64,0.53 -1.33,0.79 -2.1,0.79 -1.3,0 -1.89,-0.67 -2.09,-1.48 -0.1,-0.41 -0.13,-1.25 -0.13,-2.61 0,-3.01 0.08,-4.33 0.15,-4.97 -0.63,0.2 -2.52,0.38 -3.54,0.41 -0.13,0.07 -0.18,0.53 -0.15,0.69zm12.73 8.54c-0.11,0.11 -0.11,0.64 0,0.74 0.3,0 1.22,-0.07 2.47,-0.07 1.4,0 2.12,0.07 2.5,0.07 0.1,-0.12 0.13,-0.63 0.08,-0.74 -0.41,-0.05 -0.79,-0.1 -1.07,-0.2 -0.36,-0.1 -0.46,-0.28 -0.49,-0.87 -0.05,-1.17 -0.05,-3.65 -0.05,-5.46 0,-0.53 0.1,-0.76 0.25,-0.92 0.59,-0.51 1.38,-0.81 2.12,-0.81 0.74,0 1.23,0.25 1.58,0.58 0.49,0.41 0.67,1.1 0.72,1.51 0.13,0.94 0.1,3.52 0.07,4.95 -0.02,0.66 -0.1,0.92 -0.45,1.04 -0.16,0.06 -0.57,0.13 -1.05,0.18 -0.1,0.11 -0.08,0.64 0,0.74 0.61,-0.02 1.35,-0.07 2.52,-0.07 1.33,0 2.1,0.07 2.45,0.07 0.13,-0.12 0.16,-0.61 0.08,-0.74 -0.51,-0.07 -0.87,-0.12 -1.28,-0.33 -0.17,-0.08 -0.25,-0.28 -0.25,-0.48 -0.05,-0.9 -0.05,-3.19 -0.05,-4.62 0,-1.23 -0.18,-2.25 -0.66,-3.01 -0.57,-0.84 -1.36,-1.33 -2.45,-1.33 -0.9,0 -2.15,0.56 -3.47,1.66 -0.05,0.03 -0.13,0 -0.13,-0.05 0,-0.43 0.02,-1.17 0.05,-1.45 0,-0.08 -0.08,-0.16 -0.1,-0.18 -0.64,0.35 -2.12,0.84 -3.14,0.94 -0.1,0.08 -0.18,0.43 -0.13,0.59 0.95,0.35 1.25,0.61 1.33,0.97 0.03,0.38 0.05,1.04 0.05,2.04 0,1.6 0,3.39 -0.05,4.18 -0.03,0.44 -0.18,0.79 -0.54,0.89 -0.3,0.08 -0.56,0.13 -0.91,0.18zm24.51 -0.56c-0.43,0.03 -0.87,0.05 -1.17,0 -0.26,-0.05 -0.46,-0.1 -0.49,-0.87 -0.02,-0.56 -0.02,-2.65 -0.02,-5.61 0,-3.95 0.05,-5.94 0.1,-7.32 0.03,-1.15 0.05,-1.53 0.28,-1.91 0.03,-0.08 -0.08,-0.33 -0.13,-0.36 -0.79,0.28 -2.47,0.66 -4.13,0.66 -0.15,0.08 -0.18,0.54 -0.1,0.69 0.48,0.05 1.15,0.16 1.48,0.26 0.38,0.13 0.48,0.33 0.53,0.81 0.05,0.64 0.05,1.46 0.05,4.44 0,0.05 -0.07,0.1 -0.1,0.1 -0.28,-0.02 -0.74,-0.1 -1.15,-0.1 -1.6,0 -3.54,0.74 -4.59,1.61 -1.15,0.94 -1.86,2.5 -1.86,4.11 0,1.43 0.41,2.73 1.15,3.62 0.69,0.87 1.71,1.35 2.78,1.35 0.87,0 2.42,-0.69 3.57,-1.5 0.05,0 0.13,0.02 0.13,0.1 0,0.38 0.02,1.04 0.05,1.25 0.02,0.18 0.1,0.33 0.18,0.33 0.64,-0.03 2.65,-0.66 3.31,-0.97 0.08,-0.1 0.16,-0.56 0.13,-0.69zm-6.27 -8.11c0.81,0 1.55,0.18 2.09,0.59 0.43,0.3 0.53,0.63 0.56,1.17 0.02,1.15 0,4.41 -0.05,5.03 0,0.17 -0.08,0.4 -0.21,0.53 -0.53,0.43 -1.22,0.69 -1.99,0.69 -1.93,0 -3.42,-1.43 -3.42,-4.18 0,-1.33 0.39,-2.43 1.1,-3.09 0.51,-0.51 1.2,-0.74 1.92,-0.74zm12.93 2.7c0,0.18 0.03,0.46 -0.03,0.69 0,0.08 -0.1,0.23 -0.15,0.26 -0.97,0.48 -3.98,1.2 -4.82,1.66 -0.13,0.17 -0.46,0.97 -0.46,1.45 0,0.89 0.36,1.68 0.87,2.24 0.41,0.39 0.92,0.64 1.4,0.64 0.66,0 1.73,-0.51 3.04,-1.32 0.02,-0.03 0.1,0 0.1,0.02 0.05,0.21 0.1,0.49 0.2,0.64 0.18,0.38 0.59,0.66 1.3,0.66 0.59,0 1.48,-0.23 2.1,-0.89 0.07,-0.08 0.12,-0.66 0.1,-0.77 -0.31,0.11 -0.49,0.13 -0.9,0.13 -0.76,0 -0.96,-0.48 -0.96,-1.02 0,-1.02 0.1,-2.98 0.1,-4.31 0,-0.92 -0.16,-1.81 -0.59,-2.53 -0.56,-0.84 -1.4,-1.35 -2.53,-1.35 -0.63,0 -2.24,0.64 -3.34,1.41 -0.15,0.15 -0.53,1.14 -0.58,1.5 -0.03,0.23 0.66,0.61 0.74,0.51 0.33,-0.82 0.79,-1.63 1.07,-1.84 0.12,-0.1 0.46,-0.25 1.02,-0.25 0.76,0 1.5,0.33 1.94,0.97 0.3,0.43 0.38,0.99 0.38,1.5zm-0.03 1.81c0,0.44 0,2.1 -0.05,2.63 -0.02,0.28 -0.1,0.49 -0.28,0.59 -0.41,0.28 -0.97,0.41 -1.3,0.41 -1.1,0 -1.78,-0.74 -1.78,-1.74 0,-0.28 0.15,-0.76 0.25,-0.81 0.46,-0.34 2.09,-0.85 3.04,-1.18 0.05,-0.02 0.12,0.08 0.12,0.1zm10.54 -3.97c0.03,-0.39 0.15,-1.05 0.23,-1.41 -0.38,0.05 -1.89,0.13 -3.11,0.13 -0.05,0 -0.11,-0.1 -0.11,-0.15 0,-1.79 0.08,-2.94 0.13,-3.37 -0.07,-0.03 -0.33,-0.03 -0.46,0.02 -0.28,0.34 -1.22,0.97 -1.63,1.18l0 2.17c0,0.07 -0.08,0.17 -0.1,0.17 -0.21,0.11 -0.84,0.23 -1.2,0.29 -0.1,0.12 -0.26,0.68 -0.23,0.84l1.38 0.1c0.1,0.03 0.15,0.15 0.15,0.23 0,1.02 -0.02,3.32 -0.02,4.77 0,1.63 0.02,2.3 0.35,2.91 0.44,0.81 1.25,1.22 2.25,1.22 0.81,0 1.88,-0.33 2.52,-1.12 0.05,-0.1 0.13,-0.71 0.08,-0.79 -0.51,0.31 -0.87,0.43 -1.58,0.43 -0.64,0 -1.28,-0.3 -1.51,-0.99 -0.1,-0.33 -0.15,-0.82 -0.15,-1.84 -0.03,-1.25 -0.03,-3.49 0,-4.69 0,-0.03 0.05,-0.13 0.1,-0.13 0.97,0 2.27,0.03 2.91,0.03zm4.9 -5.29c0,-0.23 -0.1,-0.56 -0.26,-0.74 -0.05,-0.07 -0.33,-0.2 -0.74,-0.2 -0.46,0 -0.99,0.26 -1.22,0.46 -0.13,0.13 -0.15,0.59 -0.13,0.74 0.08,0.51 0.28,0.87 0.66,1.05 0.16,0.1 1.02,0.02 1.15,-0.06 0.33,-0.25 0.54,-0.76 0.54,-1.25zm1.53 13.42c-0.59,-0.07 -0.74,-0.12 -1.07,-0.2 -0.39,-0.13 -0.54,-0.41 -0.54,-0.87 -0.02,-1.15 -0.02,-2.86 -0.02,-4.26 0,-1.55 0.02,-3.31 0.02,-4.46 -0.99,0.4 -2.55,0.71 -3.32,0.74 -0.1,0.07 -0.17,0.51 -0.1,0.61 0.51,0.18 0.95,0.33 1.23,0.61 0.15,0.18 0.18,0.38 0.18,0.54 0,0.51 0.02,1.43 0.02,2.42 0,1.4 0,3.09 -0.05,3.72 -0.05,0.59 -0.13,0.8 -0.46,0.92 -0.3,0.11 -0.66,0.18 -1.1,0.23 -0.1,0.11 -0.1,0.67 0,0.74 0.44,0 1.43,-0.07 2.5,-0.07 1.31,0 2.12,0.07 2.61,0.07 0.1,-0.07 0.18,-0.61 0.1,-0.74zm6.99 -9.77c-1.2,0 -2.43,0.44 -3.34,1.02 -1.3,0.9 -2.22,2.25 -2.22,4.26 0,2.63 1.35,5.46 5.07,5.46 1.07,0 2.27,-0.48 2.96,-0.94 1.58,-1 2.38,-2.71 2.38,-4.67 0,-2.86 -1.79,-5.13 -4.85,-5.13zm-0.87 1c2.17,0 3.55,1.99 3.55,4.95 0,1.55 -0.28,2.57 -0.97,3.21 -0.44,0.41 -1.02,0.54 -1.56,0.54 -2.04,0 -3.54,-2.04 -3.54,-5.05 0,-1.94 0.63,-2.86 1.3,-3.3 0.33,-0.22 0.81,-0.35 1.22,-0.35zm7.4 8.77c-0.1,0.11 -0.1,0.64 0,0.74 0.31,0 1.22,-0.07 2.47,-0.07 1.41,0 2.12,0.07 2.5,0.07 0.11,-0.12 0.13,-0.63 0.08,-0.74 -0.41,-0.05 -0.79,-0.1 -1.07,-0.2 -0.36,-0.1 -0.46,-0.28 -0.49,-0.87 -0.05,-1.17 -0.05,-3.65 -0.05,-5.46 0,-0.53 0.11,-0.76 0.26,-0.92 0.59,-0.51 1.38,-0.81 2.12,-0.81 0.74,0 1.22,0.25 1.58,0.58 0.48,0.41 0.66,1.1 0.71,1.51 0.13,0.94 0.1,3.52 0.08,4.95 -0.03,0.66 -0.1,0.92 -0.46,1.04 -0.15,0.06 -0.56,0.13 -1.05,0.18 -0.1,0.11 -0.07,0.64 0,0.74 0.62,-0.02 1.36,-0.07 2.53,-0.07 1.33,0 2.09,0.07 2.45,0.07 0.13,-0.12 0.15,-0.61 0.07,-0.74 -0.51,-0.07 -0.86,-0.12 -1.27,-0.33 -0.18,-0.08 -0.26,-0.28 -0.26,-0.48 -0.05,-0.9 -0.05,-3.19 -0.05,-4.62 0,-1.23 -0.18,-2.25 -0.66,-3.01 -0.56,-0.84 -1.35,-1.33 -2.45,-1.33 -0.89,0 -2.14,0.56 -3.47,1.66 -0.05,0.03 -0.13,0 -0.13,-0.05 0,-0.43 0.03,-1.17 0.05,-1.45 0,-0.08 -0.07,-0.16 -0.1,-0.18 -0.64,0.35 -2.11,0.84 -3.14,0.94 -0.1,0.08 -0.17,0.43 -0.12,0.59 0.94,0.35 1.25,0.61 1.32,0.97 0.03,0.38 0.05,1.04 0.05,2.04 0,1.6 0,3.39 -0.05,4.18 -0.02,0.44 -0.17,0.79 -0.53,0.89 -0.31,0.08 -0.56,0.13 -0.92,0.18z"/>
   <path class="fil0" d="M0.28 2.86c1.95,0.25 3.32,0.37 4.4,0.68 1.51,0.38 1.65,1.31 1.8,2.86 0.22,2.93 0.22,6.97 0.22,12.06 0,8.15 0,14.55 -0.29,16.29 -0.15,1.43 -0.44,2.3 -2.53,2.68 -1,0.24 -2.09,0.37 -3.67,0.49 -0.29,0.19 -0.29,1.62 0.07,1.81 2.31,0 5.91,-0.19 10.02,-0.19 3.53,0 7.57,0.19 9.3,0.19 0.29,-0.19 0.43,-1.56 0.14,-1.81 -1.73,-0.18 -3.24,-0.37 -4.25,-0.62 -2.16,-0.43 -2.45,-1.49 -2.52,-3.29 -0.15,-2.18 -0.15,-8.15 -0.15,-14.3 0,-5.41 -0.07,-10.63 0.15,-13.24 0.14,-1.93 0.43,-2.74 2.09,-3.11 0.86,-0.19 2.09,-0.31 3.67,-0.5 0.22,-0.31 0.15,-1.49 -0.07,-1.74 -1.8,0 -5.19,0.19 -8.94,0.19 -3.75,0 -7.85,-0.19 -9.37,-0.19 -0.21,0.19 -0.36,1.49 -0.07,1.74zm55.43 8.27c0.07,0.31 1.95,0.12 2.23,-0.13 0.08,-2.79 0.72,-7.39 1.16,-9.57 -3.25,-0.19 -8.08,-1.24 -14.2,-1.24 -6.13,0 -10.82,1.05 -14.64,2.86 -7.92,3.66 -11.46,10.38 -11.46,17.09 0,12.93 8.94,20.52 25.02,20.52 4.39,0 8.93,-0.93 11.02,-1.56 1.66,-0.87 4.76,-5.71 5.48,-8.39 -0.14,-0.43 -1.37,-0.99 -1.73,-0.99 -1.87,2.73 -3.6,4.85 -5.4,6.09 -1.81,1.43 -4.83,2.11 -7.93,2.11 -12.83,0 -19.25,-8.39 -19.25,-18.34 0,-10.5 5.99,-17.16 16.44,-17.16 3.46,0 6.56,0.38 8.93,1.37 2.67,1.12 3.61,2.36 4.33,7.34zm4.18 -8.27c1.87,0.19 3.1,0.37 4.11,0.62 1.58,0.5 1.8,1.06 1.87,3.11 0.15,1.93 0.15,6.53 0.15,13.37 0,7.46 0,11.93 -0.07,14.17 -0.15,2.24 -0.51,2.86 -2.53,3.3 -0.86,0.18 -2.16,0.37 -3.82,0.49 -0.29,0.25 -0.29,1.62 0,1.81 2.52,0 4.9,-0.19 9.3,-0.19 5.26,0 8.43,0.19 10.74,0.19 0.29,-0.25 0.36,-1.56 0.07,-1.81 -1.94,-0.18 -3.39,-0.31 -4.83,-0.56 -2.09,-0.43 -2.45,-1.24 -2.52,-3.29 -0.14,-2.61 -0.14,-7.77 -0.14,-11.56 0,-0.07 0.14,-0.32 0.36,-0.32 1.65,-0.06 9.29,0 11.89,0.13 1.3,0.06 2.09,0.68 2.52,1.99 0.29,0.74 0.58,1.43 0.87,2.73 0.5,0.19 1.94,0.19 2.3,-0.12 -0.07,-1.74 -0.14,-3.79 -0.14,-5.97 0,-2.17 0.22,-4.79 0.43,-6.22 -0.36,-0.24 -1.94,-0.31 -2.45,-0.18 -0.21,1.05 -0.5,1.99 -0.86,2.73 -0.44,1.06 -1.01,1.87 -2.89,1.99 -2.3,0.13 -8.43,0.13 -11.67,0.13 -0.08,0 -0.36,-0.13 -0.36,-0.31 0,-4.29 0.07,-10.45 0.14,-14.05 0,-0.38 0.36,-1.06 0.87,-1.12 1.73,-0.19 9.65,-0.07 12.18,0 1.8,0.06 2.66,0.74 3.24,2.11 0.43,1.12 0.72,2.24 1.08,4.23 0.29,0.31 2.09,0.18 2.31,-0.13 0.14,-3.42 0.57,-7.27 1.08,-8.76 -0.07,-0.13 -0.15,-0.38 -0.36,-0.38 -1.44,0.19 -4.11,0.32 -6.92,0.32l-17.01 0c-3.82,0 -7.43,-0.19 -8.87,-0.19 -0.21,0.19 -0.36,1.55 -0.07,1.74zm23.43 35.06c-0.29,0.25 -0.29,1.56 0,1.81 1.37,0 3.6,-0.19 7.71,-0.19 4.04,0 7.71,0.19 9.23,0.19 0.21,-0.25 0.36,-1.56 0.14,-1.81 -1.37,-0.12 -2.6,-0.31 -3.46,-0.49 -2.23,-0.5 -2.38,-1.18 -2.31,-2.24 0.15,-1.49 2.45,-6.72 3.9,-10.07 0.07,-0.19 0.43,-0.56 0.72,-0.56l12.75 0c0.15,0 0.58,0.25 0.65,0.43 1.3,2.8 3.46,8.02 4.33,10.7 0.21,0.56 0.14,1.18 -0.79,1.55 -1.09,0.31 -2.38,0.5 -3.97,0.68 -0.29,0.25 -0.14,1.56 0.07,1.81 1.52,-0.07 5.91,-0.19 9.45,-0.19 3.24,0 6.92,0.12 8.79,0.19 0.22,-0.25 0.43,-1.62 0.14,-1.81 -5.19,-0.56 -5.69,-0.87 -7.78,-5.03 -2.52,-5.16 -10.53,-24.83 -11.97,-28.36 -0.5,-1.17 -0.86,-2.29 -1.15,-3.22 -0.22,0 -0.94,0.06 -2.38,0.06 -1.22,0 -2.09,-0.06 -2.38,-0.06 -0.14,0.87 -0.65,2.23 -1.22,3.53 -1.59,3.97 -8.36,19.78 -12.04,27.3 -2.38,4.79 -3.24,5.22 -8.43,5.78zm22.56 -30.17c1.15,2.67 3.89,9.55 5.33,13.4 0.15,0.24 -0.07,0.48 -0.21,0.48 -0.73,0.07 -3.1,0.07 -4.83,0.07 -2.74,0 -5.05,0 -5.77,-0.07 -0.22,-0.06 -0.29,-0.18 -0.29,-0.42 1.23,-3.28 4.18,-10.29 5.41,-13.38 0.07,-0.14 0.29,-0.08 0.36,-0.08zm25.8 -4.89c1.95,0.25 3.32,0.37 4.4,0.68 1.51,0.38 1.66,1.31 1.8,2.86 0.22,2.93 0.22,6.97 0.22,12.06 0,8.15 0,14.55 -0.29,16.29 -0.15,1.43 -0.43,2.3 -2.52,2.68 -1.01,0.24 -2.09,0.37 -3.68,0.49 -0.29,0.19 -0.29,1.62 0.07,1.81 2.31,0 5.91,-0.19 10.02,-0.19 3.53,0 7.57,0.19 9.3,0.19 0.29,-0.19 0.43,-1.56 0.14,-1.81 -1.73,-0.18 -3.24,-0.37 -4.25,-0.62 -2.16,-0.43 -2.45,-1.49 -2.52,-3.29 -0.15,-2.18 -0.15,-8.15 -0.15,-14.3 0,-5.41 -0.07,-10.63 0.15,-13.24 0.14,-1.93 0.43,-2.74 2.09,-3.11 0.86,-0.19 2.09,-0.31 3.67,-0.5 0.22,-0.31 0.15,-1.49 -0.07,-1.74 -1.8,0 -5.19,0.19 -8.94,0.19 -3.74,0 -7.85,-0.19 -9.37,-0.19 -0.21,0.19 -0.36,1.49 -0.07,1.74z"/>
   <path class="fil0" d="M159.57 38.76c-0.13,0.11 -0.1,0.63 0,0.73 0.52,0 1.45,-0.07 2.54,-0.07 1.45,0 2.41,0.07 3.01,0.07 0.1,-0.07 0.15,-0.62 0.08,-0.73 -0.73,-0.07 -0.98,-0.12 -1.33,-0.2 -0.53,-0.12 -0.71,-0.37 -0.73,-0.93 -0.08,-1.35 -0.08,-4.25 -0.1,-6.68 0,-0.08 0.1,-0.23 0.15,-0.23 0.63,0 1.73,0.02 2.49,0.02 0.02,-0.37 0.15,-1.03 0.22,-1.33 -0.35,0.03 -0.98,0.08 -2.69,0.08 -0.07,0 -0.15,-0.13 -0.15,-0.18 0,-0.12 -0.02,-0.4 -0.02,-0.58 0.02,-1.88 0.07,-3.69 0.78,-4.45 0.32,-0.35 0.65,-0.45 1.03,-0.45 0.72,0 1.53,0.55 2.08,1.06 0.08,0.02 0.23,0.02 0.28,-0.03 0.2,-0.15 0.78,-1.13 0.85,-1.41 0.03,-0.05 0.03,-0.2 0,-0.27 -0.27,-0.48 -1,-0.81 -1.83,-0.81 -0.66,0 -1.61,0.35 -2.41,0.93 -2.07,1.49 -2.64,3.4 -2.67,6.04 0,0.02 -0.05,0.15 -0.1,0.17 -0.2,0.13 -0.83,0.33 -1.23,0.4 -0.1,0.13 -0.25,0.51 -0.25,0.73l1.43 0.08c0.07,0 0.15,0.18 0.15,0.23 -0.03,2.51 -0.03,5.39 -0.08,6.75 0,0.45 -0.1,0.73 -0.5,0.88l-1 0.18zm12.62 -9.62c-1.18,0 -2.39,0.42 -3.3,1 -1.28,0.88 -2.18,2.21 -2.18,4.2 0,2.59 1.33,5.38 5,5.38 1.06,0 2.24,-0.48 2.92,-0.93 1.55,-0.98 2.33,-2.67 2.33,-4.6 0,-2.82 -1.76,-5.05 -4.77,-5.05zm-0.86 0.98c2.14,0 3.5,1.96 3.5,4.87 0,1.54 -0.28,2.54 -0.96,3.17 -0.43,0.4 -1,0.53 -1.53,0.53 -2.01,0 -3.5,-2.01 -3.5,-4.98 0,-1.91 0.63,-2.81 1.29,-3.24 0.32,-0.23 0.8,-0.35 1.2,-0.35zm13.63 -0.98c-0.48,0 -0.88,0.17 -1.28,0.47 -0.58,0.41 -1.11,0.98 -1.59,1.59 -0.05,0.02 -0.12,0.02 -0.12,-0.05 0,-0.48 0.02,-1.59 0.05,-1.94 0,-0.05 -0.08,-0.1 -0.13,-0.1 -0.68,0.4 -2.16,0.83 -3.07,0.93 -0.07,0.05 -0.12,0.43 -0.12,0.55 1.13,0.41 1.33,0.71 1.38,1.06 0.03,0.3 0.03,1.06 0.03,1.99 0,1.73 -0.03,3.82 -0.08,4.22 -0.05,0.45 -0.2,0.6 -0.45,0.7 -0.28,0.1 -0.68,0.18 -0.98,0.2 -0.1,0.11 -0.08,0.63 0,0.73 0.45,-0.02 1.73,-0.07 2.51,-0.07 1.01,0 2.64,0.07 2.94,0.07 0.13,-0.1 0.15,-0.6 0.1,-0.73 -0.55,-0.05 -1.13,-0.12 -1.58,-0.25 -0.38,-0.12 -0.5,-0.37 -0.53,-0.8 -0.02,-0.5 -0.05,-3.09 -0.05,-4.8 0,-0.33 0.13,-0.71 0.2,-0.86 0.33,-0.53 0.83,-1.05 1.34,-1.05 0.57,0 1.15,0.37 1.63,0.78 0.02,0 0.18,-0.08 0.2,-0.11 0.25,-0.3 0.73,-1.28 0.78,-1.58 0.03,-0.1 0.03,-0.33 0,-0.4 -0.2,-0.35 -0.7,-0.55 -1.18,-0.55zm6.71 -4.55c0.68,0.1 1.13,0.15 1.51,0.27 0.5,0.13 0.65,0.4 0.7,1.11 0.03,0.45 0.05,3.12 0.05,5.55 0,2.19 -0.02,4.33 -0.02,5.18 -0.08,1.16 -0.15,1.61 -0.88,1.84 -0.35,0.07 -0.76,0.15 -1.36,0.22 -0.07,0.11 -0.07,0.63 0.03,0.73 0.5,0 1.86,-0.07 3.34,-0.07 1.61,0 2.79,0.07 3.27,0.07 0.1,-0.05 0.2,-0.6 0.1,-0.73 -0.76,-0.1 -1.13,-0.2 -1.51,-0.3 -0.63,-0.17 -0.73,-0.52 -0.78,-1.38 -0.02,-0.53 -0.02,-3.42 -0.02,-4.8 0,-0.03 0.02,-0.15 0.07,-0.15 0.25,-0.03 2.31,-0.03 4.27,-0.03 1.39,0 3.53,0 4,0.03 0.08,0 0.15,0.1 0.15,0.17 0,1.59 0,4.33 -0.02,5.06 -0.05,0.78 -0.2,1.03 -0.66,1.15 -0.4,0.13 -0.77,0.18 -1.43,0.25 -0.1,0.13 -0.1,0.63 0,0.73 0.66,-0.02 1.91,-0.07 3.19,-0.07 1.29,0 2.62,0.07 3.37,0.07 0.15,-0.07 0.18,-0.62 0.1,-0.73 -0.78,-0.07 -1.25,-0.15 -1.61,-0.27 -0.47,-0.15 -0.62,-0.43 -0.7,-1.13 -0.05,-0.86 -0.05,-3.62 -0.05,-5.81 0,-2.99 0,-4.48 0.05,-5.36 0.05,-0.9 0.15,-1.18 0.7,-1.35 0.33,-0.1 0.76,-0.18 1.31,-0.25 0.1,-0.11 0.08,-0.61 0,-0.71 -0.4,0 -1.86,0.08 -3.12,0.08 -1.33,0 -2.56,-0.1 -3.14,-0.1 -0.12,0.12 -0.15,0.62 -0.02,0.73 0.65,0.07 1.1,0.15 1.48,0.27 0.35,0.13 0.48,0.43 0.5,0.83 0.05,0.91 0.05,3.75 0.05,5.05 0,0.05 -0.07,0.16 -0.15,0.16 -0.22,0.02 -1.18,0.02 -3.94,0.05 -3.65,0 -4.1,-0.03 -4.28,-0.05 -0.07,-0.03 -0.12,-0.16 -0.12,-0.26 0,-2.46 -0.03,-3.74 0.02,-4.67 0.03,-0.81 0.2,-1.01 0.7,-1.16 0.28,-0.07 0.76,-0.15 1.21,-0.22 0.1,-0.08 0.1,-0.58 0.03,-0.71 -0.71,0 -1.46,0.08 -3.15,0.08 -1.35,0 -2.61,-0.08 -3.21,-0.08 -0.1,0.1 -0.13,0.6 -0.03,0.71zm21.85 0.95c0,-0.23 -0.1,-0.55 -0.25,-0.73 -0.05,-0.07 -0.33,-0.2 -0.73,-0.2 -0.45,0 -0.98,0.25 -1.21,0.45 -0.12,0.13 -0.15,0.58 -0.12,0.73 0.07,0.5 0.27,0.86 0.65,1.03 0.15,0.1 1,0.03 1.13,-0.05 0.33,-0.25 0.53,-0.75 0.53,-1.23zm1.51 13.22c-0.58,-0.07 -0.73,-0.12 -1.06,-0.2 -0.38,-0.12 -0.53,-0.4 -0.53,-0.85 -0.02,-1.13 -0.02,-2.82 -0.02,-4.2 0,-1.53 0.02,-3.27 0.02,-4.4 -0.98,0.4 -2.51,0.7 -3.27,0.73 -0.1,0.07 -0.17,0.5 -0.1,0.6 0.51,0.18 0.93,0.33 1.21,0.61 0.15,0.17 0.18,0.37 0.18,0.52 0,0.51 0.02,1.41 0.02,2.39 0,1.39 0,3.04 -0.05,3.67 -0.05,0.58 -0.12,0.78 -0.45,0.91 -0.3,0.1 -0.65,0.17 -1.08,0.22 -0.1,0.11 -0.1,0.66 0,0.73 0.43,0 1.41,-0.07 2.46,-0.07 1.28,0 2.09,0.07 2.57,0.07 0.1,-0.07 0.17,-0.6 0.1,-0.73zm5.8 -9.62c-0.93,-0.03 -2.43,0.55 -3.14,1.1 -0.98,0.76 -1.41,1.84 -1.41,2.92 0,2.03 1.03,3.12 2.32,3.57 0.05,0.02 0.07,0.1 0.02,0.15 -0.35,0.28 -1.28,0.83 -1.66,1.06 -0.02,0.07 -0.1,0.32 -0.1,0.42 0.08,0.53 0.61,1.23 1.59,1.56 0.02,0 0.02,0.08 0.02,0.08 -1.08,0.78 -2.14,1.58 -2.44,1.96 -0.1,0.15 -0.17,0.73 -0.17,0.95 0,0.81 0.42,1.71 1.2,2.34 0.83,0.63 1.81,0.91 3.02,0.91 0.9,0 1.84,-0.18 2.87,-0.71 1.88,-0.93 3.06,-2.51 3.06,-4.2 0,-1.35 -0.83,-2.13 -1.76,-2.46 -0.83,-0.3 -3.01,-0.4 -4.14,-0.5 -0.53,-0.05 -1.01,-0.28 -1.01,-0.76 0,-0.4 0.43,-0.63 0.65,-0.65 0.08,-0.03 0.41,-0.05 0.48,-0.05 0.7,-0.08 1.69,-0.3 2.67,-1.03 0.83,-0.66 1.48,-1.54 1.48,-3.27 0,-0.45 -0.13,-1.01 -0.2,-1.23 -0.03,-0.05 0.02,-0.13 0.05,-0.13 0.27,0.03 0.33,0.03 0.6,0.03 0.5,0 0.71,-0.13 0.88,-0.3 0.28,-0.28 0.63,-1.11 0.63,-1.41 -0.03,-0.05 -0.25,-0.2 -0.33,-0.18 -0.32,0.35 -0.6,0.55 -1.51,0.55 -0.55,0 -1.03,-0.1 -1.43,-0.25 -0.73,-0.27 -1.36,-0.47 -2.24,-0.47zm-0.8 0.93c1.86,0 2.49,1.66 2.49,3.16 0,1.01 -0.28,1.79 -0.68,2.19 -0.3,0.33 -0.78,0.45 -1.16,0.45 -1.73,0 -2.49,-1.68 -2.49,-3.29 0,-1.51 0.71,-2.51 1.84,-2.51zm1.06 14.83c-0.98,0 -1.89,-0.23 -2.59,-0.81 -0.58,-0.5 -0.83,-1.08 -0.83,-1.7 0,-0.71 0.42,-1.34 1.38,-1.97 0.23,-0.12 0.53,-0.25 0.9,-0.25 1.03,0 2.37,0.13 3.1,0.43 0.78,0.3 1.28,0.85 1.28,1.79 0,1.23 -0.91,2.51 -3.24,2.51zm5.38 -21.04c0.45,0.05 0.9,0.1 1.2,0.17 0.35,0.08 0.43,0.3 0.48,0.68 0.08,0.93 0.08,2.54 0.08,8.62 0,0.58 -0.03,3.57 -0.05,4.18 -0.03,0.7 -0.13,0.93 -0.56,1.08 -0.22,0.07 -0.48,0.12 -0.9,0.17 -0.1,0.11 -0.1,0.63 0,0.73 0.42,0 1.13,-0.07 2.41,-0.07 1.46,0 2.31,0.07 2.64,0.07 0.1,-0.1 0.15,-0.62 0.03,-0.73 -0.46,-0.05 -0.66,-0.1 -0.96,-0.15 -0.53,-0.17 -0.6,-0.37 -0.65,-1.18 -0.05,-0.7 -0.05,-3.84 -0.05,-5.58 0,-0.15 0.1,-0.45 0.3,-0.6 0.58,-0.43 1.33,-0.68 1.96,-0.68 1.63,0 2.21,1.13 2.34,1.81 0.17,1.16 0.12,3.67 0.1,4.9 -0.03,1.01 -0.13,1.18 -0.51,1.31 -0.25,0.07 -0.6,0.12 -1,0.17 -0.08,0.11 -0.08,0.63 0.02,0.73 0.33,-0.02 1.41,-0.07 2.39,-0.07 1.11,0 2.09,0.07 2.52,0.07 0.12,-0.05 0.17,-0.65 0.1,-0.73 -0.51,-0.07 -0.88,-0.1 -1.23,-0.3 -0.21,-0.12 -0.33,-0.32 -0.33,-0.63 -0.03,-1.1 -0.03,-3.29 -0.03,-4.67 0,-2.47 -1.13,-4.02 -3.11,-4.02 -0.91,0 -2.12,0.5 -3.42,1.5 -0.05,0.03 -0.13,0.03 -0.13,-0.02 0,-0.71 0,-3.97 0.03,-5.53 0.02,-1.71 0.07,-1.96 0.27,-2.37 0,-0.07 -0.1,-0.32 -0.17,-0.35 -0.78,0.35 -2.27,0.71 -3.77,0.83 -0.1,0.05 -0.13,0.58 0,0.66zm21.82 13.14c-0.93,0.76 -1.86,1.06 -2.87,1.06 -1.13,0 -1.98,-0.33 -2.74,-1.11 -0.6,-0.65 -0.98,-1.71 -1.03,-2.56 0,-0.13 0.05,-0.25 0.15,-0.28 2.11,-0.05 5.53,-0.25 6.59,-0.55 0.07,-0.05 0.22,-0.48 0.2,-0.58 -0.25,-0.07 -0.35,-0.17 -0.38,-0.27 -0.2,-1.41 -1.08,-3.57 -3.52,-3.57 -0.8,0 -1.93,0.32 -2.71,0.83 -1.28,0.85 -2.21,2.33 -2.21,4.55 0,1.43 0.4,2.96 1.43,3.99 0.75,0.78 1.76,1.21 3.07,1.21 1.15,0 2.89,-0.63 3.99,-1.89 0.05,-0.07 0.15,-0.5 0.13,-0.67 -0.03,-0.08 -0.08,-0.13 -0.1,-0.16zm-4.38 -6.91c1.36,0 2.19,1.43 2.32,2.69 0,0.1 -0.08,0.18 -0.13,0.23 -0.5,0.1 -3.47,0.2 -4.27,0.15 -0.08,0 -0.13,-0.13 -0.13,-0.18 0.13,-1.78 1.01,-2.89 2.21,-2.89zm12.17 -0.95c-0.48,0 -0.88,0.17 -1.28,0.47 -0.58,0.41 -1.11,0.98 -1.58,1.59 -0.05,0.02 -0.13,0.02 -0.13,-0.05 0,-0.48 0.02,-1.59 0.05,-1.94 0,-0.05 -0.08,-0.1 -0.13,-0.1 -0.67,0.4 -2.16,0.83 -3.06,0.93 -0.08,0.05 -0.13,0.43 -0.13,0.55 1.13,0.41 1.33,0.71 1.38,1.06 0.03,0.3 0.03,1.06 0.03,1.99 0,1.73 -0.03,3.82 -0.08,4.22 -0.05,0.45 -0.2,0.6 -0.45,0.7 -0.27,0.1 -0.68,0.18 -0.98,0.2 -0.1,0.11 -0.07,0.63 0,0.73 0.45,-0.02 1.74,-0.07 2.51,-0.07 1.01,0 2.64,0.07 2.95,0.07 0.12,-0.1 0.15,-0.6 0.1,-0.73 -0.56,-0.05 -1.13,-0.12 -1.59,-0.25 -0.37,-0.12 -0.5,-0.37 -0.52,-0.8 -0.03,-0.5 -0.06,-3.09 -0.06,-4.8 0,-0.33 0.13,-0.71 0.21,-0.86 0.32,-0.53 0.83,-1.05 1.33,-1.05 0.58,0 1.16,0.37 1.63,0.78 0.03,0 0.18,-0.08 0.2,-0.11 0.26,-0.3 0.73,-1.28 0.78,-1.58 0.03,-0.1 0.03,-0.33 0,-0.4 -0.2,-0.35 -0.7,-0.55 -1.18,-0.55zm6.92 -4.58c0.57,0.08 1,0.15 1.33,0.25 0.6,0.15 0.7,0.38 0.75,1.28 0.03,0.46 0.03,2.69 0.03,4.98 0,2.84 0,5.61 -0.03,6.09 -0.07,0.88 -0.25,1.2 -0.85,1.35 -0.46,0.13 -1.13,0.18 -1.91,0.25 -0.1,0.13 -0.08,0.66 0.02,0.73 1.03,0 2.29,-0.07 3.97,-0.07 2.62,0 4.43,0.1 6.54,0.1 1.26,0 1.41,-0.13 1.56,-0.4 0.38,-0.76 0.93,-2.67 1.06,-3.45 -0.11,-0.12 -0.61,-0.3 -0.73,-0.27 -0.33,0.75 -0.86,1.76 -1.26,2.21 -0.45,0.58 -0.78,0.8 -1.86,0.83 -1.03,0 -3.22,-0.03 -3.72,-0.15 -0.3,-0.1 -0.58,-0.46 -0.58,-0.96 -0.05,-1.21 -0.05,-3.87 -0.05,-5.03 0,-0.07 0.08,-0.2 0.13,-0.2 0.93,-0.02 3.01,-0.02 3.77,0.05 0.57,0.05 0.75,0.38 0.85,0.73 0.1,0.3 0.13,0.5 0.2,1.03 0.13,0.13 0.73,0.1 0.86,-0.02 -0.03,-0.63 -0.05,-1.36 -0.05,-2.29 0,-0.88 0.1,-1.86 0.17,-2.36 -0.1,-0.13 -0.68,-0.15 -0.83,-0.08 -0.07,0.38 -0.17,0.73 -0.27,1.01 -0.13,0.4 -0.31,0.7 -0.86,0.75 -0.9,0.08 -2.84,0.08 -3.84,0.05 -0.08,0 -0.13,-0.1 -0.13,-0.18 0,-1.13 0,-3.92 0.02,-5.32 0,-0.13 0.13,-0.43 0.31,-0.48 0.32,-0.03 3.36,-0.03 3.84,0 0.83,0.07 1.06,0.35 1.26,0.95 0.1,0.38 0.2,0.81 0.28,1.54 0.07,0.07 0.67,0.07 0.78,-0.05 0.07,-1.01 0.25,-2.69 0.45,-3.45 0,-0.02 -0.08,-0.1 -0.1,-0.12 -0.53,0.07 -1.84,0.1 -2.79,0.1l-4.96 0c-1.4,0 -2.71,-0.1 -3.34,-0.1 -0.1,0.12 -0.15,0.6 -0.02,0.7zm25.04 13.65c-0.43,0.03 -0.86,0.05 -1.16,0 -0.25,-0.05 -0.45,-0.1 -0.48,-0.85 -0.02,-0.56 -0.02,-2.62 -0.02,-5.53 0,-3.9 0.05,-5.86 0.1,-7.22 0.02,-1.13 0.05,-1.51 0.27,-1.89 0.03,-0.07 -0.07,-0.32 -0.12,-0.35 -0.78,0.28 -2.44,0.66 -4.08,0.66 -0.15,0.07 -0.17,0.52 -0.1,0.68 0.48,0.05 1.14,0.15 1.46,0.25 0.38,0.12 0.48,0.32 0.53,0.8 0.05,0.63 0.05,1.43 0.05,4.38 0,0.05 -0.07,0.1 -0.1,0.1 -0.28,-0.03 -0.73,-0.1 -1.13,-0.1 -1.59,0 -3.5,0.72 -4.53,1.58 -1.13,0.93 -1.83,2.46 -1.83,4.05 0,1.41 0.4,2.69 1.13,3.57 0.68,0.85 1.68,1.33 2.74,1.33 0.85,0 2.39,-0.68 3.52,-1.48 0.05,0 0.13,0.02 0.13,0.1 0,0.37 0.02,1.03 0.05,1.23 0.02,0.17 0.1,0.33 0.17,0.33 0.63,-0.03 2.62,-0.66 3.27,-0.96 0.08,-0.1 0.15,-0.55 0.13,-0.68zm-6.19 -7.99c0.81,0 1.53,0.17 2.06,0.57 0.43,0.31 0.53,0.63 0.56,1.16 0.02,1.13 0,4.35 -0.05,4.95 0,0.18 -0.08,0.41 -0.21,0.53 -0.52,0.43 -1.2,0.68 -1.96,0.68 -1.91,0 -3.37,-1.41 -3.37,-4.12 0,-1.31 0.38,-2.39 1.09,-3.04 0.5,-0.51 1.18,-0.73 1.88,-0.73zm6.79 0.12c0.45,0.08 0.93,0.15 1.16,0.23 0.3,0.12 0.37,0.43 0.4,0.85 0.07,1.06 0,3.7 0,4.91 0.02,1.68 0.53,3.39 2.99,3.39 0.78,0 1.89,-0.38 3.32,-1.58 0.05,-0.05 0.15,0 0.15,0.05 0,0.37 0,1.13 0.03,1.4 0.02,0.1 0.1,0.23 0.15,0.23 0.5,-0.13 2.34,-0.65 3.27,-1.03 0.1,-0.1 0.13,-0.6 0.1,-0.73 -0.38,0.03 -0.68,0.08 -1.05,0.05 -0.41,-0.02 -0.53,-0.25 -0.56,-0.93l0.03 -5.68c0.02,-0.96 0.02,-1.74 0.07,-2.19 -0.57,0.15 -2.67,0.35 -4,0.35 -0.1,0.08 -0.18,0.53 -0.13,0.68 0.71,0.1 1.26,0.15 1.62,0.28 0.37,0.1 0.45,0.43 0.47,0.73 0.03,3.01 0.03,5.1 0,5.45 -0.02,0.25 -0.12,0.48 -0.27,0.61 -0.63,0.53 -1.31,0.78 -2.07,0.78 -1.28,0 -1.86,-0.66 -2.06,-1.46 -0.1,-0.4 -0.13,-1.23 -0.13,-2.57 0,-2.96 0.08,-4.27 0.15,-4.9 -0.62,0.2 -2.48,0.38 -3.49,0.4 -0.13,0.08 -0.18,0.53 -0.15,0.68zm21.57 7.39c0.05,-0.07 0.13,-0.52 0.13,-0.73 0,-0.07 -0.11,-0.15 -0.13,-0.15 -0.96,0.88 -1.99,1.21 -2.87,1.21 -1.15,0 -2.08,-0.38 -2.84,-1.31 -0.63,-0.75 -0.93,-1.91 -0.93,-3.09 0,-1.71 0.81,-3.39 2.69,-3.39 1.28,0 2.24,0.8 2.77,1.33 0.05,0.02 0.2,0.02 0.25,0 0.23,-0.1 0.7,-0.65 0.85,-1.03 0.03,-0.1 0.05,-0.33 0.05,-0.4 -0.1,-0.26 -0.42,-0.48 -0.75,-0.66 -0.48,-0.2 -1.06,-0.37 -2.06,-0.37 -0.78,0 -2.14,0.37 -3.19,1.03 -1.69,1 -2.54,2.59 -2.54,4.45 0,1.25 0.35,2.46 0.98,3.37 0.83,1.13 1.98,1.73 3.59,1.73 1.06,0 2.77,-0.48 4,-1.99zm6.89 -4.85c0,0.18 0.02,0.45 -0.03,0.68 0,0.08 -0.1,0.23 -0.15,0.25 -0.95,0.48 -3.92,1.18 -4.75,1.64 -0.12,0.17 -0.45,0.95 -0.45,1.43 0,0.88 0.35,1.66 0.85,2.21 0.41,0.38 0.91,0.63 1.39,0.63 0.65,0 1.71,-0.5 2.99,-1.31 0.02,-0.02 0.1,0 0.1,0.03 0.05,0.2 0.1,0.48 0.2,0.63 0.18,0.37 0.58,0.65 1.28,0.65 0.58,0 1.46,-0.23 2.06,-0.88 0.08,-0.08 0.13,-0.65 0.1,-0.75 -0.3,0.1 -0.47,0.12 -0.88,0.12 -0.75,0 -0.95,-0.48 -0.95,-1 0,-1.01 0.1,-2.95 0.1,-4.25 0,-0.91 -0.15,-1.79 -0.58,-2.49 -0.55,-0.83 -1.38,-1.33 -2.49,-1.33 -0.63,0 -2.21,0.62 -3.29,1.38 -0.15,0.15 -0.53,1.13 -0.58,1.48 -0.03,0.23 0.65,0.6 0.73,0.5 0.33,-0.8 0.78,-1.6 1.05,-1.81 0.13,-0.1 0.46,-0.25 1.01,-0.25 0.75,0 1.48,0.33 1.91,0.96 0.3,0.43 0.38,0.98 0.38,1.48zm-0.03 1.79c0,0.42 0,2.06 -0.05,2.59 -0.02,0.27 -0.1,0.47 -0.27,0.57 -0.41,0.28 -0.96,0.41 -1.29,0.41 -1.08,0 -1.76,-0.73 -1.76,-1.71 0,-0.28 0.15,-0.76 0.26,-0.81 0.45,-0.32 2.06,-0.83 2.99,-1.15 0.05,-0.03 0.12,0.07 0.12,0.1zm10.39 -3.93c0.02,-0.37 0.15,-1.03 0.22,-1.38 -0.37,0.05 -1.86,0.13 -3.06,0.13 -0.05,0 -0.1,-0.1 -0.1,-0.15 0,-1.76 0.07,-2.89 0.12,-3.32 -0.07,-0.03 -0.33,-0.03 -0.45,0.02 -0.28,0.33 -1.21,0.96 -1.61,1.16l0 2.14c0,0.07 -0.08,0.17 -0.1,0.17 -0.2,0.1 -0.83,0.23 -1.18,0.28 -0.1,0.12 -0.25,0.68 -0.23,0.83l1.36 0.1c0.1,0.02 0.15,0.15 0.15,0.23 0,1 -0.03,3.26 -0.03,4.7 0,1.61 0.03,2.26 0.36,2.86 0.42,0.81 1.23,1.21 2.21,1.21 0.8,0 1.86,-0.33 2.49,-1.11 0.05,-0.1 0.12,-0.7 0.07,-0.78 -0.5,0.31 -0.85,0.43 -1.56,0.43 -0.62,0 -1.25,-0.3 -1.48,-0.98 -0.1,-0.33 -0.15,-0.8 -0.15,-1.81 -0.02,-1.23 -0.02,-3.44 0,-4.62 0,-0.03 0.05,-0.13 0.1,-0.13 0.96,0 2.24,0.02 2.87,0.02zm4.82 -5.2c0,-0.23 -0.1,-0.55 -0.25,-0.73 -0.05,-0.07 -0.32,-0.2 -0.73,-0.2 -0.45,0 -0.98,0.25 -1.2,0.45 -0.13,0.13 -0.15,0.58 -0.13,0.73 0.08,0.5 0.28,0.86 0.65,1.03 0.15,0.1 1.01,0.03 1.14,-0.05 0.32,-0.25 0.52,-0.75 0.52,-1.23zm1.51 13.22c-0.58,-0.07 -0.73,-0.12 -1.05,-0.2 -0.38,-0.12 -0.53,-0.4 -0.53,-0.85 -0.03,-1.13 -0.03,-2.82 -0.03,-4.2 0,-1.53 0.03,-3.27 0.03,-4.4 -0.98,0.4 -2.52,0.7 -3.27,0.73 -0.1,0.07 -0.18,0.5 -0.1,0.6 0.5,0.18 0.93,0.33 1.21,0.61 0.15,0.17 0.17,0.37 0.17,0.52 0,0.51 0.03,1.41 0.03,2.39 0,1.39 0,3.04 -0.05,3.67 -0.05,0.58 -0.13,0.78 -0.46,0.91 -0.3,0.1 -0.65,0.17 -1.08,0.22 -0.1,0.11 -0.1,0.66 0,0.73 0.43,0 1.41,-0.07 2.47,-0.07 1.28,0 2.08,0.07 2.56,0.07 0.1,-0.07 0.18,-0.6 0.1,-0.73zm6.89 -9.62c-1.18,0 -2.39,0.42 -3.29,1 -1.28,0.88 -2.19,2.21 -2.19,4.2 0,2.59 1.33,5.38 5,5.38 1.06,0 2.24,-0.48 2.92,-0.93 1.56,-0.98 2.34,-2.67 2.34,-4.6 0,-2.82 -1.76,-5.05 -4.78,-5.05zm-0.85 0.98c2.13,0 3.49,1.96 3.49,4.87 0,1.54 -0.28,2.54 -0.95,3.17 -0.43,0.4 -1.01,0.53 -1.54,0.53 -2.01,0 -3.49,-2.01 -3.49,-4.98 0,-1.91 0.63,-2.81 1.28,-3.24 0.33,-0.23 0.8,-0.35 1.21,-0.35zm7.29 8.64c-0.1,0.11 -0.1,0.63 0,0.73 0.3,0 1.2,-0.07 2.44,-0.07 1.38,0 2.08,0.07 2.46,0.07 0.1,-0.12 0.13,-0.62 0.07,-0.73 -0.4,-0.05 -0.77,-0.1 -1.05,-0.2 -0.35,-0.1 -0.45,-0.27 -0.48,-0.85 -0.05,-1.16 -0.05,-3.6 -0.05,-5.38 0,-0.53 0.1,-0.76 0.25,-0.91 0.58,-0.5 1.36,-0.8 2.09,-0.8 0.73,0 1.21,0.25 1.56,0.58 0.47,0.4 0.65,1.08 0.7,1.48 0.13,0.93 0.1,3.47 0.08,4.88 -0.03,0.65 -0.1,0.9 -0.46,1.03 -0.15,0.05 -0.55,0.12 -1.03,0.17 -0.1,0.11 -0.07,0.63 0,0.73 0.61,-0.02 1.34,-0.07 2.49,-0.07 1.31,0 2.06,0.07 2.42,0.07 0.12,-0.12 0.15,-0.6 0.07,-0.73 -0.5,-0.07 -0.85,-0.12 -1.26,-0.32 -0.17,-0.08 -0.25,-0.28 -0.25,-0.48 -0.05,-0.88 -0.05,-3.14 -0.05,-4.55 0,-1.21 -0.17,-2.21 -0.65,-2.97 -0.55,-0.83 -1.33,-1.3 -2.41,-1.3 -0.88,0 -2.12,0.55 -3.42,1.63 -0.05,0.02 -0.13,0 -0.13,-0.05 0,-0.43 0.03,-1.16 0.05,-1.43 0,-0.08 -0.07,-0.15 -0.1,-0.18 -0.63,0.35 -2.09,0.83 -3.09,0.93 -0.1,0.08 -0.18,0.43 -0.13,0.58 0.93,0.35 1.23,0.6 1.31,0.95 0.02,0.38 0.05,1.03 0.05,2.02 0,1.58 0,3.34 -0.05,4.12 -0.03,0.43 -0.18,0.78 -0.53,0.88 -0.3,0.07 -0.55,0.12 -0.9,0.17z"/>
   <g>
    <path class="fil1" d="M1.13 54.93c0,3.91 2.42,6.44 3.38,6.86 0.07,0 0.28,-0.26 0.27,-0.35 -1.71,-1.52 -2.62,-3.98 -2.62,-6.74 0,-3.22 1.2,-5.11 2.76,-6.53 0.03,-0.09 -0.17,-0.33 -0.24,-0.35 -1.94,1.36 -3.55,3.8 -3.55,7.11zm4.78 -4.68c0.33,0.05 0.58,0.09 0.77,0.13 0.36,0.09 0.49,0.22 0.52,0.73 0.04,0.52 0.04,2.21 0.04,3.08 0,1.29 0,2.48 -0.04,3.39 -0.05,0.5 -0.22,0.62 -0.48,0.69 -0.23,0.07 -0.52,0.12 -0.94,0.15 -0.06,0.04 -0.06,0.34 0,0.42l0.72 0c1.26,0.01 2.32,0.05 3.17,0.05 1.48,0 2.56,-0.34 3.46,-0.98 0.91,-0.62 1.85,-1.78 1.85,-3.78 0,-1.34 -0.45,-2.47 -1.37,-3.28 -0.77,-0.67 -1.84,-1.02 -3.1,-1.02 -1.34,0 -1.94,0.06 -2.81,0.06 -0.42,0 -1.44,-0.04 -1.75,-0.04 -0.04,0.04 -0.07,0.35 -0.04,0.4zm2.6 7.17c-0.03,-0.32 -0.03,-1.96 -0.03,-3.22 0,-1.21 -0.01,-3.19 0.02,-3.51 0.01,-0.13 0.1,-0.23 0.16,-0.26 0.14,-0.06 0.45,-0.07 0.74,-0.07 1.04,0 1.91,0.15 2.56,0.59 1.13,0.75 1.65,1.97 1.65,3.43 0,1.58 -0.45,2.53 -1.13,3.17 -0.67,0.62 -1.4,0.76 -2.11,0.76 -0.64,0 -1.26,-0.08 -1.57,-0.31 -0.2,-0.13 -0.27,-0.39 -0.29,-0.58zm12.7 -0.02c-0.54,0.44 -1.08,0.61 -1.66,0.61 -0.65,0 -1.14,-0.19 -1.57,-0.64 -0.35,-0.37 -0.57,-0.98 -0.6,-1.47 0,-0.07 0.03,-0.15 0.09,-0.16 1.22,-0.03 3.18,-0.15 3.79,-0.32 0.05,-0.03 0.13,-0.27 0.12,-0.33 -0.15,-0.05 -0.2,-0.1 -0.22,-0.16 -0.11,-0.81 -0.62,-2.06 -2.02,-2.06 -0.47,0 -1.12,0.19 -1.57,0.48 -0.74,0.49 -1.27,1.35 -1.27,2.62 0,0.83 0.23,1.71 0.82,2.3 0.44,0.45 1.02,0.7 1.77,0.7 0.66,0 1.66,-0.37 2.3,-1.09 0.03,-0.04 0.09,-0.29 0.07,-0.39 -0.01,-0.04 -0.04,-0.07 -0.05,-0.09zm-2.52 -3.98c0.78,0 1.26,0.83 1.33,1.55 0,0.06 -0.05,0.1 -0.07,0.13 -0.29,0.06 -2,0.12 -2.46,0.09 -0.05,0 -0.08,-0.07 -0.08,-0.1 0.08,-1.03 0.58,-1.67 1.28,-1.67zm8.51 3.98c-0.54,0.44 -1.08,0.61 -1.65,0.61 -0.65,0 -1.15,-0.19 -1.58,-0.64 -0.35,-0.37 -0.57,-0.98 -0.59,-1.47 0,-0.07 0.02,-0.15 0.08,-0.16 1.22,-0.03 3.19,-0.15 3.79,-0.32 0.05,-0.03 0.13,-0.27 0.12,-0.33 -0.15,-0.05 -0.2,-0.1 -0.22,-0.16 -0.11,-0.81 -0.62,-2.06 -2.02,-2.06 -0.47,0 -1.12,0.19 -1.57,0.48 -0.73,0.49 -1.27,1.35 -1.27,2.62 0,0.83 0.23,1.71 0.82,2.3 0.44,0.45 1.02,0.7 1.77,0.7 0.67,0 1.66,-0.37 2.3,-1.09 0.03,-0.04 0.09,-0.29 0.07,-0.39 -0.01,-0.04 -0.04,-0.07 -0.05,-0.09zm-2.52 -3.98c0.78,0 1.26,0.83 1.33,1.55 0,0.06 -0.04,0.1 -0.07,0.13 -0.29,0.06 -2,0.12 -2.46,0.09 -0.05,0 -0.08,-0.07 -0.08,-0.1 0.08,-1.03 0.58,-1.67 1.28,-1.67zm3.31 5c-0.07,0.04 -0.07,0.36 0,0.42 0.36,0 0.67,-0.05 1.42,-0.05 0.59,0 1.09,0.05 1.42,0.05 0.06,-0.06 0.09,-0.37 0.03,-0.42 -0.23,-0.05 -0.44,-0.08 -0.55,-0.11 -0.25,-0.05 -0.31,-0.23 -0.31,-0.41 -0.03,-0.69 -0.01,-2.45 -0.01,-3.39 0,-0.15 0.09,-0.26 0.19,-0.35 0.39,-0.3 0.85,-0.45 1.17,-0.45 0.85,0 1.13,0.63 1.21,1.07 0.09,0.44 0.08,2.35 0.03,3.03 -0.01,0.32 -0.07,0.43 -0.26,0.49 -0.17,0.06 -0.33,0.07 -0.58,0.12 -0.05,0.05 -0.05,0.37 0,0.42 0.26,0 0.92,-0.05 1.35,-0.05 0.62,0 1.06,0.03 1.46,0.05 0.06,-0.05 0.1,-0.37 0.04,-0.42 -0.28,-0.05 -0.43,-0.08 -0.62,-0.13 -0.13,-0.06 -0.23,-0.15 -0.23,-0.35 -0.03,-0.61 -0.01,-1.75 -0.01,-2.53 0,-0.44 -0.02,-0.77 -0.06,-1.05 0,-0.02 0,-0.08 0.03,-0.1 0.43,-0.36 0.89,-0.52 1.27,-0.52 0.9,0 1.22,0.64 1.29,1.12 0.09,0.43 0.06,1.94 0.04,2.72 -0.01,0.46 -0.04,0.63 -0.26,0.71 -0.16,0.05 -0.29,0.08 -0.55,0.13 -0.06,0.04 -0.04,0.37 0,0.42 0.36,-0.03 0.74,-0.05 1.46,-0.05 0.6,0 1.07,0.05 1.34,0.05 0.05,-0.03 0.1,-0.37 0.07,-0.42 -0.38,-0.06 -0.6,-0.09 -0.77,-0.19 -0.1,-0.06 -0.14,-0.2 -0.14,-0.31 0,-0.59 0,-1.93 -0.02,-2.72 0,-1.49 -0.68,-2.33 -1.79,-2.33 -0.55,0 -1.29,0.38 -2.04,0.97 -0.03,0.02 -0.08,0.03 -0.1,-0.01 -0.29,-0.55 -0.8,-0.96 -1.48,-0.96 -0.43,0 -1.14,0.28 -1.97,0.93 -0.03,0.03 -0.09,0 -0.09,-0.03 0,-0.22 0.02,-0.74 0.02,-0.84l-0.04 -0.07c-0.4,0.22 -1.15,0.46 -1.81,0.53 -0.06,0.03 -0.1,0.29 -0.06,0.35 0.27,0.09 0.52,0.18 0.68,0.32 0.13,0.12 0.13,0.32 0.13,0.41 0,0.97 0,2.47 -0.04,3.27 -0.02,0.31 -0.06,0.49 -0.31,0.56 -0.14,0.04 -0.29,0.07 -0.55,0.12zm16.11 -1.02c-0.54,0.44 -1.07,0.61 -1.65,0.61 -0.65,0 -1.14,-0.19 -1.58,-0.64 -0.35,-0.37 -0.56,-0.98 -0.59,-1.47 0,-0.07 0.03,-0.15 0.08,-0.16 1.22,-0.03 3.19,-0.15 3.8,-0.32 0.04,-0.03 0.13,-0.27 0.11,-0.33 -0.14,-0.05 -0.2,-0.1 -0.21,-0.16 -0.12,-0.81 -0.63,-2.06 -2.03,-2.06 -0.46,0 -1.12,0.19 -1.56,0.48 -0.74,0.49 -1.28,1.35 -1.28,2.62 0,0.83 0.23,1.71 0.83,2.3 0.43,0.45 1.01,0.7 1.76,0.7 0.67,0 1.67,-0.37 2.3,-1.09 0.03,-0.04 0.09,-0.29 0.08,-0.39 -0.02,-0.04 -0.05,-0.07 -0.06,-0.09zm-2.52 -3.98c0.78,0 1.26,0.83 1.33,1.55 0,0.06 -0.04,0.1 -0.07,0.13 -0.29,0.06 -2,0.12 -2.46,0.09 -0.04,0 -0.07,-0.07 -0.07,-0.1 0.07,-1.03 0.58,-1.67 1.27,-1.67zm10.01 4.68c-0.24,0.01 -0.49,0.03 -0.66,0 -0.15,-0.03 -0.26,-0.06 -0.28,-0.49 -0.01,-0.32 -0.01,-1.51 -0.01,-3.19 0,-2.24 0.03,-3.37 0.06,-4.15 0.01,-0.65 0.03,-0.87 0.16,-1.09 0.01,-0.04 -0.05,-0.18 -0.08,-0.2 -0.45,0.16 -1.4,0.38 -2.34,0.38 -0.09,0.04 -0.1,0.3 -0.06,0.39 0.28,0.03 0.65,0.08 0.84,0.14 0.22,0.07 0.28,0.19 0.3,0.47 0.03,0.36 0.03,0.82 0.03,2.51 0,0.03 -0.04,0.06 -0.05,0.06 -0.16,-0.01 -0.42,-0.06 -0.66,-0.06 -0.91,0 -2.01,0.42 -2.6,0.92 -0.65,0.53 -1.06,1.41 -1.06,2.33 0,0.81 0.24,1.54 0.65,2.05 0.4,0.49 0.97,0.77 1.58,0.77 0.49,0 1.38,-0.39 2.03,-0.86 0.03,0 0.07,0.02 0.07,0.06 0,0.22 0.01,0.59 0.03,0.71 0.01,0.1 0.06,0.19 0.1,0.19 0.36,-0.02 1.51,-0.38 1.88,-0.55 0.05,-0.06 0.09,-0.32 0.07,-0.39zm-3.56 -4.6c0.47,0 0.89,0.1 1.19,0.33 0.25,0.17 0.3,0.36 0.32,0.66 0.01,0.66 0,2.51 -0.03,2.86 0,0.1 -0.04,0.23 -0.12,0.3 -0.3,0.25 -0.69,0.39 -1.12,0.39 -1.1,0 -1.94,-0.81 -1.94,-2.37 0,-0.76 0.21,-1.38 0.62,-1.75 0.29,-0.29 0.68,-0.42 1.08,-0.42zm4.39 1.91c-0.07,0 -0.17,0.53 -0.19,0.72l0.02 0.13c0.3,0.01 2.69,-0.04 2.82,-0.1 0.07,-0.03 0.2,-0.52 0.21,-0.68l0 -0.15c-0.42,0.02 -2.18,0.08 -2.86,0.08zm7.34 -1.61c0.01,-0.22 0.08,-0.59 0.13,-0.8 -0.22,0.03 -1.08,0.08 -1.77,0.08 -0.03,0 -0.06,-0.06 -0.06,-0.09 0,-1.01 0.05,-1.66 0.07,-1.91 -0.04,-0.02 -0.18,-0.02 -0.26,0.01 -0.15,0.19 -0.69,0.55 -0.92,0.67l0 1.23c0,0.04 -0.05,0.1 -0.06,0.1 -0.12,0.06 -0.48,0.13 -0.68,0.16 -0.06,0.07 -0.14,0.39 -0.13,0.48l0.78 0.06c0.06,0.01 0.09,0.08 0.09,0.13 0,0.57 -0.02,1.88 -0.02,2.7 0,0.93 0.02,1.3 0.21,1.65 0.24,0.46 0.71,0.7 1.27,0.7 0.46,0 1.07,-0.19 1.43,-0.64 0.03,-0.06 0.07,-0.41 0.05,-0.45 -0.29,0.17 -0.5,0.25 -0.9,0.25 -0.36,0 -0.72,-0.18 -0.86,-0.57 -0.05,-0.19 -0.08,-0.46 -0.08,-1.04 -0.02,-0.71 -0.02,-1.98 0,-2.66 0,-0.02 0.03,-0.07 0.06,-0.07 0.55,0 1.28,0.01 1.65,0.01zm3.89 -0.93c-0.68,0 -1.38,0.25 -1.9,0.58 -0.74,0.51 -1.26,1.28 -1.26,2.42 0,1.49 0.77,3.1 2.88,3.1 0.61,0 1.29,-0.28 1.68,-0.54 0.9,-0.56 1.35,-1.53 1.35,-2.65 0,-1.62 -1.02,-2.91 -2.75,-2.91zm-0.49 0.57c1.23,0 2.01,1.13 2.01,2.81 0,0.88 -0.16,1.46 -0.55,1.82 -0.25,0.23 -0.58,0.3 -0.88,0.3 -1.16,0 -2.02,-1.16 -2.02,-2.86 0,-1.1 0.37,-1.62 0.74,-1.87 0.19,-0.13 0.46,-0.2 0.7,-0.2zm4.7 1.97c-0.07,0 -0.17,0.53 -0.19,0.72l0.02 0.13c0.3,0.01 2.69,-0.04 2.82,-0.1 0.07,-0.03 0.2,-0.52 0.21,-0.68l0 -0.15c-0.41,0.02 -2.18,0.08 -2.86,0.08zm7.55 -2.54c-0.46,0 -1.27,0.34 -1.95,0.74 -0.03,0.02 -0.09,0 -0.09,-0.03l0 -1.57c0,-2.44 0.06,-2.67 0.18,-2.84 0.01,-0.04 -0.05,-0.19 -0.09,-0.19 -0.49,0.17 -1.53,0.39 -2.27,0.44 -0.07,0.05 -0.09,0.3 -0.03,0.37 0.29,0.03 0.56,0.07 0.72,0.13 0.23,0.07 0.29,0.16 0.31,0.41 0.05,0.6 0.07,3.08 0.07,4.84 0,2.07 -0.02,2.79 -0.06,3.54 0,0.02 0.07,0.08 0.1,0.08 0.32,-0.08 0.51,-0.06 0.67,-0.01 0.39,0.1 0.81,0.19 1.29,0.19 0.57,0 1.53,-0.34 2.14,-0.8 0.76,-0.55 1.29,-1.45 1.29,-2.71 0,-0.5 -0.15,-1.28 -0.64,-1.83 -0.36,-0.44 -0.91,-0.76 -1.64,-0.76zm-0.78 0.83c0.52,0 1,0.16 1.41,0.68 0.26,0.38 0.46,0.9 0.46,1.71 0,0.66 -0.2,1.34 -0.52,1.7 -0.32,0.38 -0.68,0.51 -1.13,0.51 -0.39,0 -0.84,-0.09 -1.19,-0.38 -0.13,-0.13 -0.23,-0.24 -0.24,-0.79 -0.05,-0.6 -0.05,-2.58 -0.02,-2.9 0.03,-0.11 0.09,-0.17 0.15,-0.21 0.21,-0.15 0.71,-0.32 1.08,-0.32zm9.18 3.7c-0.54,0.44 -1.07,0.61 -1.65,0.61 -0.65,0 -1.15,-0.19 -1.58,-0.64 -0.35,-0.37 -0.57,-0.98 -0.59,-1.47 0,-0.07 0.02,-0.15 0.08,-0.16 1.22,-0.03 3.19,-0.15 3.79,-0.32 0.05,-0.03 0.13,-0.27 0.12,-0.33 -0.14,-0.05 -0.2,-0.1 -0.22,-0.16 -0.11,-0.81 -0.62,-2.06 -2.02,-2.06 -0.47,0 -1.12,0.19 -1.57,0.48 -0.73,0.49 -1.27,1.35 -1.27,2.62 0,0.83 0.23,1.71 0.83,2.3 0.43,0.45 1.01,0.7 1.76,0.7 0.67,0 1.67,-0.37 2.3,-1.09 0.03,-0.04 0.09,-0.29 0.07,-0.39 -0.01,-0.04 -0.04,-0.07 -0.05,-0.09zm-2.52 -3.98c0.78,0 1.26,0.83 1.33,1.55 0,0.06 -0.04,0.1 -0.07,0.13 -0.29,0.06 -2,0.12 -2.46,0.09 -0.05,0 -0.08,-0.07 -0.08,-0.1 0.08,-1.03 0.58,-1.67 1.28,-1.67zm7.41 -3.17c0.26,0.05 0.59,0.09 0.75,0.15 0.3,0.1 0.39,0.33 0.41,0.71 0.02,0.74 0,4.41 0.11,5.32 0.19,1.58 1.2,2.62 3.49,2.62 1.52,0 3.08,-0.59 3.5,-2.54 0.25,-1.02 0.2,-2.07 0.29,-5.04 0.01,-0.69 0.1,-0.96 0.52,-1.07 0.16,-0.06 0.39,-0.09 0.61,-0.15 0.06,-0.02 0.04,-0.36 0,-0.4 -0.25,0 -0.9,0.04 -1.55,0.04 -0.84,0 -1.48,-0.04 -1.74,-0.04 -0.05,0.04 -0.07,0.35 -0.01,0.4 0.32,0.06 0.53,0.08 0.74,0.13 0.47,0.09 0.63,0.28 0.65,1 0.06,1.48 0.03,3.1 -0.03,4.2 -0.13,2.29 -1.3,2.65 -2.5,2.65 -1.38,0 -2.22,-0.65 -2.51,-1.46 -0.16,-0.32 -0.24,-0.87 -0.27,-1.48 -0.03,-0.77 -0.05,-2.72 -0.02,-4.14 0.02,-0.5 0.1,-0.66 0.44,-0.77 0.17,-0.05 0.37,-0.07 0.68,-0.13 0.05,-0.04 0.05,-0.36 0,-0.4 -0.36,0 -1.03,0.04 -1.71,0.04 -0.68,0 -1.58,-0.04 -1.84,-0.04 -0.06,0.04 -0.07,0.36 -0.01,0.4zm9.74 8.17c-0.06,0.05 -0.06,0.36 0,0.42 0.17,0 0.69,-0.05 1.4,-0.05 0.8,0 1.2,0.05 1.42,0.05 0.06,-0.08 0.07,-0.37 0.04,-0.42 -0.23,-0.03 -0.45,-0.06 -0.61,-0.12 -0.2,-0.06 -0.26,-0.16 -0.27,-0.49 -0.03,-0.67 -0.03,-2.07 -0.03,-3.1 0,-0.3 0.06,-0.43 0.14,-0.52 0.34,-0.29 0.79,-0.46 1.21,-0.46 0.42,0 0.69,0.14 0.89,0.33 0.28,0.23 0.38,0.62 0.41,0.85 0.07,0.54 0.06,2 0.04,2.81 -0.01,0.38 -0.06,0.52 -0.26,0.59 -0.09,0.03 -0.32,0.08 -0.59,0.11 -0.06,0.05 -0.05,0.36 0,0.42 0.35,-0.02 0.76,-0.05 1.43,-0.05 0.75,0 1.19,0.05 1.39,0.05 0.07,-0.08 0.09,-0.35 0.04,-0.42 -0.29,-0.05 -0.49,-0.08 -0.72,-0.19 -0.1,-0.05 -0.15,-0.16 -0.15,-0.28 -0.02,-0.5 -0.02,-1.81 -0.02,-2.62 0,-0.69 -0.11,-1.27 -0.38,-1.7 -0.32,-0.48 -0.77,-0.76 -1.39,-0.76 -0.51,0 -1.22,0.32 -1.97,0.94 -0.03,0.02 -0.07,0 -0.07,-0.02 0,-0.25 0.01,-0.67 0.03,-0.83 0,-0.04 -0.04,-0.09 -0.06,-0.1 -0.36,0.2 -1.2,0.48 -1.78,0.53 -0.06,0.05 -0.1,0.25 -0.07,0.34 0.53,0.2 0.71,0.35 0.75,0.55 0.02,0.21 0.03,0.59 0.03,1.16 0,0.91 0,1.92 -0.03,2.37 -0.01,0.24 -0.1,0.45 -0.3,0.5 -0.18,0.05 -0.32,0.08 -0.52,0.11zm9.26 -7.62c0,-0.13 -0.06,-0.31 -0.15,-0.42 -0.03,-0.04 -0.19,-0.11 -0.42,-0.11 -0.26,0 -0.56,0.14 -0.69,0.26 -0.07,0.07 -0.09,0.33 -0.07,0.42 0.04,0.29 0.16,0.49 0.37,0.59 0.09,0.06 0.58,0.02 0.65,-0.03 0.19,-0.14 0.31,-0.43 0.31,-0.71zm0.87 7.62c-0.34,-0.05 -0.42,-0.08 -0.61,-0.12 -0.22,-0.07 -0.31,-0.23 -0.31,-0.49 -0.01,-0.65 -0.01,-1.62 -0.01,-2.42 0,-0.88 0.01,-1.88 0.01,-2.53 -0.56,0.23 -1.44,0.4 -1.88,0.42 -0.05,0.04 -0.1,0.29 -0.05,0.35 0.28,0.1 0.53,0.18 0.69,0.34 0.09,0.11 0.1,0.22 0.1,0.31 0,0.29 0.02,0.81 0.02,1.37 0,0.8 0,1.75 -0.03,2.11 -0.03,0.34 -0.08,0.45 -0.26,0.53 -0.18,0.05 -0.38,0.1 -0.63,0.13 -0.05,0.05 -0.05,0.37 0,0.42 0.25,0 0.81,-0.05 1.42,-0.05 0.74,0 1.2,0.05 1.48,0.05 0.06,-0.05 0.1,-0.35 0.06,-0.42zm0.08 -4.97c0.21,0.03 0.39,0.06 0.57,0.12 0.34,0.11 0.39,0.23 0.71,1.01 0.27,0.68 0.76,1.94 1.17,3.03 0.17,0.47 0.3,0.88 0.42,1.27 0.14,-0.03 0.5,-0.03 0.68,-0.02 0.1,-0.33 0.23,-0.75 0.48,-1.37 0.53,-1.33 0.98,-2.43 1.37,-3.29 0.16,-0.36 0.29,-0.54 0.56,-0.65 0.19,-0.05 0.35,-0.07 0.53,-0.1 0.04,-0.06 0.05,-0.37 0,-0.42 -0.18,0.02 -0.68,0.05 -1.19,0.05 -0.57,0 -1.14,-0.05 -1.3,-0.05 -0.06,0.03 -0.09,0.35 -0.06,0.42 0.26,0.03 0.46,0.06 0.65,0.13 0.16,0.08 0.26,0.19 0.12,0.65 -0.22,0.7 -0.84,2.29 -1.15,3.03 -0.01,0.01 -0.06,0.03 -0.07,0 -0.1,-0.23 -1.11,-2.91 -1.29,-3.47 -0.01,-0.05 -0.01,-0.18 0.12,-0.22 0.13,-0.05 0.35,-0.09 0.56,-0.12 0.05,-0.07 0.05,-0.37 -0.03,-0.42 -0.27,0.02 -0.79,0.05 -1.39,0.05 -0.63,0 -1.17,-0.05 -1.41,-0.05 -0.05,0.05 -0.09,0.34 -0.05,0.42zm11.64 3.95c-0.54,0.44 -1.07,0.61 -1.65,0.61 -0.65,0 -1.15,-0.19 -1.58,-0.64 -0.35,-0.37 -0.56,-0.98 -0.59,-1.47 0,-0.07 0.03,-0.15 0.08,-0.16 1.22,-0.03 3.19,-0.15 3.8,-0.32 0.04,-0.03 0.13,-0.27 0.11,-0.33 -0.14,-0.05 -0.2,-0.1 -0.22,-0.16 -0.11,-0.81 -0.62,-2.06 -2.02,-2.06 -0.47,0 -1.12,0.19 -1.56,0.48 -0.74,0.49 -1.28,1.35 -1.28,2.62 0,0.83 0.23,1.71 0.83,2.3 0.43,0.45 1.01,0.7 1.76,0.7 0.67,0 1.67,-0.37 2.3,-1.09 0.03,-0.04 0.09,-0.29 0.08,-0.39 -0.02,-0.04 -0.05,-0.07 -0.06,-0.09zm-2.52 -3.98c0.78,0 1.26,0.83 1.33,1.55 0,0.06 -0.04,0.1 -0.07,0.13 -0.29,0.06 -2,0.12 -2.46,0.09 -0.05,0 -0.07,-0.07 -0.07,-0.1 0.07,-1.03 0.57,-1.67 1.27,-1.67zm7 -0.55c-0.27,0 -0.5,0.11 -0.73,0.28 -0.34,0.23 -0.64,0.56 -0.92,0.91 -0.03,0.02 -0.07,0.02 -0.07,-0.03 0,-0.27 0.02,-0.91 0.03,-1.11 0,-0.03 -0.04,-0.06 -0.07,-0.06 -0.39,0.23 -1.25,0.48 -1.77,0.53 -0.04,0.03 -0.07,0.25 -0.07,0.32 0.65,0.23 0.77,0.41 0.8,0.61 0.01,0.17 0.01,0.61 0.01,1.14 0,1 -0.01,2.2 -0.04,2.44 -0.03,0.26 -0.12,0.34 -0.26,0.4 -0.16,0.06 -0.39,0.1 -0.57,0.12 -0.06,0.05 -0.04,0.36 0,0.42 0.26,-0.02 1,-0.05 1.45,-0.05 0.58,0 1.52,0.05 1.69,0.05 0.07,-0.06 0.09,-0.35 0.06,-0.42 -0.32,-0.03 -0.65,-0.08 -0.91,-0.15 -0.22,-0.07 -0.29,-0.22 -0.31,-0.46 -0.01,-0.29 -0.02,-1.78 -0.02,-2.77 0,-0.18 0.07,-0.4 0.11,-0.49 0.19,-0.3 0.48,-0.61 0.77,-0.61 0.33,0 0.66,0.22 0.94,0.45 0.01,0 0.1,-0.04 0.11,-0.05 0.15,-0.18 0.42,-0.74 0.45,-0.92 0.02,-0.05 0.02,-0.18 0,-0.23 -0.11,-0.2 -0.4,-0.32 -0.68,-0.32zm5.05 0.18c-0.11,-0.02 -0.34,-0.05 -0.58,-0.09 -0.24,-0.04 -0.6,-0.09 -0.94,-0.09 -1.41,0 -2.12,0.81 -2.12,1.71 0,0.77 0.42,1.29 1.59,1.87 0.9,0.43 1.17,0.71 1.17,1.23 0,0.49 -0.38,0.81 -0.97,0.81 -0.22,0 -0.51,-0.06 -0.72,-0.18 -0.38,-0.21 -0.65,-0.59 -0.86,-1.34 -0.07,-0.03 -0.37,0.07 -0.42,0.13 0.02,0.33 0.15,1.26 0.25,1.59 0.33,0.15 0.98,0.28 1.52,0.28 1.3,0 2.27,-0.74 2.27,-1.78 0,-0.7 -0.3,-1.19 -1.5,-1.74 -1.1,-0.52 -1.35,-0.81 -1.35,-1.3 0,-0.52 0.41,-0.84 0.9,-0.84 0.29,0 0.52,0.06 0.71,0.17 0.29,0.18 0.4,0.48 0.49,1.1 0.06,0.04 0.35,0.03 0.39,-0.03 0.04,-0.59 0.07,-1.07 0.17,-1.5zm3.06 -2.25c0,-0.13 -0.06,-0.31 -0.15,-0.42 -0.03,-0.04 -0.19,-0.11 -0.42,-0.11 -0.26,0 -0.56,0.14 -0.69,0.26 -0.07,0.07 -0.09,0.33 -0.07,0.42 0.04,0.29 0.16,0.49 0.37,0.59 0.09,0.06 0.58,0.02 0.65,-0.03 0.19,-0.14 0.31,-0.43 0.31,-0.71zm0.87 7.62c-0.34,-0.05 -0.42,-0.08 -0.61,-0.12 -0.22,-0.07 -0.31,-0.23 -0.31,-0.49 -0.01,-0.65 -0.01,-1.62 -0.01,-2.42 0,-0.88 0.01,-1.88 0.01,-2.53 -0.56,0.23 -1.44,0.4 -1.88,0.42 -0.06,0.04 -0.1,0.29 -0.06,0.35 0.29,0.1 0.54,0.18 0.7,0.34 0.09,0.11 0.1,0.22 0.1,0.31 0,0.29 0.02,0.81 0.02,1.37 0,0.8 0,1.75 -0.03,2.11 -0.03,0.34 -0.08,0.45 -0.26,0.53 -0.18,0.05 -0.38,0.1 -0.63,0.13 -0.05,0.05 -0.05,0.37 0,0.42 0.25,0 0.81,-0.05 1.42,-0.05 0.74,0 1.2,0.05 1.48,0.05 0.06,-0.05 0.1,-0.35 0.06,-0.42zm4.12 -4.62c0.01,-0.22 0.09,-0.59 0.13,-0.8 -0.22,0.03 -1.07,0.08 -1.77,0.08 -0.02,0 -0.05,-0.06 -0.05,-0.09 0,-1.01 0.04,-1.66 0.07,-1.91 -0.04,-0.02 -0.19,-0.02 -0.26,0.01 -0.16,0.19 -0.7,0.55 -0.93,0.67l0 1.23c0,0.04 -0.04,0.1 -0.06,0.1 -0.11,0.06 -0.47,0.13 -0.68,0.16 -0.05,0.07 -0.14,0.39 -0.13,0.48l0.79 0.06c0.05,0.01 0.08,0.08 0.08,0.13 0,0.57 -0.01,1.88 -0.01,2.7 0,0.93 0.01,1.3 0.2,1.65 0.25,0.46 0.71,0.7 1.27,0.7 0.47,0 1.08,-0.19 1.44,-0.64 0.03,-0.06 0.07,-0.41 0.04,-0.45 -0.29,0.17 -0.49,0.25 -0.9,0.25 -0.36,0 -0.72,-0.18 -0.85,-0.57 -0.06,-0.19 -0.09,-0.46 -0.09,-1.04 -0.01,-0.71 -0.01,-1.98 0,-2.66 0,-0.02 0.03,-0.07 0.06,-0.07 0.55,0 1.29,0.01 1.65,0.01z"/>
    <path class="fil1" d="M138.29 53.45c0.23,0.03 0.35,0.06 0.49,0.09 0.41,0.12 0.57,0.38 0.94,1.32 0.45,1.07 1.07,2.67 1.39,3.5 0.03,0.06 0.12,0.24 0.12,0.26 -0.54,1.14 -1.65,2.57 -2.13,3.17 -0.01,0.03 0,0.19 0.01,0.23 0.13,0.13 0.55,0.35 0.76,0.39l0.1 -0.06c0.1,-0.2 0.27,-0.5 0.45,-0.81 1.23,-2.14 2.38,-4.63 3.41,-7.32 0.13,-0.38 0.31,-0.58 0.57,-0.65 0.14,-0.06 0.3,-0.09 0.52,-0.12 0.04,-0.08 0.04,-0.36 -0.02,-0.42 -0.4,0.02 -0.82,0.05 -1.34,0.05 -0.51,0 -1.07,-0.05 -1.25,-0.05 -0.06,0.06 -0.1,0.34 -0.06,0.42 0.26,0.03 0.5,0.07 0.64,0.12 0.28,0.09 0.28,0.26 0.25,0.42 -0.1,0.72 -0.74,2.34 -1.19,3.3 -0.01,0.01 -0.04,0 -0.06,0 -0.1,-0.19 -1.05,-2.65 -1.3,-3.48 -0.01,-0.05 0,-0.2 0.12,-0.24 0.1,-0.05 0.31,-0.07 0.53,-0.12 0.04,-0.07 0.03,-0.37 -0.03,-0.42 -0.21,0 -0.85,0.05 -1.47,0.05 -0.63,0 -1.15,-0.05 -1.41,-0.05 -0.05,0.03 -0.08,0.34 -0.04,0.42zm9.27 0.12c0.27,0.04 0.54,0.09 0.67,0.13 0.17,0.07 0.22,0.24 0.23,0.49 0.05,0.61 0,2.13 0,2.82 0.02,0.97 0.31,1.96 1.72,1.96 0.45,0 1.09,-0.22 1.92,-0.92 0.03,-0.02 0.08,0 0.08,0.03 0,0.22 0,0.65 0.02,0.81 0.01,0.06 0.06,0.13 0.09,0.13 0.28,-0.07 1.34,-0.37 1.88,-0.59 0.06,-0.06 0.07,-0.35 0.06,-0.42 -0.22,0.02 -0.39,0.04 -0.61,0.03 -0.23,-0.01 -0.3,-0.14 -0.32,-0.54l0.02 -3.27c0.01,-0.55 0.01,-0.99 0.04,-1.25 -0.33,0.08 -1.54,0.2 -2.31,0.2 -0.06,0.04 -0.1,0.3 -0.07,0.39 0.41,0.06 0.73,0.09 0.93,0.16 0.22,0.06 0.26,0.24 0.27,0.42 0.02,1.73 0.02,2.93 0,3.14 -0.01,0.14 -0.07,0.27 -0.16,0.34 -0.36,0.31 -0.75,0.45 -1.18,0.45 -0.74,0 -1.08,-0.37 -1.19,-0.84 -0.06,-0.23 -0.07,-0.71 -0.07,-1.47 0,-1.71 0.04,-2.46 0.08,-2.82 -0.36,0.11 -1.43,0.21 -2.01,0.23 -0.07,0.04 -0.1,0.3 -0.09,0.39zm7.23 4.85c-0.06,0.05 -0.06,0.36 0,0.42 0.17,0 0.69,-0.05 1.4,-0.05 0.8,0 1.2,0.05 1.42,0.05 0.06,-0.08 0.07,-0.37 0.04,-0.42 -0.23,-0.03 -0.45,-0.06 -0.61,-0.12 -0.2,-0.06 -0.26,-0.16 -0.27,-0.49 -0.03,-0.67 -0.03,-2.07 -0.03,-3.1 0,-0.3 0.06,-0.43 0.14,-0.52 0.34,-0.29 0.79,-0.46 1.21,-0.46 0.42,0 0.69,0.14 0.89,0.33 0.28,0.23 0.38,0.62 0.41,0.85 0.07,0.54 0.06,2 0.04,2.81 -0.01,0.38 -0.06,0.52 -0.26,0.59 -0.09,0.03 -0.32,0.08 -0.59,0.11 -0.06,0.05 -0.05,0.36 0,0.42 0.35,-0.02 0.76,-0.05 1.43,-0.05 0.75,0 1.19,0.05 1.39,0.05 0.07,-0.08 0.09,-0.35 0.04,-0.42 -0.29,-0.05 -0.49,-0.08 -0.72,-0.19 -0.1,-0.05 -0.15,-0.16 -0.15,-0.28 -0.02,-0.5 -0.02,-1.81 -0.02,-2.62 0,-0.69 -0.11,-1.27 -0.38,-1.7 -0.32,-0.48 -0.77,-0.76 -1.39,-0.76 -0.51,0 -1.22,0.32 -1.97,0.94 -0.03,0.02 -0.07,0 -0.07,-0.02 0,-0.25 0.01,-0.67 0.03,-0.83 0,-0.04 -0.04,-0.09 -0.06,-0.1 -0.36,0.2 -1.2,0.48 -1.78,0.53 -0.06,0.05 -0.1,0.25 -0.07,0.34 0.53,0.2 0.71,0.35 0.75,0.55 0.02,0.21 0.03,0.59 0.03,1.16 0,0.91 0,1.92 -0.03,2.37 -0.01,0.24 -0.1,0.45 -0.3,0.5 -0.18,0.05 -0.32,0.08 -0.52,0.11zm13.9 -0.32c-0.24,0.01 -0.49,0.03 -0.66,0 -0.15,-0.03 -0.26,-0.06 -0.28,-0.49 -0.01,-0.32 -0.01,-1.51 -0.01,-3.19 0,-2.24 0.03,-3.37 0.06,-4.15 0.01,-0.65 0.02,-0.87 0.15,-1.09 0.02,-0.04 -0.04,-0.18 -0.07,-0.2 -0.45,0.16 -1.4,0.38 -2.34,0.38 -0.09,0.04 -0.1,0.3 -0.06,0.39 0.28,0.03 0.65,0.08 0.84,0.14 0.22,0.07 0.27,0.19 0.3,0.47 0.03,0.36 0.03,0.82 0.03,2.51 0,0.03 -0.04,0.06 -0.06,0.06 -0.15,-0.01 -0.42,-0.06 -0.65,-0.06 -0.91,0 -2.01,0.42 -2.6,0.92 -0.65,0.53 -1.06,1.41 -1.06,2.33 0,0.81 0.23,1.54 0.65,2.05 0.39,0.49 0.97,0.77 1.58,0.77 0.49,0 1.38,-0.39 2.03,-0.86 0.03,0 0.07,0.02 0.07,0.06 0,0.22 0.01,0.59 0.03,0.71 0.01,0.1 0.06,0.19 0.1,0.19 0.36,-0.02 1.5,-0.38 1.88,-0.55 0.04,-0.06 0.09,-0.32 0.07,-0.39zm-3.56 -4.6c0.47,0 0.89,0.1 1.19,0.33 0.25,0.17 0.3,0.36 0.32,0.66 0.01,0.66 0,2.51 -0.03,2.86 0,0.1 -0.04,0.23 -0.12,0.3 -0.3,0.25 -0.69,0.39 -1.13,0.39 -1.1,0 -1.93,-0.81 -1.93,-2.37 0,-0.76 0.21,-1.38 0.62,-1.75 0.29,-0.29 0.68,-0.42 1.08,-0.42zm9.25 3.9c-0.54,0.44 -1.07,0.61 -1.65,0.61 -0.65,0 -1.14,-0.19 -1.58,-0.64 -0.34,-0.37 -0.56,-0.98 -0.59,-1.47 0,-0.07 0.03,-0.15 0.09,-0.16 1.21,-0.03 3.18,-0.15 3.79,-0.32 0.04,-0.03 0.13,-0.27 0.11,-0.33 -0.14,-0.05 -0.2,-0.1 -0.21,-0.16 -0.12,-0.81 -0.63,-2.06 -2.03,-2.06 -0.46,0 -1.11,0.19 -1.56,0.48 -0.74,0.49 -1.28,1.35 -1.28,2.62 0,0.83 0.24,1.71 0.83,2.3 0.43,0.45 1.01,0.7 1.76,0.7 0.67,0 1.67,-0.37 2.31,-1.09 0.02,-0.04 0.08,-0.29 0.07,-0.39 -0.02,-0.04 -0.05,-0.07 -0.06,-0.09zm-2.52 -3.98c0.78,0 1.26,0.83 1.33,1.55 0,0.06 -0.04,0.1 -0.07,0.13 -0.29,0.06 -2,0.12 -2.46,0.09 -0.04,0 -0.07,-0.07 -0.07,-0.1 0.07,-1.03 0.58,-1.67 1.27,-1.67zm7.01 -0.55c-0.28,0 -0.51,0.11 -0.74,0.28 -0.34,0.23 -0.64,0.56 -0.91,0.91 -0.03,0.02 -0.08,0.02 -0.08,-0.03 0,-0.27 0.02,-0.91 0.03,-1.11 0,-0.03 -0.04,-0.06 -0.07,-0.06 -0.39,0.23 -1.24,0.48 -1.77,0.53 -0.04,0.03 -0.07,0.25 -0.07,0.32 0.65,0.23 0.77,0.41 0.8,0.61 0.01,0.17 0.01,0.61 0.01,1.14 0,1 -0.01,2.2 -0.04,2.44 -0.03,0.26 -0.12,0.34 -0.26,0.4 -0.16,0.06 -0.39,0.1 -0.57,0.12 -0.05,0.05 -0.04,0.36 0,0.42 0.26,-0.02 1,-0.05 1.45,-0.05 0.58,0 1.52,0.05 1.69,0.05 0.08,-0.06 0.09,-0.35 0.06,-0.42 -0.32,-0.03 -0.65,-0.08 -0.91,-0.15 -0.22,-0.07 -0.29,-0.22 -0.3,-0.46 -0.02,-0.29 -0.03,-1.78 -0.03,-2.77 0,-0.18 0.07,-0.4 0.11,-0.49 0.19,-0.3 0.48,-0.61 0.77,-0.61 0.33,0 0.67,0.22 0.94,0.45 0.02,0 0.1,-0.04 0.12,-0.05 0.14,-0.18 0.42,-0.74 0.45,-0.92 0.01,-0.05 0.01,-0.18 0,-0.23 -0.12,-0.2 -0.41,-0.32 -0.68,-0.32zm4.5 3.43c-0.08,-0.04 -0.42,0.05 -0.45,0.13 0.04,0.5 0.27,1.99 0.4,2.17 0.35,0.18 1.22,0.45 2.09,0.45 2.04,0 3.21,-1.26 3.21,-2.67 0,-1.06 -0.64,-1.67 -1.39,-2.15 -0.49,-0.29 -1.21,-0.63 -1.79,-1.01 -0.61,-0.42 -0.99,-0.84 -0.99,-1.65 0.02,-0.71 0.52,-1.47 1.52,-1.47 0.44,0 0.86,0.07 1.17,0.3 0.35,0.23 0.48,0.64 0.57,1.49 0.04,0.07 0.37,0.07 0.42,-0.01 0.06,-0.7 0.14,-1.51 0.24,-1.99 -0.6,-0.07 -1.2,-0.26 -2.2,-0.26 -1.57,0 -2.85,0.9 -2.85,2.45 0,1.3 0.87,2.01 2.16,2.75 1.3,0.76 1.9,1.21 1.9,2.17 0,1.08 -0.82,1.52 -1.55,1.52 -0.55,0 -1.06,-0.12 -1.42,-0.39 -0.49,-0.35 -0.78,-0.93 -1.04,-1.83zm11.34 1.1c-0.53,0.44 -1.07,0.61 -1.65,0.61 -0.65,0 -1.14,-0.19 -1.58,-0.64 -0.34,-0.37 -0.56,-0.98 -0.59,-1.47 0,-0.07 0.03,-0.15 0.09,-0.16 1.21,-0.03 3.18,-0.15 3.79,-0.32 0.04,-0.03 0.13,-0.27 0.12,-0.33 -0.15,-0.05 -0.21,-0.1 -0.22,-0.16 -0.12,-0.81 -0.62,-2.06 -2.03,-2.06 -0.46,0 -1.11,0.19 -1.56,0.48 -0.74,0.49 -1.27,1.35 -1.27,2.62 0,0.83 0.23,1.71 0.82,2.3 0.44,0.45 1.01,0.7 1.77,0.7 0.66,0 1.66,-0.37 2.3,-1.09 0.03,-0.04 0.08,-0.29 0.07,-0.39 -0.01,-0.04 -0.04,-0.07 -0.06,-0.09zm-2.52 -3.98c0.78,0 1.26,0.83 1.34,1.55 0,0.06 -0.05,0.1 -0.08,0.13 -0.29,0.06 -1.99,0.12 -2.46,0.09 -0.04,0 -0.07,-0.07 -0.07,-0.1 0.07,-1.03 0.58,-1.67 1.27,-1.67zm8.54 4.4c0.03,-0.04 0.07,-0.3 0.07,-0.42 0,-0.04 -0.05,-0.08 -0.07,-0.08 -0.55,0.5 -1.14,0.69 -1.65,0.69 -0.66,0 -1.2,-0.22 -1.63,-0.75 -0.37,-0.44 -0.54,-1.1 -0.54,-1.78 0,-0.99 0.46,-1.96 1.55,-1.96 0.74,0 1.29,0.47 1.59,0.77 0.03,0.02 0.12,0.02 0.15,0 0.13,-0.06 0.4,-0.37 0.49,-0.59 0.01,-0.06 0.03,-0.19 0.03,-0.23 -0.06,-0.15 -0.25,-0.28 -0.44,-0.38 -0.27,-0.11 -0.6,-0.22 -1.18,-0.22 -0.45,0 -1.23,0.22 -1.84,0.6 -0.97,0.58 -1.46,1.49 -1.46,2.56 0,0.72 0.2,1.42 0.56,1.94 0.48,0.65 1.14,1 2.07,1 0.61,0 1.59,-0.28 2.3,-1.15zm4.24 -4.02c0.02,-0.22 0.09,-0.59 0.13,-0.8 -0.22,0.03 -1.07,0.08 -1.76,0.08 -0.03,0 -0.06,-0.06 -0.06,-0.09 0,-1.01 0.04,-1.66 0.07,-1.91 -0.04,-0.02 -0.19,-0.02 -0.26,0.01 -0.16,0.19 -0.69,0.55 -0.93,0.67l0 1.23c0,0.04 -0.04,0.1 -0.05,0.1 -0.12,0.06 -0.48,0.13 -0.68,0.16 -0.06,0.07 -0.15,0.39 -0.13,0.48l0.78 0.06c0.06,0.01 0.08,0.08 0.08,0.13 0,0.57 -0.01,1.88 -0.01,2.7 0,0.93 0.01,1.3 0.2,1.65 0.25,0.46 0.71,0.7 1.28,0.7 0.46,0 1.07,-0.19 1.43,-0.64 0.03,-0.06 0.07,-0.41 0.04,-0.45 -0.29,0.17 -0.49,0.25 -0.9,0.25 -0.36,0 -0.72,-0.18 -0.85,-0.57 -0.06,-0.19 -0.09,-0.46 -0.09,-1.04 -0.01,-0.71 -0.01,-1.98 0,-2.66 0,-0.02 0.03,-0.07 0.06,-0.07 0.55,0 1.29,0.01 1.65,0.01zm2.78 -3c0,-0.13 -0.06,-0.31 -0.14,-0.42 -0.03,-0.04 -0.19,-0.11 -0.42,-0.11 -0.26,0 -0.57,0.14 -0.7,0.26 -0.07,0.07 -0.09,0.33 -0.07,0.42 0.04,0.29 0.16,0.49 0.37,0.59 0.09,0.06 0.58,0.02 0.66,-0.03 0.18,-0.14 0.3,-0.43 0.3,-0.71zm0.87 7.62c-0.33,-0.05 -0.42,-0.08 -0.61,-0.12 -0.22,-0.07 -0.3,-0.23 -0.3,-0.49 -0.02,-0.65 -0.02,-1.62 -0.02,-2.42 0,-0.88 0.02,-1.88 0.02,-2.53 -0.57,0.23 -1.45,0.4 -1.88,0.42 -0.06,0.04 -0.11,0.29 -0.06,0.35 0.29,0.1 0.53,0.18 0.69,0.34 0.09,0.11 0.1,0.22 0.1,0.31 0,0.29 0.02,0.81 0.02,1.37 0,0.8 0,1.75 -0.03,2.11 -0.03,0.34 -0.07,0.45 -0.26,0.53 -0.18,0.05 -0.38,0.1 -0.62,0.13 -0.06,0.05 -0.06,0.37 0,0.42 0.24,0 0.81,-0.05 1.41,-0.05 0.74,0 1.21,0.05 1.48,0.05 0.06,-0.05 0.1,-0.35 0.06,-0.42zm3.96 -5.55c-0.68,0 -1.37,0.25 -1.89,0.58 -0.74,0.51 -1.26,1.28 -1.26,2.42 0,1.49 0.77,3.1 2.88,3.1 0.61,0 1.29,-0.28 1.68,-0.54 0.89,-0.56 1.34,-1.53 1.34,-2.65 0,-1.62 -1.01,-2.91 -2.75,-2.91zm-0.49 0.57c1.23,0 2.01,1.13 2.01,2.81 0,0.88 -0.16,1.46 -0.55,1.82 -0.24,0.23 -0.58,0.3 -0.88,0.3 -1.16,0 -2.01,-1.16 -2.01,-2.86 0,-1.1 0.36,-1.62 0.74,-1.87 0.19,-0.13 0.46,-0.2 0.69,-0.2zm4.2 4.98c-0.06,0.05 -0.06,0.36 0,0.42 0.17,0 0.69,-0.05 1.4,-0.05 0.8,0 1.2,0.05 1.42,0.05 0.06,-0.08 0.07,-0.37 0.04,-0.42 -0.23,-0.03 -0.45,-0.06 -0.6,-0.12 -0.21,-0.06 -0.26,-0.16 -0.28,-0.49 -0.03,-0.67 -0.03,-2.07 -0.03,-3.1 0,-0.3 0.06,-0.43 0.15,-0.52 0.33,-0.29 0.78,-0.46 1.2,-0.46 0.42,0 0.69,0.14 0.89,0.33 0.28,0.23 0.38,0.62 0.41,0.85 0.07,0.54 0.06,2 0.04,2.81 -0.01,0.38 -0.05,0.52 -0.26,0.59 -0.08,0.03 -0.32,0.08 -0.59,0.11 -0.06,0.05 -0.04,0.36 0,0.42 0.35,-0.02 0.77,-0.05 1.43,-0.05 0.75,0 1.19,0.05 1.39,0.05 0.07,-0.08 0.09,-0.35 0.04,-0.42 -0.28,-0.05 -0.49,-0.08 -0.72,-0.19 -0.1,-0.05 -0.14,-0.16 -0.14,-0.28 -0.03,-0.5 -0.03,-1.81 -0.03,-2.62 0,-0.69 -0.1,-1.27 -0.38,-1.7 -0.32,-0.48 -0.77,-0.76 -1.39,-0.76 -0.5,0 -1.21,0.32 -1.97,0.94 -0.02,0.02 -0.07,0 -0.07,-0.02 0,-0.25 0.02,-0.67 0.03,-0.83 0,-0.04 -0.04,-0.09 -0.06,-0.1 -0.36,0.2 -1.2,0.48 -1.78,0.53 -0.06,0.05 -0.1,0.25 -0.07,0.34 0.54,0.2 0.71,0.35 0.75,0.55 0.02,0.21 0.03,0.59 0.03,1.16 0,0.91 0,1.92 -0.03,2.37 -0.01,0.24 -0.1,0.45 -0.3,0.5 -0.17,0.05 -0.32,0.08 -0.52,0.11zm13.02 -8.43c-1.07,0 -2.01,0.84 -2.5,1.44 0,0.07 0.16,0.37 0.22,0.36 0.52,-0.52 1.05,-0.83 1.69,-0.83 0.92,0 1.46,0.7 1.46,1.55 0,0.83 -0.52,1.51 -1.9,1.8 -0.05,0.03 -0.24,0.49 -0.2,0.55 0.22,-0.05 0.41,-0.05 0.52,-0.05 1.36,0 2.25,0.91 2.23,2.13 0,1.32 -0.93,1.88 -1.79,1.88 -0.57,0 -0.99,-0.09 -1.33,-0.3 -0.37,-0.23 -0.64,-0.58 -0.89,-1.12 -0.04,-0.01 -0.33,0.12 -0.34,0.19 0.02,0.33 0.14,0.8 0.26,1.07 0.14,0.29 0.24,0.39 0.44,0.51 0.29,0.14 0.71,0.23 1.26,0.23 0.83,0 1.54,-0.23 2.22,-0.67 0.82,-0.53 1.43,-1.4 1.43,-2.46 0,-1.34 -1.07,-1.98 -2.04,-2.28 -0.01,-0.02 -0.01,-0.06 0,-0.07 0.59,-0.41 1.27,-0.99 1.27,-1.94 -0.01,-1.09 -0.82,-1.99 -2.01,-1.99zm10.02 2.88c-0.68,0 -1.38,0.25 -1.9,0.58 -0.74,0.51 -1.26,1.28 -1.26,2.42 0,1.49 0.77,3.1 2.88,3.1 0.61,0 1.29,-0.28 1.68,-0.54 0.9,-0.56 1.35,-1.53 1.35,-2.65 0,-1.62 -1.02,-2.91 -2.75,-2.91zm-0.5 0.57c1.23,0 2.02,1.13 2.02,2.81 0,0.88 -0.16,1.46 -0.55,1.82 -0.25,0.23 -0.58,0.3 -0.89,0.3 -1.15,0 -2.01,-1.16 -2.01,-2.86 0,-1.1 0.36,-1.62 0.74,-1.87 0.19,-0.13 0.46,-0.2 0.69,-0.2zm4.14 4.97c-0.07,0.06 -0.06,0.37 0,0.43 0.31,0 0.84,-0.05 1.46,-0.05 0.84,0 1.39,0.05 1.74,0.05 0.06,-0.05 0.09,-0.37 0.04,-0.42 -0.42,-0.05 -0.56,-0.08 -0.76,-0.12 -0.31,-0.07 -0.41,-0.22 -0.42,-0.54 -0.05,-0.78 -0.05,-2.44 -0.06,-3.84 0,-0.05 0.06,-0.13 0.09,-0.13 0.36,0 0.99,0.01 1.43,0.01 0.01,-0.22 0.09,-0.59 0.13,-0.77 -0.2,0.02 -0.57,0.05 -1.55,0.05 -0.04,0 -0.09,-0.08 -0.09,-0.1 0,-0.08 -0.01,-0.24 -0.01,-0.34 0.01,-1.08 0.04,-2.13 0.45,-2.56 0.19,-0.2 0.37,-0.26 0.59,-0.26 0.42,0 0.88,0.32 1.2,0.61 0.05,0.01 0.13,0.01 0.16,-0.02 0.12,-0.08 0.45,-0.65 0.49,-0.81 0.02,-0.03 0.02,-0.11 0,-0.16 -0.16,-0.27 -0.58,-0.46 -1.05,-0.46 -0.38,0 -0.93,0.2 -1.39,0.54 -1.19,0.85 -1.52,1.95 -1.54,3.47 0,0.01 -0.03,0.09 -0.05,0.1 -0.12,0.07 -0.48,0.19 -0.71,0.23 -0.06,0.07 -0.15,0.29 -0.15,0.42l0.83 0.05c0.04,0 0.08,0.1 0.08,0.13 -0.01,1.44 -0.01,3.1 -0.04,3.88 0,0.26 -0.06,0.42 -0.29,0.51l-0.58 0.1zm10.18 -4.61c0.01,-0.22 0.08,-0.59 0.13,-0.8 -0.22,0.03 -1.08,0.08 -1.77,0.08 -0.03,0 -0.06,-0.06 -0.06,-0.09 0,-1.01 0.05,-1.66 0.07,-1.91 -0.04,-0.02 -0.18,-0.02 -0.26,0.01 -0.15,0.19 -0.69,0.55 -0.92,0.67l0 1.23c0,0.04 -0.05,0.1 -0.06,0.1 -0.12,0.06 -0.48,0.13 -0.68,0.16 -0.06,0.07 -0.14,0.39 -0.13,0.48l0.78 0.06c0.06,0.01 0.09,0.08 0.09,0.13 0,0.57 -0.02,1.88 -0.02,2.7 0,0.93 0.02,1.3 0.21,1.65 0.24,0.46 0.71,0.7 1.27,0.7 0.46,0 1.07,-0.19 1.43,-0.64 0.03,-0.06 0.08,-0.41 0.05,-0.45 -0.29,0.17 -0.5,0.25 -0.9,0.25 -0.36,0 -0.72,-0.18 -0.86,-0.57 -0.05,-0.19 -0.08,-0.46 -0.08,-1.04 -0.02,-0.71 -0.02,-1.98 0,-2.66 0,-0.02 0.03,-0.07 0.06,-0.07 0.55,0 1.28,0.01 1.65,0.01zm0.44 -3.97c0.26,0.03 0.52,0.06 0.7,0.11 0.2,0.04 0.24,0.17 0.27,0.39 0.05,0.53 0.05,1.46 0.05,4.96 0,0.33 -0.02,2.06 -0.03,2.4 -0.02,0.41 -0.07,0.54 -0.32,0.62 -0.13,0.05 -0.27,0.08 -0.52,0.11 -0.06,0.05 -0.06,0.36 0,0.42 0.25,0 0.65,-0.05 1.39,-0.05 0.84,0 1.33,0.05 1.52,0.05 0.06,-0.06 0.08,-0.37 0.01,-0.42 -0.26,-0.03 -0.37,-0.06 -0.55,-0.09 -0.3,-0.1 -0.35,-0.22 -0.37,-0.68 -0.03,-0.41 -0.03,-2.21 -0.03,-3.21 0,-0.09 0.05,-0.26 0.17,-0.35 0.33,-0.25 0.77,-0.39 1.13,-0.39 0.94,0 1.27,0.65 1.35,1.04 0.1,0.67 0.07,2.11 0.05,2.82 -0.01,0.58 -0.07,0.68 -0.29,0.75 -0.14,0.05 -0.34,0.08 -0.58,0.11 -0.04,0.05 -0.04,0.36 0.02,0.42 0.19,-0.02 0.81,-0.05 1.37,-0.05 0.64,0 1.2,0.05 1.45,0.05 0.07,-0.03 0.1,-0.38 0.06,-0.42 -0.29,-0.05 -0.51,-0.06 -0.71,-0.18 -0.12,-0.07 -0.19,-0.19 -0.19,-0.36 -0.01,-0.64 -0.01,-1.89 -0.01,-2.69 0,-1.42 -0.65,-2.32 -1.8,-2.32 -0.52,0 -1.21,0.29 -1.97,0.87 -0.02,0.02 -0.07,0.02 -0.07,-0.01 0,-0.41 0,-2.29 0.02,-3.19 0.01,-0.98 0.04,-1.12 0.16,-1.36 0,-0.04 -0.06,-0.18 -0.11,-0.2 -0.44,0.2 -1.3,0.41 -2.17,0.48 -0.05,0.03 -0.07,0.33 0,0.37zm12.57 7.57c-0.54,0.44 -1.08,0.61 -1.65,0.61 -0.66,0 -1.15,-0.19 -1.58,-0.64 -0.35,-0.37 -0.57,-0.98 -0.6,-1.47 0,-0.07 0.03,-0.15 0.09,-0.16 1.22,-0.03 3.19,-0.15 3.79,-0.32 0.05,-0.03 0.13,-0.27 0.12,-0.33 -0.15,-0.05 -0.2,-0.1 -0.22,-0.16 -0.11,-0.81 -0.62,-2.06 -2.02,-2.06 -0.47,0 -1.12,0.19 -1.57,0.48 -0.74,0.49 -1.27,1.35 -1.27,2.62 0,0.83 0.23,1.71 0.82,2.3 0.44,0.45 1.02,0.7 1.77,0.7 0.67,0 1.66,-0.37 2.3,-1.09 0.03,-0.04 0.09,-0.29 0.07,-0.39 -0.01,-0.04 -0.04,-0.07 -0.05,-0.09zm-2.52 -3.98c0.78,0 1.26,0.83 1.33,1.55 0,0.06 -0.05,0.1 -0.07,0.13 -0.29,0.06 -2,0.12 -2.46,0.09 -0.05,0 -0.08,-0.07 -0.08,-0.1 0.08,-1.03 0.58,-1.67 1.28,-1.67zm38.91 5c-0.06,0.05 -0.06,0.36 0,0.42 0.27,0 0.72,-0.05 1.55,-0.05 0.81,0 1.55,0.05 1.85,0.05 0.04,-0.06 0.07,-0.37 0.03,-0.42 -0.28,-0.03 -0.52,-0.08 -0.7,-0.12 -0.44,-0.12 -0.47,-0.27 -0.46,-0.52 0.03,-0.35 0.49,-1.56 0.78,-2.34 0.02,-0.05 0.09,-0.14 0.15,-0.14l2.56 0c0.03,0 0.11,0.06 0.13,0.11 0.26,0.65 0.69,1.86 0.87,2.49 0.04,0.13 0.03,0.27 -0.16,0.36 -0.22,0.07 -0.48,0.11 -0.8,0.16 -0.06,0.05 -0.03,0.36 0.02,0.42 0.3,-0.02 1.18,-0.05 1.89,-0.05 0.65,0 1.39,0.03 1.77,0.05 0.04,-0.06 0.08,-0.38 0.03,-0.42 -1.05,-0.13 -1.15,-0.21 -1.57,-1.18 -0.5,-1.2 -2.11,-5.77 -2.4,-6.6 -0.1,-0.27 -0.17,-0.53 -0.23,-0.75 -0.04,0 -0.19,0.02 -0.48,0.02 -0.24,0 -0.42,-0.02 -0.48,-0.02 -0.02,0.21 -0.13,0.52 -0.24,0.83 -0.32,0.92 -1.68,4.6 -2.42,6.35 -0.48,1.11 -0.65,1.22 -1.69,1.35zm4.53 -7.03c0.23,0.63 0.78,2.23 1.07,3.12 0.03,0.06 -0.02,0.11 -0.04,0.11 -0.15,0.02 -0.63,0.02 -0.97,0.02 -0.55,0 -1.02,0 -1.16,-0.02 -0.04,-0.01 -0.06,-0.04 -0.06,-0.09 0.25,-0.77 0.84,-2.4 1.09,-3.12 0.01,-0.03 0.05,-0.02 0.07,-0.02zm10.2 6.43c0.03,-0.04 0.07,-0.3 0.07,-0.42 0,-0.04 -0.06,-0.08 -0.07,-0.08 -0.55,0.5 -1.14,0.69 -1.65,0.69 -0.66,0 -1.2,-0.22 -1.63,-0.75 -0.37,-0.44 -0.54,-1.1 -0.54,-1.78 0,-0.99 0.46,-1.96 1.55,-1.96 0.74,0 1.29,0.47 1.59,0.77 0.03,0.02 0.12,0.02 0.14,0 0.14,-0.06 0.41,-0.37 0.5,-0.59 0.01,-0.06 0.03,-0.19 0.03,-0.23 -0.06,-0.15 -0.25,-0.28 -0.44,-0.38 -0.27,-0.11 -0.61,-0.22 -1.18,-0.22 -0.45,0 -1.23,0.22 -1.84,0.6 -0.97,0.58 -1.46,1.49 -1.46,2.56 0,0.72 0.2,1.42 0.56,1.94 0.48,0.65 1.14,1 2.07,1 0.61,0 1.59,-0.28 2.3,-1.15z"/>
    <path class="fil1" d="M321.52 53.8c0.02,-0.22 0.09,-0.59 0.13,-0.8 -0.22,0.03 -1.07,0.08 -1.76,0.08 -0.03,0 -0.06,-0.06 -0.06,-0.09 0,-1.01 0.04,-1.66 0.07,-1.91 -0.04,-0.02 -0.19,-0.02 -0.26,0.01 -0.16,0.19 -0.7,0.55 -0.93,0.67l0 1.23c0,0.04 -0.04,0.1 -0.05,0.1 -0.12,0.06 -0.48,0.13 -0.69,0.16 -0.05,0.07 -0.14,0.39 -0.12,0.48l0.78 0.06c0.05,0.01 0.08,0.08 0.08,0.13 0,0.57 -0.01,1.88 -0.01,2.7 0,0.93 0.01,1.3 0.2,1.65 0.25,0.46 0.71,0.7 1.27,0.7 0.47,0 1.08,-0.19 1.44,-0.64 0.03,-0.06 0.07,-0.41 0.04,-0.45 -0.29,0.17 -0.49,0.25 -0.9,0.25 -0.36,0 -0.72,-0.18 -0.85,-0.57 -0.06,-0.19 -0.09,-0.46 -0.09,-1.04 -0.01,-0.71 -0.01,-1.98 0,-2.66 0,-0.02 0.03,-0.07 0.06,-0.07 0.55,0 1.29,0.01 1.65,0.01zm0.45 7.34c0.09,0.05 0.29,0.13 0.38,0.11 0.83,-0.53 1.91,-1.92 1.88,-3.27 -0.02,-0.59 -0.23,-1.04 -0.38,-1.16 -0.04,-0.02 -0.23,-0.02 -0.27,0 -0.18,0.08 -0.82,0.7 -0.87,0.86 0.24,0.37 0.42,0.79 0.43,1.14 0.02,0.81 -0.52,1.61 -1.2,2.23 -0.01,0.01 0.01,0.07 0.03,0.09zm11.3 -2.71c-0.42,-0.06 -0.65,-0.07 -0.91,-0.13 -0.38,-0.09 -0.46,-0.35 -0.49,-0.84 -0.03,-0.55 -0.05,-3.17 -0.05,-3.94 0,-2.66 0.02,-3.02 0.08,-3.47 -0.02,-0.04 -0.13,-0.07 -0.19,-0.06 -0.49,0.28 -1.55,0.6 -2.3,0.68 -0.05,0.03 -0.07,0.32 -0.03,0.38 0.3,0 0.66,0.03 0.84,0.04 0.3,0.03 0.36,0.24 0.39,0.44 0.01,0.27 0.04,1.49 0.04,2.86 0,1.25 -0.01,2.46 -0.04,3.13 0,0.48 -0.09,0.71 -0.54,0.79 -0.24,0.05 -0.55,0.08 -0.88,0.11 -0.06,0.05 -0.06,0.37 0,0.42 0.38,0 1.13,-0.05 2.08,-0.05 0.93,0 1.55,0.05 1.94,0.05 0.06,-0.05 0.09,-0.37 0.06,-0.41zm2.4 1.14c2.96,-0.94 5.27,-3.22 5.27,-6.13 0,-1.87 -1.01,-3.43 -2.78,-3.43 -0.63,0 -1.27,0.22 -1.78,0.55 -0.87,0.59 -1.34,1.56 -1.34,2.56 0,1.55 1.07,2.65 2.23,2.65 0.56,0 1.44,-0.32 2.08,-0.73 0.03,-0.02 0.07,0.02 0.06,0.05 -0.58,1.58 -1.61,3.02 -3.92,4.09 -0.02,0.08 0.11,0.38 0.18,0.39zm2.09 -9.03c1.13,0 1.89,1.26 1.89,2.87 0,0.25 -0.01,0.51 -0.08,0.85 -0.03,0.1 -0.15,0.26 -0.26,0.34 -0.28,0.17 -0.67,0.3 -1.1,0.3 -1.05,0 -2,-0.72 -2,-2.37 0,-1.18 0.62,-1.99 1.55,-1.99zm9.04 -0.59c-0.22,0.16 -0.36,0.22 -0.72,0.22 -0.52,0.01 -1.3,-0.07 -1.61,-0.07 -0.13,-0.02 -0.23,0.1 -0.32,0.17 -0.29,0.4 -1.08,2.17 -1.33,3.04 -0.03,0.08 -0.01,0.37 0.03,0.43 0.39,0.28 1.52,0.74 2.35,1.32 0.94,0.66 1.21,1.19 1.21,2.05 0,0.99 -0.66,1.64 -1.65,1.64 -1.11,0 -1.87,-0.65 -2.27,-1.33 -0.03,-0.02 -0.17,0.03 -0.19,0.06 -0.11,0.15 -0.26,0.59 -0.26,0.75 0,0.14 0.1,0.36 0.2,0.46 0.32,0.35 0.93,0.71 1.9,0.71 1.53,0 3.4,-1.22 3.4,-3.05 0,-0.9 -0.35,-1.51 -1.17,-2.1 -0.71,-0.52 -2.03,-1.14 -2.69,-1.51 -0.05,-0.01 -0.09,-0.11 -0.06,-0.2 0.08,-0.3 0.33,-0.88 0.49,-1.19 0.03,-0.04 0.1,-0.13 0.19,-0.13 0.24,0.02 0.9,0.09 1.55,0.09 0.17,0 0.33,-0.06 0.49,-0.2 0.29,-0.26 0.56,-0.77 0.62,-1 0.02,-0.06 -0.13,-0.16 -0.16,-0.16zm7.86 -0.17c0.04,-0.08 -0.1,-0.36 -0.17,-0.39 -3.48,1.15 -5.63,3.74 -5.63,6.39 0,1.64 0.88,3.2 2.83,3.2 0.45,0 1.13,-0.2 1.54,-0.46 1,-0.62 1.55,-1.58 1.55,-2.82 0,-1.52 -1.06,-2.62 -2.23,-2.62 -0.52,0 -1.25,0.29 -1.91,0.62 -0.03,0.01 -0.08,-0.03 -0.05,-0.07 0.44,-1.13 1.48,-2.61 4.07,-3.85zm-3.01 4.11c1.04,0 1.92,0.81 1.92,2.46 0,1.28 -0.57,2.05 -1.46,2.05 -1.07,0 -1.97,-0.94 -1.97,-2.85 0,-0.27 0.03,-0.61 0.13,-0.93 0.06,-0.2 0.21,-0.36 0.35,-0.43 0.28,-0.19 0.68,-0.3 1.03,-0.3zm8.19 0.81c0,-3.92 -2.4,-6.43 -3.39,-6.88 -0.05,0.02 -0.29,0.28 -0.27,0.35 1.82,1.64 2.62,4.02 2.62,6.74 0,3.26 -1.17,5.08 -2.77,6.53 -0.01,0.07 0.19,0.33 0.26,0.35 1.94,-1.36 3.55,-3.76 3.55,-7.09zm-89.94 -4.45c0.26,0.05 0.6,0.09 0.75,0.15 0.31,0.1 0.4,0.33 0.41,0.71 0.03,0.74 0,4.41 0.12,5.32 0.18,1.58 1.2,2.62 3.48,2.62 1.52,0 3.09,-0.59 3.51,-2.54 0.24,-1.02 0.2,-2.07 0.29,-5.04 0.01,-0.69 0.1,-0.96 0.52,-1.07 0.16,-0.06 0.39,-0.09 0.6,-0.15 0.06,-0.02 0.05,-0.36 0,-0.4 -0.24,0 -0.89,0.04 -1.54,0.04 -0.84,0 -1.48,-0.04 -1.74,-0.04 -0.06,0.04 -0.07,0.35 -0.02,0.4 0.32,0.06 0.54,0.08 0.74,0.13 0.48,0.09 0.64,0.28 0.65,1 0.06,1.48 0.03,3.1 -0.03,4.2 -0.13,2.29 -1.3,2.65 -2.5,2.65 -1.37,0 -2.21,-0.65 -2.5,-1.46 -0.16,-0.32 -0.25,-0.87 -0.28,-1.48 -0.03,-0.77 -0.04,-2.72 -0.01,-4.14 0.01,-0.5 0.1,-0.66 0.43,-0.77 0.18,-0.05 0.38,-0.07 0.68,-0.13 0.06,-0.04 0.06,-0.36 0,-0.4 -0.36,0 -1.03,0.04 -1.71,0.04 -0.68,0 -1.57,-0.04 -1.83,-0.04 -0.06,0.04 -0.08,0.36 -0.02,0.4zm19.15 7.95c-0.32,-0.13 -0.35,-0.2 -0.36,-0.42 -0.03,-0.28 -0.02,-1.17 0,-1.61 0.01,-0.42 0.08,-0.6 0.36,-0.69 0.13,-0.04 0.3,-0.07 0.48,-0.1 0.05,-0.05 0.05,-0.39 0.01,-0.44 -0.29,0.02 -0.72,0.05 -1.58,0.05 -0.88,0 -1.58,-0.05 -2.02,-0.05 -0.06,0.05 -0.09,0.38 -0.02,0.42 0.45,0.06 0.71,0.09 0.97,0.15 0.42,0.11 0.51,0.29 0.54,0.76 0.01,0.5 0.01,1.03 -0.03,1.48 -0.03,0.25 -0.12,0.51 -0.32,0.61 -0.2,0.13 -0.56,0.19 -0.97,0.19 -2.62,0 -3.95,-1.93 -3.95,-4.42 0,-2.37 1.08,-3.98 3.34,-3.98 0.94,0 1.52,0.15 1.97,0.41 0.42,0.24 0.59,0.65 0.71,1.74 0.07,0.05 0.43,0.02 0.48,-0.05 0.01,-0.65 0.14,-1.76 0.26,-2.3 -0.87,-0.09 -1.7,-0.32 -2.87,-0.32 -1.13,0 -2.01,0.18 -2.82,0.55 -1.58,0.71 -2.55,2.2 -2.55,4.11 0,3.06 1.78,4.76 5.17,4.76 1.26,0 2.68,-0.4 3.15,-0.55 0.03,-0.04 0.06,-0.26 0.05,-0.3zm9.46 -6.02c0.02,0.07 0.39,0.03 0.45,-0.03 0.01,-0.65 0.14,-1.72 0.23,-2.23 -0.65,-0.04 -1.62,-0.29 -2.85,-0.29 -1.23,0 -2.17,0.25 -2.94,0.67 -1.59,0.85 -2.3,2.41 -2.3,3.98 0,3.01 1.8,4.77 5.02,4.77 0.89,0 1.8,-0.21 2.22,-0.36 0.33,-0.2 0.95,-1.33 1.1,-1.95 -0.03,-0.1 -0.28,-0.23 -0.35,-0.23 -0.38,0.63 -0.72,1.12 -1.09,1.41 -0.36,0.34 -0.96,0.5 -1.59,0.5 -2.57,0 -3.86,-1.96 -3.86,-4.27 0,-2.45 1.2,-4 3.3,-4 0.69,0 1.32,0.09 1.79,0.32 0.54,0.26 0.73,0.55 0.87,1.71z"/>
   </g>
  </g>
 </g>
</svg>
