<?xml version="1.0" encoding="utf-8"?>
<!-- Generator: Adobe Illustrator 25.3.1, SVG Export Plug-In . SVG Version: 6.00 Build 0)  -->
<svg version="1.1" id="Layer_1" xmlns="http://www.w3.org/2000/svg" xmlns:xlink="http://www.w3.org/1999/xlink" x="0px" y="0px"
	 viewBox="0 0 351 170" style="enable-background:new 0 0 351 170;" xml:space="preserve">
<style type="text/css">
	.st0{fill:#393185;}
	.st1{fill:#E71F26;}
	.st2{fill:#FFFFFF;}
</style>
<g>
	<path class="st0" d="M4.3,10C7,10,15.8,10.5,23,10.5c7.3,0,15.8-0.4,19.4-0.4c0.5,0.8,0.7,4.4,0,5.3c-3.7,0.4-6.1,0.7-8,1.2
		c-3.3,0.8-3.8,2.4-4.1,6.5C30,29,30.1,38.7,30.1,50.7c0,12.6,0.1,25.4,0.4,30.2c0.1,4.2,0.8,6.1,5.2,7.2c2,0.4,5.2,1,9.1,1.5
		c0.7,0.5,0.3,4.9-0.4,5.4c-3,0-12.8-0.4-20-0.4c-8,0-18.1,0.4-20.5,0.4C3,94.6,3,90.2,3.7,89.6c3.7-0.4,5.6-0.7,7.6-1.1
		c4.4-1.1,4.9-3,5.3-5.7c0.5-3.9,0.4-12,0.4-34.3c0-11.4,0.1-19.2-0.3-25.6c-0.3-3.7-0.7-5.2-3.5-6c-2.4-0.7-5-1.1-9.1-1.6
		C3.5,14.7,3.7,10.7,4.3,10z"/>
	<path class="st0" d="M117.6,17.1c-4.2-1.9-10.3-2.7-16.6-2.7c-19.3,0-29.5,14.4-29.5,36.6c0,18.5,10.5,38.6,35.4,38.6
		c7.5,0,12.1-2.4,14.1-3.8c3.1-2.3,7.1-7.8,11-14.1c1.1-0.1,4.1,1.6,4.5,2.9c-1.1,5.2-7.3,16.5-10.6,18.8
		c-3.8,1.5-13.5,3.8-21.8,3.8c-31.1,0-48-17-48-44.9c0-14.8,6.9-29.8,21.9-37.9C85.3,10.3,94.2,8,105.5,8c12.9,0,22.2,2.4,28.4,2.9
		c-0.8,5.4-1.9,15.6-2,22c-0.7,0.8-5.4,1.4-5.6,0.4C124.8,22.3,123.1,19.8,117.6,17.1z"/>
	<path class="st0" d="M147.1,10c3.1,0,11.2,0.4,18.2,0.4h33.9c4.6,0,11.2,0,14.1-0.4c0.4,0,0.8,0.8,0.8,1.1
		c-0.8,3.3-1.8,12.2-1.9,19.9c-0.7,1-5.3,1.4-6.1,0.5c-0.8-4.1-1.1-5.8-1.9-8.8c-1.4-3.4-2.4-4.8-6.4-4.9
		c-5.3-0.3-19.3-0.5-23.7-0.1c-0.8,0.1-1.6,1.8-1.6,2.4c0,9.8-0.3,19.2-0.1,29c0,0.4,0.4,0.8,0.5,0.8c8.7,0,18.1,0,22.8-0.4
		c2.4-0.1,3.3-1.9,4.2-4.8c0.5-1.5,1.1-3.3,1.5-5.8c1.4-0.4,5.3-0.3,6.7,0.5c-0.4,3.5-1,9.8-1,14.3c0,5.2,0.1,9.9,0.4,14.8
		c-1.1,0.7-4.6,0.8-6.3,0.1c-0.7-3-1.1-4.4-1.6-6.1c-1-3.3-2.2-4.6-5-4.8c-4.9-0.3-18-0.3-21.8-0.3c-0.4,0-0.5,0.4-0.5,0.7
		c0,8.4-0.1,18,0.1,23.5c0.1,4.1,1,5.6,5,6.4c3.5,0.7,6.7,1.1,10.6,1.5c0.7,0.7,0.5,4.8-0.4,5.4c-4.5,0-10.6-0.4-22.8-0.4
		c-9.8,0-13.9,0.4-18.8,0.4c-0.8-0.5-1-4.6-0.1-5.3c3.4-0.4,6.3-1,8-1.4c4.1-1.1,4.8-2,5-6.8c0.3-5,0.1-13.5,0.1-30.1
		c0-15.5,0-24.2-0.3-28.4c-0.1-4.5-1-5.6-3.9-6.4c-2-0.4-4.8-1-8-1.4C146,14.7,146.5,10.7,147.1,10z"/>
	<path class="st0" d="M227.4,76.4c6-14.3,19.2-48.4,22.2-57.3c1.1-3.1,2.3-6.7,2.7-8.8c0.7,0.1,2.4,0.1,5,0.1c3.3,0,4.8,0,5.4-0.1
		c0.7,2.7,1.5,5.3,2.4,8c2.7,7.6,17.8,47.3,23.1,59.4c4.4,9.7,5.4,10.5,15.8,11.8c0.8,0.5,0.3,4.8-0.3,5.4
		c-3.5-0.1-10.1-0.4-17.8-0.4c-8.2,0-17,0.4-19.7,0.4c-0.5-0.7-0.7-4.8,0-5.4c3-0.4,5.8-0.8,7.9-1.5c1.6-0.7,1.9-2.4,1.6-3.4
		c-1.8-5.7-5.3-15-7.5-20.3c-0.3-0.7-1.1-1-1.4-1c-2.4-0.1-8.7-0.1-13.7-0.1c-8.7,0-9.5,0-11,0.1c-0.7,0-1.6,1-1.6,1.2
		c-2.9,7.8-6.4,16.6-6.4,19.3c0,2.6,0.5,3.5,4.5,4.5c1.8,0.4,4.8,0.8,7.2,1.1c0.5,0.7,0.3,4.8-0.4,5.4c-2.7,0-9.8-0.4-18.9-0.4
		c-8.8,0-13.3,0.4-15.9,0.4c-0.5-0.7-0.5-4.8,0-5.4C220.8,88.2,222.7,87.4,227.4,76.4z M253.8,26.6c-2.3,7.2-7.2,19.7-9.8,27.9
		c0,0.4,0.1,0.8,0.5,1c1.5,0.1,6.8,0.1,10.7,0.1c3.4,0,7.2,0,9-0.1c0.4,0,0.8-0.7,0.7-1.4c-2.6-7.1-8-22.2-10.3-27.6
		C254.5,26.5,254.1,26.4,253.8,26.6z"/>
	<path class="st0" d="M307.8,10c2.7,0,11.6,0.4,18.8,0.4c7.3,0,15.8-0.4,19.4-0.4c0.5,0.8,0.7,4.4,0,5.3c-3.7,0.4-6.1,0.7-8,1.2
		c-3.3,0.8-3.8,2.4-4.1,6.5c-0.4,5.8-0.3,15.6-0.3,27.6c0,12.6,0.1,25.4,0.4,30.2c0.1,4.2,0.8,6.1,5.2,7.2c2,0.4,5.2,1,9.1,1.5
		c0.7,0.5,0.3,4.9-0.4,5.4c-3,0-12.8-0.4-20-0.4c-8,0-18.1,0.4-20.5,0.4c-0.8-0.4-0.8-4.9-0.1-5.4c3.7-0.4,5.6-0.7,7.6-1.1
		c4.4-1.1,4.9-3,5.3-5.7c0.5-3.9,0.4-12,0.4-34.3c0-11.4,0.1-19.2-0.3-25.6c-0.3-3.7-0.7-5.2-3.5-6c-2.4-0.7-5-1.1-9.1-1.6
		C307,14.7,307.3,10.7,307.8,10z"/>
</g>
<rect y="102" class="st1" width="351" height="36"/>
<g>
	<path class="st2" d="M54.4,111h4v10.9c0,1.7,0,2.8,0.2,3.3c0.2,0.8,0.6,1.5,1.2,2c0.7,0.5,1.5,0.7,2.7,0.7c1.1,0,2-0.2,2.6-0.7
		c0.6-0.5,0.9-1,1.1-1.7c0.1-0.7,0.2-1.8,0.2-3.4V111h4v10.5c0,2.4-0.1,4.1-0.3,5.1s-0.6,1.8-1.2,2.5s-1.4,1.2-2.4,1.6
		s-2.3,0.6-3.9,0.6c-1.9,0-3.4-0.2-4.4-0.7c-1-0.4-1.8-1-2.3-1.7s-1-1.4-1.1-2.2c-0.3-1.1-0.4-2.8-0.4-5.1V111z"/>
	<path class="st2" d="M83.2,131v-20h3.9l8.2,13.4V111h3.8v20h-4.1L87,118V131H83.2z"/>
	<path class="st2" d="M111.9,131v-20h4v20H111.9z"/>
	<path class="st2" d="M133.5,131l-7.2-20h4.4l5.1,14.8l4.9-14.8h4.3l-7.2,20H133.5z"/>
	<path class="st2" d="M155.6,131v-20h14.9v3.4h-10.8v4.4h10.1v3.4h-10.1v5.5h11.2v3.4H155.6z"/>
	<path class="st2" d="M182.8,131v-20h8.5c2.1,0,3.7,0.2,4.7,0.5s1.7,1,2.3,1.9s0.9,2,0.9,3.2c0,1.5-0.4,2.7-1.3,3.7s-2.2,1.6-4,1.9
		c0.9,0.5,1.6,1.1,2.2,1.7s1.3,1.7,2.3,3.3l2.4,3.9H196l-2.9-4.4c-1-1.6-1.8-2.5-2.1-2.9s-0.8-0.7-1.2-0.8s-1.1-0.2-2-0.2h-0.8v8.4
		H182.8z M186.9,119.5h3c1.9,0,3.2-0.1,3.6-0.2s0.9-0.4,1.1-0.8s0.4-0.9,0.4-1.5c0-0.7-0.2-1.2-0.5-1.6s-0.9-0.7-1.5-0.8
		c-0.3,0-1.3-0.1-3-0.1h-3.2V119.5z"/>
	<path class="st2" d="M210.6,124.5l3.9-0.4c0.2,1.3,0.7,2.3,1.4,2.9s1.7,0.9,2.9,0.9c1.3,0,2.3-0.3,2.9-0.8s1-1.2,1-1.9
		c0-0.5-0.1-0.9-0.4-1.2s-0.8-0.6-1.5-0.9c-0.5-0.2-1.6-0.5-3.2-0.9c-2.2-0.5-3.7-1.2-4.6-2c-1.2-1.1-1.8-2.4-1.8-4
		c0-1,0.3-2,0.9-2.9s1.4-1.6,2.5-2s2.4-0.7,3.9-0.7c2.5,0,4.4,0.6,5.7,1.7s1.9,2.6,2,4.4l-4,0.2c-0.2-1-0.5-1.8-1.1-2.2
		s-1.4-0.7-2.6-0.7c-1.2,0-2.1,0.2-2.8,0.7c-0.4,0.3-0.6,0.7-0.6,1.2c0,0.5,0.2,0.9,0.6,1.2c0.5,0.4,1.8,0.9,3.7,1.3
		s3.4,0.9,4.4,1.4s1.7,1.2,2.2,2s0.8,1.9,0.8,3.2c0,1.1-0.3,2.2-1,3.2s-1.5,1.7-2.7,2.2s-2.6,0.7-4.4,0.7c-2.5,0-4.5-0.6-5.8-1.8
		S210.9,126.8,210.6,124.5z"/>
	<path class="st2" d="M238.7,131v-20h4v20H238.7z"/>
	<path class="st2" d="M259.7,131v-16.7h-5.9V111h15.9v3.4h-5.9V131H259.7z"/>
	<path class="st2" d="M286.1,131v-8.4l-7.3-11.6h4.7l4.7,7.9l4.6-7.9h4.7l-7.4,11.6v8.4H286.1z"/>
</g>
<g>
	<g>
		<path d="M99.7,165.4h-4.8L87.8,153v12.4H83v-19.9h4.8l7,12.4v-12.4h4.8V165.4z"/>
		<path d="M119.9,161.7h-6.6l-1.1,3.7H107l7.3-19.9h4.5l7.4,19.9H121L119.9,161.7z M114.4,157.9h4.3l-2.1-6.9L114.4,157.9z"/>
		<path d="M149.2,162.9c-0.7,0.8-1.8,1.5-3.2,2s-3,0.8-4.7,0.8c-2.6,0-4.7-0.8-6.2-2.4s-2.4-3.8-2.5-6.7l0-1.7c0-2,0.3-3.7,1-5.1
			s1.7-2.6,3-3.4s2.8-1.2,4.5-1.2c2.5,0,4.4,0.6,5.8,1.7s2.2,2.8,2.4,5.1h-4.6c-0.2-1.1-0.5-1.9-1.1-2.4s-1.3-0.7-2.3-0.7
			c-1.2,0-2.1,0.5-2.8,1.5s-1,2.5-1,4.4v1.2c0,2,0.3,3.5,1,4.5s1.7,1.5,3.2,1.5c1.2,0,2.2-0.3,2.8-0.8V158h-3.3v-3.3h8.1V162.9z"/>
		<path d="M168.9,161.7h-6.6l-1.1,3.7h-5.1l7.3-19.9h4.5l7.4,19.9h-5.2L168.9,161.7z M163.5,157.9h4.3l-2.1-6.9L163.5,157.9z"/>
		<path d="M187.1,161.7h8.4v3.7h-13.2v-19.9h4.8V161.7z"/>
		<path d="M214.6,161.7h-6.6l-1.1,3.7h-5.1l7.3-19.9h4.5l7.4,19.9h-5.2L214.6,161.7z M209.2,157.9h4.3l-2.1-6.9L209.2,157.9z"/>
		<path d="M244.6,165.4h-4.8l-7.1-12.4v12.4H228v-19.9h4.8l7,12.4v-12.4h4.8V165.4z"/>
		<path d="M253.3,165.4v-19.9h6.4c1.8,0,3.3,0.4,4.7,1.2s2.5,1.9,3.3,3.4s1.2,3.1,1.2,4.9v0.9c0,1.8-0.4,3.5-1.2,4.9
			s-1.9,2.6-3.3,3.4s-3,1.2-4.7,1.2H253.3z M258.1,149.2v12.5h1.7c1.4,0,2.4-0.5,3.2-1.5s1.1-2.4,1.1-4.4V155c0-1.9-0.4-3.4-1.1-4.3
			s-1.8-1.5-3.2-1.5H258.1z"/>
	</g>
</g>
</svg>
