<svg width="226" height="64" viewBox="0 0 226 64" fill="none" xmlns="http://www.w3.org/2000/svg">
<g clip-path="url(#clip0_2032_2245)">
<path fill-rule="evenodd" clip-rule="evenodd" d="M170.022 26.6422V14.4967V26.6422ZM170.022 14.4967H166.526V26.6422H170.022V14.4967ZM150.836 19.6943C150.836 17.464 151.433 17.1198 153.847 17.1198H159.869V21.1925C159.869 23.2628 159.365 23.7476 157.202 23.7476H153.871C151.433 23.7476 150.836 23.3549 150.836 21.1731V19.704V19.6943ZM157.294 26.6422C161.939 26.6422 163.297 25.2167 163.297 21.2604V10.1476H159.869V14.1719H153.435C148.766 14.1719 147.408 15.5973 147.408 19.578V21.2604C147.408 25.2167 148.766 26.6422 153.435 26.6422H157.294ZM118.599 25.7452C118.943 26.458 119.564 26.9864 120.461 26.9864C121.358 26.9864 122.027 26.458 122.347 25.7452L127.568 14.1767H124.165L120.393 22.5743L117.008 15.1222C116.616 14.2495 116.111 13.8373 115.147 13.8373C114.182 13.8373 113.673 14.298 113.261 15.1222L109.697 22.5743L106.109 14.1767H102.633L107.627 25.7452C107.951 26.5064 108.431 26.9864 109.469 26.9864C110.39 26.9864 111.011 26.5016 111.379 25.7452L115.084 18.0604L118.604 25.7452H118.599ZM96.1357 26.6422V19.4422C96.1357 17.464 96.7321 16.9598 98.6424 16.9598H101.988L100.781 14.1767H98.5502C94.3417 14.1767 92.7078 15.6943 92.7078 19.4228V26.647H96.1357V26.6422ZM87.2775 22.0652C87.2775 23.927 86.5842 24.2955 84.9793 24.2955H79.0254C78.1527 24.2955 77.6242 23.9949 77.6242 23.1222V22.2737C77.6242 21.2846 78.109 21.0083 78.9139 21.0083H87.2824V22.0652H87.2775ZM85.023 26.6422C89.4399 26.6422 90.7054 25.4252 90.7054 21.8131V18.7779C90.7054 15.6022 89.1393 14.1767 85.1587 14.1767H74.9187V16.6155H85.1587C86.6763 16.6155 87.2775 17.0325 87.2775 18.6131V18.8895H78.5405C75.0884 18.8895 74.2157 20.087 74.2157 22.1816V23.3549C74.2157 25.3767 75.1805 26.647 78.7684 26.647H85.023V26.6422ZM72.2133 26.6422V12.0337C72.2133 11.0446 71.3842 10.6083 70.3272 10.6083C69.5224 10.6083 69.1539 10.841 68.766 11.3452L59.8399 23.098L50.9817 11.3452C50.589 10.8167 50.1527 10.6083 49.3236 10.6083C48.2424 10.6083 47.4375 11.0446 47.4375 12.0337V26.6422H50.6133V16.3101L58.2496 26.3173C58.6181 26.778 59.103 26.9864 59.7914 26.9864C60.4799 26.9864 60.9648 26.778 61.3333 26.3173L68.9939 16.3101V26.6422H72.2181H72.2133ZM169.983 33.5804L167.661 39.8155L165.673 44.824L165.634 44.9161H164.233L164.325 44.7076L165.964 40.9743C165.886 40.9743 165.808 40.9743 165.741 40.9646C165.6 40.9549 165.469 40.9307 165.358 40.8967C165.246 40.8628 165.144 40.824 165.052 40.7804C164.96 40.7367 164.878 40.6834 164.8 40.6252C164.722 40.567 164.654 40.5089 164.601 40.441C164.543 40.3731 164.49 40.3004 164.446 40.218C164.368 40.0773 164.301 39.9319 164.247 39.7864L161.905 33.5804L161.828 33.3816H164.102L164.136 33.4786L166.351 39.6846C166.351 39.6846 166.361 39.704 166.366 39.7089C166.376 39.7137 166.385 39.7186 166.405 39.7186C166.424 39.7186 166.434 39.7186 166.444 39.7089C166.448 39.7089 166.453 39.6992 166.458 39.6846L168.737 33.4834L168.771 33.3864H170.065L169.988 33.5852L169.983 33.5804ZM153.139 39.2676C153.139 39.384 153.139 39.481 153.149 39.5682C153.149 39.6604 153.164 39.7379 153.173 39.8155C153.183 39.8834 153.198 39.9513 153.212 40.0095C153.227 40.0676 153.246 40.1161 153.27 40.1646C153.299 40.2228 153.333 40.2761 153.377 40.3149C153.416 40.3537 153.464 40.3876 153.518 40.407C153.576 40.4313 153.639 40.4507 153.702 40.4604C153.765 40.4701 153.833 40.4749 153.901 40.4701C153.998 40.4701 154.094 40.4507 154.187 40.4313C154.279 40.4119 154.371 40.3828 154.458 40.344C154.555 40.3052 154.642 40.2664 154.72 40.2228C154.802 40.1792 154.88 40.1404 154.948 40.0919C155.03 40.0337 155.108 39.9755 155.181 39.9222C155.253 39.864 155.321 39.8058 155.394 39.7428L155.641 39.5149V40.9743L155.588 41.0228C155.501 41.0907 155.413 41.1537 155.316 41.2119C155.219 41.2701 155.118 41.3283 155.016 41.3767C154.919 41.4204 154.817 41.464 154.71 41.5028C154.604 41.5416 154.487 41.5804 154.361 41.6192C154.235 41.6579 154.099 41.6822 153.954 41.7016C153.808 41.7161 153.663 41.7307 153.508 41.7307C153.328 41.7307 153.159 41.721 152.989 41.7064C152.824 41.6919 152.664 41.6628 152.519 41.6289C152.364 41.5949 152.228 41.5464 152.097 41.4883C151.966 41.4252 151.845 41.3525 151.738 41.2652C151.627 41.1731 151.53 41.0713 151.447 40.9549C151.365 40.8386 151.297 40.7076 151.239 40.5622C151.185 40.4167 151.147 40.2567 151.118 40.0773C151.093 39.9028 151.079 39.7089 151.079 39.5004V34.5161H149.876V33.4398L150.007 33.4252L151.04 33.2943L151.098 31.7719V31.6652L151.205 31.6361L152.95 31.127L153.139 31.0737V33.3913H155.447V34.521H153.139V39.2822V39.2676ZM140.572 31.3404C140.572 31.0349 140.679 30.7731 140.897 30.5549C141.004 30.4483 141.125 30.3707 141.256 30.3125C141.387 30.2592 141.532 30.2301 141.682 30.2301C141.833 30.2301 141.978 30.2592 142.109 30.3125C142.24 30.3658 142.361 30.4483 142.468 30.5549C142.574 30.6616 142.657 30.7828 142.71 30.9137C142.764 31.0446 142.793 31.1852 142.793 31.3404C142.793 31.4955 142.764 31.6313 142.71 31.767C142.657 31.898 142.574 32.0192 142.468 32.1258C142.361 32.2325 142.24 32.3149 142.109 32.3682C141.978 32.4216 141.838 32.4507 141.682 32.4507C141.527 32.4507 141.387 32.4264 141.256 32.3682C141.125 32.3149 141.004 32.2325 140.897 32.1258C140.79 32.0192 140.708 31.898 140.654 31.767C140.601 31.6361 140.572 31.4907 140.572 31.3404ZM141.847 33.3331C142.002 33.3234 142.138 33.3331 142.264 33.3767C142.395 33.4204 142.502 33.4883 142.594 33.5852C142.681 33.6773 142.749 33.7889 142.793 33.9101C142.836 34.0264 142.861 34.1573 142.861 34.298V41.5901H140.8V34.6616C140.8 34.5743 140.771 34.5016 140.718 34.4434C140.693 34.4192 140.664 34.3949 140.63 34.3804C140.596 34.3658 140.558 34.361 140.514 34.361H140.092V33.4204L140.233 33.4107L141.847 33.3331ZM127.791 39.7137C127.903 39.8058 128.048 39.898 128.228 40.0046C128.32 40.058 128.412 40.1064 128.514 40.1549C128.616 40.2034 128.718 40.2519 128.819 40.2955C128.921 40.3392 129.033 40.3779 129.149 40.4167C129.265 40.4507 129.382 40.4846 129.503 40.5137C129.624 40.5428 129.741 40.5622 129.862 40.5767C129.978 40.5913 130.099 40.5961 130.216 40.5961C130.696 40.5961 131.05 40.5089 131.282 40.3343C131.394 40.247 131.476 40.1501 131.53 40.0483C131.583 39.9416 131.607 39.8252 131.607 39.6943C131.607 39.5779 131.593 39.4664 131.559 39.3743C131.53 39.2822 131.481 39.1949 131.418 39.1173C131.355 39.0398 131.258 38.9622 131.137 38.8895C131.011 38.8119 130.851 38.7343 130.662 38.6664L129.464 38.2349C129.188 38.1428 128.941 38.0216 128.718 37.8761C128.49 37.7307 128.291 37.561 128.111 37.3622C127.932 37.1586 127.796 36.921 127.704 36.6398C127.617 36.3683 127.573 36.0531 127.573 35.7089C127.573 35.287 127.661 34.9234 127.84 34.6034C128.014 34.2882 128.252 34.0361 128.543 33.8422C128.684 33.7452 128.834 33.6628 128.999 33.5901C129.159 33.5222 129.328 33.4592 129.503 33.4155C129.678 33.367 129.852 33.3331 130.031 33.3089C130.216 33.2846 130.395 33.2701 130.574 33.2701C131.457 33.2701 132.242 33.4931 132.931 33.9343L132.999 33.978V35.3549L132.766 35.1852L132.383 34.904C132.32 34.8555 132.252 34.8119 132.174 34.7683C132.102 34.7246 132.019 34.6858 131.937 34.647C131.854 34.6083 131.762 34.5743 131.67 34.5452C131.573 34.5113 131.476 34.4822 131.37 34.458C131.268 34.4337 131.156 34.4143 131.035 34.3998C130.914 34.3901 130.788 34.3804 130.642 34.3804C130.172 34.3804 129.847 34.4725 129.668 34.6567C129.576 34.7489 129.508 34.8507 129.464 34.9573C129.421 35.0592 129.401 35.1707 129.401 35.2919C129.401 35.5004 129.459 35.6895 129.576 35.8689C129.692 36.0434 129.905 36.184 130.23 36.2907L131.467 36.6883C131.801 36.7998 132.092 36.9355 132.339 37.0955C132.591 37.2555 132.8 37.4446 132.965 37.658C133.13 37.8713 133.256 38.1089 133.338 38.3707C133.421 38.6325 133.459 38.9089 133.459 39.2143C133.459 39.4373 133.435 39.6458 133.391 39.8349C133.348 40.0289 133.28 40.2083 133.193 40.3683C133.018 40.6883 132.781 40.9501 132.49 41.1537C132.344 41.2555 132.189 41.3428 132.019 41.4155C131.85 41.4883 131.67 41.5464 131.476 41.5901C131.287 41.6337 131.093 41.6677 130.894 41.687C130.696 41.7113 130.497 41.721 130.293 41.721C130.056 41.721 129.818 41.7064 129.576 41.6725C129.338 41.6434 129.105 41.5949 128.868 41.5367C128.63 41.4737 128.412 41.4058 128.208 41.3186C128 41.2313 127.811 41.1343 127.631 41.0228L127.564 40.9792V39.5149L127.806 39.7137H127.791ZM118.914 34.4337L118.977 34.3658C119.088 34.2495 119.205 34.1331 119.326 34.0313C119.534 33.8567 119.782 33.6919 120.058 33.5416C120.204 33.464 120.354 33.4058 120.509 33.367C120.664 33.3283 120.829 33.3089 120.994 33.3089C121.11 33.3089 121.222 33.3186 121.333 33.3379C121.44 33.3573 121.551 33.3913 121.658 33.4301L121.75 33.4689V34.9767L121.551 34.904C121.44 34.8652 121.338 34.8361 121.231 34.8167C121.13 34.7973 121.038 34.7876 120.945 34.7876C120.79 34.7876 120.64 34.8022 120.504 34.8313C120.368 34.8604 120.238 34.904 120.121 34.9622C119.99 35.0252 119.874 35.0883 119.767 35.1561C119.661 35.224 119.559 35.2919 119.467 35.3646C119.36 35.4519 119.258 35.544 119.161 35.6361C119.079 35.7186 119.001 35.801 118.928 35.8882V41.5949H116.839V33.3864H118.875V33.527L118.914 34.4337ZM109.741 36.2955C109.741 36.4264 109.731 36.5476 109.707 36.6689C109.682 36.7901 109.653 36.9016 109.605 37.0034C109.551 37.1295 109.459 37.2264 109.328 37.2895C109.212 37.3476 109.067 37.3816 108.887 37.3864H104.708C104.718 37.8713 104.776 38.3028 104.887 38.6713C105.008 39.0786 105.183 39.4179 105.421 39.6895C105.896 40.2373 106.492 40.5089 107.219 40.5089C107.379 40.5089 107.539 40.4943 107.699 40.4701C107.859 40.4458 108.029 40.4022 108.199 40.3489C108.368 40.2955 108.538 40.2276 108.708 40.1452C108.878 40.0628 109.047 39.9658 109.222 39.8495L109.45 39.6992V41.1101L109.362 41.1489C108.921 41.3379 108.48 41.4834 108.034 41.5804C107.588 41.6773 107.142 41.7258 106.691 41.7258C106.153 41.7258 105.634 41.6434 105.139 41.4883C104.887 41.4058 104.654 41.304 104.431 41.1731C104.208 41.047 104 40.8919 103.811 40.7173C103.617 40.5428 103.442 40.3392 103.287 40.1113C103.132 39.8834 103.001 39.6361 102.89 39.3598C102.773 39.0834 102.691 38.7779 102.633 38.4482C102.579 38.1185 102.55 37.7646 102.55 37.3864C102.55 37.1149 102.57 36.8482 102.608 36.5864C102.647 36.3246 102.71 36.0725 102.788 35.8252C102.87 35.578 102.967 35.3452 103.088 35.127C103.205 34.9089 103.345 34.7052 103.501 34.5161C103.656 34.327 103.83 34.1573 104.029 34.007C104.223 33.8567 104.441 33.7258 104.674 33.6143C104.911 33.5028 105.164 33.4204 105.44 33.3622C105.711 33.3089 106.002 33.2798 106.308 33.2798C107.205 33.2798 107.956 33.5028 108.562 33.9489C108.737 34.0798 108.897 34.2301 109.038 34.3998C109.178 34.5695 109.304 34.7586 109.406 34.967C109.513 35.1755 109.595 35.3937 109.653 35.6167C109.707 35.8398 109.741 36.0676 109.745 36.3004L109.741 36.2955ZM106.371 34.3173C106.172 34.3173 105.983 34.361 105.813 34.4483C105.639 34.5404 105.479 34.6761 105.333 34.8604C105.183 35.0446 105.062 35.2725 104.965 35.544C104.882 35.7767 104.819 36.0337 104.776 36.3246H107.816C107.854 36.3246 107.884 36.3246 107.908 36.3198C107.908 36.3101 107.908 36.3052 107.908 36.2955C107.908 36.184 107.903 36.0676 107.888 35.9513C107.874 35.8349 107.854 35.7137 107.825 35.5925C107.796 35.4713 107.762 35.3598 107.719 35.2531C107.67 35.1464 107.617 35.0446 107.559 34.9525C107.501 34.8604 107.428 34.778 107.35 34.7004C107.273 34.6228 107.181 34.5549 107.084 34.4919C106.991 34.4337 106.885 34.3901 106.768 34.361C106.652 34.3319 106.521 34.3125 106.376 34.3125M97.2702 33.5804L94.9624 40.4216C94.9333 40.504 94.8993 40.5864 94.8702 40.6689C94.8363 40.7513 94.7975 40.8289 94.7636 40.9016C94.7199 40.9792 94.6763 41.0567 94.623 41.1246C94.5745 41.1925 94.5163 41.2604 94.4533 41.3234C94.3902 41.3864 94.3175 41.4446 94.2399 41.4931C94.1624 41.5416 94.0751 41.5852 93.9781 41.6192C93.886 41.6531 93.7793 41.6822 93.6727 41.6967C93.5611 41.7161 93.4399 41.7258 93.3187 41.7258C93.1684 41.7258 93.0278 41.7161 92.9017 41.6967C92.7708 41.6773 92.6545 41.6483 92.5478 41.6095C92.4411 41.5707 92.349 41.527 92.2617 41.4785C92.1745 41.4252 92.092 41.367 92.0193 41.304C91.9466 41.241 91.8836 41.1731 91.8302 41.1004C91.772 41.0325 91.7236 40.9549 91.6848 40.8725C91.646 40.7998 91.6121 40.7222 91.5781 40.6398C91.5442 40.5622 91.5151 40.4798 91.486 40.3973L89.2266 33.5852L89.1636 33.3913H91.3842L91.4181 33.4931L93.6484 40.3343C93.6484 40.3343 93.6581 40.3489 93.663 40.3537C93.6727 40.3586 93.6824 40.3634 93.7017 40.3634C93.7211 40.3634 93.7308 40.3634 93.7405 40.3537C93.7454 40.3537 93.7502 40.344 93.7551 40.3295L96.0484 33.4883L96.0824 33.3864H97.3575L97.2896 33.5804H97.2702ZM80.5139 31.3404C80.5139 31.1852 80.543 31.0446 80.5963 30.9137C80.6496 30.7828 80.732 30.6616 80.8387 30.5549C80.9454 30.4483 81.0666 30.3707 81.1975 30.3125C81.3284 30.2592 81.4739 30.2301 81.6242 30.2301C81.7745 30.2301 81.9199 30.2592 82.0508 30.3125C82.1817 30.3658 82.303 30.4483 82.4096 30.5549C82.5163 30.6616 82.5987 30.7828 82.6521 30.9137C82.7054 31.0446 82.7345 31.1852 82.7345 31.3404C82.7345 31.4955 82.7054 31.6313 82.6521 31.767C82.5987 31.898 82.5163 32.0192 82.4096 32.1258C82.303 32.2325 82.1817 32.3149 82.0508 32.3682C81.9199 32.4216 81.7745 32.4507 81.6242 32.4507C81.4739 32.4507 81.3333 32.4264 81.1975 32.3682C81.0666 32.3149 80.9454 32.2325 80.8387 32.1258C80.732 32.0192 80.6496 31.898 80.5963 31.767C80.543 31.6361 80.5139 31.4907 80.5139 31.3404ZM81.789 33.3331C81.9442 33.3234 82.0799 33.3331 82.206 33.3767C82.3321 33.4204 82.4436 33.4883 82.5357 33.5852C82.623 33.6822 82.6908 33.7889 82.7345 33.9101C82.7781 34.0264 82.8024 34.1573 82.8024 34.298V41.5901H80.7417V34.6616C80.7417 34.6131 80.7321 34.5743 80.7224 34.5404C80.7127 34.5064 80.6884 34.4725 80.6642 34.4434C80.6399 34.4192 80.6108 34.3949 80.5769 34.3804C80.543 34.3658 80.5042 34.361 80.4557 34.361H80.0339V33.4204L80.1745 33.4107L81.789 33.3331ZM69.8521 36.407C69.8521 36.0531 69.823 35.7573 69.7648 35.5149C69.7114 35.2822 69.6242 35.0979 69.5175 34.967C69.4108 34.8361 69.2848 34.7343 69.1393 34.6713C68.9987 34.6082 68.8339 34.5743 68.6496 34.5743C68.509 34.5743 68.3636 34.5889 68.2084 34.6228C68.0484 34.6519 67.8836 34.7052 67.7139 34.7683C67.5393 34.8361 67.3599 34.9137 67.1757 35.0058C67.0157 35.0834 66.8508 35.1658 66.6811 35.2628V41.5949H64.606V33.3864H66.5939L66.6036 33.527L66.6375 34.0119C66.7684 33.9392 66.909 33.8713 67.0448 33.8034C67.2581 33.7064 67.4811 33.6143 67.7139 33.5319C67.9466 33.4446 68.1842 33.3816 68.4217 33.3379C68.6593 33.2943 68.8969 33.2701 69.1345 33.2701C69.4933 33.2701 69.8327 33.3283 70.1624 33.4495C70.3272 33.5077 70.4921 33.5901 70.6472 33.687C70.8024 33.7889 70.9527 33.9052 71.0981 34.0458C71.2484 34.201 71.3793 34.361 71.486 34.5258C71.5927 34.6955 71.6799 34.8701 71.743 35.0543C71.806 35.2337 71.8496 35.4325 71.8836 35.6507C71.9127 35.864 71.9321 36.0967 71.9321 36.344V41.5901H69.8569V36.407H69.8521ZM47.5636 29.818H49.6048V36.8386C49.6048 37.1392 49.6145 37.4252 49.6387 37.6919C49.663 37.9634 49.692 38.2155 49.7405 38.4482C49.7842 38.681 49.8423 38.8992 49.9151 39.0931C49.9878 39.2919 50.0751 39.4664 50.1769 39.6264C50.2787 39.7816 50.3902 39.9222 50.5211 40.0434C50.652 40.1598 50.8024 40.2616 50.9672 40.344C51.132 40.4264 51.3211 40.4846 51.5296 40.5283C51.743 40.5719 51.9757 40.5913 52.2375 40.5913C52.5333 40.5913 52.7999 40.5622 53.0472 40.5089C53.2896 40.4507 53.5127 40.3683 53.7114 40.2567C53.9102 40.1404 54.0896 40.0095 54.2496 39.8495C54.4096 39.6943 54.5454 39.5101 54.6617 39.3113C54.7733 39.1222 54.8605 38.9283 54.9284 38.7246C54.9963 38.521 55.0351 38.3173 55.0496 38.0992C55.069 37.8664 55.0836 37.6482 55.0933 37.4349C55.103 37.2264 55.1078 37.0131 55.1078 36.7901V29.8131H56.3345V37.1877C56.3345 37.6628 56.3005 38.1379 56.2278 38.6179C56.189 38.8652 56.126 39.1028 56.0339 39.3404C55.9417 39.5731 55.8205 39.801 55.6702 40.024C55.5054 40.2761 55.3066 40.4992 55.0787 40.7076C54.8508 40.9113 54.5939 41.0907 54.3078 41.2458C54.0169 41.4058 53.6872 41.5222 53.3187 41.6046C52.9502 41.6822 52.5478 41.721 52.1066 41.721C51.3454 41.721 50.6714 41.6289 50.0945 41.4495C49.5078 41.2652 49.0181 40.9889 48.6205 40.6252C48.223 40.2567 47.9272 39.7864 47.7284 39.2143C47.5345 38.647 47.4375 37.9828 47.4375 37.2216V29.8131H47.583L47.5636 29.818ZM141.571 22.0652C141.571 23.927 140.878 24.2955 139.268 24.2955H133.314C132.441 24.2955 131.913 23.9949 131.913 23.1222V22.2737C131.913 21.2846 132.398 21.0083 133.202 21.0083H141.571V22.0652ZM139.316 26.6422C143.733 26.6422 144.999 25.4252 144.999 21.8131V18.7779C144.999 15.6022 143.428 14.1767 139.452 14.1767H129.697L128.679 16.6155H139.447C140.965 16.6155 141.566 17.0325 141.566 18.6131V18.8895H132.829C129.377 18.8895 128.504 20.087 128.504 22.1816V23.3549C128.504 25.3767 129.469 26.647 133.057 26.647H139.311L139.316 26.6422ZM168.824 13.464C169.697 13.464 170.022 13.1392 170.022 12.407V11.0737C170.022 10.3367 169.697 10.0361 168.824 10.0361H167.699C166.846 10.0361 166.526 10.3367 166.526 11.0737V12.407C166.526 13.144 166.851 13.464 167.699 13.464H168.824Z" fill="#221F20"/>
<path fill-rule="evenodd" clip-rule="evenodd" d="M2.62858 8.70316C13.8286 6.90923 25.111 6.95286 36.311 8.70316L38.7207 9.08135V28.6644C38.711 33.188 37.6734 37.3771 34.614 40.8147C31.0601 44.805 25.4165 46.9335 20.631 49.0523L19.4771 49.5662L18.3231 49.0523C13.5377 46.9286 7.89404 44.8001 4.3401 40.8147C1.27586 37.3771 0.238281 33.1832 0.238281 28.6644V9.09104L2.62858 8.70802V8.70316Z" fill="#E6E6E5"/>
<mask id="mask0_2032_2245" style="mask-type:luminance" maskUnits="userSpaceOnUse" x="0" y="7" width="39" height="43">
<path d="M38.7197 7.375H0.232422V49.5617H38.7197V7.375Z" fill="white"/>
</mask>
<g mask="url(#mask0_2032_2245)">
<path fill-rule="evenodd" clip-rule="evenodd" d="M2.62663 8.70316C13.8266 6.90923 25.1091 6.95286 36.3091 8.70316L38.7188 9.08135V28.6644C38.7091 33.188 37.6715 37.3771 34.6121 40.8147C31.0581 44.805 25.4145 46.9335 20.6291 49.0523L19.4751 49.5662L18.3212 49.0523C13.5357 46.9286 7.89209 44.8001 4.33815 40.8147C1.2739 37.3771 0.236328 33.1832 0.236328 28.6644V9.09104L2.62663 8.70802V8.70316Z" fill="#BBBCBF"/>
</g>
<path fill-rule="evenodd" clip-rule="evenodd" d="M19.4764 10.4532C14.0897 10.4483 8.70307 10.8604 3.31641 11.7138V28.6592C3.32125 39.1029 9.61459 41.8617 17.92 45.5029C18.4679 45.7404 19.0255 45.9877 19.4764 46.1865C19.937 45.9829 20.4849 45.7404 21.0328 45.5029C29.3382 41.8617 35.6316 39.1029 35.6316 28.6592V11.7138C30.2497 10.8847 24.8631 10.458 19.4764 10.4532Z" fill="#00A3BA"/>
<path d="M9.87079 20.2136L10.2247 19.8597L11.9605 20.7227L11.9702 33.2269L19.4756 37.61L26.9811 33.2269L26.9908 20.7227L28.7266 19.8597L29.0805 20.2136V34.4681L20.3969 39.5881C19.7035 40.0294 19.2478 40.0294 18.5544 39.5881L9.87079 34.4681V20.2136ZM19.4756 20.0148L10.055 14.5215L8.86231 15.2536C8.29018 15.6027 8.4017 16.0294 8.76534 16.2427L19.4756 22.5021L30.1859 16.2427C30.5544 16.0294 30.6611 15.6027 30.0938 15.2536L28.9011 14.5215L19.4756 20.0148ZM14.695 22.2742L19.4805 25.0912L24.2659 22.2742C24.552 22.1045 24.8575 22.4585 24.8575 22.7882V31.9857L23.3641 32.8536C23.2526 32.9215 23.1653 32.9409 23.0781 32.873C22.8987 32.7372 22.6659 32.6015 22.6756 32.3494L22.6853 25.6439L19.4756 27.5397L16.2659 25.6439L16.2756 32.3494C16.2853 32.6015 16.0526 32.7421 15.8732 32.873C15.7859 32.9409 15.6987 32.9215 15.5872 32.8536L14.0938 31.9857V22.7882C14.0938 22.4585 14.4041 22.1045 14.6902 22.2742" fill="white"/>
<path d="M53.5853 54.7298V47.8498H52.6932L50.3659 53.571L48.0241 47.8498H47.1465V54.7298H47.7332V48.5916L50.2495 54.7298H50.4725L52.9792 48.5916V54.7298H53.5804H53.5853ZM58.9768 54.7298V51.234C58.9768 50.1092 58.1719 49.6243 57.1635 49.6243C56.3392 49.6243 55.7622 49.9055 55.2483 50.4631L55.5441 50.8413C55.9998 50.3176 56.4847 50.0994 57.115 50.0994C57.8471 50.0994 58.4386 50.5067 58.4386 51.2534V52.2619C58.0071 51.777 57.4398 51.554 56.7465 51.554C55.8786 51.554 55.0059 52.1164 55.0059 53.1928C55.0059 54.2691 55.8931 54.8461 56.7465 54.8461C57.435 54.8461 57.9974 54.6231 58.4386 54.1382V54.7298H58.9768ZM56.9404 54.4292C56.1259 54.4292 55.5731 53.9055 55.5731 53.2073C55.5731 52.5091 56.1259 51.971 56.9404 51.971C57.5368 51.971 58.0895 52.194 58.4386 52.6594V53.7455C58.0895 54.2013 57.5319 54.4243 56.9404 54.4243M61.1829 54.7298V51.0982C61.4059 50.6667 62.0895 50.211 62.5938 50.211C62.7004 50.211 62.7683 50.211 62.8653 50.2304V49.6388C62.1719 49.6388 61.6047 50.0461 61.1829 50.5988V49.7455H60.6447V54.7298H61.1829ZM68.698 54.7298L70.3174 49.7455H69.7356L68.4168 53.9734L67.0156 49.7455H66.5501L65.1489 53.9734L63.8301 49.7455H63.2532L64.8677 54.7298H65.3913L66.7925 50.4679L68.1841 54.7298H68.698ZM75.035 54.7298V51.234C75.035 50.1092 74.2301 49.6243 73.2168 49.6243C72.3925 49.6243 71.8156 49.9055 71.2968 50.4631L71.5974 50.8413C72.0532 50.3176 72.538 50.0994 73.1683 50.0994C73.9004 50.0994 74.4919 50.5067 74.4919 51.2534V52.2619C74.0604 51.777 73.4932 51.554 72.7998 51.554C71.9368 51.554 71.0592 52.1164 71.0592 53.1928C71.0592 54.2691 71.9416 54.8461 72.7998 54.8461C73.4932 54.8461 74.0507 54.6231 74.4919 54.1382V54.7298H75.035ZM72.9889 54.4292C72.1792 54.4292 71.6265 53.9055 71.6265 53.2073C71.6265 52.5091 72.1792 51.971 72.9889 51.971C73.5901 51.971 74.1428 52.194 74.4919 52.6594V53.7455C74.1428 54.2013 73.5853 54.4243 72.9889 54.4243M80.9162 54.7298V47.8498H80.3683V50.5504C79.9804 49.9831 79.3501 49.6195 78.6374 49.6195C77.3186 49.6195 76.4216 50.6667 76.4216 52.2425C76.4216 53.8182 77.3186 54.851 78.6374 54.851C79.3792 54.851 80.0192 54.4534 80.3683 53.9346V54.7298H80.9162ZM78.7295 54.3661C77.6289 54.3661 76.9889 53.4498 76.9889 52.2425C76.9889 51.0352 77.6289 50.1043 78.7295 50.1043C79.4374 50.1043 80.0822 50.531 80.3683 51.0158V53.4788C80.0774 53.954 79.4325 54.3613 78.7295 54.3613M82.8556 48.9649C83.0786 48.9649 83.2677 48.7807 83.2677 48.5528C83.2677 48.3249 83.0835 48.1552 82.8556 48.1552C82.6277 48.1552 82.4386 48.3298 82.4386 48.5528C82.4386 48.7758 82.6374 48.9649 82.8556 48.9649ZM83.1222 49.7504H82.5889V54.7346H83.1222V49.7504ZM90.7101 54.851C91.8059 54.851 92.6107 54.3758 93.2265 53.6243L92.7222 53.314C92.2907 53.9152 91.5392 54.3128 90.7101 54.3128C89.1053 54.3128 87.8447 53.0667 87.8447 51.2922C87.8447 49.5176 89.1053 48.2716 90.7101 48.2716C91.5344 48.2716 92.2907 48.6788 92.7222 49.2704L93.2168 48.9504C92.6398 48.2182 91.8059 47.7334 90.7101 47.7334C88.7659 47.7334 87.2289 49.1782 87.2289 51.2922C87.2289 53.4061 88.7659 54.8461 90.7101 54.8461M98.2835 54.7298V51.2243C98.2835 50.0995 97.7259 49.6243 96.7174 49.6243C95.995 49.6243 95.2822 50.0704 94.9235 50.5067V47.8546H94.3853V54.7346H94.9235V50.9673C95.2435 50.5164 95.9028 50.114 96.5428 50.114C97.2653 50.114 97.7501 50.3855 97.7501 51.3407V54.7394H98.2883L98.2835 54.7298ZM103.651 54.7298V51.234C103.651 50.1092 102.846 49.6243 101.837 49.6243C101.013 49.6243 100.436 49.9055 99.9222 50.4631L100.223 50.8413C100.674 50.3176 101.159 50.0994 101.789 50.0994C102.521 50.0994 103.117 50.5067 103.117 51.2534V52.2619C102.681 51.777 102.119 51.554 101.425 51.554C100.557 51.554 99.6798 52.1164 99.6798 53.1928C99.6798 54.2691 100.572 54.8461 101.425 54.8461C102.114 54.8461 102.671 54.6231 103.117 54.1382V54.7298H103.651ZM101.614 54.4292C100.8 54.4292 100.252 53.9055 100.252 53.2073C100.252 52.5091 100.8 51.971 101.614 51.971C102.211 51.971 102.768 52.194 103.122 52.6594V53.7455C102.773 54.2013 102.211 54.4243 101.614 54.4243M109.222 54.7298V51.2437C109.222 50.1188 108.669 49.6243 107.656 49.6243C106.928 49.6243 106.22 50.0704 105.857 50.5067V49.7504H105.323V54.7346H105.857V50.9673C106.177 50.5164 106.836 50.114 107.481 50.114C108.199 50.114 108.688 50.4049 108.688 51.3649V54.7346H109.222V54.7298ZM115.113 54.7298V47.8498H114.56V50.5504C114.167 49.9831 113.537 49.6195 112.829 49.6195C111.505 49.6195 110.613 50.6667 110.613 52.2425C110.613 53.8182 111.505 54.851 112.829 54.851C113.576 54.851 114.211 54.4534 114.56 53.9346V54.7298H115.113ZM112.926 54.3661C111.82 54.3661 111.18 53.4498 111.18 52.2425C111.18 51.0352 111.82 50.1043 112.926 50.1043C113.624 50.1043 114.274 50.531 114.56 51.0158V53.4788C114.274 53.954 113.624 54.3613 112.926 54.3613M120.48 54.7298V51.234C120.48 50.1092 119.68 49.6243 118.666 49.6243C117.842 49.6243 117.26 49.9055 116.746 50.4631L117.047 50.8413C117.503 50.3176 117.988 50.0994 118.613 50.0994C119.35 50.0994 119.942 50.5067 119.942 51.2534V52.2619C119.51 51.777 118.943 51.554 118.25 51.554C117.382 51.554 116.509 52.1164 116.509 53.1928C116.509 54.2691 117.396 54.8461 118.25 54.8461C118.938 54.8461 119.5 54.6231 119.942 54.1382V54.7298H120.48ZM118.434 54.4292C117.624 54.4292 117.071 53.9055 117.071 53.2073C117.071 52.5091 117.624 51.971 118.434 51.971C119.035 51.971 119.588 52.194 119.942 52.6594V53.7455C119.593 54.2013 119.035 54.4243 118.434 54.4243M122.686 54.7298V51.0982C122.909 50.6667 123.593 50.211 124.097 50.211C124.199 50.211 124.271 50.211 124.359 50.2304V49.6388C123.67 49.6388 123.103 50.0461 122.681 50.5988V49.7455H122.143V54.7298H122.681H122.686ZM129.12 54.7298V51.234C129.12 50.1092 128.315 49.6243 127.306 49.6243C126.482 49.6243 125.905 49.9055 125.386 50.4631L125.687 50.8413C126.143 50.3176 126.628 50.0994 127.258 50.0994C127.99 50.0994 128.582 50.5067 128.582 51.2534V52.2619C128.15 51.777 127.583 51.554 126.89 51.554C126.022 51.554 125.149 52.1164 125.149 53.1928C125.149 54.2691 126.031 54.8461 126.89 54.8461C127.583 54.8461 128.14 54.6231 128.582 54.1382V54.7298H129.12ZM127.074 54.4292C126.264 54.4292 125.711 53.9055 125.711 53.2073C125.711 52.5091 126.264 51.971 127.074 51.971C127.675 51.971 128.228 52.194 128.582 52.6594V53.7455C128.233 54.2013 127.675 54.4243 127.074 54.4243M134.691 54.7298V51.2437C134.691 50.1188 134.128 49.6243 133.12 49.6243C132.397 49.6243 131.69 50.0704 131.326 50.5067V49.7504H130.788V54.7346H131.326V50.9673C131.646 50.5164 132.3 50.114 132.94 50.114C133.663 50.114 134.148 50.4049 134.148 51.3649V54.7346H134.686L134.691 54.7298ZM140.058 54.7298V51.234C140.058 50.1092 139.258 49.6243 138.25 49.6243C137.425 49.6243 136.843 49.9055 136.33 50.4631L136.63 50.8413C137.086 50.3176 137.571 50.0994 138.196 50.0994C138.933 50.0994 139.525 50.5067 139.525 51.2534V52.2619C139.093 51.777 138.526 51.554 137.833 51.554C136.965 51.554 136.092 52.1164 136.092 53.1928C136.092 54.2691 136.974 54.8461 137.833 54.8461C138.521 54.8461 139.083 54.6231 139.525 54.1382V54.7298H140.058ZM138.017 54.4292C137.202 54.4292 136.654 53.9055 136.654 53.2073C136.654 52.5091 137.202 51.971 138.017 51.971C138.618 51.971 139.171 52.194 139.525 52.6594V53.7455C139.176 54.2013 138.618 54.4243 138.017 54.4243M147.646 54.8607C148.732 54.8607 149.648 54.4001 150.259 53.7213V51.3116H147.074V51.8352H149.673V53.4885C149.304 53.8667 148.572 54.3225 147.651 54.3225C146.046 54.3225 144.785 53.0667 144.785 51.2922C144.785 49.5176 146.046 48.2716 147.651 48.2716C148.528 48.2716 149.314 48.6546 149.799 49.2316L150.245 48.9116C149.614 48.1892 148.79 47.7334 147.651 47.7334C145.716 47.7334 144.17 49.1685 144.17 51.2922C144.17 53.4158 145.716 54.8607 147.651 54.8607M152.266 54.7298V51.0982C152.49 50.6667 153.173 50.211 153.677 50.211C153.779 50.211 153.852 50.211 153.939 50.2304V49.6388C153.251 49.6388 152.683 50.0461 152.262 50.5988V49.7455H151.723V54.7298H152.262H152.266ZM157.1 54.851C158.579 54.851 159.5 53.6873 159.5 52.2376C159.5 50.7879 158.574 49.6243 157.1 49.6243C155.626 49.6243 154.72 50.7782 154.72 52.2376C154.72 53.697 155.651 54.851 157.1 54.851ZM157.1 54.3661C155.946 54.3661 155.287 53.3431 155.287 52.2376C155.287 51.1322 155.946 50.1092 157.1 50.1092C158.254 50.1092 158.928 51.1322 158.928 52.2376C158.928 53.3431 158.279 54.3661 157.1 54.3661ZM164.785 54.7298V49.7455H164.247V53.5419C163.917 53.9831 163.273 54.3613 162.633 54.3613C161.91 54.3613 161.425 54.0946 161.425 53.1249V49.7407H160.887V53.2461C160.887 54.3661 161.445 54.8413 162.453 54.8413C163.176 54.8413 163.845 54.4437 164.247 53.9879V54.7249H164.785V54.7298ZM168.722 54.851C170.051 54.851 170.948 53.8182 170.948 52.2376C170.948 50.657 170.051 49.6243 168.722 49.6243C167.976 49.6243 167.34 50.0316 166.991 50.5358V49.7504H166.448V56.6304H166.991V53.9298C167.389 54.497 168.024 54.8558 168.722 54.8558M168.63 54.3661C167.937 54.3661 167.277 53.9346 166.996 53.4595V50.9916C167.282 50.5213 167.942 50.1043 168.63 50.1043C169.745 50.1043 170.376 51.0255 170.376 52.2328C170.376 53.4401 169.745 54.3613 168.63 54.3613" fill="#221F20"/>
<path d="M178.628 0.271484H177.877V63.7236H178.628V0.271484Z" fill="white"/>
<mask id="mask1_2032_2245" style="mask-type:luminance" maskUnits="userSpaceOnUse" x="185" y="19" width="40" height="39">
<path d="M185.881 38.313C185.881 48.8681 194.438 57.4208 204.989 57.4208C215.539 57.4208 224.097 48.8681 224.097 38.313C224.097 27.7578 215.539 19.2051 204.989 19.2051C194.438 19.2051 185.881 27.7578 185.881 38.313Z" fill="white"/>
</mask>
<g mask="url(#mask1_2032_2245)">
<path d="M224.097 19.21H185.881V57.4209H224.097V19.21Z" fill="url(#paint0_radial_2032_2245)"/>
</g>
<path d="M204.989 57.4208C215.544 57.4208 224.097 48.8681 224.097 38.313C224.097 27.7578 215.544 19.2051 204.989 19.2051C194.434 19.2051 185.881 27.7578 185.881 38.313C185.881 48.8681 194.434 57.4208 204.989 57.4208Z" fill="url(#paint1_linear_2032_2245)"/>
<mask id="mask2_2032_2245" style="mask-type:luminance" maskUnits="userSpaceOnUse" x="183" y="17" width="43" height="43">
<path d="M201.547 55.5057C201.48 55.4912 201.407 55.4815 201.339 55.4669C201.271 55.4524 201.198 55.4427 201.126 55.4233C197.95 54.7833 195.084 53.29 192.786 51.1857C192.733 51.1372 192.675 51.0839 192.616 51.0306C192.563 50.9772 192.505 50.9239 192.447 50.8657C189.14 47.6851 187.08 43.21 187.08 38.25C187.08 28.5772 194.924 20.7324 204.597 20.7324C214.27 20.7324 222.11 28.5772 222.11 38.25C222.11 43.2051 220.049 47.6803 216.747 50.8657C216.694 50.9191 216.636 50.9772 216.578 51.0257L216.408 51.1857C214.11 53.2851 211.244 54.7881 208.069 55.4233C208.001 55.4378 207.928 55.4524 207.855 55.4669C207.787 55.4815 207.715 55.4912 207.647 55.5057C206.653 55.6803 205.635 55.7724 204.592 55.7724C203.55 55.7724 202.532 55.6803 201.538 55.5057M206.226 18.3566C205.111 19.2245 203.797 18.9627 202.745 18.1724C201.775 17.4354 200.549 17.1591 199.351 17.3724C198.221 17.576 197.223 18.2451 196.568 19.1857C196.277 19.6075 196.141 20.0924 195.889 20.5336C195.589 21.0669 195.099 21.4791 194.522 21.6924C194.037 21.8718 193.562 21.8572 193.053 21.8039C192.398 21.7263 191.744 21.7409 191.109 21.9494C189.95 22.3324 188.985 23.1857 188.481 24.3009C188.229 24.8633 188.093 25.4694 188.098 26.0851C188.098 26.6718 188.267 27.2148 188.146 27.8063C188.03 28.3494 187.744 28.8439 187.336 29.2172C186.895 29.61 186.343 29.7409 185.838 30.0221C183.734 31.2003 183.012 34.0366 184.292 36.0779C184.607 36.5821 184.995 36.9603 185.16 37.5566C185.339 38.2112 185.256 38.9142 184.927 39.5106C184.675 39.9712 184.296 40.3348 184.069 40.8148C183.807 41.3772 183.656 41.9736 183.637 42.5894C183.598 43.7288 184.049 44.8585 184.82 45.6827C185.615 46.5312 186.861 46.6718 187.589 47.5494C188.456 48.6015 187.986 49.673 188.117 50.8754C188.253 52.1215 188.917 53.2366 189.94 53.9591C190.309 54.2209 190.692 54.4003 191.084 54.5166C191.152 54.5409 191.225 54.5554 191.293 54.5748C191.361 54.5894 191.433 54.6088 191.506 54.6185C192.059 54.7203 192.641 54.7203 193.247 54.6621C194.478 54.5457 195.55 55.1615 196.054 56.2912C196.529 57.3578 197.169 58.2451 198.25 58.7591C198.721 58.9821 199.22 59.1227 199.729 59.1712C199.807 59.1809 199.875 59.1857 199.952 59.1857C200.025 59.1857 200.098 59.1906 200.175 59.1906C200.68 59.1906 201.184 59.1033 201.669 58.9191C202.813 58.4827 203.564 57.4257 204.912 57.5954C206.105 57.7409 206.871 58.8075 208.04 59.0791C208.36 59.1518 208.689 59.1906 209.019 59.1954C209.096 59.1954 209.169 59.1954 209.242 59.1906C209.315 59.1906 209.387 59.1857 209.465 59.176C210.12 59.113 210.764 58.9094 211.327 58.5603C211.821 58.2548 212.243 57.8524 212.583 57.3821C212.922 56.9118 213.058 56.3591 213.358 55.8742C214.061 54.7542 215.172 54.5991 216.374 54.7203C216.82 54.7639 217.266 54.7348 217.698 54.6378C217.766 54.6233 217.838 54.6088 217.906 54.5894C217.974 54.57 218.042 54.5506 218.11 54.5263C218.696 54.3324 219.24 54.0172 219.705 53.5954C220.592 52.7954 221.111 51.593 221.106 50.4003C221.096 49.8475 220.941 49.3288 221.038 48.776C221.145 48.1651 221.465 47.6075 221.94 47.21C222.362 46.8512 222.886 46.73 223.361 46.4633C223.899 46.1627 224.364 45.736 224.723 45.2415C225.402 44.3203 225.673 43.1469 225.499 42.0172C225.421 41.4839 225.237 40.9554 224.956 40.49C224.636 39.9615 224.204 39.5542 224.04 38.9336C223.88 38.3469 223.923 37.7166 224.17 37.1639C224.413 36.6209 224.869 36.2136 225.126 35.6706C226.221 33.3869 225.106 30.7494 222.827 29.7651C221.775 29.3142 221 28.4609 221 27.2585C221 26.7348 221.13 26.2306 221.082 25.7021C221.029 25.0621 220.84 24.4415 220.515 23.8888C219.904 22.8463 218.832 22.056 217.644 21.8282C217.189 21.7409 216.738 21.7651 216.292 21.7894C215.598 21.8282 214.924 21.8669 214.275 21.4888C213.193 20.8682 213.063 19.6075 212.282 18.7203C211.526 17.8621 210.42 17.3627 209.286 17.29C209.198 17.2851 209.111 17.2803 209.024 17.2803C207.996 17.2803 207.012 17.6827 206.226 18.3421" fill="white"/>
</mask>
<g mask="url(#mask2_2032_2245)">
<path d="M226.22 17.1592H183.016V59.2052H226.22V17.1592Z" fill="url(#paint2_linear_2032_2245)"/>
</g>
<mask id="mask3_2032_2245" style="mask-type:luminance" maskUnits="userSpaceOnUse" x="189" y="22" width="32" height="33">
<path d="M193.818 48.819C193.764 48.7657 193.711 48.7027 193.658 48.6445C191.141 45.9051 189.604 42.2542 189.604 38.2445C189.604 29.7597 196.508 22.8554 204.993 22.8554C213.478 22.8554 220.378 29.7597 220.378 38.2445C220.378 42.2493 218.841 45.9002 216.324 48.6445C216.271 48.7027 216.218 48.7609 216.164 48.819C216.111 48.8772 216.058 48.9354 215.999 48.9887C213.808 51.2336 210.938 52.8142 207.723 53.396C207.655 53.4057 207.582 53.4203 207.51 53.43C207.442 53.4445 207.369 53.4542 207.296 53.4687C206.545 53.5803 205.779 53.6384 204.998 53.6384C204.218 53.6384 203.447 53.5803 202.695 53.4687C202.627 53.459 202.555 53.4445 202.487 53.43C202.409 53.4203 202.341 53.4057 202.273 53.3912C199.059 52.8142 196.188 51.2384 193.997 48.9887C193.939 48.9354 193.89 48.8772 193.832 48.819M189.178 38.2494C189.178 42.4433 190.821 46.259 193.493 49.0954C193.546 49.1536 193.599 49.2118 193.653 49.2651C193.706 49.3184 193.759 49.3766 193.818 49.4348C196.033 51.6506 198.904 53.2118 202.108 53.8033C202.181 53.813 202.249 53.8275 202.322 53.8372C202.395 53.8518 202.462 53.8615 202.53 53.8712C203.33 53.9972 204.15 54.0651 204.984 54.0651C205.818 54.0651 206.632 54.0021 207.432 53.8712C207.505 53.8615 207.578 53.8518 207.645 53.8372C207.718 53.8275 207.786 53.813 207.859 53.8033C211.068 53.2118 213.934 51.6457 216.15 49.4348C216.208 49.3815 216.261 49.3233 216.315 49.2651C216.373 49.2118 216.426 49.1536 216.475 49.0954C219.151 46.259 220.79 42.4433 220.79 38.2494C220.79 29.5318 213.696 22.4336 204.974 22.4336C196.252 22.4336 189.158 29.5318 189.158 38.2494" fill="white"/>
</mask>
<g mask="url(#mask3_2032_2245)">
<path d="M220.804 22.4336H189.178V54.0651H220.804V22.4336Z" fill="url(#paint3_linear_2032_2245)"/>
</g>
<mask id="mask4_2032_2245" style="mask-type:luminance" maskUnits="userSpaceOnUse" x="183" y="17" width="43" height="43">
<path d="M204.539 20.9502C214.081 20.9502 221.843 28.7126 221.843 38.2496C221.843 43.1029 219.836 47.4908 216.607 50.6375C216.553 50.6908 216.5 50.7441 216.437 50.7974C216.384 50.8556 216.33 50.9041 216.272 50.9575C213.979 53.0762 211.113 54.5841 207.938 55.2193C207.87 55.2338 207.797 55.2484 207.729 55.2629C207.657 55.2775 207.589 55.2871 207.516 55.3017C206.551 55.4714 205.557 55.5587 204.539 55.5587C203.521 55.5587 202.527 55.4714 201.562 55.3017C201.489 55.292 201.421 55.2775 201.349 55.2629C201.281 55.2484 201.208 55.2338 201.135 55.2193C197.96 54.5841 195.094 53.0811 192.806 50.9575C192.747 50.9041 192.689 50.8556 192.636 50.7974C192.578 50.749 192.52 50.6908 192.466 50.6375C189.242 47.4908 187.235 43.1029 187.235 38.2496C187.235 28.7078 194.997 20.9502 204.534 20.9502M186.808 38.2496C186.808 43.2872 188.922 47.8447 192.306 51.0738C192.364 51.1271 192.418 51.1805 192.476 51.2338C192.534 51.2872 192.587 51.3356 192.646 51.389C194.958 53.4787 197.819 54.972 200.985 55.6217C201.058 55.6362 201.126 55.6508 201.198 55.6653C201.266 55.6799 201.339 55.6896 201.412 55.7041C202.425 55.8884 203.472 55.9805 204.539 55.9805C205.606 55.9805 206.648 55.8884 207.666 55.7041C207.734 55.6896 207.807 55.6799 207.88 55.6653C207.952 55.6508 208.02 55.6411 208.088 55.6217C211.259 54.9768 214.12 53.4835 216.432 51.389C216.49 51.3356 216.549 51.2872 216.602 51.2338C216.655 51.1805 216.713 51.1271 216.772 51.0738C220.156 47.8447 222.27 43.2872 222.27 38.2496C222.27 28.475 214.318 20.5187 204.539 20.5187C194.76 20.5187 186.808 28.475 186.808 38.2496ZM206.304 18.5162C207.157 17.8035 208.195 17.4496 209.218 17.5175C210.328 17.5902 211.366 18.0847 212.064 18.8799C212.355 19.2096 212.558 19.6168 212.757 20.0047C213.072 20.635 213.402 21.2847 214.115 21.692C214.818 22.0993 215.545 22.0605 216.248 22.0217C216.68 21.9974 217.121 21.9732 217.547 22.0556C218.663 22.269 219.681 23.0011 220.272 24.0144C220.573 24.5284 220.762 25.1247 220.815 25.7356C220.84 26.0217 220.815 26.2981 220.777 26.5938C220.752 26.812 220.728 27.0399 220.728 27.2726C220.728 28.4556 221.436 29.4399 222.682 29.9781C223.758 30.4387 224.612 31.3259 225.014 32.4071C225.407 33.4544 225.358 34.5841 224.873 35.5975C224.757 35.8399 224.597 36.0532 224.427 36.2811C224.243 36.5284 224.054 36.7902 223.918 37.0908C223.647 37.6871 223.598 38.3659 223.773 39.0011C223.894 39.452 224.146 39.7962 224.389 40.1259C224.505 40.2811 224.617 40.4411 224.718 40.6108C224.98 41.0423 225.155 41.5465 225.237 42.0605C225.402 43.1465 225.135 44.2617 224.5 45.1296C224.146 45.6144 223.695 46.0168 223.201 46.2932C223.031 46.3853 222.861 46.4629 222.677 46.5356C222.362 46.6714 222.037 46.812 221.746 47.0593C221.232 47.4908 220.883 48.092 220.772 48.7562C220.704 49.1247 220.747 49.4835 220.786 49.8181C220.81 50.0217 220.835 50.2156 220.835 50.4144C220.84 51.5538 220.345 52.6932 219.506 53.4496C219.055 53.8568 218.532 54.1575 217.974 54.3368C217.906 54.3611 217.834 54.3805 217.766 54.3999C217.698 54.4193 217.63 54.4387 217.562 54.4484C217.16 54.5356 216.747 54.5599 216.335 54.5211C215.269 54.4193 213.94 54.4629 213.121 55.772C212.975 56.0047 212.869 56.252 212.757 56.4896C212.636 56.7659 212.52 57.0278 212.35 57.2702C212.02 57.7308 211.613 58.109 211.152 58.395C210.604 58.7296 209.974 58.9332 209.329 58.9865C209.257 58.9962 209.184 58.9962 209.106 58.9962C209.029 58.9962 208.956 58.9962 208.878 58.9962C208.592 58.9962 208.311 58.9526 208.03 58.8896C207.521 58.7732 207.089 58.4871 206.633 58.1914C206.105 57.8471 205.562 57.4932 204.878 57.4059C204.772 57.3914 204.67 57.3865 204.568 57.3865C203.773 57.3865 203.177 57.7744 202.595 58.1526C202.255 58.3708 201.911 58.5987 201.528 58.7441C201.106 58.9041 200.65 58.9914 200.195 59.0011C200.117 59.0011 200.044 59.0011 199.967 59.0011C199.894 59.0011 199.821 58.9962 199.744 58.9865C199.244 58.9478 198.75 58.812 198.284 58.5938C197.373 58.1623 196.723 57.435 196.19 56.2326C195.652 55.0253 194.493 54.3465 193.169 54.4774C192.544 54.5405 192.006 54.5308 191.526 54.4435C191.453 54.429 191.38 54.4144 191.312 54.3999C191.24 54.3853 191.172 54.3659 191.104 54.3465C190.711 54.2302 190.352 54.0508 190.013 53.8132C189.038 53.1199 188.408 52.0532 188.282 50.875C188.238 50.5211 188.258 50.1623 188.277 49.8181C188.316 49.0375 188.355 48.2278 187.7 47.4423C187.298 46.9478 186.75 46.6762 186.221 46.4096C185.737 46.172 185.281 45.9441 184.927 45.5611C184.175 44.7562 183.763 43.6847 183.797 42.6181C183.817 42.0411 183.952 41.469 184.209 40.9259C184.326 40.6835 184.481 40.4702 184.65 40.2472C184.791 40.0532 184.941 39.8544 185.063 39.6314C185.417 38.9865 185.504 38.2156 185.315 37.5175C185.189 37.0617 184.941 36.7272 184.709 36.3975C184.612 36.2665 184.51 36.1259 184.418 35.9805C183.841 35.0593 183.666 33.8956 183.947 32.7902C184.229 31.6944 184.937 30.7587 185.887 30.2253C186.057 30.1332 186.226 30.0556 186.41 29.9781C186.755 29.8278 187.109 29.6726 187.419 29.3914C187.865 28.9938 188.17 28.4459 188.297 27.869C188.384 27.4617 188.335 27.0835 188.297 26.7102C188.272 26.5017 188.248 26.3029 188.248 26.1041C188.248 25.5368 188.374 24.9502 188.617 24.4023C189.092 23.3502 190.003 22.5356 191.118 22.1671C191.661 21.9878 192.253 21.9441 192.97 22.0265C193.46 22.0847 193.989 22.109 194.541 21.9053C195.167 21.6726 195.695 21.2265 196.02 20.6496C196.132 20.4556 196.219 20.252 196.306 20.0532C196.423 19.7914 196.529 19.5441 196.689 19.3162C197.32 18.4096 198.284 17.7841 199.337 17.595C200.481 17.3865 201.659 17.6629 202.561 18.3514C203.235 18.8653 203.947 19.1223 204.631 19.1223C205.227 19.1223 205.8 18.9235 206.309 18.5308M206.032 18.1865C205.591 18.5259 204.398 19.1999 202.813 18.0023C201.814 17.2411 200.515 16.9356 199.254 17.1635C198.095 17.372 197.034 18.0653 196.335 19.069C196.156 19.3308 196.035 19.6071 195.914 19.8787C195.831 20.0726 195.754 20.2568 195.652 20.4362C195.375 20.9211 194.929 21.2993 194.391 21.4981C193.93 21.6678 193.46 21.6484 193.024 21.595C192.253 21.5029 191.589 21.5562 190.992 21.755C189.766 22.1574 188.762 23.0593 188.234 24.2229C187.962 24.8241 187.826 25.469 187.826 26.0993C187.826 26.3271 187.85 26.5453 187.875 26.7538C187.913 27.1029 187.952 27.4374 187.88 27.7768C187.778 28.2714 187.511 28.732 187.133 29.0714C186.876 29.3041 186.566 29.4399 186.241 29.5805C186.057 29.6581 185.867 29.7453 185.678 29.8471C184.626 30.4338 183.841 31.4714 183.53 32.6787C183.22 33.8908 183.414 35.1756 184.054 36.1987C184.156 36.3538 184.258 36.4993 184.36 36.6399C184.583 36.9502 184.796 37.2411 184.903 37.6241C185.067 38.2156 184.985 38.875 184.689 39.4229C184.583 39.6217 184.452 39.7962 184.306 39.9853C184.137 40.2181 183.957 40.4556 183.826 40.7368C183.54 41.3381 183.395 41.9635 183.37 42.5987C183.341 43.7817 183.787 44.9599 184.617 45.8423C185.024 46.2787 185.538 46.5356 186.032 46.7829C186.541 47.035 187.026 47.2775 187.375 47.6993C187.918 48.3587 187.884 49.0229 187.85 49.7841C187.831 50.1478 187.812 50.5162 187.855 50.909C187.991 52.2035 188.689 53.3769 189.761 54.1429C190.154 54.4241 190.551 54.6084 190.954 54.7296C191.026 54.7538 191.094 54.7732 191.162 54.7878C191.235 54.8071 191.303 54.8217 191.37 54.8362C192.015 54.9623 192.641 54.9429 193.208 54.8847C194.347 54.7781 195.337 55.355 195.797 56.3877C196.379 57.692 197.087 58.4871 198.1 58.9623C198.575 59.1853 199.08 59.3308 199.589 59.3841C199.661 59.3938 199.734 59.3987 199.812 59.4084C199.884 59.4084 199.957 59.4132 200.035 59.4132C200.597 59.4229 201.155 59.3308 201.678 59.132C202.1 58.972 202.469 58.7296 202.823 58.5017C203.438 58.0993 204.02 57.7259 204.82 57.8229C205.397 57.8956 205.882 58.2108 206.391 58.5453C206.857 58.8508 207.341 59.1659 207.923 59.3017C208.272 59.3841 208.626 59.4229 208.98 59.4229C208.995 59.4229 209.014 59.4229 209.029 59.4229C209.101 59.4229 209.174 59.4229 209.252 59.4181C209.324 59.4181 209.397 59.4084 209.475 59.3938C210.149 59.3259 210.798 59.1126 211.37 58.7635C211.884 58.4435 212.33 58.0266 212.689 57.5223C212.888 57.2508 213.019 56.955 213.145 56.669C213.247 56.4362 213.344 56.2132 213.475 56.0096C214.023 55.132 214.866 54.8168 216.282 54.9526C216.757 55.0011 217.232 54.9671 217.698 54.8605C217.766 54.8459 217.838 54.8314 217.906 54.8072C217.974 54.7926 218.042 54.7684 218.11 54.7441C218.716 54.5453 219.288 54.2156 219.778 53.7744C220.704 52.9356 221.252 51.6799 221.247 50.4193C221.247 50.1962 221.223 49.9829 221.198 49.7744C221.16 49.4496 221.121 49.1441 221.179 48.8338C221.281 48.2714 221.572 47.7623 222.008 47.3938C222.25 47.1902 222.537 47.0641 222.837 46.9332C223.021 46.8556 223.21 46.7732 223.4 46.6665C223.943 46.3659 224.437 45.9199 224.83 45.3865C225.383 44.635 225.683 43.7041 225.693 42.7635V42.6423C225.693 42.429 225.674 42.2156 225.64 42.0023C225.557 41.435 225.354 40.8774 225.067 40.4023C224.956 40.2181 224.835 40.0484 224.718 39.8884C224.49 39.5732 224.272 39.2726 224.17 38.8993C224.02 38.3611 224.064 37.7793 224.292 37.275C224.408 37.0181 224.578 36.7902 224.757 36.5429C224.927 36.3053 225.111 36.0678 225.247 35.7914C225.533 35.1853 225.683 34.5405 225.693 33.8956V33.7987C225.688 33.2847 225.591 32.7659 225.402 32.2665C224.956 31.0787 224.02 30.1041 222.842 29.595C222.202 29.3235 221.14 28.6593 221.145 27.2823C221.145 27.0738 221.169 26.8653 221.193 26.6472C221.223 26.3465 221.257 26.0314 221.227 25.7017C221.169 25.0229 220.961 24.3684 220.626 23.8011C219.972 22.6859 218.847 21.8762 217.61 21.6387C217.135 21.5465 216.665 21.5708 216.209 21.595C215.54 21.6338 214.905 21.6629 214.309 21.3235C213.707 20.9793 213.421 20.412 213.121 19.8108C212.912 19.3987 212.699 18.972 212.369 18.5987C211.594 17.7211 210.449 17.1732 209.223 17.0956C209.13 17.0908 209.038 17.0859 208.946 17.0859C207.904 17.0859 206.871 17.4738 206.013 18.1914" fill="white"/>
</mask>
<g mask="url(#mask4_2032_2245)">
<path d="M225.703 16.9355H183.221V59.4277H225.703V16.9355Z" fill="url(#paint4_linear_2032_2245)"/>
</g>
<path d="M195.327 15.6846L192.485 10.6373V15.6846H190.822V7.41309H192.51L195.254 12.2713V7.41309H196.912V15.6846H195.327Z" fill="#6C4327"/>
<path d="M202.739 15.6846L202.356 14.2203H199.786L199.389 15.6846H197.59L200.072 7.4082H202.07L204.538 15.6846H202.739ZM201.066 9.15851L200.111 12.7561H202.036L201.066 9.15851Z" fill="#6C4327"/>
<path d="M209.96 15.6846L209.577 14.2203H207.007L206.609 15.6846H204.811L207.293 7.4082H209.291L211.758 15.6846H209.96ZM208.282 9.15851L207.327 12.7561H209.252L208.282 9.15851Z" fill="#6C4327"/>
<path d="M211.879 11.5537C211.879 9.03731 213.232 7.27246 215.404 7.27246C216.98 7.27246 217.75 8.30519 218.172 9.25549L216.795 9.86155C216.548 9.20216 216.063 8.7464 215.404 8.7464C214.264 8.7464 213.581 9.91489 213.581 11.5488C213.581 13.1828 214.264 14.3513 215.404 14.3513C216.087 14.3513 216.567 13.8276 216.805 13.1488L218.182 13.7452C217.775 14.7246 217.004 15.83 215.404 15.83C213.232 15.83 211.879 14.0555 211.879 11.5537Z" fill="#6C4327"/>
<path d="M203.957 48.368L203.545 45.6335H200.398L200.015 48.368H194.691L198.982 28.7607H204.946L209.271 48.368H203.947H203.957ZM201.988 34.3801L201.019 41.1098H202.958L201.988 34.3801Z" fill="white"/>
<path d="M214.865 39.8159V43.8741H211.806V39.8159H208.484V37.0814H211.806V33.2607H214.865V37.0814H218.186V39.8159H214.865Z" fill="white"/>
</g>
<defs>
<radialGradient id="paint0_radial_2032_2245" cx="0" cy="0" r="1" gradientUnits="userSpaceOnUse" gradientTransform="translate(205.396 37.7721) scale(19.1059 19.1059)">
<stop stop-color="#C92800"/>
<stop offset="1" stop-color="#780000"/>
</radialGradient>
<linearGradient id="paint1_linear_2032_2245" x1="185.557" y1="38.0698" x2="224.69" y2="38.0698" gradientUnits="userSpaceOnUse">
<stop stop-color="#C08F2F"/>
<stop offset="0.3" stop-color="#F4EAD1"/>
<stop offset="0.41" stop-color="#F2DE9A"/>
<stop offset="1" stop-color="#C1902F"/>
</linearGradient>
<linearGradient id="paint2_linear_2032_2245" x1="183.19" y1="38.7773" x2="225.178" y2="38.7773" gradientUnits="userSpaceOnUse">
<stop stop-color="#C6972F"/>
<stop offset="0.12" stop-color="#B37E10"/>
<stop offset="0.26" stop-color="#F8DD7B"/>
<stop offset="0.37" stop-color="#F8DD7B"/>
<stop offset="0.38" stop-color="#F6DA77"/>
<stop offset="0.5" stop-color="#DEB952"/>
<stop offset="0.62" stop-color="#CB9F35"/>
<stop offset="0.74" stop-color="#BD8C20"/>
<stop offset="0.86" stop-color="#B58114"/>
<stop offset="0.97" stop-color="#B37E10"/>
<stop offset="1" stop-color="#B37E10"/>
</linearGradient>
<linearGradient id="paint3_linear_2032_2245" x1="189.235" y1="38.1532" x2="220.851" y2="38.1532" gradientUnits="userSpaceOnUse">
<stop stop-color="#C6972F"/>
<stop offset="0.12" stop-color="#B37E10"/>
<stop offset="0.26" stop-color="#F8DD7B"/>
<stop offset="0.37" stop-color="#F8DD7B"/>
<stop offset="0.38" stop-color="#F6DA77"/>
<stop offset="0.5" stop-color="#DEB952"/>
<stop offset="0.62" stop-color="#CB9F35"/>
<stop offset="0.74" stop-color="#BD8C20"/>
<stop offset="0.86" stop-color="#B58114"/>
<stop offset="0.97" stop-color="#B37E10"/>
<stop offset="1" stop-color="#B37E10"/>
</linearGradient>
<linearGradient id="paint4_linear_2032_2245" x1="183.653" y1="37.7787" x2="225.974" y2="37.7787" gradientUnits="userSpaceOnUse">
<stop stop-color="#B37E10"/>
<stop offset="0.03" stop-color="#B37E10"/>
<stop offset="0.14" stop-color="#B58114"/>
<stop offset="0.26" stop-color="#BD8C20"/>
<stop offset="0.38" stop-color="#CB9F35"/>
<stop offset="0.5" stop-color="#DEB952"/>
<stop offset="0.62" stop-color="#F6DA77"/>
<stop offset="0.63" stop-color="#F8DD7B"/>
<stop offset="0.74" stop-color="#F8DD7B"/>
<stop offset="0.88" stop-color="#B37E10"/>
<stop offset="1" stop-color="#C6972F"/>
</linearGradient>
<clipPath id="clip0_2032_2245">
<rect width="225.939" height="64" fill="white"/>
</clipPath>
</defs>
</svg>
