<?xml version="1.0" encoding="UTF-8"?>
<svg xmlns="http://www.w3.org/2000/svg" width="115" height="51" viewBox="0 0 115 51" fill="none">
  <path d="M50.7743 24.71L49.8649 23.4135V24.9971V31.4569H49.066V22.1367H49.6693L54.3863 28.8376L55.2952 30.1287V28.5497V22.1367H56.094V31.4569H55.5062L50.7743 24.71Z" fill="white" stroke="white"></path>
  <mask id="path-2-inside-1_1_424" fill="white">
    <path d="M65.7442 24.5009V31.9592H64.0149V30.8374C63.5095 31.6476 62.6226 32.1202 61.5821 32.1202C59.4712 32.1202 58.0938 30.3803 58.0938 28.1989C58.0938 26.0175 59.4167 24.3398 61.5969 24.3398C62.5532 24.3398 63.4402 24.7502 64.0149 25.6071V24.5009H65.7442ZM61.9339 30.5984C63.1131 30.5984 64.0546 29.757 64.0546 28.2872C64.0546 26.8173 63.1676 25.8564 61.8893 25.8564C60.6109 25.8564 59.8379 26.9316 59.8379 28.2145C59.8379 29.4973 60.6406 30.6036 61.9339 30.6036"></path>
  </mask>
  <path d="M65.7442 24.5009V31.9592H64.0149V30.8374C63.5095 31.6476 62.6226 32.1202 61.5821 32.1202C59.4712 32.1202 58.0938 30.3803 58.0938 28.1989C58.0938 26.0175 59.4167 24.3398 61.5969 24.3398C62.5532 24.3398 63.4402 24.7502 64.0149 25.6071V24.5009H65.7442ZM61.9339 30.5984C63.1131 30.5984 64.0546 29.757 64.0546 28.2872C64.0546 26.8173 63.1676 25.8564 61.8893 25.8564C60.6109 25.8564 59.8379 26.9316 59.8379 28.2145C59.8379 29.4973 60.6406 30.6036 61.9339 30.6036" fill="white"></path>
  <path d="M65.7442 24.5009H66.7442V23.5009H65.7442V24.5009ZM65.7442 31.9592V32.9592H66.7442V31.9592H65.7442ZM64.0149 31.9592H63.0149V32.9592H64.0149V31.9592ZM64.0149 30.8374H65.0149V27.3447L63.1665 30.3081L64.0149 30.8374ZM64.0149 25.6071L63.1844 26.1642L65.0149 28.8934V25.6071H64.0149ZM64.0149 24.5009V23.5009H63.0149V24.5009H64.0149ZM64.7442 24.5009V31.9592H66.7442V24.5009H64.7442ZM65.7442 30.9592H64.0149V32.9592H65.7442V30.9592ZM65.0149 31.9592V30.8374H63.0149V31.9592H65.0149ZM63.1665 30.3081C62.8597 30.8 62.3087 31.1202 61.5821 31.1202V33.1202C62.9365 33.1202 64.1594 32.4952 64.8634 31.3666L63.1665 30.3081ZM61.5821 31.1202C60.1602 31.1202 59.0938 29.9755 59.0938 28.1989H57.0938C57.0938 30.7851 58.7822 33.1202 61.5821 33.1202V31.1202ZM59.0938 28.1989C59.0938 27.3052 59.3641 26.5874 59.7816 26.1084C60.1866 25.6438 60.7829 25.3398 61.5969 25.3398V23.3398C60.2307 23.3398 59.0755 23.8747 58.2739 24.7942C57.4849 25.6994 57.0938 26.9112 57.0938 28.1989H59.0938ZM61.5969 25.3398C62.2511 25.3398 62.8121 25.609 63.1844 26.1642L64.8454 25.0501C64.0682 23.8913 62.8553 23.3398 61.5969 23.3398V25.3398ZM65.0149 25.6071V24.5009H63.0149V25.6071H65.0149ZM64.0149 25.5009H65.7442V23.5009H64.0149V25.5009ZM61.9339 31.5984C62.766 31.5984 63.5642 31.2977 64.1538 30.6907C64.7448 30.0822 65.0546 29.2408 65.0546 28.2872H63.0546C63.0546 28.8034 62.8936 29.1176 62.7191 29.2973C62.5432 29.4784 62.281 29.5984 61.9339 29.5984V31.5984ZM65.0546 28.2872C65.0546 27.3528 64.7707 26.4918 64.1946 25.8517C63.611 25.2032 62.7928 24.8564 61.8893 24.8564V26.8564C62.2641 26.8564 62.5286 26.9902 62.708 27.1896C62.895 27.3974 63.0546 27.7517 63.0546 28.2872H65.0546ZM61.8893 24.8564C60.9429 24.8564 60.1497 25.2654 59.6119 25.9191C59.0886 26.5552 58.8379 27.3803 58.8379 28.2145H60.8379C60.8379 27.7657 60.9737 27.4118 61.1564 27.1897C61.3248 26.9851 61.5572 26.8564 61.8893 26.8564V24.8564ZM58.8379 28.2145C58.8379 29.8662 59.9212 31.6036 61.9339 31.6036V29.6036C61.36 29.6036 60.8379 29.1285 60.8379 28.2145H58.8379Z" fill="white" mask="url(#path-2-inside-1_1_424)"></path>
  <path d="M69.7218 34.8253H69.0826L70.2728 31.685L70.3445 31.4957L70.2644 31.3099L67.5427 24.9961H68.3948L70.2098 29.7841L70.6871 31.0432L71.1472 29.7777L72.8857 24.9961H73.729L69.7218 34.8253Z" fill="white" stroke="white"></path>
  <mask id="path-5-inside-2_1_424" fill="white">
    <path d="M82.4063 24.5009V31.9592H80.677V30.8374C80.1716 31.6476 79.2847 32.1202 78.2442 32.1202C76.1333 32.1202 74.7559 30.3803 74.7559 28.1989C74.7559 26.0175 76.0788 24.3398 78.259 24.3398C79.2153 24.3398 80.1023 24.7502 80.677 25.6071V24.5009H82.4063ZM78.596 30.5984C79.7752 30.5984 80.7167 29.757 80.7167 28.2872C80.7167 26.8173 79.8297 25.8564 78.5514 25.8564C77.273 25.8564 76.5 26.9316 76.5 28.2145C76.5 29.4973 77.3027 30.6036 78.596 30.6036"></path>
  </mask>
  <path d="M82.4063 24.5009V31.9592H80.677V30.8374C80.1716 31.6476 79.2847 32.1202 78.2442 32.1202C76.1333 32.1202 74.7559 30.3803 74.7559 28.1989C74.7559 26.0175 76.0788 24.3398 78.259 24.3398C79.2153 24.3398 80.1023 24.7502 80.677 25.6071V24.5009H82.4063ZM78.596 30.5984C79.7752 30.5984 80.7167 29.757 80.7167 28.2872C80.7167 26.8173 79.8297 25.8564 78.5514 25.8564C77.273 25.8564 76.5 26.9316 76.5 28.2145C76.5 29.4973 77.3027 30.6036 78.596 30.6036" fill="white"></path>
  <path d="M82.4063 24.5009H83.4063V23.5009H82.4063V24.5009ZM82.4063 31.9592V32.9592H83.4063V31.9592H82.4063ZM80.677 31.9592H79.677V32.9592H80.677V31.9592ZM80.677 30.8374H81.677V27.3447L79.8286 30.3081L80.677 30.8374ZM80.677 25.6071L79.8465 26.1642L81.677 28.8934V25.6071H80.677ZM80.677 24.5009V23.5009H79.677V24.5009H80.677ZM81.4063 24.5009V31.9592H83.4063V24.5009H81.4063ZM82.4063 30.9592H80.677V32.9592H82.4063V30.9592ZM81.677 31.9592V30.8374H79.677V31.9592H81.677ZM79.8286 30.3081C79.5218 30.8 78.9708 31.1202 78.2442 31.1202V33.1202C79.5986 33.1202 80.8215 32.4952 81.5255 31.3666L79.8286 30.3081ZM78.2442 31.1202C76.8224 31.1202 75.7559 29.9755 75.7559 28.1989H73.7559C73.7559 30.7851 75.4443 33.1202 78.2442 33.1202V31.1202ZM75.7559 28.1989C75.7559 27.3052 76.0262 26.5874 76.4437 26.1084C76.8487 25.6438 77.445 25.3398 78.259 25.3398V23.3398C76.8928 23.3398 75.7376 23.8747 74.9361 24.7942C74.147 25.6994 73.7559 26.9112 73.7559 28.1989H75.7559ZM78.259 25.3398C78.9132 25.3398 79.4742 25.609 79.8465 26.1642L81.5076 25.0501C80.7303 23.8913 79.5174 23.3398 78.259 23.3398V25.3398ZM81.677 25.6071V24.5009H79.677V25.6071H81.677ZM80.677 25.5009H82.4063V23.5009H80.677V25.5009ZM78.596 31.5984C79.4281 31.5984 80.2263 31.2977 80.8159 30.6907C81.4069 30.0822 81.7167 29.2408 81.7167 28.2872H79.7167C79.7167 28.8034 79.5557 29.1176 79.3812 29.2973C79.2053 29.4784 78.9431 29.5984 78.596 29.5984V31.5984ZM81.7167 28.2872C81.7167 27.3528 81.4328 26.4918 80.8567 25.8517C80.2731 25.2032 79.4549 24.8564 78.5514 24.8564V26.8564C78.9262 26.8564 79.1907 26.9902 79.3701 27.1896C79.5571 27.3974 79.7167 27.7517 79.7167 28.2872H81.7167ZM78.5514 24.8564C77.605 24.8564 76.8118 25.2654 76.274 25.9191C75.7507 26.5552 75.5 27.3803 75.5 28.2145H77.5C77.5 27.7657 77.6358 27.4118 77.8185 27.1897C77.9869 26.9851 78.2193 26.8564 78.5514 26.8564V24.8564ZM75.5 28.2145C75.5 29.8662 76.5834 31.6036 78.596 31.6036V29.6036C78.0221 29.6036 77.5 29.1285 77.5 28.2145H75.5Z" fill="white" mask="url(#path-5-inside-2_1_424)"></path>
  <path d="M84.7363 25.0009H85.4656V25.7526L86.3119 25.9394C86.244 26.0022 86.1792 26.0702 86.1178 26.1433C85.6923 26.6503 85.4656 27.3645 85.4656 28.23V31.4592H84.7363V25.0009ZM87.794 25.372C87.3311 25.372 86.8909 25.5049 86.5198 25.7701C86.8918 25.1339 87.4987 24.8398 88.2697 24.8398C89.0135 24.8398 89.5127 25.1113 89.8449 25.5718C90.1954 26.0576 90.4008 26.8121 90.4008 27.8353V31.4592H89.6715V27.8457C89.6715 27.1406 89.5319 26.5292 89.2106 26.0807C88.8727 25.609 88.3717 25.372 87.794 25.372Z" fill="white" stroke="white"></path>
  <path d="M94.1703 24.4983V24.9983H94.6703H96.291V25.3851H94.6703H94.1703V25.8851V29.7909C94.1703 30.0737 94.2249 30.4004 94.425 30.6673C94.6439 30.9593 94.9766 31.1011 95.359 31.1011C95.6995 31.1011 96.0131 30.9717 96.238 30.7253C96.4593 30.4829 96.5626 30.1634 96.5626 29.8324C96.5626 29.7963 96.5615 29.7565 96.5593 29.7144H97.0088C97.0112 29.7291 97.0134 29.7441 97.0156 29.7593C97.0345 29.8936 97.0392 30.0105 97.0392 30.0558C97.0392 30.4927 96.8963 30.8752 96.6312 31.1461C96.3702 31.4128 95.9454 31.6177 95.2896 31.6177C94.7644 31.6177 94.3172 31.4985 94.0043 31.2219C93.7032 30.9556 93.441 30.4668 93.441 29.5364V25.8799V25.3799H92.941H92.3311V24.9932H93.0252H93.4539L93.5193 24.5695L93.7611 23.0039H94.1703V24.4932V24.4983Z" fill="white" stroke="white"></path>
  <mask id="path-9-inside-3_1_424" fill="white">
    <path d="M105.72 24.5009V31.9592H103.991V30.8374C103.485 31.6476 102.598 32.1202 101.558 32.1202C99.4468 32.1202 98.0693 30.3803 98.0693 28.1989C98.0693 26.0175 99.3923 24.3398 101.572 24.3398C102.529 24.3398 103.416 24.7502 103.991 25.6071V24.5009H105.72ZM101.909 30.5984C103.089 30.5984 104.03 29.757 104.03 28.2872C104.03 26.8173 103.143 25.8564 101.865 25.8564C100.586 25.8564 99.8135 26.9316 99.8135 28.2145C99.8135 29.4973 100.616 30.6036 101.909 30.6036"></path>
  </mask>
  <path d="M105.72 24.5009V31.9592H103.991V30.8374C103.485 31.6476 102.598 32.1202 101.558 32.1202C99.4468 32.1202 98.0693 30.3803 98.0693 28.1989C98.0693 26.0175 99.3923 24.3398 101.572 24.3398C102.529 24.3398 103.416 24.7502 103.991 25.6071V24.5009H105.72ZM101.909 30.5984C103.089 30.5984 104.03 29.757 104.03 28.2872C104.03 26.8173 103.143 25.8564 101.865 25.8564C100.586 25.8564 99.8135 26.9316 99.8135 28.2145C99.8135 29.4973 100.616 30.6036 101.909 30.6036" fill="white"></path>
  <path d="M105.72 24.5009H106.72V23.5009H105.72V24.5009ZM105.72 31.9592V32.9592H106.72V31.9592H105.72ZM103.991 31.9592H102.991V32.9592H103.991V31.9592ZM103.991 30.8374H104.991V27.3447L103.142 30.3081L103.991 30.8374ZM103.991 25.6071L103.16 26.1642L104.991 28.8934V25.6071H103.991ZM103.991 24.5009V23.5009H102.991V24.5009H103.991ZM104.72 24.5009V31.9592H106.72V24.5009H104.72ZM105.72 30.9592H103.991V32.9592H105.72V30.9592ZM104.991 31.9592V30.8374H102.991V31.9592H104.991ZM103.142 30.3081C102.835 30.8 102.284 31.1202 101.558 31.1202V33.1202C102.912 33.1202 104.135 32.4952 104.839 31.3666L103.142 30.3081ZM101.558 31.1202C100.136 31.1202 99.0693 29.9755 99.0693 28.1989H97.0693C97.0693 30.7851 98.7578 33.1202 101.558 33.1202V31.1202ZM99.0693 28.1989C99.0693 27.3052 99.3397 26.5874 99.7572 26.1084C100.162 25.6438 100.758 25.3398 101.572 25.3398V23.3398C100.206 23.3398 99.051 23.8747 98.2495 24.7942C97.4605 25.6994 97.0693 26.9112 97.0693 28.1989H99.0693ZM101.572 25.3398C102.227 25.3398 102.788 25.609 103.16 26.1642L104.821 25.0501C104.044 23.8913 102.831 23.3398 101.572 23.3398V25.3398ZM104.991 25.6071V24.5009H102.991V25.6071H104.991ZM103.991 25.5009H105.72V23.5009H103.991V25.5009ZM101.909 31.5984C102.742 31.5984 103.54 31.2977 104.129 30.6907C104.72 30.0822 105.03 29.2408 105.03 28.2872H103.03C103.03 28.8034 102.869 29.1176 102.695 29.2973C102.519 29.4784 102.257 29.5984 101.909 29.5984V31.5984ZM105.03 28.2872C105.03 27.3528 104.746 26.4918 104.17 25.8517C103.587 25.2032 102.768 24.8564 101.865 24.8564V26.8564C102.24 26.8564 102.504 26.9902 102.684 27.1896C102.871 27.3974 103.03 27.7517 103.03 28.2872H105.03ZM101.865 24.8564C100.918 24.8564 100.125 25.2654 99.5875 25.9191C99.0642 26.5552 98.8135 27.3803 98.8135 28.2145H100.813C100.813 27.7657 100.949 27.4118 101.132 27.1897C101.3 26.9851 101.533 26.8564 101.865 26.8564V24.8564ZM98.8135 28.2145C98.8135 29.8662 99.8968 31.6036 101.909 31.6036V29.6036C101.336 29.6036 100.813 29.1285 100.813 28.2145H98.8135Z" fill="white" mask="url(#path-9-inside-3_1_424)"></path>
  <path d="M55.8947 37.6133V43.5692C55.8947 44.7661 55.4838 45.6342 54.8706 46.2055C54.2515 46.7824 53.3852 47.0945 52.4153 47.0945C51.4455 47.0945 50.5792 46.7824 49.96 46.2055C49.3469 45.6342 48.936 44.7661 48.936 43.5692V37.6133H49.7349V43.5692C49.7349 44.4786 50.0211 45.2142 50.5286 45.7237C51.0337 46.2308 51.7132 46.4688 52.4153 46.4688C53.1175 46.4688 53.797 46.2308 54.3021 45.7237C54.8096 45.2142 55.0958 44.4786 55.0958 43.5692V37.6133H55.8947Z" fill="white" stroke="white"></path>
  <path d="M58.7583 40.4696H59.4876V41.2213L60.3339 41.4082C60.266 41.471 60.2011 41.5389 60.1397 41.6121C59.7142 42.1191 59.4876 42.8333 59.4876 43.6988V46.928H58.7583V40.4696ZM61.816 40.8408C61.3531 40.8408 60.9129 40.9736 60.5418 41.2388C60.9137 40.6027 61.5207 40.3086 62.2916 40.3086C63.0355 40.3086 63.5347 40.58 63.8669 41.0406C64.2174 41.5264 64.4227 42.2808 64.4227 43.3041V46.928H63.6935V43.3144C63.6935 42.6093 63.5539 41.9979 63.2326 41.5495C62.8946 41.0777 62.3936 40.8408 61.816 40.8408Z" fill="white" stroke="white"></path>
  <path d="M67.5483 37.1094C67.9277 37.1094 68.2054 37.389 68.2054 37.7572C68.2054 38.1165 67.9368 38.3895 67.5483 38.3895C67.1786 38.3895 66.9209 38.1299 66.9209 37.7572C66.9209 37.3755 67.1875 37.1094 67.5483 37.1094ZM67.1742 40.4698H67.9075V46.9282H67.1742V40.4698Z" fill="white" stroke="white"></path>
  <path d="M73.755 45.5765L75.5501 40.4727H76.3409L73.8566 46.931H72.7299L70.2456 40.4727H71.0305L72.8113 45.5754L73.2815 46.9228L73.755 45.5765Z" fill="white" stroke="white"></path>
  <path d="M81.5076 46.5568C82.3616 46.5568 83.0379 46.2832 83.6268 45.829L83.951 46.1638C83.1823 46.8796 82.299 47.089 81.4234 47.089C80.2625 47.089 79.3708 46.6965 78.7708 46.0996C78.1688 45.5008 77.8306 44.667 77.8306 43.73C77.8306 41.8715 79.267 40.3086 81.2252 40.3086C82.0815 40.3086 82.8839 40.5894 83.4697 41.1596C83.9744 41.6508 84.3543 42.392 84.4453 43.4481H79.0598H78.5598V43.9481C78.5598 44.672 78.8426 45.3363 79.3723 45.8154C79.8998 46.2925 80.6385 46.5568 81.5076 46.5568ZM78.6726 42.576L78.4654 43.2275H79.149H83.1973H83.8272L83.6842 42.614C83.5192 41.9063 83.1259 41.4266 82.6479 41.1334C82.1831 40.8483 81.6617 40.7525 81.2301 40.7525C80.3734 40.7525 79.1288 41.1413 78.6726 42.576Z" fill="white" stroke="white"></path>
  <path d="M89.598 41.0485C89.2755 41.0485 88.8529 41.123 88.4608 41.3881C88.7312 40.607 89.3575 40.3086 89.8259 40.3086C89.8583 40.3086 89.8876 40.3095 89.9154 40.3115V41.0672C89.8006 41.0543 89.6925 41.0485 89.598 41.0485ZM87.4087 43.9793V46.928H86.6797V40.4696H87.3789V41.6212V42.1212H87.8043C87.5533 42.5778 87.4087 43.1874 87.4087 43.9793Z" fill="white" stroke="white"></path>
  <path d="M95.5876 41.2058L95.115 41.3856C94.7567 40.8872 94.1828 40.7447 93.7859 40.7447C93.4708 40.7447 93.1298 40.8357 92.8549 41.0404C92.5671 41.2547 92.3593 41.5918 92.3593 42.0238C92.3593 42.3965 92.5283 42.6798 92.7514 42.8787C92.9575 43.0625 93.2124 43.1781 93.423 43.2591L93.423 43.2591L93.4254 43.26L94.4808 43.66L94.4807 43.6601L94.4935 43.6646C95.172 43.9009 95.5294 44.2154 95.7218 44.4981C95.9159 44.7835 95.9715 45.0802 95.9715 45.3271C95.9715 45.8976 95.7265 46.3203 95.3332 46.6148C94.9263 46.9195 94.3423 47.0968 93.6868 47.0968C92.7809 47.0968 91.8831 46.7633 91.4556 45.9294L91.928 45.7205C92.3285 46.3608 93.0682 46.6321 93.7017 46.6321C94.0047 46.6321 94.3719 46.5765 94.6817 46.3926C95.0196 46.1918 95.2719 45.843 95.2719 45.3531C95.2719 44.9896 95.1034 44.7127 94.886 44.5143C94.6844 44.3303 94.4285 44.2013 94.2006 44.1009L94.1916 44.0969L94.1824 44.0933L93.1419 43.683C92.4962 43.4283 92.1359 43.1279 91.9361 42.856C91.7386 42.5873 91.6746 42.3151 91.6746 42.0705C91.6746 41.5241 91.8911 41.1012 92.2427 40.8067C92.6024 40.5054 93.1323 40.3164 93.776 40.3164C94.173 40.3164 94.589 40.3881 94.9439 40.5835C95.1834 40.7155 95.4087 40.9107 95.5876 41.2058Z" fill="white" stroke="white"></path>
  <path d="M98.6957 37.1094C99.0751 37.1094 99.3529 37.389 99.3529 37.7572C99.3529 38.1165 99.0842 38.3895 98.6957 38.3895C98.326 38.3895 98.0684 38.1299 98.0684 37.7572C98.0684 37.3769 98.3385 37.1094 98.6957 37.1094ZM98.3216 40.4698H99.0549V46.9282H98.3216V40.4698Z" fill="white" stroke="white"></path>
  <path d="M103.049 39.971V40.471H103.549H105.17V40.8578H103.549H103.049V41.3578V45.2635C103.049 45.5463 103.104 45.873 103.304 46.14C103.523 46.432 103.855 46.5738 104.238 46.5738C104.578 46.5738 104.892 46.4443 105.117 46.1979C105.338 45.9555 105.442 45.6361 105.442 45.3051C105.442 45.269 105.44 45.2292 105.438 45.187H105.888C105.89 45.2018 105.892 45.2167 105.894 45.232C105.913 45.3663 105.918 45.4832 105.918 45.5284C105.918 45.9654 105.775 46.3478 105.51 46.6187C105.249 46.8854 104.824 47.0904 104.169 47.0904C103.643 47.0904 103.196 46.9712 102.883 46.6945C102.582 46.4282 102.32 45.9395 102.32 45.009V41.3526V40.8526H101.82H101.21V40.4658H101.904H102.333L102.398 40.0421L102.64 38.4766H103.049V39.9658V39.971Z" fill="white" stroke="white"></path>
  <path d="M109.303 50.307H108.664L109.854 47.1668L109.926 46.9776L109.846 46.7918L107.124 40.4727H107.976L109.791 45.2657L110.268 46.5263L110.728 45.2593L112.467 40.4727H113.31L109.303 50.307Z" fill="white" stroke="white"></path>
  <path d="M3.81837 0.363281C3.81837 0.363281 1.48155 0.680107 0.545834 4.16519C0.545834 4.16519 -1.71672 10.9328 6.05122 16.3188C6.05122 16.3188 14.2845 21.5958 15.4628 22.3852C15.4628 22.3852 21.9584 26.3014 24.3249 33.0223C24.3249 33.0223 25.8845 38.3252 22.3149 42.1531C22.3149 42.1531 19.7652 45.1447 17.1461 46.8223C17.1461 46.8223 17.2848 47.3625 18.2502 47.4196C18.9681 47.4612 19.6711 47.1911 20.2305 46.7185C22.1465 45.0876 27.1766 39.982 25.2062 32.6743C25.2062 32.6743 24.4239 29.345 20.4434 25.3665C18.1957 23.1176 15.6163 21.227 13.0765 19.3676C8.52666 16.0487 4.15998 12.7766 3.10544 6.65824C2.92721 5.63505 2.8678 4.58589 2.97177 3.55231C3.01137 3.1368 3.23416 1.26182 3.81837 0.363281Z" fill="white"></path>
  <path d="M8.08953 0.592123C9.04521 1.10631 9.65922 1.88539 9.03531 3.49549C6.10391 11.0318 13.4126 16.8281 18.1563 21.0923C18.1563 21.0923 25.158 27.0081 25.8067 32.6175C25.8067 32.6175 23.8408 26.9769 17.4235 21.5286C17.4235 21.5286 9.62456 15.1869 7.61912 11.7589C7.61912 11.7589 3.53399 5.33931 6.64859 2.28882e-05C6.64859 2.28882e-05 7.41611 0.223359 8.09449 0.592123" fill="white"></path>
  <path d="M12.2276 1.56379C12.2276 1.56379 13.1636 2.12472 13.4162 2.29093C14.481 3.00768 14.8673 4.43599 14.3423 5.64616C13.6341 7.28223 13.0596 9.93629 14.3621 13.25C14.3621 13.25 15.3081 16.0027 19.2354 19.6228C20.637 21.1914 24.2771 23.8922 25.8173 30.1768C25.8173 30.1768 23.9353 24.8011 18.3836 20.2253C16.4471 18.3763 14.164 16.3663 13.0052 13.7538C13.0052 13.7538 9.46411 8.09247 12.2326 1.55859" fill="white"></path>
  <path d="M16.9047 5.3841C16.9047 5.3841 17.3604 5.79961 18.1478 6.80722C19.0194 7.9239 18.2568 9.54438 18.2568 9.54438C18.2568 9.54438 16.3946 13.9644 21.1342 19.2257C21.1342 19.2257 26.369 24.7208 26.1411 29.2239C26.1411 29.2239 25.5617 24.8351 21.1144 20.4982C21.1144 20.4982 17.9844 17.3611 16.8057 14.1981C16.8057 14.1981 15.0376 10.2352 16.9097 5.37891" fill="white"></path>
  <path d="M24.3961 35.5312C24.3961 35.5312 22.6578 41.4834 16.0759 45.867C14.2385 46.7396 13.1787 44.6569 13.1787 44.6569C13.1787 44.6569 20.87 42.0392 24.4011 35.5364" fill="white"></path>
  <path d="M24.0195 33.0859C24.0195 33.0859 22.7814 39.4692 12.9507 42.3985C12.9507 42.3985 13.1042 41.5104 13.3221 40.7988C13.5301 40.108 14.0749 39.5886 14.7534 39.4432C16.7394 39.0173 21.573 37.6461 24.0195 33.0859Z" fill="white"></path>
  <path d="M23.2771 31.918C23.2771 31.918 22.7916 35.3407 14.6084 37.6572L15.5446 36.0003C15.8072 35.5589 16.2728 35.3096 16.7632 35.2317C18.3434 34.9875 22.2864 34.089 23.2771 31.918Z" fill="white"></path>
  <path d="M22.7389 30.793C22.7389 30.793 21.9015 33.312 17.6699 33.5145C17.6699 33.5145 20.1226 31.1773 22.7389 30.793Z" fill="white"></path>
  <path d="M49.9888 0.360663C49.9888 0.360663 52.3256 0.677488 53.2613 4.16257C53.2613 4.16257 55.5239 10.9302 47.756 16.3162C47.756 16.3162 39.5226 21.5932 38.3443 22.3826C38.3443 22.3826 31.8488 26.2988 29.4822 33.0196C29.4822 33.0196 27.9227 38.3226 31.4923 42.1504C31.4923 42.1504 34.042 45.1421 36.661 46.8197C36.661 46.8197 36.5224 47.3599 35.557 47.417C34.8391 47.4586 34.1361 47.1885 33.5766 46.7158C31.6606 45.085 26.6305 39.9794 28.601 32.6717C28.601 32.6717 29.3832 29.3424 33.3637 25.3639C35.6114 23.115 38.1908 21.2244 40.7307 19.365C45.2756 16.0409 49.6422 12.7688 50.6968 6.65043C50.875 5.62724 50.9344 4.57808 50.8305 3.5445C50.7908 3.12899 50.5681 1.25401 49.9839 0.355469" fill="white"></path>
  <path d="M45.7137 0.592123C44.758 1.10631 44.144 1.88539 44.7679 3.49549C47.6993 11.0318 40.3906 16.8281 35.6469 21.0923C35.6469 21.0923 28.6502 27.0081 27.9966 32.6175C27.9966 32.6175 29.9624 26.9769 36.3798 21.5286C36.3798 21.5286 44.1787 15.1869 46.1841 11.7589C46.1841 11.7589 50.2692 5.33931 47.1546 2.28882e-05C47.1546 2.28882e-05 46.3871 0.223359 45.7087 0.592123" fill="white"></path>
  <path d="M41.5863 1.56379C41.5863 1.56379 40.6502 2.12472 40.3977 2.29093C39.3329 3.00768 38.9466 4.43599 39.4715 5.64616C40.1798 7.28223 40.7542 9.93629 39.4517 13.25C39.4517 13.25 38.5058 16.0027 34.5785 19.6228C33.1769 21.1914 29.5368 23.8922 27.9966 30.1768C27.9966 30.1768 29.8785 24.8011 35.4303 20.2253C37.3667 18.3763 39.6498 16.3663 40.8087 13.7538C40.8087 13.7538 44.3498 8.09247 41.5813 1.55859" fill="white"></path>
  <path d="M36.897 5.3841C36.897 5.3841 36.4413 5.79961 35.6539 6.80722C34.7823 7.9239 35.5449 9.54438 35.5449 9.54438C35.5449 9.54438 37.4071 13.9644 32.6675 19.2257C32.6675 19.2257 27.4327 24.7208 27.6605 29.2239C27.6605 29.2239 28.24 24.8351 32.6873 20.4982C32.6873 20.4982 35.8173 17.3611 36.996 14.1981C36.996 14.1981 38.7641 10.2352 36.892 5.37891" fill="white"></path>
  <path d="M29.4132 35.5312C29.4132 35.5312 31.1515 41.4834 37.7334 45.867C39.5708 46.7396 40.6306 44.6569 40.6306 44.6569C40.6306 44.6569 32.9393 42.0392 29.4082 35.5364" fill="white"></path>
  <path d="M29.7891 33.0859C29.7891 33.0859 31.0272 39.4692 40.8579 42.3985C40.8579 42.3985 40.7044 41.5104 40.4865 40.7988C40.2785 40.108 39.7337 39.5886 39.0552 39.4432C37.0693 39.0173 32.2356 37.6461 29.7891 33.0859Z" fill="white"></path>
  <path d="M30.5317 31.918C30.5317 31.918 31.0172 35.3407 39.2004 37.6572L38.2642 36.0003C38.0017 35.5589 37.536 35.3096 37.0456 35.2317C35.4655 34.9875 31.5224 34.089 30.5317 31.918Z" fill="white"></path>
  <path d="M31.0664 30.793C31.0664 30.793 31.9038 33.312 36.1353 33.5145C36.1353 33.5145 33.6826 31.1773 31.0664 30.793Z" fill="white"></path>
  <path d="M25.6033 9.19141C25.6033 9.19141 26.0354 9.4511 26.3333 10.2354C26.5618 10.8379 26.5221 11.5079 26.2737 12.1C25.9609 12.8427 25.5983 14.2918 26.0701 16.5044C26.0701 16.5044 27.4309 21.075 26.5866 24.3055C26.5866 24.3055 26.532 19.8544 25.4692 17.4704C25.4692 17.4704 23.3535 12.9518 25.6033 9.19141Z" fill="white"></path>
  <path d="M28.9998 9.19269C28.9998 9.19269 28.379 9.56665 28.1157 10.7612C28.0313 11.1508 28.076 11.5611 28.2449 11.9143C28.5677 12.5843 29.0494 14.0905 28.5329 16.5005C28.5329 16.5005 27.1721 21.0711 28.0164 24.3016C28.0164 24.3016 28.0711 19.8505 29.1339 17.4665C29.1339 17.4665 31.2496 12.9479 28.9998 9.1875" fill="white"></path>
</svg>
