<?xml version="1.0" encoding="utf-8"?>
<!-- Generator: Adobe Illustrator 16.0.0, SVG Export Plug-In . SVG Version: 6.00 Build 0)  -->
<!DOCTYPE svg PUBLIC "-//W3C//DTD SVG 1.1//EN" "http://www.w3.org/Graphics/SVG/1.1/DTD/svg11.dtd">
<svg version="1.1" id="Layer_1" xmlns="http://www.w3.org/2000/svg" xmlns:xlink="http://www.w3.org/1999/xlink" x="0px" y="0px"
	 width="34.601px" height="42.759px" viewBox="0 0 34.601 42.759" enable-background="new 0 0 34.601 42.759" xml:space="preserve">
<g>
	<polygon fill-rule="evenodd" clip-rule="evenodd" fill="#FFFFFF" points="17.185,42.759 16.313,42.496 15.665,42.285 
		15.007,42.056 14.342,41.805 13.673,41.535 13.001,41.244 12.328,40.935 11.655,40.604 10.986,40.254 10.321,39.883 9.664,39.491 
		9.014,39.079 8.375,38.646 7.749,38.192 7.137,37.717 6.542,37.221 5.966,36.701 5.41,36.162 4.877,35.6 4.369,35.014 
		3.888,34.406 3.437,33.776 3.017,33.124 2.631,32.447 2.281,31.749 1.97,31.027 1.7,30.283 1.474,29.517 1.293,28.729 
		1.161,27.918 1.079,27.087 1.049,26.248 1.049,4.195 33.322,4.195 33.322,26.247 33.292,27.087 33.21,27.918 33.078,28.729 
		32.897,29.517 32.671,30.283 32.402,31.027 32.089,31.749 31.741,32.447 31.355,33.124 30.935,33.776 30.484,34.406 30.001,35.014 
		29.494,35.6 28.96,36.162 28.406,36.701 27.829,37.221 27.234,37.717 26.623,38.192 25.996,38.646 25.357,39.079 24.708,39.491 
		24.05,39.883 23.385,40.254 22.716,40.604 22.043,40.935 21.371,41.244 20.699,41.535 20.029,41.805 19.364,42.056 18.706,42.285 
		18.057,42.496 17.185,42.759 	"/>
	<path fill-rule="evenodd" clip-rule="evenodd" fill="#D80E16" d="M17.185,42.047c6.611-1.899,15.4-7.088,15.435-15.789V4.869
		H17.185V42.047L17.185,42.047z"/>
	<path fill-rule="evenodd" clip-rule="evenodd" fill="#004A91" d="M17.185,42.047c-6.611-1.899-15.4-7.088-15.434-15.789V4.869
		h15.434V42.047L17.185,42.047z"/>
	<g>
		<defs>
			<path id="SVGID_1_" d="M17.185,42.047c-6.611-1.899-15.4-7.088-15.434-15.789V4.869h15.434V42.047L17.185,42.047z"/>
		</defs>
		<clipPath id="SVGID_2_">
			<use xlink:href="#SVGID_1_"  overflow="visible"/>
		</clipPath>
		<path clip-path="url(#SVGID_2_)" fill-rule="evenodd" clip-rule="evenodd" fill="#FFFFFF" d="M20.955,29.881v-0.002l-0.869-3.803
			c-2.01,1.054-2.977,0.294-4.583,0.451c-0.586-0.02-2.342,0.188-2.643,1.787c-0.3-1.6-2.056-1.807-2.642-1.787
			c-1.606-0.157-2.573,0.602-4.583-0.451l-0.868,3.805c1.561,2.762,5.813,0.066,7.897,2.059h0.39
			C15.14,29.947,19.392,32.644,20.955,29.881L20.955,29.881z"/>
		<polygon clip-path="url(#SVGID_2_)" fill="#004A91" points="12.719,32.297 12.753,27.596 12.967,27.596 13.008,32.297 
			12.719,32.297 		"/>
		<path clip-path="url(#SVGID_2_)" fill-rule="evenodd" clip-rule="evenodd" fill="#FFFFFF" d="M21.022,31.473l0.016-0.498
			c-2.694,1.166-3.694,0.531-5.535,0.644c-0.53-0.012-2.016,0.092-2.518,0.845h-0.249c-0.501-0.753-1.988-0.856-2.518-0.845
			c-1.841-0.112-2.841,0.522-5.534-0.644L4.699,31.5c2.66,1.139,3.659,0.512,5.49,0.624c0.542-0.012,2.087,0.097,2.552,0.899h0.181
			c0.465-0.803,2.01-0.911,2.552-0.899c1.84-0.112,2.84,0.522,5.531-0.642l0.002-0.002L21.022,31.473L21.022,31.473z"/>
		<path clip-path="url(#SVGID_2_)" fill-rule="evenodd" clip-rule="evenodd" fill="#F5DEA5" d="M21.022,32.455l0.016-0.496
			c-2.694,1.165-3.694,0.529-5.535,0.643c-0.546-0.012-2.109,0.099-2.562,0.918H12.78c-0.453-0.819-2.016-0.93-2.562-0.918
			c-1.841-0.113-2.841,0.522-5.534-0.643l0.016,0.524c2.66,1.139,3.659,0.513,5.49,0.624c0.534-0.012,2.04,0.094,2.53,0.863h0.226
			c0.491-0.77,1.996-0.875,2.53-0.863c1.84-0.113,2.84,0.521,5.531-0.643l0.002-0.002L21.022,32.455L21.022,32.455z"/>
		<path clip-path="url(#SVGID_2_)" fill="none" stroke="#004A91" stroke-width="0.4557" stroke-miterlimit="2.6131" d="
			M6.027,27.305c0.632,0.659,1.533,0.537,2.537,0.387c1.225-0.184,2.273-0.409,3.465,0.541 M5.801,28.284
			c0.754,0.786,1.713,0.542,2.702,0.466c1.191-0.094,2.518-0.323,3.591,0.532"/>
		<path clip-path="url(#SVGID_2_)" fill="none" stroke="#004A91" stroke-width="0.4557" stroke-miterlimit="2.6131" d="
			M5.583,29.473c1.626,1.342,4.932-0.611,6.471,0.977"/>
		<path clip-path="url(#SVGID_2_)" fill="none" stroke="#004A91" stroke-width="0.4557" stroke-miterlimit="2.6131" d="
			M19.711,27.305c-0.632,0.659-1.534,0.537-2.537,0.387c-1.225-0.184-2.273-0.409-3.465,0.541 M19.937,28.284
			c-0.753,0.786-1.712,0.542-2.702,0.466c-1.192-0.094-2.518-0.323-3.591,0.532"/>
		<path clip-path="url(#SVGID_2_)" fill="none" stroke="#004A91" stroke-width="0.4557" stroke-miterlimit="2.6131" d="
			M20.156,29.473c-1.626,1.342-4.932-0.611-6.471,0.977"/>
	</g>
	<polygon fill-rule="evenodd" clip-rule="evenodd" fill="#D80E16" points="1.752,4.869 17.185,4.869 17.185,22.724 1.752,22.724 
		1.752,4.869 	"/>
	<path fill-rule="evenodd" clip-rule="evenodd" fill="#004A91" d="M28.566,25.709l-1.274,5.277c-0.096,0.386-0.17,0.752-0.222,1.107
		c-0.053,0.352-0.078,0.672-0.078,0.959c0,0.473,0.1,0.848,0.3,1.135c0.197,0.287,0.493,0.469,0.886,0.547v0.172l-2.352,0.146
		c-0.24-0.114-0.412-0.306-0.521-0.573c-0.109-0.27-0.162-0.643-0.162-1.127c0-0.16,0.006-0.336,0.018-0.527
		c0.013-0.19,0.031-0.395,0.053-0.619c-0.633,0.946-1.345,1.687-2.141,2.221c-0.796,0.533-1.579,0.799-2.351,0.799
		c-0.657,0-1.178-0.167-1.566-0.503c-0.389-0.333-0.583-0.784-0.583-1.351c0-0.217,0.068-0.59,0.2-1.12
		c0.021-0.103,0.043-0.188,0.062-0.253l0.777-3.199c0.062-0.246,0.108-0.449,0.136-0.604c0.031-0.158,0.046-0.27,0.046-0.336
		c0-0.355-0.086-0.63-0.259-0.82c-0.17-0.195-0.416-0.291-0.734-0.291c-0.099,0-0.216,0.019-0.355,0.056
		c-0.139,0.034-0.312,0.096-0.524,0.179l-0.108-0.145l1.737-1.345c0.046-0.013,0.093-0.021,0.13-0.024
		c0.04-0.004,0.104-0.004,0.194-0.004c0.579,0,1.03,0.173,1.356,0.519c0.324,0.349,0.488,0.827,0.488,1.443
		c0,0.173-0.016,0.37-0.047,0.59c-0.027,0.222-0.074,0.456-0.135,0.709l-0.741,3.001c-0.006,0.025-0.015,0.063-0.027,0.107
		c-0.12,0.513-0.183,0.871-0.183,1.077c0,0.302,0.096,0.546,0.284,0.731c0.191,0.188,0.429,0.28,0.719,0.28
		c0.94,0,1.792-0.47,2.56-1.409c0.766-0.941,1.354-2.249,1.771-3.924l0.703-2.881H28.566L28.566,25.709z"/>
	<polygon fill-rule="evenodd" clip-rule="evenodd" fill="#004A91" points="17.185,4.869 32.619,4.871 32.619,22.725 17.185,22.724 
		17.185,4.869 	"/>
	<g>
		<defs>
			<polygon id="SVGID_3_" points="17.185,4.869 32.619,4.871 32.619,22.725 17.185,22.724 17.185,4.869 			"/>
		</defs>
		<clipPath id="SVGID_4_">
			<use xlink:href="#SVGID_3_"  overflow="visible"/>
		</clipPath>
		<path clip-path="url(#SVGID_4_)" fill-rule="evenodd" clip-rule="evenodd" fill="#F5DEA5" d="M34.717,13.84
			c0,0.025-0.001,0.05-0.001,0.074l-10.5,0.408l-0.002,0.022l10.833,2.93l0.001,0.153l-11.025-2.203l-0.007,0.021l9.876,4.766
			c-0.02,0.045-0.041,0.089-0.062,0.133l-10.19-4.081l-0.012,0.02l9.623,7.62v0.195l-10.166-7.098l-0.016,0.018l5.83,7.383h-0.211
			l-6.303-6.799l-0.019,0.014l3.368,6.91h-0.188l-3.975-6.486l-0.021,0.008l1.716,7.102h-0.171l-2.412-6.857l-0.021,0.004
			l0.082,7.406c-0.05,0.004-0.1,0.007-0.15,0.008l-0.831-7.363l-0.022-0.002l-1.602,7.238c-0.05-0.008-0.1-0.016-0.149-0.024
			l0.862-7.356l-0.022-0.006l-2.628,5.725c-0.047-0.02-0.095-0.039-0.142-0.059l1.933-5.996l-0.02-0.012l-1.806,2.216l-0.002-0.782
			l1.062-1.936l-0.017-0.016l-1.048,0.831l-0.003-0.991l0.43-0.49l-0.013-0.019l-0.417,0.203l-0.017-5.551l0.418,0.2l0.014-0.018
			l-0.433-0.489l-0.003-0.99l1.053,0.824l0.017-0.015l-1.073-1.93L16.132,7.92l1.819,2.205l0.02-0.01l-2.124-6.604
			c0.047-0.02,0.094-0.039,0.142-0.058l2.817,6.325l0.022-0.006l-0.902-7.452c0.05-0.009,0.1-0.017,0.15-0.024l1.64,7.328
			l0.022-0.002l0.817-9.622L20.783,0l-0.145,9.67l0.022,0.003L23.144,1.7l0.174-0.001l-1.789,8.213L21.55,9.92l4.538-7.813
			l0.188-0.001l-3.93,8.233l0.019,0.013l6.942-7.435l0.211-0.001l-6.466,8.017l0.016,0.017l9.948-7.082v0.199l-9.401,7.598
			l0.012,0.02l11.675-4.92V6.93l-11.295,5.569l0.008,0.021l11.586-1.957l0.001,0.151l-11.391,2.684l0.003,0.023l10.502,0.346
			C34.716,13.792,34.716,13.816,34.717,13.84L34.717,13.84z"/>
	</g>
	<path fill-rule="evenodd" clip-rule="evenodd" fill="#004A91" d="M4.071,18.384l1.274-5.277c0.096-0.386,0.169-0.753,0.222-1.107
		c0.052-0.352,0.077-0.673,0.077-0.959c0-0.472-0.099-0.849-0.299-1.136C5.147,9.617,4.851,9.436,4.459,9.359V9.186l2.35-0.145
		C7.05,9.156,7.223,9.346,7.331,9.615c0.111,0.269,0.164,0.641,0.164,1.125c0,0.16-0.006,0.336-0.019,0.527
		s-0.031,0.395-0.052,0.621c0.632-0.947,1.345-1.688,2.14-2.222c0.796-0.533,1.58-0.799,2.351-0.799
		c0.657,0,1.178,0.167,1.567,0.503c0.389,0.334,0.583,0.783,0.583,1.352c0,0.215-0.067,0.588-0.2,1.119
		c-0.022,0.102-0.043,0.188-0.062,0.253l-0.777,3.198c-0.062,0.247-0.108,0.451-0.136,0.605c-0.031,0.156-0.046,0.268-0.046,0.336
		c0,0.354,0.086,0.629,0.259,0.82c0.169,0.193,0.417,0.29,0.734,0.29c0.099,0,0.216-0.019,0.355-0.056
		c0.139-0.034,0.312-0.096,0.524-0.18l0.108,0.146L13.086,18.6c-0.046,0.012-0.092,0.021-0.129,0.025
		c-0.041,0.002-0.105,0.002-0.195,0.002c-0.58,0-1.03-0.172-1.357-0.518c-0.324-0.349-0.487-0.826-0.487-1.443
		c0-0.173,0.015-0.37,0.046-0.59c0.028-0.222,0.074-0.456,0.136-0.709l0.741-3c0.006-0.025,0.015-0.063,0.027-0.109
		c0.12-0.512,0.182-0.869,0.182-1.076c0-0.303-0.096-0.546-0.284-0.73c-0.191-0.188-0.429-0.281-0.719-0.281
		c-0.941,0-1.792,0.469-2.56,1.41c-0.765,0.94-1.354,2.248-1.771,3.923l-0.704,2.881H4.071L4.071,18.384z"/>
	<path fill-rule="evenodd" clip-rule="evenodd" fill="#004A91" d="M5.28,2.263H4.487V1.47h0.428h0.194h0.169L5.28,2.263L5.28,2.263z
		 M8.111,1.47v0.657c-0.04,0.051-0.433,0.131-0.512,0.131c-0.129,0-0.224-0.004-0.368-0.042V1.47H8.111L8.111,1.47z M12.825,1.47
		h0.169l0.002,0.793h-0.793V1.47h0.427H12.825L12.825,1.47z M14.58,3.394V1.47h0.602l-0.249-0.358H13.79h-0.264h-0.949h-0.195
		h-1.388l0.249,0.358h0.503v0.784h-0.144c-0.08,0-0.125,0.047-0.125,0.094c0,0.154,0.462,0.559,0.597,0.559
		c0.08,0,0.129-0.033,0.129-0.094V2.621h0.794l0.001,0.486l0.438,0.286V1.47h0.338h0.264h0.099l0.005,1.638L14.58,3.394L14.58,3.394
		z M20.15,1.47v0.798c-0.199,0.152-0.637,0.319-0.821,0.319C19.09,2.587,19,2.506,19,2.391c0-0.09,0.064-0.137,0.204-0.166
		c0.318-0.068,0.402-0.119,0.402-0.201c0-0.076-0.108-0.324-0.224-0.554H20.15L20.15,1.47z M29.646,1.47h0.169l0.003,0.793h-0.793
		V1.47h0.428H29.646L29.646,1.47z M32.416,1.47v0.798c-0.199,0.152-0.637,0.319-0.82,0.319c-0.238,0-0.328-0.081-0.328-0.196
		c0-0.09,0.064-0.137,0.204-0.166c0.318-0.068,0.403-0.119,0.403-0.201c0-0.076-0.109-0.324-0.225-0.554H32.416L32.416,1.47z
		 M2.826,1.47v0.337H2.17c-0.473,0-0.687,0.23-0.687,0.447c0,0.265,0.169,0.512,0.662,1.109l0.184-0.119
		C2.08,2.992,1.911,2.732,1.911,2.54c0-0.218,0.095-0.376,0.423-0.376h0.502l-0.024,0.96l0.472,0.27V1.47h0.243H3.78h0.249v0.784
		H3.885c-0.079,0-0.124,0.047-0.124,0.094c0,0.154,0.463,0.559,0.597,0.559c0.08,0,0.129-0.033,0.129-0.094V2.621h0.794l0.001,0.486
		L5.72,3.394V1.47h0.333h0.269h0.453v0.631c0,0.03-0.01,0.052-0.025,0.052c-0.055,0-0.169-0.124-0.273-0.124
		c-0.084,0-0.189,0.068-0.189,0.149c0,0.115,0.134,0.303,0.219,0.4l0.826,0.931l0.194-0.154C7.261,3.115,7.067,2.949,6.869,2.707
		c0.094-0.069,0.244-0.162,0.343-0.303c0.129,0.098,0.283,0.213,0.457,0.213c0.169,0,0.293-0.01,0.452-0.082L8.097,3.124l0.472,0.27
		V1.47h0.244h0.254h0.109L9.18,3.107l0.438,0.286V1.47h0.602L9.971,1.111H9.505C9.212,0.688,8.908,0.334,8.688,0.164
		C8.503,0.023,8.359,0.012,8.27,0.012c-0.12,0-0.269,0.008-0.269,0.089c0,0.052,0.025,0.09,0.214,0.38
		C8.29,0.459,8.404,0.438,8.503,0.438s0.184,0.039,0.254,0.098C8.89,0.646,9.084,0.84,9.311,1.111H8.817H8.563h-2.49H5.804H4.86
		H4.665H3.532H3.278H1L1.249,1.47H2.826L2.826,1.47z M32.425,2.732L32.4,3.124l0.474,0.27V1.47h0.497l-0.249-0.358h-2.511h-0.274
		h-0.938h-0.195h-1.117h-0.27h-0.201C27.5,0.943,27.421,0.725,27.421,0.64c0-0.138,0.073-0.202,0.222-0.202
		c0.104,0,0.169,0.072,0.218,0.255l0.18-0.044c-0.065-0.427-0.273-0.553-0.486-0.553c-0.258,0-0.48,0.162-0.48,0.398
		c0,0.153,0.184,0.439,0.324,0.617h-0.467h-0.254H25.48h-0.215h-2.072h-0.245h-0.247c-0.016-0.043-0.01-0.09-0.01-0.133
		c0-0.272,0.164-0.459,0.502-0.459c0.353,0,0.775,0.209,1.104,0.459l0.094-0.141c-0.277-0.246-0.959-0.66-1.392-0.66
		c-0.418,0-0.696,0.188-0.696,0.498c0,0.158,0.07,0.316,0.154,0.436h-0.442h-0.19h-0.275c-0.293-0.423-0.598-0.777-0.818-0.947
		c-0.184-0.141-0.328-0.152-0.417-0.152c-0.12,0-0.269,0.008-0.269,0.089c0,0.052,0.024,0.09,0.213,0.38
		c0.075-0.021,0.189-0.043,0.289-0.043S20.73,0.477,20.8,0.535c0.133,0.11,0.327,0.305,0.554,0.576h-0.499h-0.249h-1.694H18.07
		h-2.113l0.248,0.358h2.113H19.1c0.075,0.094,0.104,0.204,0.104,0.256c0,0.038-0.06,0.094-0.109,0.115
		c-0.069,0.03-0.255,0.092-0.4,0.129l0.007-0.177h-1.437l-0.044,0.095c0.303,0.276,0.427,0.418,0.427,0.563
		c0,0.098-0.109,0.174-0.268,0.174c-0.214,0-0.458-0.153-0.771-0.721l-0.174,0.082c0.328,0.686,0.751,1.039,1.193,1.039
		c0.323,0,0.472-0.178,0.472-0.332c0-0.106-0.1-0.281-0.358-0.541h0.859c0.161,0.463,0.536,0.775,0.926,0.775
		c0.179,0,0.448-0.09,0.632-0.195l-0.025,0.392l0.473,0.27V1.47h0.248h0.249h0.114l0.005,1.638l0.438,0.286V1.47h0.412h0.189h0.134
		v1.654l0.442,0.27V1.47h0.357h0.244h1.333v0.337h-0.657c-0.472,0-0.686,0.23-0.686,0.447c0,0.265,0.169,0.512,0.661,1.109
		l0.185-0.119c-0.249-0.252-0.418-0.512-0.418-0.704c0-0.218,0.094-0.376,0.422-0.376h0.503l-0.024,0.96l0.472,0.27V1.47h0.282
		h0.215h0.433v0.605h-0.264c-0.063,0-0.139,0.063-0.139,0.103c0,0.195,0.626,0.555,0.701,0.555c0.108,0,0.159-0.064,0.159-0.197
		V1.47h0.308h0.254h0.109l0.005,1.638l0.438,0.286V1.47h0.332h0.27h0.234v0.784h-0.145c-0.08,0-0.124,0.047-0.124,0.094
		c0,0.154,0.462,0.559,0.597,0.559c0.079,0,0.129-0.033,0.129-0.094V2.621h0.794l0.001,0.486l0.438,0.286V1.47h0.328h0.273h0.508
		c0.074,0.094,0.104,0.204,0.104,0.256c0,0.038-0.06,0.094-0.109,0.115c-0.095,0.042-0.407,0.141-0.537,0.157
		c0.124,0.547,0.537,0.93,0.97,0.93C31.973,2.928,32.242,2.838,32.425,2.732L32.425,2.732z"/>
</g>
</svg>
