<svg width="48" height="33" viewBox="0 0 48 33" fill="none" xmlns="http://www.w3.org/2000/svg">
<path d="M42.9586 6.23694H44.248L46.0648 6.35415L47.5886 6.6472L47.7059 6.7058L47.6472 7.17467L47.0612 8.63987L46.4751 10.1637L46.4165 10.2223L45.6546 10.1637L45.0685 10.1051H43.7791L43.2516 10.3395L43.0172 10.6325L42.8414 11.1014L42.7828 11.5703V12.1564L45.1857 12.215L45.0099 12.7424L44.1894 14.6765L43.7205 15.7315L43.6033 15.8487H42.7242V25.9879L42.6656 26.2223H37.5666L37.3322 26.1637V15.8487L35.9842 16.1417L35.2809 16.4348L34.7535 16.7864L34.4018 17.1967L34.0502 17.9L33.8157 18.8377L33.7571 19.4824L33.6985 22.1197V25.6948L33.6399 26.1637L33.5813 26.2223H28.248L28.1307 26.1637V11.9219H33.2296L33.2883 12.3322V13.3285L33.2296 14.7351H33.3469L33.4641 14.4421L33.8743 13.856L34.4018 13.3285L35.0465 12.9183L35.867 12.5666L37.2736 12.2736L37.3908 10.5153L37.6253 9.28456L37.8597 8.63987L38.2113 8.05379L38.7388 7.52632L39.3835 7.11606L40.3798 6.6472L41.259 6.41276L42.0795 6.29555L42.9586 6.23694Z" fill="#EBEAF4"/>
<path d="M10.3161 11.5089H11.3124L12.426 11.6847L13.1879 11.9778L13.8326 12.3294L14.4187 12.8569L14.8289 13.3258L15.2978 14.2635L15.5908 15.3184L15.6494 15.5529L15.7081 16.3148V25.9851L15.6494 26.1609H10.1989L10.1403 18.7177L10.0817 17.3697L9.90585 16.7836L9.5542 16.3148L9.08534 16.0217L8.67508 15.9045H7.91317L7.26848 16.139L6.6824 16.6664L6.38936 17.2525L6.21354 17.9558L6.15493 18.4247L6.09632 26.0437L6.03771 26.1609H0.587158V11.9192L0.645766 11.8606H5.68606V14.0877H5.80328L5.9205 13.8532L7.03405 12.7397L7.62013 12.3294L8.55786 11.8606L9.37838 11.6261L10.3161 11.5089Z" fill="#EBEAF4"/>
<path d="M18.2849 11.9221H25.611V27.9807L25.3765 27.7463L24.7904 26.8086L24.0285 25.7536L23.2666 24.8159L22.5633 24.054L22.1531 23.6437L21.9186 23.4679L21.6842 23.5265L20.9809 24.1712L20.5707 24.5815L20.0432 25.2262L19.3985 26.1639L18.7538 27.2188L18.3435 27.9807L18.1677 27.9221L18.2263 11.9807L18.2849 11.9221Z" fill="#EBEAF4"/>
<path d="M7.32709 27.7435H10.8436L12.8949 27.9194L14.8875 28.2124L16.7044 28.564L18.3454 28.9743L20.1037 29.5018L21.2758 29.912H21.6275L23.5615 29.2673L25.0267 28.8571L26.5506 28.5054L28.133 28.2124L29.7154 27.978L31.3564 27.8021L32.1769 27.7435H35.8692L38.2722 27.978L39.9132 28.271L41.3784 28.6227L42.5506 28.9743L42.7264 29.1501V31.5531L40.3821 30.967L38.2722 30.5567L36.5725 30.3223L34.1696 30.1465H30.6531L28.7777 30.2637L26.4919 30.5567L24.3234 30.967L22.2722 31.4944L21.8619 31.6117H21.1L18.6385 30.967L16.8802 30.6153L15.2978 30.3809L13.3637 30.2051L12.3088 30.1465H8.90951L6.56519 30.3223L4.57251 30.6153L2.3454 31.0842L0.880199 31.4944H0.587158V29.0915L1.11463 28.8571L3.0487 28.3296L4.57251 28.0366L6.50658 27.8021L7.32709 27.7435Z" fill="#B93E50"/>
<path d="M21.7423 0.842163L22.0353 1.1352L22.5042 1.77989L22.6214 1.89711L22.8558 1.95572L22.9144 1.0766L23.1488 1.19381L23.5005 2.01433L23.5591 2.30737L23.7935 2.36597L23.8521 2.01433L24.0866 1.54546H24.2624L24.321 1.66268L24.4382 2.89345H24.6141L24.9657 2.42458L25.2587 2.30737L25.2001 3.18649L25.1415 3.65535L25.4932 3.53814L25.962 3.2451H26.0793L25.9034 3.77257L25.5518 4.7103L26.3723 4.41726H26.5481L26.4309 4.7103L26.0793 5.12056L25.7862 5.53081V5.64803H26.7826L26.6653 5.88246L26.0206 6.29272L25.7276 6.58576L26.1379 6.76158L26.5481 6.8788L26.4895 7.11323L25.7862 7.34766L25.376 7.52349V7.64071L26.1965 8.10957V8.22679L24.8485 8.344L24.7313 8.46122L25.376 9.10591V9.16452L24.4382 9.10591L23.9694 9.0473L24.0866 9.34034L24.3796 9.80921V9.98503L24.028 9.86781L23.2075 9.51616L22.973 9.45756L23.2661 10.3367L23.2075 10.5125L22.4456 9.92642L22.2111 9.7506L21.9181 9.69199L22.0353 10.5711L21.9181 10.6297L21.625 10.3367L21.1562 9.69199V9.57477H20.9803L20.8045 10.2781L20.6873 10.4539H20.5701L20.2184 9.45756L20.1012 9.28173H19.984L19.5738 10.0436H19.4565L19.2807 8.69565H19.1049L18.8705 8.98869L18.4602 9.28173L18.4016 9.10591L18.5774 8.22679L18.636 7.81653L18.343 7.93375L17.8155 8.28539H17.6397L17.7569 7.99235L18.1085 7.17184L18.1672 6.93741L17.8155 6.99602L17.5225 7.11323H17.1708L17.3466 6.82019L17.9327 6.05829V5.94107H17.1708L16.995 5.88246V5.76525L17.6397 5.29638L17.9327 5.06195L17.9913 4.88612L17.1122 4.7103L17.1708 4.53447L18.343 4.06561V3.88979L17.6397 3.53814L17.5811 3.36231L17.8155 3.3037L18.9877 3.2451L18.8118 2.95206L18.4016 2.5418V2.42458H19.0463L19.8082 2.5418L19.5151 2.01433L19.3393 1.72128V1.60407L19.691 1.66268L20.4529 2.01433L20.7459 2.07293L20.5115 1.31103V1.0766L20.7459 1.19381L21.1562 1.54546L21.5664 1.8385L21.8009 1.89711L21.7423 0.842163Z" fill="#B93E50"/>
<path d="M31.3536 30.7313H33.3463L35.4562 30.8485L37.4489 31.083L39.5002 31.4346L41.1412 31.7863L42.7236 32.1965L42.7822 32.6068L42.0789 32.431L40.1448 31.9621L38.328 31.6104L36.5697 31.376L34.3426 31.2002H30.8262L28.4818 31.376L26.3719 31.6691L24.3793 32.0793L22.621 32.5482L21.6833 32.8412L21.1558 32.7826L19.5148 32.3137L17.7565 31.9035L16.643 31.6691L14.9434 31.4346L12.5404 31.2588H9.55141L7.61734 31.376L5.8591 31.5518L3.92503 31.8449L1.81514 32.2551L0.760189 32.4896L0.525757 32.431L0.584365 32.1379L2.22539 31.7277L4.27668 31.3174L5.74188 31.083L7.91038 30.8485L9.02393 30.7899H12.4232L13.8884 30.9071L15.7639 31.1416L17.7565 31.4932L19.9837 32.0207L21.3316 32.431L21.9177 32.3724L22.7968 32.0793L24.3793 31.6691L26.6064 31.2002L28.6577 30.9071L30.1229 30.7899L31.3536 30.7313Z" fill="#D72B40"/>
<path d="M8.0862 30.9658H8.49646L8.61368 31.083H9.19976L9.25837 31.2003L8.37924 31.2589L8.26203 31.3175L6.38657 31.4933L4.27668 31.7863L2.10818 32.1966L0.760189 32.4896L0.525757 32.431L0.584365 32.138L2.22539 31.7277L4.27668 31.3175L4.97997 31.2003H5.68327L6.97265 31.083L7.20708 31.0244L7.79316 31.083L7.91038 31.1416L8.0862 30.9658Z" fill="#D62B40"/>
<path d="M9.02093 30.7927H12.4202L13.8854 30.9099V30.9685H12.4788L12.2444 31.0858L13.4165 31.203V31.2616H8.37624V31.203L9.19675 31.1444H8.55206L8.37624 31.0272H7.96598L7.90737 31.203L7.67294 31.1444L7.14547 31.0858L6.44217 31.203L5.62165 31.2616L5.32861 31.203V31.1444L7.90737 30.8513L9.02093 30.7927Z" fill="#D33D52"/>
<path d="M31.2351 30.9658H32.5831L32.7589 31.0244L34.1655 31.083V31.1416L29.8285 31.2003V31.1416L30.2387 31.083L30.2974 31.0244L31.2351 30.9658Z" fill="#EE242B"/>
<path d="M19.4522 8.87292L19.8624 8.99014L20.0969 9.22457L19.921 9.4004L19.5694 10.0451H19.4522L19.335 9.28318V8.93153L19.4522 8.87292Z" fill="#D13E52"/>
<path d="M8.08351 30.9658H8.49377L8.61098 31.083H9.19706L9.25567 31.2003L8.37655 31.2589H6.03223V31.2003L6.96996 31.083L7.20439 31.0244L7.79047 31.083L7.90769 31.1416L8.08351 30.9658Z" fill="#D8263B"/>
<path d="M18.5726 8.2251L18.8656 8.28371L18.9828 8.34231V8.45953H19.1L19.1586 8.63535L18.8656 8.987L18.4553 9.28004L18.3967 9.10422L18.5726 8.2251Z" fill="#D3384D"/>
<path d="M21.7419 0.842163L22.0349 1.1352L22.3865 1.66268V1.89711L22.0935 1.8385L21.8591 1.95572L21.6246 1.89711H21.8005L21.7419 0.842163Z" fill="#CF3A4E"/>
<path d="M31.3553 30.7313H33.348L34.6959 30.7899L34.7546 30.9071H33.934L33.1721 30.8485H32.2344L32.0586 30.9071L30.1245 30.8485V30.7899L31.3553 30.7313Z" fill="#EE242B"/>
<path d="M22.9119 1.07666L23.1463 1.19388L23.4394 1.89717L23.3807 2.073H23.0877L22.8533 1.95578L22.9119 1.07666Z" fill="#D33D52"/>
<path d="M18.0531 7.29248L18.1117 7.4097L18.3461 7.52691L18.4047 7.58552V7.87856L18.1117 8.11299L17.8186 8.28882H17.6428L17.76 7.99578L18.0531 7.29248Z" fill="#D13A4E"/>
<path d="M22.7972 9.63245H22.9144L23.0902 9.80827L23.2661 10.3357L23.2075 10.5116L22.4456 9.92549V9.69105L22.7972 9.63245Z" fill="#D33C51"/>
<path d="M24.0874 1.54028H24.2633L24.3219 1.6575L24.3805 2.88827L24.2633 2.65384L24.0288 2.41941L23.9702 1.83332L24.0874 1.54028Z" fill="#D0394D"/>
<path d="M20.5133 1.07666L20.7477 1.19388L21.158 1.54553L21.2752 1.66274L21.158 1.89717H20.8063L20.5719 1.48692L20.5133 1.07666Z" fill="#CE394E"/>
<path d="M20.396 9.45935L20.6304 9.57657H20.7476L20.8649 10.104L20.689 10.4557H20.5718L20.396 9.92822V9.45935Z" fill="#CE3E52"/>
<path d="M25.14 2.31091H25.2572L25.1986 3.19003H25.0228V3.07282H24.9056V2.9556H24.7297L24.847 2.60395L25.14 2.31091Z" fill="#D23A4F"/>
<path d="M24.7324 8.63831L24.9668 8.69691L25.3771 9.10717V9.16578L24.4393 9.10717V8.98995H24.6152L24.6738 8.69691L24.7324 8.63831Z" fill="#D03E52"/>
<path d="M19.335 1.60168L19.6866 1.66029L20.0383 1.83612L19.9797 2.18777L19.8624 2.24637L19.7452 2.18777L19.6866 2.30498L19.335 1.7189V1.60168Z" fill="#BE3E50"/>
<path d="M17.6956 6.34863L17.93 6.64167L17.8714 6.87611L17.5783 6.93471L17.5197 7.11054H17.1681L17.3439 6.8175L17.6956 6.34863Z" fill="#CD3D52"/>
<path d="M23.9114 9.34204L24.2045 9.51787L24.3803 9.81091V9.98673L24.0287 9.86951L23.6184 9.69369L23.7356 9.45926L23.9114 9.34204Z" fill="#D33146"/>
<path d="M21.3342 9.63245L21.6273 9.69105L21.8617 9.80827L21.9203 10.3357L21.8617 10.5116H21.7445L21.5687 10.0427L21.3928 9.86688L21.3342 9.63245Z" fill="#D13D52"/>
<path d="M6.03223 31.2618H8.25934V31.3204L6.85274 31.4377H6.44248V31.3791L6.03223 31.3204V31.2618Z" fill="#EE242B"/>
<path d="M25.4948 7.87891L26.0223 7.99612L26.1981 8.11334V8.23055L25.3776 8.28916V8.11334L25.4948 7.87891Z" fill="#CF3D52"/>
<path d="M25.9636 3.24353H26.0809L25.905 3.771L25.6706 3.88822L25.3776 3.59518L25.9636 3.24353Z" fill="#D3364B"/>
<path d="M17.6983 5.2373L17.8155 5.29591L17.7569 5.53035V5.70617L17.4638 5.76478L17.3466 5.70617L17.288 5.76478L17.1122 5.70617L17.6983 5.2373Z" fill="#EE242B"/>
<path d="M18.5139 8.69983L18.6312 8.81705L18.7484 8.69983L18.807 8.81705L18.8656 8.69983H18.9828L18.9242 8.93426L18.4553 9.28591L18.3967 9.11009L18.5139 8.69983Z" fill="#D03E52"/>
<path d="M0.760254 30.6754L0.994686 30.734V31.0857L0.818862 31.2615L0.760254 31.2029V30.6754Z" fill="#EE242B"/>
<path d="M23.9114 9.34204L24.2045 9.51787L24.1459 9.63508L24.0287 9.69369H23.6184L23.7356 9.45926L23.9114 9.34204Z" fill="#EE242B"/>
<path d="M19.6895 1.83618H19.8067V1.9534H20.0411L19.9239 2.24644L19.7481 2.18783L19.6895 2.30505L19.6309 2.01201L19.6895 1.83618Z" fill="#D33A4F"/>
<path d="M22.9147 1.07666L23.1491 1.19388V1.42831H23.0319V1.66274H22.9147V1.07666Z" fill="#BB3E50"/>
<path d="M26.3127 4.58948H26.4299L26.3127 4.88252L26.0197 4.94113L25.9025 4.7653L26.3127 4.58948Z" fill="#D4394E"/>
<path d="M21.8005 9.98425L21.9177 10.0429V10.3359L21.8591 10.5117H21.7419L21.6246 10.0429L21.8005 9.98425Z" fill="#D8263B"/>
<path d="M6.03223 31.2618H6.85274V31.4377H6.44248V31.3791L6.03223 31.3204V31.2618Z" fill="#D33C51"/>
<path d="M36.6305 31.0273L37.451 31.086V31.1446L36.6305 31.2032L36.5133 31.086L36.6305 31.0273Z" fill="#C23E51"/>
</svg>
