<svg id="Layer_1" data-name="Layer 1" xmlns="http://www.w3.org/2000/svg" xmlns:xlink="http://www.w3.org/1999/xlink" viewBox="0 0 263 75"><defs><style>.cls-1{fill:none;}.cls-2,.cls-9{fill:#00612e;}.cls-2{fill-rule:evenodd;}.cls-3{fill:#fff;}.cls-4{fill:#8a1610;}.cls-5{clip-path:url(#clip-path);}.cls-6{fill:#c41718;}.cls-7{clip-path:url(#clip-path-2);}.cls-8{clip-path:url(#clip-path-3);}</style><clipPath id="clip-path"><path class="cls-1" d="M17.91,74.49A114.08,114.08,0,0,0,3.44,74c1-1.9,2-3.8,3-5.68-.77-2.19-1.57-4.37-2.42-6.54a123.05,123.05,0,0,1,15.75.56q-1,6.09-1.9,12.17"/></clipPath><clipPath id="clip-path-2"><path class="cls-1" d="M84.27,74.49A114.08,114.08,0,0,1,98.74,74c-1-1.9-2-3.8-3-5.68q1.14-3.28,2.41-6.54a122.9,122.9,0,0,0-15.74.56l1.89,12.17"/></clipPath><clipPath id="clip-path-3"><rect class="cls-1" x="12.85" y="54.37" width="76.51" height="15.23"/></clipPath></defs><path class="cls-2" d="M50.72.51A38.39,38.39,0,0,1,79.85,63.92V61.87H66.33a27.77,27.77,0,1,0-31.23,0H21.57v2A38.4,38.4,0,0,1,50.72.51"/><path class="cls-3" d="M80.76,39.29l2.49.06,3.49-2.08,0,1.4L84.32,40l2.31,1.42,0,1.38-3.39-2.26-2.48-.06ZM80.38,34l4.89-.63-.22-1.74,1-.12.6,4.66-1,.13-.22-1.73-4.88.62Zm-.83-3.58,5.71-1.62L85.58,30l-5.7,1.62Zm-.22-6.14.54,1a1.44,1.44,0,0,0-.65.71,1.57,1.57,0,0,0,.61,1.63.73.73,0,0,0,.64.06.57.57,0,0,0,.29-.24,1,1,0,0,0,.08-.5c0-.15,0-.47-.11-1a3.23,3.23,0,0,1,0-1.47,1.6,1.6,0,0,1,1.8-1,1.62,1.62,0,0,1,.83.47A2.9,2.9,0,0,1,84,25a2.51,2.51,0,0,1,.16,1.73,1.77,1.77,0,0,1-1,1l-.47-1.1a1.05,1.05,0,0,0,.49-.55,1.21,1.21,0,0,0-.09-.77,1.32,1.32,0,0,0-.5-.68.43.43,0,0,0-.41,0,.45.45,0,0,0-.27.3,3.31,3.31,0,0,0,0,1.17A5.78,5.78,0,0,1,82,27.47a1.72,1.72,0,0,1-.32.83,1.81,1.81,0,0,1-.8.57,1.74,1.74,0,0,1-1,.08,1.66,1.66,0,0,1-.91-.5,3.39,3.39,0,0,1-.67-1.12,2.52,2.52,0,0,1-.15-1.8A2.23,2.23,0,0,1,79.33,24.31ZM78,19.41l.48.75a4.82,4.82,0,0,0,.64.86.6.6,0,0,0,.4.15.85.85,0,0,0,.76-.53.77.77,0,0,0,0-.51,8.3,8.3,0,0,0-.45-.74l-.51-.79Zm-3.52.84,5-3.2,1.36,2.12a4.44,4.44,0,0,1,.61,1.25,1.32,1.32,0,0,1-.11.89,1.7,1.7,0,0,1-.64.72,1.62,1.62,0,0,1-1.14.27,1.91,1.91,0,0,1-1.09-.69,2.86,2.86,0,0,1-.08.8,6.58,6.58,0,0,1-.44,1.09l-.59,1.24-.77-1.21.63-1.42a8.78,8.78,0,0,0,.39-1,.94.94,0,0,0,0-.44,1.89,1.89,0,0,0-.27-.54l-.13-.21-2.09,1.34Zm-3.83-4,4.29-4.09,3,3.18-.73.69L75,13.71l-1,.91,2,2.15-.73.69-2-2.15-1.17,1.11,2.28,2.39-.72.69Zm-3.25-2.36,1.71-6.06,1,.75L68.82,13l3.72-2.74,1,.74-5.16,3.61ZM64,12l2.71-5.28,1.07.55-2.71,5.28ZM58.49,9.81,60.4,4.2l1.1.37,1,4.55,1.28-3.77,1,.36L63,11.32l-1.14-.38-1-4.46-1.24,3.69ZM53.34,3l1.19.15-.41,3.18a7.46,7.46,0,0,0-.08,1,1,1,0,0,0,.29.63,1.3,1.3,0,0,0,.75.32,1.25,1.25,0,0,0,.78-.11.85.85,0,0,0,.37-.47,6.93,6.93,0,0,0,.18-1l.41-3.25L58,3.57l-.39,3.09a8.2,8.2,0,0,1-.29,1.49,1.64,1.64,0,0,1-1.2,1.08,2.83,2.83,0,0,1-1.15,0,3.22,3.22,0,0,1-1.25-.36,1.85,1.85,0,0,1-.62-.59,1.58,1.58,0,0,1-.24-.7,7,7,0,0,1,.07-1.5Zm-9,6.45-.74-5.88L44.8,3.4,45.13,6,47.2,3.09l1.59-.2L46.87,5.46l2.79,3.29L48.12,9l-2-2.56L45.32,7.5l.22,1.78ZM40.86,8,39.38,6.22l-.06,2.34ZM43.7,9.56,42.47,10l-.92-1.11-2.25.76,0,1.44-1.21.4.28-6.35,1.2-.41Zm-11.32,1.8a2.26,2.26,0,0,0,1.17,1.1,1.55,1.55,0,0,0,1.29-.14,1.53,1.53,0,0,0,.76-1,2.3,2.3,0,0,0-.37-1.57,2.24,2.24,0,0,0-1.15-1.09,1.5,1.5,0,0,0-1.28.15,1.58,1.58,0,0,0-.79,1A2.25,2.25,0,0,0,32.38,11.36Zm-1,.65a3.68,3.68,0,0,1-.53-1.45,2.93,2.93,0,0,1,.07-1,2.48,2.48,0,0,1,.4-.85,3.19,3.19,0,0,1,1-.84,2.77,2.77,0,0,1,2.23-.34,3.13,3.13,0,0,1,1.81,1.57,3.11,3.11,0,0,1,.45,2.34,3.13,3.13,0,0,1-3.64,2.1A3.08,3.08,0,0,1,31.34,12ZM25.4,17l.61-.64a4.3,4.3,0,0,0,.69-.83.62.62,0,0,0,.05-.42.75.75,0,0,0-.24-.39.69.69,0,0,0-.46-.22.73.73,0,0,0-.48.17c-.07.06-.28.26-.61.61l-.65.68Zm1.65,3.23-4.29-4.09,1.74-1.83a4.2,4.2,0,0,1,1.07-.89,1.39,1.39,0,0,1,.88-.11,1.81,1.81,0,0,1,.86.46,1.62,1.62,0,0,1,.53,1A1.91,1.91,0,0,1,27.43,16a2.93,2.93,0,0,1,.8-.12,6.62,6.62,0,0,1,1.16.17l1.34.28-1,1-1.53-.27A8.77,8.77,0,0,0,27.14,17a.93.93,0,0,0-.42.09,1.92,1.92,0,0,0-.47.39l-.16.18,1.79,1.71Zm-3,4.65-5-3.2L21.42,18l.84.55-1.72,2.68,1.11.71,1.6-2.5.84.54-1.6,2.5,1.36.87,1.78-2.78.84.54ZM22.5,28.56l-6.29-.21.47-1.2,4.64.21-3.55-3,.46-1.18L23,27.35ZM21,34.27,15.22,33l.27-1.17,4.76,1.1.66-2.9,1,.23Zm-.19,2.38-5.91-.45.09-1.2,5.91.45Zm-1.92,5.84-.15-1.17a1.38,1.38,0,0,0,.85-.44,1.56,1.56,0,0,0,0-1.74.71.71,0,0,0-.58-.27.48.48,0,0,0-.35.13,1,1,0,0,0-.25.43c0,.14-.12.46-.23,1a3.19,3.19,0,0,1-.56,1.36,1.57,1.57,0,0,1-2.66-.38,3,3,0,0,1-.23-1.16,2.44,2.44,0,0,1,.45-1.68,1.75,1.75,0,0,1,1.3-.63l.07,1.2a1,1,0,0,0-.65.35,1.16,1.16,0,0,0-.18.75,1.34,1.34,0,0,0,.24.81.45.45,0,0,0,.37.18.5.5,0,0,0,.36-.19A3.29,3.29,0,0,0,17,39.89a5.88,5.88,0,0,1,.39-1.3,1.57,1.57,0,0,1,.59-.66,1.7,1.7,0,0,1,.93-.26,1.78,1.78,0,0,1,1,.25,1.81,1.81,0,0,1,.68.79A3.55,3.55,0,0,1,20.81,40a2.6,2.6,0,0,1-.48,1.74A2.26,2.26,0,0,1,18.84,42.49Z"/><polygon class="cls-3" points="81.17 46.31 82.61 46.31 83.32 45.07 84.03 46.31 85.47 46.31 84.75 47.55 85.47 48.79 84.03 48.79 83.32 50.03 82.61 48.79 81.17 48.79 81.89 47.55 81.17 46.31"/><polygon class="cls-3" points="16.87 46.31 18.3 46.31 19.02 45.07 19.73 46.31 21.16 46.31 20.45 47.55 21.16 48.79 19.73 48.79 19.02 50.03 18.3 48.79 16.87 48.79 17.58 47.55 16.87 46.31"/><path class="cls-4" d="M17.91,74.49A114.08,114.08,0,0,0,3.44,74c1-1.9,2-3.8,3-5.68-.77-2.19-1.57-4.37-2.42-6.54a123.05,123.05,0,0,1,15.75.56q-1,6.09-1.9,12.17"/><g class="cls-5"><rect class="cls-3" x="10.51" y="55.67" width="0.54" height="14.1" transform="translate(-51.99 73.21) rotate(-89.73)"/><rect class="cls-3" x="10.28" y="65.68" width="0.54" height="14.56" transform="translate(-62.46 83.17) rotate(-89.73)"/></g><path class="cls-6" d="M12.86,69.6q2.63,2.39,5.05,4.89l.78-5s-5.86.1-5.83.11"/><path class="cls-4" d="M84.27,74.49A114.08,114.08,0,0,1,98.74,74c-1-1.9-2-3.8-3-5.68q1.14-3.28,2.41-6.54a122.9,122.9,0,0,0-15.74.56l1.89,12.17"/><g class="cls-7"><rect class="cls-3" x="84.35" y="62.46" width="14.38" height="0.54" transform="translate(-0.28 0.41) rotate(-0.26)"/><rect class="cls-3" x="84.35" y="72.69" width="14.85" height="0.54" transform="translate(-0.33 0.42) rotate(-0.26)"/></g><path class="cls-6" d="M89.33,69.6c-1.76,1.59-3.44,3.22-5.06,4.89l-.78-5s5.86.1,5.84.11"/><rect class="cls-4" x="12.85" y="54.37" width="76.51" height="15.23"/><g class="cls-8"><rect class="cls-3" x="11.76" y="55.2" width="78.69" height="0.55"/><rect class="cls-3" x="11.76" y="68.13" width="78.69" height="0.55"/></g><path class="cls-3" d="M52.6,57.49l-.7.66-.72-.67.71-.66Zm-15.68,0-.71.66-.72-.67.71-.66Zm41.49,9.2-.32.25c-.56-.55-1-1-1.36-1.24a1.6,1.6,0,0,0-.69-.42.93.93,0,0,0-.54.2l-.37-.55a1,1,0,0,1,.75-.25,1.46,1.46,0,0,1,.75.34,10.89,10.89,0,0,1,1.14,1Zm-3-4.12H73.84V63a.37.37,0,0,1,0,.23.18.18,0,0,1-.16.07c-.17,0-.44-.16-.8-.5s-.55-.59-.55-.75a.25.25,0,0,1,.08-.17.24.24,0,0,1,.19-.08h.33V60.06H72l-.48-.8h5.66l.49.8H76.43v4.22l-1-.6Zm0-2.51H73.84v1.71h1.62Zm-5.29,0H69.09v2.06a1.27,1.27,0,0,1-.34.89,1.13,1.13,0,0,1-.84.37,1.89,1.89,0,0,1-1.2-.54,1.41,1.41,0,0,1-.63-1V60.06h-.52l-.48-.8h6.81l.49.8H71.14v4.22l-1-.55Zm-2,0H67.05v2.31a.29.29,0,0,0,.09.21.33.33,0,0,0,.23.09.72.72,0,0,0,.53-.23.8.8,0,0,0,.22-.57Zm-4.39,2.76a1.43,1.43,0,0,1-.86.3,1.74,1.74,0,0,1-1-.52c-.41-.34-.74-.64-.74-.93V60.06h-.45l-.48-.8h5.24l.49.8H64.7v4.22l-1-.55Zm0-2.76H62.17l1.56,1.46ZM63.57,62l-1.46-1.36V62a.3.3,0,0,0,.15.24.55.55,0,0,0,.34.11,1.47,1.47,0,0,0,.56-.11A.92.92,0,0,0,63.57,62ZM62.2,67l-.43.15a5.09,5.09,0,0,0-1.13-1.33,1.86,1.86,0,0,0-1.13-.48.71.71,0,0,0-.5.18.55.55,0,0,0-.2.43.37.37,0,0,0,.13.28.41.41,0,0,0,.3.12,1.06,1.06,0,0,0,.81-.3l.43.5a1.3,1.3,0,0,1-.86.4,1.27,1.27,0,0,1-.93-.38,1.33,1.33,0,0,1-.37-.92.9.9,0,0,1,.29-.67.94.94,0,0,1,.68-.29,2.25,2.25,0,0,1,1.31.6A10,10,0,0,1,62.2,67Zm-3.34-4.42H57.35v.3a.43.43,0,0,1-.1.29.26.26,0,0,1-.22.11,1.47,1.47,0,0,1-.87-.44c-.35-.3-.53-.55-.53-.76a.25.25,0,0,1,.13-.21.49.49,0,0,1,.3-.09h.32v-.3A2.2,2.2,0,0,1,55.27,61a1.2,1.2,0,0,1-.45-.9.83.83,0,0,1,.3-.64,1,1,0,0,1,.73-.26,1.48,1.48,0,0,1,1,.46,1.3,1.3,0,0,1,.5.94v1.21h1.51V60.06H57.78l-.53-.8h3.34l.48.8H59.83v4.22l-1-.5Zm-2.42-1.46c0-.54.05-.88.05-1a.46.46,0,0,0-.09-.29.3.3,0,0,0-.23-.11.49.49,0,0,0-.38.16.53.53,0,0,0-.16.39.77.77,0,0,0,.23.53A1.15,1.15,0,0,0,56.44,61.11Zm-5.58,1.46H49.25V63a.37.37,0,0,1-.06.23.18.18,0,0,1-.16.07c-.17,0-.44-.16-.8-.5s-.55-.59-.55-.75a.25.25,0,0,1,.08-.17.24.24,0,0,1,.19-.08h.33V60.06H47.4l-.48-.8h5.66l.49.8H51.83v4.22l-1-.6Zm0-2.51H49.25v1.71h1.61Zm-3.08,0H46.52v1.56a1,1,0,0,1-.22.61,1.46,1.46,0,0,1-.59.44l1.51,1.51-.54.3-1.61-1.91a4.22,4.22,0,0,1-.45-.6.83.83,0,0,1-.15-.4.26.26,0,0,1,.12-.21.42.42,0,0,1,.26-.1.8.8,0,0,1,.59.21.84.84,0,0,0,.11-.41v-1H44.26l-.49-.8h3.52Zm-5.35,2.61a1.28,1.28,0,0,1-1,.4,1.7,1.7,0,0,1-1-.44,2,2,0,0,1-.7-1V60.06h-.46l-.49-.8h5.37l.48.8H43.4v4.22l-1-.5Zm0-2.61H40.7V62a.37.37,0,0,0,.1.24.31.31,0,0,0,.23.11,1.61,1.61,0,0,0,.83-.22,1.38,1.38,0,0,0,.57-.6Zm-5,0H36.14v4.22l-1-.5V62.17H34a.18.18,0,0,0-.15.07.29.29,0,0,0-.07.18v.35c0,.14-.07.2-.21.2a.91.91,0,0,1-.64-.42,1.3,1.3,0,0,1-.33-.78.4.4,0,0,1,.12-.29.45.45,0,0,1,.31-.11h2.15V60.06H32.34l-.48-.8h5Zm-4.66,0H31.48v4.22l-1-.6V60.06h-.8l-.48-.8h3Zm-2.63,0H28.85v4.22l-1-.5V61.57H26.16A1.58,1.58,0,0,1,27,62.92a.77.77,0,0,1-.31.61,1.65,1.65,0,0,1-.77.35L26.8,65l-.48.25-.65-1.35a1.47,1.47,0,0,1-.78-.21.63.63,0,0,1-.35-.55.48.48,0,0,1,.14-.35.45.45,0,0,1,.35-.15.77.77,0,0,1,.54.35,1.08,1.08,0,0,0,.49-.2.43.43,0,0,0,.21-.35,1.14,1.14,0,0,0-.44-.86,2.6,2.6,0,0,0-1.07-.55l.16-.3h3v-.7h-3.6l-.48-.8h5.81Z"/><path class="cls-9" d="M52,40.78a2,2,0,0,1-2.18,3.13,2.68,2.68,0,0,1-1.92-3.71C50,36,57.35,38.92,55.4,43.35c-.79,1.81-2.21,2.57-3.61,3.75A5.92,5.92,0,0,0,50,49.56,3.34,3.34,0,0,0,51,53a2.8,2.8,0,0,0,4.47-2.23c0-1.34-1.62-2.57-2.81-1.66a1.58,1.58,0,0,0-.49.65c-.21.84.22,1.06,1,1.12s.57.91.17,1.12a.89.89,0,0,1-.58.13,2,2,0,0,1-1.85-1.82,2.81,2.81,0,0,1,4.5-2.15,3.61,3.61,0,0,1,1,4.54,4.12,4.12,0,0,1-5.5,1.66,4.43,4.43,0,0,1-2.27-4.47c.23-1.87,1.69-3.32,3.13-4.39a10.86,10.86,0,0,0,1.47-1.16c1-1,1.54-2.18.85-3.54a3,3,0,0,0-1.93-1.4,2.59,2.59,0,0,0-3,1.2c-.65,1.56.6,2.22,1.45,2a.71.71,0,0,0,.32-1.22c-.49-.55.67-1.35,1.11-.65"/><path class="cls-9" d="M56.35,28a10.91,10.91,0,0,0-5.73,2.6A10.87,10.87,0,0,0,44.89,28L44.3,28l.28.52c.88,1.62,1.3,7.17,1.31,7.23l0,.29h.29a14.68,14.68,0,0,1,4.15.93l.27.11.27-.1A14.2,14.2,0,0,1,55.05,36h.28l0-.29c0-.06.44-5.61,1.31-7.23l.28-.52Zm-6.07,8.22a15,15,0,0,0-3.8-.86,33.61,33.61,0,0,0-1.12-6.66,9.75,9.75,0,0,1,4.92,2.43Zm4.48-.86a15.13,15.13,0,0,0-3.8.86V31.16a9.75,9.75,0,0,1,4.92-2.43A34.36,34.36,0,0,0,54.76,35.39Z"/><path class="cls-9" d="M35,35.15a2.59,2.59,0,0,0,.47.63c1.46,1.33,4-.29,2.75-2.09-.49-.68-1.64.08-1.09.65l.14.35-.16.2a.66.66,0,0,1-.78-.1,1.12,1.12,0,0,1-.11-1.45,1.58,1.58,0,0,1,1.6-.33,3.42,3.42,0,0,0,1.5.5A2.41,2.41,0,0,0,41,33.08a2.51,2.51,0,0,0,1.3,1.52,2.14,2.14,0,0,0,2.86-1.22,1.76,1.76,0,0,0-2-2.33.63.63,0,0,0-.39.88c.09.25.3.4.74.38.78-.06.45,1.53-.58,1.11-1.74-.68-.29-3.46.06-3.72a3.66,3.66,0,0,1,1.72-.93l-.14-.29L44.3,28l.59.07a10.87,10.87,0,0,1,5.73,2.6,6.31,6.31,0,0,1,.79-.68l-.14-.12a5,5,0,0,1-.65-3.66c.07-.3.88-2.55,2.89-2,1.14.29,1.26,1.74.88,2.48s-1.76.49-1.18-.45c.45-.72-.69-1.38-1.13-.66a1.75,1.75,0,0,0,1.81,2.74c1.93-.18,2.37-2.36,1.72-3.87A2.57,2.57,0,0,0,53,22.8c-.67-2,1-4.92,3.26-5,1,0,2,1.11,1.38,2-.38.61-1.62,1-1.75,0-.1-.83-1.42-.84-1.31,0a2.05,2.05,0,0,0,3.32,1.48A2.52,2.52,0,0,0,58,17.06c-1.53-1.16-3.43-.35-4.68.83a5.5,5.5,0,0,0-1.22,1.67,7.14,7.14,0,0,0-1.1-1,2,2,0,0,1-.94-2.23,1.14,1.14,0,0,1,.86-.74,1.12,1.12,0,0,1,.94.16c.39.31.15.86-.35.68-.79-.29-1.13,1-.35,1.26a1.66,1.66,0,0,0,2.11-2.14c-.41-1.27-2.1-1.56-3.18-1a2.46,2.46,0,0,0-.88.69,2.48,2.48,0,0,0-2.44-.78c-2.11.37-2.12,3.76.21,3.52,1-.1.82-1.53,0-1.31-.26.07-.55,0-.51-.38s.62-.6,1-.59c1.15,0,1.23,1.65,1.15,2.52h-.1a2.28,2.28,0,0,0-1.92,2.75,1.73,1.73,0,0,0,2.54,1.25c.76-.37.1-1.5-.66-1.13-.44.22-.62-.32-.63-.68,0-.8.88-.94,1.49-.93a2.16,2.16,0,0,1,2,1.61,2.42,2.42,0,0,1-.77,2.42,5,5,0,0,0-1.18,5.63A5.54,5.54,0,0,0,47,27.87a3.08,3.08,0,0,0,1.39-1.56,2.83,2.83,0,0,0-1.76-3.73,2.16,2.16,0,0,0-2.8,1.54,1.51,1.51,0,0,0,1.87,1.8.6.6,0,0,0,.38-1c-.25-.34-.37-.06-.7-.18a.37.37,0,0,1-.16-.61c.41-.57,1.35-.31,1.68.12,1.18,1.55-.71,2.95-2.21,3.18a5.44,5.44,0,0,0-1.14.37,7.55,7.55,0,0,0-2-5.5,3.12,3.12,0,0,1,.08-3.65,1.74,1.74,0,0,1,2-.23.86.86,0,0,1,.45,1.18c-.1.25-.27.26-.27.26a.66.66,0,0,0-1.27-.33,1.29,1.29,0,0,0,2.1,1.38,2.17,2.17,0,0,0-.56-3.72,3,3,0,0,0-3.88,1.26A3.91,3.91,0,0,0,39.75,21a4.1,4.1,0,0,0-2.1-.25,3.3,3.3,0,0,0-2.6,1.72,2.8,2.8,0,0,0,.38,3.07,2.31,2.31,0,0,0,3.31,0,1.62,1.62,0,0,0-.53-2.61c-.76-.35-1.4.71-.66,1.14.48.27.19.82-.36.84a1.06,1.06,0,0,1-1-.45,1.61,1.61,0,0,1,.34-1.87c.89-1,2.59-.57,3.48.13C41.68,24,42.93,27,41.93,29l0,.07a4.12,4.12,0,0,0-.77,1.34,4.25,4.25,0,0,0-.24,1,1.69,1.69,0,0,1-2.41.55l-.16-.11-.25-.22a2.5,2.5,0,0,1-.14-2.86,1.3,1.3,0,0,1,1.28-.66c.53.08.88,1.09.16.84s-1.14,1-.35,1.26c1.94.68,2.81-2,1.26-3.06a2.34,2.34,0,0,0-3.17.6,2.92,2.92,0,0,0-5.15.84,2.09,2.09,0,0,0,2,2.67,1.48,1.48,0,0,0,1.63-2.1c-.28-.64-1.3-.27-1.19.27l.17.29a.26.26,0,0,1-.2.32.88.88,0,0,1-.62,0,1,1,0,0,1-.36-1.53,1.6,1.6,0,0,1,1.83-.59,1.42,1.42,0,0,1,1,1.59,6.08,6.08,0,0,0,.41,2.26,2.52,2.52,0,0,0-1.55.95,2,2,0,0,0-.4,1l-.07.09a1.23,1.23,0,0,1-1.75.37c-.53-.48.13-1.56.49-1,.47.7,1.6,0,1.13-.66a1.61,1.61,0,0,0-2.22-.54,2,2,0,0,0-.78,2.44c.56,1.54,2.3,1.59,3.48.83"/><path class="cls-9" d="M49,40.49c-.13.46,0,.24.14-.2Z"/><path class="cls-9" d="M56.25,35.56a2.37,2.37,0,0,0-.88,0l0,.17,0,.29h-.28a12.16,12.16,0,0,0-3.27.63,4.79,4.79,0,0,0-1.13,1.58,3.58,3.58,0,0,0-1.37-1.64A11.65,11.65,0,0,0,46.2,36h-.29c-1.82.39-2.44,2-4,2.18a2.6,2.6,0,0,1-1.61-.27,1.18,1.18,0,0,1-.36-1.72c.29-.37,1-.29.94-.06-.22.81,1.08,1,1.3.19.37-1.31-.85-1.94-2-1.76a2.29,2.29,0,0,0-1.73,2.64,2.47,2.47,0,0,0-1.75.11,2.39,2.39,0,0,0-1,.76l-.16.15c-.3.43-1,.85-1.51.4s.16-1.44.44-1A.65.65,0,0,0,35.6,37a1.46,1.46,0,0,0-2.09-.56,2.06,2.06,0,0,0-.86,2.3,1.86,1.86,0,0,0,1.78,1.36,2,2,0,0,0,.91-.14,2,2,0,0,0,2,1.43c.8,0,1.62-.7,1.13-1.51a.66.66,0,0,0-1.19.2H37.1a.74.74,0,0,1-.53-.72,1.28,1.28,0,0,1,1.65-1.13c.88.18,1.24.58,1.22.76a2.6,2.6,0,0,0-.39.86,2.13,2.13,0,0,0,1.41,2.69,1.77,1.77,0,0,0,2.18-.94,1.26,1.26,0,0,0-1.09-1.85.63.63,0,0,0,0,1.26h0l0,.17a.64.64,0,0,1-.79.08.85.85,0,0,1-.39-1.21,1.29,1.29,0,0,1,1.21-.63A4.26,4.26,0,0,0,43,39.1c-.37,1.38.48,3.55,2.41,3.55,2.51,0,2.78-4,.43-4.08-.86,0-1,1.1-.21,1.19A.76.76,0,0,1,46.1,41a1,1,0,0,1-1.73-.38A2.61,2.61,0,0,1,46,37.28c2.49-.83,3.5,1.18,3.43,1.89a5.22,5.22,0,0,1-.26,1.12,9,9,0,0,1,2-1.08c.68-.32,2.63,1.31,2.91-.12l-1.93-.32c.34-2,4.21-3,4.53-1.29.06.31,0,.81-.3.92h-.06l0-.06c.3-.79-1-1.13-1.26-.34a1.17,1.17,0,0,0,1.14,1.6,1.67,1.67,0,0,0,1.78-1.53,2.24,2.24,0,0,0-1.68-2.51"/><path class="cls-9" d="M66.89,32.17a3.25,3.25,0,0,0-2.46,1.42,5.9,5.9,0,0,0-.7-1.19,3.64,3.64,0,0,0,.74,0,2.82,2.82,0,0,0,2.14-1.71l.09-.28v-.05l0-.21c.17-.82.85-1.84,1.68-1.1a.72.72,0,0,1,.21.95c-.16.28-.38.28-.57.06-.57-.63-1.49.3-.93.93a1.59,1.59,0,0,0,2.31.07,2,2,0,0,0,.25-2.53,2.15,2.15,0,0,0-3.58-.16,2.28,2.28,0,0,0-2.18-.6,1.39,1.39,0,0,0-.41,2.57c.76.35,1.43-.78.66-1.13-.25-.11.32-.22.31-.22a.93.93,0,0,1,.77.37c.48.62-.12,1.45-.73,1.7-.91.37-1.48.5-3.26-1a7.2,7.2,0,0,0-2.33-1.24,3.93,3.93,0,0,0,2.49-3.28l0-.17a3.12,3.12,0,0,1,1.91-2.56l.24-.09a2.21,2.21,0,0,1,1.81.13A1.92,1.92,0,0,1,66,25.54a1,1,0,0,1-1.33.09c-.52-.42-.22-.7.31-.79.82-.14.47-1.4-.35-1.26-2,.34-1.93,2.77-.15,3.43,2.08.78,3.37-1.33,3.12-3.14a3.09,3.09,0,0,0-2.75-2.56A2.47,2.47,0,0,0,64.74,19a2.94,2.94,0,0,0-3.66-1.21,2.09,2.09,0,0,0-.25,3.67,1.44,1.44,0,0,0,2-1.94c-.4-.74-1.53-.08-1.13.66.11.2,0,.19-.24.14s-.41-.53-.28-.81c.28-.69.92-.74,1.55-.55a1.64,1.64,0,0,1,1,1.12c.18.63-.31,1.15-.78,1.48a4.52,4.52,0,0,0-2,1.57h0c-.92-1.72-3.64-1.23-4.22.49A2,2,0,0,0,59.61,26c.71-.45,0-1.59-.66-1.13-1.31.85-1.41-1.89.26-1.57.7.14,1,.9,1,1.63l0,.37v.06a2.3,2.3,0,0,1-.14.52c-.66,1.51-1.55,1.76-3.58,2.11l.5-.06-.28.52a5,5,0,0,0-.36,1c.84-.23,1.62.43,1.65,1.67,0,.7-.71.75-.7.28s-1.18-.57-1.15.26c0,1.79,2.76,1.82,3.07,0A2.18,2.18,0,0,0,59,30.14a4.81,4.81,0,0,1,1.1.59,3.69,3.69,0,0,1,1.09,4.78c-.38.63-1.55,1.14-2.07.41s.08-.93.64-.87c.84.1.83-1.21,0-1.31-2.56-.31-2.69,3.26-.38,3.78,2.51.56,3.81-2.16,3.51-4.09a6.59,6.59,0,0,1,.26,6.3c-.49,1-2,2.31-3.62,1.37A.87.87,0,0,1,59.11,40c.18-.47,1-.6.9-.14-.16.83,1.17,1,1.31.06.16-1.11-1-1.76-2-1.55a1.91,1.91,0,0,0-1.47,1.74c0,1.72,1.25,2.55,3,2.55a4.24,4.24,0,0,0,3.55-2.56l.34.4a2.26,2.26,0,0,0,2.69.25,1.75,1.75,0,0,0,.74-2,1.47,1.47,0,0,0-1.92-.92c-.8.27-.45,1.54.35,1.26l.16,0h.08c.19.06.15.36.13.4a.59.59,0,0,1-.39.29C65,40,65,38,65,37.89a4.93,4.93,0,0,0,0-.54A12,12,0,0,0,65,35.47a2.24,2.24,0,0,1,2.67-2A1.31,1.31,0,0,1,68.6,35a.84.84,0,0,1-.56.8,1.1,1.1,0,0,1-.78,0c-.19-.19-.2-.3,0-.31a.65.65,0,0,0-.34-1.26,1.49,1.49,0,0,0,.1,2.87,2.25,2.25,0,0,0,2.91-2.31,2.68,2.68,0,0,0-3-2.57"/><path class="cls-4" d="M254.7,58.48l3.53,4.1V59.74a1.23,1.23,0,0,0-.19-.81,1.09,1.09,0,0,0-.85-.28v-.17h2.37v.17a2.18,2.18,0,0,0-.61.14.57.57,0,0,0-.25.28,1.82,1.82,0,0,0-.08.67v5.51h-.18l-4.83-5.52V64a.91.91,0,0,0,.28.78,1.14,1.14,0,0,0,.65.2h.17v.17h-2.55v-.17a1.25,1.25,0,0,0,.83-.23,1,1,0,0,0,.23-.75V59.27l-.15-.17a1.19,1.19,0,0,0-.4-.35,1.25,1.25,0,0,0-.5-.1v-.17Zm-6.85.23a1.63,1.63,0,0,0-1.5.93,4.55,4.55,0,0,0-.42,2.18,4,4,0,0,0,.65,2.49,1.51,1.51,0,0,0,1.26.57,1.63,1.63,0,0,0,.91-.25,2,2,0,0,0,.73-1,5.22,5.22,0,0,0,.25-1.78,5.39,5.39,0,0,0-.26-2,1.88,1.88,0,0,0-.68-.92A1.65,1.65,0,0,0,247.85,58.71Zm-.06-.31a3.73,3.73,0,0,1,2.77.92,3.17,3.17,0,0,1,1.07,2.45,3.35,3.35,0,0,1-.79,2.21,3.69,3.69,0,0,1-3,1.27,3.77,3.77,0,0,1-3-1.21,3.32,3.32,0,0,1-.84-2.26,3.17,3.17,0,0,1,1.09-2.45A3.59,3.59,0,0,1,247.79,58.4Zm-4.43,6.53v.17h-3.72v-.17h.24a1.06,1.06,0,0,0,.5-.11.43.43,0,0,0,.21-.23,2.36,2.36,0,0,0,0-.62V59.61a2.56,2.56,0,0,0,0-.64.52.52,0,0,0-.24-.22.89.89,0,0,0-.47-.1h-.24v-.17h3.72v.17h-.23a1,1,0,0,0-.5.11.43.43,0,0,0-.21.23,1.86,1.86,0,0,0-.06.62V64a2,2,0,0,0,.06.64.52.52,0,0,0,.24.22,1,1,0,0,0,.47.1ZM239,58.48v1.79h-.19a2.85,2.85,0,0,0-.37-.89,1.48,1.48,0,0,0-.57-.43,1.85,1.85,0,0,0-.7-.09h-.54V64a2,2,0,0,0,.06.64.55.55,0,0,0,.23.22,1.07,1.07,0,0,0,.48.1h.23v.17H234v-.17h.24a1,1,0,0,0,.49-.11.45.45,0,0,0,.22-.23,2,2,0,0,0,0-.62V58.86h-.51a1.65,1.65,0,0,0-1.05.28,1.86,1.86,0,0,0-.57,1.13h-.21V58.48Zm-9.5,4.37-1.07-2.25-1.09,2.25Zm.17.36h-2.5l-.32.65a1.44,1.44,0,0,0-.14.53.45.45,0,0,0,.24.42,2.32,2.32,0,0,0,.7.12v.17h-2.38v-.17a1.16,1.16,0,0,0,.64-.3,4,4,0,0,0,.61-1l2.55-5.27h.1l2.58,5.42a3.39,3.39,0,0,0,.61,1,.88.88,0,0,0,.5.18v.17h-3.45v-.17h.14a1.13,1.13,0,0,0,.58-.11.27.27,0,0,0,.12-.23.57.57,0,0,0,0-.18s-.06-.16-.16-.37Zm-3.21-4.73v.17a1.19,1.19,0,0,0-.69.39,5.63,5.63,0,0,0-.66,1.15l-2.45,5.06h-.18L220.09,60a7,7,0,0,0-.6-1.12.89.89,0,0,0-.56-.21v-.17h3.41v.17h-.12a1.28,1.28,0,0,0-.63.11.24.24,0,0,0-.12.22.59.59,0,0,0,0,.21c0,.08.12.3.29.65l1.52,3.28,1.41-2.92a7.8,7.8,0,0,0,.31-.72,1,1,0,0,0,.06-.31.39.39,0,0,0-.09-.26.44.44,0,0,0-.24-.17,1.65,1.65,0,0,0-.6-.09v-.17Zm-11.85.23a1.62,1.62,0,0,0-1.49.93,4.55,4.55,0,0,0-.42,2.18,4,4,0,0,0,.64,2.49,1.51,1.51,0,0,0,1.26.57,1.6,1.6,0,0,0,.91-.25,2,2,0,0,0,.73-1,5.19,5.19,0,0,0,.26-1.78,5.35,5.35,0,0,0-.27-2,1.87,1.87,0,0,0-.67-.92A1.68,1.68,0,0,0,214.65,58.71Zm-.06-.31a3.76,3.76,0,0,1,2.78.92,3.21,3.21,0,0,1,1.07,2.45,3.36,3.36,0,0,1-.8,2.21,3.68,3.68,0,0,1-3,1.27,3.79,3.79,0,0,1-3-1.21,3.36,3.36,0,0,1-.83-2.26,3.17,3.17,0,0,1,1.08-2.45A3.61,3.61,0,0,1,214.59,58.4Zm-9.27.08,3.52,4.1V59.74a1.23,1.23,0,0,0-.19-.81,1.07,1.07,0,0,0-.85-.28v-.17h2.37v.17a2.18,2.18,0,0,0-.61.14.57.57,0,0,0-.25.28,2.07,2.07,0,0,0-.08.67v5.51h-.18l-4.83-5.52V64a.91.91,0,0,0,.28.78,1.14,1.14,0,0,0,.65.2h.17v.17h-2.55v-.17a1.25,1.25,0,0,0,.83-.23,1,1,0,0,0,.23-.75V59.27l-.15-.17a1.19,1.19,0,0,0-.4-.35,1.25,1.25,0,0,0-.5-.1v-.17Zm-7.8,0,3.52,4.1V59.74a1.3,1.3,0,0,0-.18-.81,1.09,1.09,0,0,0-.85-.28v-.17h2.36v.17a2.39,2.39,0,0,0-.61.14.61.61,0,0,0-.24.28,1.78,1.78,0,0,0-.09.67v5.51h-.18l-4.83-5.52V64a.91.91,0,0,0,.29.78,1.11,1.11,0,0,0,.65.2h.17v.17H195v-.17a1.22,1.22,0,0,0,.82-.23A1,1,0,0,0,196,64V59.27l-.15-.17a1.3,1.3,0,0,0-.4-.35,1.31,1.31,0,0,0-.51-.1v-.17Zm-2.94,6.45v.17h-3.73v-.17h.24a1.06,1.06,0,0,0,.5-.11.43.43,0,0,0,.21-.23,1.86,1.86,0,0,0,.06-.62V59.61a2,2,0,0,0-.06-.64.52.52,0,0,0-.24-.22.89.89,0,0,0-.47-.1h-.24v-.17h3.73v.17h-.24a1.06,1.06,0,0,0-.5.11.43.43,0,0,0-.21.23,1.86,1.86,0,0,0-.06.62V64a2,2,0,0,0,.06.64.52.52,0,0,0,.24.22,1,1,0,0,0,.47.1Zm-10.81-6.22a1.62,1.62,0,0,0-1.5.93,4.55,4.55,0,0,0-.42,2.18,4,4,0,0,0,.65,2.49,1.51,1.51,0,0,0,1.26.57,1.65,1.65,0,0,0,.91-.25,2,2,0,0,0,.72-1,5,5,0,0,0,.26-1.78,5.62,5.62,0,0,0-.26-2,1.88,1.88,0,0,0-.68-.92A1.67,1.67,0,0,0,183.77,58.71Zm-.06-.31a3.75,3.75,0,0,1,2.77.92,3.17,3.17,0,0,1,1.07,2.45,3.31,3.31,0,0,1-.8,2.21,3.66,3.66,0,0,1-3,1.27,3.76,3.76,0,0,1-3-1.21,3.32,3.32,0,0,1-.84-2.26A3.14,3.14,0,0,1,181,59.33,3.59,3.59,0,0,1,183.71,58.4Zm-4.36.08v1.79h-.19a2.63,2.63,0,0,0-.37-.89,1.53,1.53,0,0,0-.56-.43,2,2,0,0,0-.71-.09H177V64a2,2,0,0,0,.06.64.52.52,0,0,0,.24.22,1,1,0,0,0,.47.1H178v.17h-3.73v-.17h.24a1.06,1.06,0,0,0,.5-.11.43.43,0,0,0,.21-.23,1.86,1.86,0,0,0,.06-.62V58.86h-.52a1.6,1.6,0,0,0-1,.28,1.82,1.82,0,0,0-.58,1.13h-.21V58.48Zm-14.43,0,3.52,4.1V59.74a1.3,1.3,0,0,0-.18-.81,1.09,1.09,0,0,0-.85-.28v-.17h2.36v.17a2.39,2.39,0,0,0-.61.14.61.61,0,0,0-.24.28,1.78,1.78,0,0,0-.09.67v5.51h-.18l-4.83-5.52V64a.91.91,0,0,0,.29.78,1.11,1.11,0,0,0,.65.2h.16v.17h-2.54v-.17a1.22,1.22,0,0,0,.82-.23,1,1,0,0,0,.24-.75V59.27l-.15-.17a1.31,1.31,0,0,0-.41-.35,1.22,1.22,0,0,0-.5-.1v-.17Zm-6.85.23a1.62,1.62,0,0,0-1.5.93,4.55,4.55,0,0,0-.42,2.18,4,4,0,0,0,.65,2.49,1.51,1.51,0,0,0,1.26.57,1.65,1.65,0,0,0,.91-.25,2,2,0,0,0,.72-1,5.19,5.19,0,0,0,.26-1.78,5.62,5.62,0,0,0-.26-2A2,2,0,0,0,159,59,1.67,1.67,0,0,0,158.07,58.71ZM158,58.4a3.76,3.76,0,0,1,2.78.92,3.21,3.21,0,0,1,1.07,2.45,3.36,3.36,0,0,1-.8,2.21,3.66,3.66,0,0,1-3,1.27,3.75,3.75,0,0,1-3-1.21,3.32,3.32,0,0,1-.84-2.26,3.14,3.14,0,0,1,1.09-2.45A3.58,3.58,0,0,1,158,58.4Zm-4.42,6.53v.17h-3.72v-.17h.23a1,1,0,0,0,.5-.11.43.43,0,0,0,.21-.23,1.86,1.86,0,0,0,.06-.62V59.61a2,2,0,0,0-.06-.64.49.49,0,0,0-.23-.22,1,1,0,0,0-.48-.1h-.23v-.17h3.72v.17h-.24a1,1,0,0,0-.49.11.49.49,0,0,0-.22.23,2.36,2.36,0,0,0,0,.62V64a2,2,0,0,0,.06.64.49.49,0,0,0,.23.22,1.06,1.06,0,0,0,.47.1Zm-4.33-6.45v1.79h-.18a2.82,2.82,0,0,0-.38-.89,1.38,1.38,0,0,0-.56-.43,1.89,1.89,0,0,0-.7-.09h-.54V64a2,2,0,0,0,.06.64.55.55,0,0,0,.23.22,1.07,1.07,0,0,0,.48.1h.23v.17h-3.72v-.17h.23a1,1,0,0,0,.5-.11.43.43,0,0,0,.21-.23,1.86,1.86,0,0,0,.06-.62V58.86h-.52a1.62,1.62,0,0,0-1,.28,1.87,1.87,0,0,0-.58,1.13h-.2V58.48Zm-9.49,4.37-1.07-2.25-1.09,2.25Zm.17.36h-2.51l-.31.65a1.3,1.3,0,0,0-.15.53.45.45,0,0,0,.24.42,2.41,2.41,0,0,0,.71.12v.17h-2.38v-.17a1.1,1.1,0,0,0,.63-.3,3.68,3.68,0,0,0,.61-1l2.56-5.27h.1L142,63.77a3.22,3.22,0,0,0,.6,1,.91.91,0,0,0,.51.18v.17h-3.46v-.17h.14a1.18,1.18,0,0,0,.59-.11.26.26,0,0,0,.11-.23.38.38,0,0,0,0-.18,2.89,2.89,0,0,0-.15-.37Zm-5.08-4.88v2.3h-.21a2.43,2.43,0,0,0-.86-1.39,2.28,2.28,0,0,0-1.43-.48,2.27,2.27,0,0,0-2,1.29,4,4,0,0,0-.33,1.64,5.2,5.2,0,0,0,.24,1.62,2.1,2.1,0,0,0,.76,1.1,2.22,2.22,0,0,0,1.34.38,2.65,2.65,0,0,0,1.23-.28,4.07,4.07,0,0,0,1.18-.94v.57a3.82,3.82,0,0,1-1.25.84,3.93,3.93,0,0,1-1.52.27,4.69,4.69,0,0,1-2-.43,3.13,3.13,0,0,1-1.37-1.22,3.21,3.21,0,0,1-.48-1.69,3.26,3.26,0,0,1,.54-1.79,3.53,3.53,0,0,1,1.44-1.32,4.17,4.17,0,0,1,1.93-.47,4.52,4.52,0,0,1,1.59.31,2.92,2.92,0,0,0,.61.17.44.44,0,0,0,.29-.11.56.56,0,0,0,.16-.37Zm-14.75.15h3.69v.17h-.18a1.42,1.42,0,0,0-.57.08.51.51,0,0,0-.23.23,2.41,2.41,0,0,0-.06.71V62.9a3.23,3.23,0,0,0,.14,1.18,1.23,1.23,0,0,0,.48.48,1.74,1.74,0,0,0,.84.19,1.9,1.9,0,0,0,1-.24,1.51,1.51,0,0,0,.61-.67,3.63,3.63,0,0,0,.21-1.48V59.67a1.6,1.6,0,0,0-.1-.64.55.55,0,0,0-.26-.26,1.51,1.51,0,0,0-.67-.12v-.17h2.47v.17h-.14a1,1,0,0,0-.5.12.59.59,0,0,0-.29.33,1.54,1.54,0,0,0-.07.57v2.51a6,6,0,0,1-.17,1.68,1.9,1.9,0,0,1-.8,1,3.12,3.12,0,0,1-1.76.44,3.61,3.61,0,0,1-1.43-.23,2,2,0,0,1-1-.8,2.59,2.59,0,0,1-.29-1.31V59.67A2,2,0,0,0,121,59a.47.47,0,0,0-.23-.23,1.76,1.76,0,0,0-.63-.08Zm-5.18.37V64a1.64,1.64,0,0,0,0,.5.29.29,0,0,0,.15.14.87.87,0,0,0,.41.08,1.64,1.64,0,0,0,1.34-.56,3.52,3.52,0,0,0,.64-2.33,4.06,4.06,0,0,0-.43-2,1.77,1.77,0,0,0-.89-.81A3.73,3.73,0,0,0,114.92,58.85ZM112.2,65.1v-.17h.24a.89.89,0,0,0,.47-.1.58.58,0,0,0,.25-.24,2.45,2.45,0,0,0,0-.62V59.61a2.56,2.56,0,0,0,0-.64.52.52,0,0,0-.24-.22.89.89,0,0,0-.47-.1h-.24v-.17h3.2a5.38,5.38,0,0,1,2.06.33A3,3,0,0,1,118.91,60a3.57,3.57,0,0,1,.25,3.09,3.12,3.12,0,0,1-.63,1,3.27,3.27,0,0,1-.89.61,5.33,5.33,0,0,1-1.23.36,6,6,0,0,1-1,.06Zm-4.4-6.24v2.7h.14a1.2,1.2,0,0,0,1-.4,2.36,2.36,0,0,0,.39-1.16h.2v3.46h-.2a2.32,2.32,0,0,0-.27-.93,1.09,1.09,0,0,0-.47-.48,2,2,0,0,0-.78-.13v1.86a2.21,2.21,0,0,0,0,.67.38.38,0,0,0,.18.2,1,1,0,0,0,.45.08h.42a2.77,2.77,0,0,0,1.61-.43,2.39,2.39,0,0,0,.87-1.3h.19l-.32,2.1h-6.17v-.17h.23a1,1,0,0,0,.5-.11.43.43,0,0,0,.21-.23,1.86,1.86,0,0,0,.06-.62V59.61a3,3,0,0,0,0-.56.46.46,0,0,0-.19-.26,1,1,0,0,0-.55-.14h-.23v-.17h6v2h-.21a2.21,2.21,0,0,0-.43-1,1.58,1.58,0,0,0-.78-.46,4.36,4.36,0,0,0-1.1-.09Z"/><path class="cls-4" d="M250.17,16.42,256,23.64a9.44,9.44,0,0,0,2.14,2.07,2.68,2.68,0,0,0,1.39.39v.42h-8.69V26.1a2.38,2.38,0,0,0,1.06-.25.57.57,0,0,0,.24-.46A4.43,4.43,0,0,0,251,23.46l-3.83-4.71-.63.49v4.49a5,5,0,0,0,.15,1.61,1.25,1.25,0,0,0,.57.54,3,3,0,0,0,1.35.22v.42h-8.43V26.1h.55a2.34,2.34,0,0,0,1.17-.25,1.12,1.12,0,0,0,.49-.59,4.85,4.85,0,0,0,.14-1.53V12.92a5.26,5.26,0,0,0-.14-1.58,1.25,1.25,0,0,0-.54-.56,2.25,2.25,0,0,0-1.12-.23h-.55v-.42h8.31v.42a2.81,2.81,0,0,0-1.3.24,1.14,1.14,0,0,0-.5.57,4.67,4.67,0,0,0-.15,1.56V18l6.23-4.91c.86-.7,1.29-1.26,1.29-1.67a.82.82,0,0,0-.53-.74,4.16,4.16,0,0,0-1.35-.17v-.42h6.51v.42a3.6,3.6,0,0,0-1.37.31,18.39,18.39,0,0,0-2.3,1.7ZM231.5,21,229,15.37,226.45,21Zm.39.89H226l-.73,1.6a3.5,3.5,0,0,0-.34,1.33,1.12,1.12,0,0,0,.56,1,4.71,4.71,0,0,0,1.64.29v.42h-5.56V26.1a2.5,2.5,0,0,0,1.48-.74,9.38,9.38,0,0,0,1.43-2.49l6-13.07h.23l6,13.43a8.38,8.38,0,0,0,1.42,2.43,1.92,1.92,0,0,0,1.19.44v.42h-8.09V26.1h.33a2.54,2.54,0,0,0,1.37-.27.65.65,0,0,0,.27-.56,1.51,1.51,0,0,0-.07-.46c0-.07-.14-.38-.37-.92ZM211.66,10.69a3.79,3.79,0,0,0-3.5,2.3,11.83,11.83,0,0,0-1,5.4c0,2.79.5,4.86,1.51,6.19a3.48,3.48,0,0,0,2.95,1.4,3.62,3.62,0,0,0,2.13-.6,5,5,0,0,0,1.69-2.47,13.25,13.25,0,0,0,.61-4.42,14.39,14.39,0,0,0-.62-4.86,4.7,4.7,0,0,0-1.58-2.27A3.82,3.82,0,0,0,211.66,10.69Zm-.15-.76a8.43,8.43,0,0,1,6.5,2.28,8.1,8.1,0,0,1,2.5,6.07,8.63,8.63,0,0,1-1.86,5.48,8.37,8.37,0,0,1-7,3.13,8.39,8.39,0,0,1-8.93-8.6,8.07,8.07,0,0,1,2.53-6.08A8.18,8.18,0,0,1,211.51,9.93ZM184,11v7.15h.7a8.22,8.22,0,0,0,2.57-.31,2.51,2.51,0,0,0,1.34-1.11,4,4,0,0,0,.49-2.08,3.73,3.73,0,0,0-.9-2.76,4,4,0,0,0-2.88-.89Zm0,8v4.63a5.07,5.07,0,0,0,.16,1.67,1.22,1.22,0,0,0,.59.55,4.2,4.2,0,0,0,1.57.2v.42h-8.56V26.1a3.91,3.91,0,0,0,1.57-.21,1.16,1.16,0,0,0,.58-.55,4.6,4.6,0,0,0,.17-1.66V13a4.67,4.67,0,0,0-.17-1.67,1.16,1.16,0,0,0-.58-.55,4.2,4.2,0,0,0-1.57-.2v-.42h7.78a17.06,17.06,0,0,1,4.44.41,4.45,4.45,0,0,1,2.29,1.52,4,4,0,0,1,.89,2.6,3.86,3.86,0,0,1-1.33,3,5.6,5.6,0,0,1-2.39,1.12l4,5.55a8.61,8.61,0,0,0,1.13,1.34,2.21,2.21,0,0,0,1.18.41v.44h-5.27L185,19.05Zm-16.69-8v6.68h.33a2.68,2.68,0,0,0,2.31-1,5.93,5.93,0,0,0,.92-2.89h.48v8.59h-.48a6.23,6.23,0,0,0-.63-2.3,2.61,2.61,0,0,0-1.1-1.2,4.22,4.22,0,0,0-1.83-.31v4.61a6.53,6.53,0,0,0,.11,1.65,1,1,0,0,0,.44.49,2.09,2.09,0,0,0,1,.2h1a6.19,6.19,0,0,0,3.76-1.06,5.89,5.89,0,0,0,2-3.23h.45l-.75,5.2H160.89V26.1h.55a2.31,2.31,0,0,0,1.17-.25,1.14,1.14,0,0,0,.5-.59,5,5,0,0,0,.13-1.53V12.92a8.91,8.91,0,0,0-.06-1.38,1.11,1.11,0,0,0-.46-.65,2.09,2.09,0,0,0-1.28-.34h-.55v-.42h14V15h-.48a5.81,5.81,0,0,0-1-2.55,3.8,3.8,0,0,0-1.82-1.14,10.26,10.26,0,0,0-2.58-.22Zm-7.14-.93v.42a2.61,2.61,0,0,0-1.62,1A14.46,14.46,0,0,0,157,14.36l-5.73,12.53h-.41l-5.71-13a16.79,16.79,0,0,0-1.38-2.78,2,2,0,0,0-1.33-.52v-.42h8v.42h-.27a2.83,2.83,0,0,0-1.48.27.59.59,0,0,0-.28.54,1.58,1.58,0,0,0,.1.52c.06.2.29.73.67,1.61l3.56,8.14L156,14.38a16,16,0,0,0,.73-1.78,2.47,2.47,0,0,0,.14-.77,1,1,0,0,0-.2-.65,1.19,1.19,0,0,0-.58-.43,4.12,4.12,0,0,0-1.4-.2v-.42ZM143.59,20.78,143,26.52H128.14V26.1h.55a2.36,2.36,0,0,0,1.17-.25,1.12,1.12,0,0,0,.49-.59,5,5,0,0,0,.13-1.53V12.92a5.4,5.4,0,0,0-.13-1.58,1.23,1.23,0,0,0-.55-.56,2.18,2.18,0,0,0-1.11-.23h-.55v-.42h8.91v.42h-.73a2.38,2.38,0,0,0-1.18.25,1.25,1.25,0,0,0-.51.59,5.34,5.34,0,0,0-.13,1.53V23.38a5.11,5.11,0,0,0,.15,1.6,1,1,0,0,0,.57.52,6.15,6.15,0,0,0,1.49.11h1.39a4.86,4.86,0,0,0,2.21-.46,4.13,4.13,0,0,0,1.53-1.45,11.4,11.4,0,0,0,1.22-2.92ZM127,26.1v.42h-8.71V26.1h.55a2.31,2.31,0,0,0,1.17-.25,1.08,1.08,0,0,0,.49-.59,4.85,4.85,0,0,0,.14-1.53V12.92a5.26,5.26,0,0,0-.14-1.58,1.25,1.25,0,0,0-.54-.56,2.25,2.25,0,0,0-1.12-.23h-.55v-.42H127v.42h-.55a2.3,2.3,0,0,0-1.16.25,1.19,1.19,0,0,0-.5.59,4.85,4.85,0,0,0-.14,1.53V23.73a5.31,5.31,0,0,0,.14,1.58,1.26,1.26,0,0,0,.55.55,2.23,2.23,0,0,0,1.11.24ZM115.63,9.75l.13,5.47h-.51a5.51,5.51,0,0,0-1.76-3.3,4.51,4.51,0,0,0-3-1.25,2.89,2.89,0,0,0-2,.66,2,2,0,0,0-.73,1.51,1.85,1.85,0,0,0,.26,1,4,4,0,0,0,1.15,1.12,25.22,25.22,0,0,0,2.67,1.42,12,12,0,0,1,4,2.66,4.48,4.48,0,0,1,1,2.88,4.59,4.59,0,0,1-1.64,3.52A5.93,5.93,0,0,1,111,26.89a7.1,7.1,0,0,1-1.49-.15,11.18,11.18,0,0,1-1.77-.6,2.76,2.76,0,0,0-1-.24,1.24,1.24,0,0,0-.67.25,1.63,1.63,0,0,0-.58.74h-.43V20.71h.43a7,7,0,0,0,2.09,4,5,5,0,0,0,3.34,1.37,3.16,3.16,0,0,0,2.2-.74,2.19,2.19,0,0,0,.51-2.83,3.69,3.69,0,0,0-1-1,14.72,14.72,0,0,0-2.27-1.27,19.7,19.7,0,0,1-3.28-1.87,5.89,5.89,0,0,1-1.53-1.73,4.2,4.2,0,0,1-.53-2.1,4.4,4.4,0,0,1,1.46-3.34,5.19,5.19,0,0,1,3.7-1.38,6.83,6.83,0,0,1,1.58.19,8.55,8.55,0,0,1,1.42.54,3.36,3.36,0,0,0,1.16.39.67.67,0,0,0,.51-.19,2.18,2.18,0,0,0,.34-.93Z"/><path class="cls-4" d="M259.55,32.94v.42a2.52,2.52,0,0,0-1.25.48,12.63,12.63,0,0,0-1.9,2.78l-3.56,6v4a5.35,5.35,0,0,0,.13,1.58,1.14,1.14,0,0,0,.52.55,2,2,0,0,0,1,.24h.92v.42h-9.18v-.42h.86a2.32,2.32,0,0,0,1.14-.25,1.17,1.17,0,0,0,.49-.59,5,5,0,0,0,.13-1.53v-3.3l-3.85-7a10.68,10.68,0,0,0-1.62-2.45,2.06,2.06,0,0,0-1.26-.39v-.42H250v.42h-.35a1.68,1.68,0,0,0-1,.22.54.54,0,0,0-.28.44,7.32,7.32,0,0,0,1,2.21l3,5.41,2.95-4.92a6.72,6.72,0,0,0,1.1-2.44.65.65,0,0,0-.31-.55,3.08,3.08,0,0,0-1.51-.37v-.42Zm-18.49,0v4.43h-.42a7.21,7.21,0,0,0-.85-2.2,3.36,3.36,0,0,0-1.3-1.07,4.21,4.21,0,0,0-1.61-.22h-1.23V46.55a5.45,5.45,0,0,0,.13,1.58,1.24,1.24,0,0,0,.54.55,2.12,2.12,0,0,0,1.09.24H238v.42h-8.53v-.42H230a2.33,2.33,0,0,0,1.13-.25,1.17,1.17,0,0,0,.49-.59,4.85,4.85,0,0,0,.14-1.53V33.88h-1.19a3.45,3.45,0,0,0-2.39.7,4.62,4.62,0,0,0-1.32,2.79h-.47V32.94Zm-16.2,16v.42h-8.53v-.42h.54a2.32,2.32,0,0,0,1.14-.25,1.17,1.17,0,0,0,.49-.59,5.34,5.34,0,0,0,.13-1.53V35.74a5.8,5.8,0,0,0-.13-1.58,1.25,1.25,0,0,0-.54-.56,2.12,2.12,0,0,0-1.09-.24h-.54v-.42h8.53v.42h-.54a2.24,2.24,0,0,0-1.14.26,1.22,1.22,0,0,0-.49.59,5.34,5.34,0,0,0-.13,1.53V46.55a5.31,5.31,0,0,0,.14,1.58,1.19,1.19,0,0,0,.54.55,2.08,2.08,0,0,0,1.08.24ZM213.7,32.57l.13,5.47h-.5a5.57,5.57,0,0,0-1.72-3.3,4.32,4.32,0,0,0-3-1.25,2.78,2.78,0,0,0-2,.66,2,2,0,0,0-.72,1.51,1.88,1.88,0,0,0,.26,1,4.08,4.08,0,0,0,1.12,1.12A26.54,26.54,0,0,0,210,39.16a11.64,11.64,0,0,1,3.89,2.67,4.51,4.51,0,0,1,1,2.87,4.66,4.66,0,0,1-1.6,3.53,5.76,5.76,0,0,1-4.07,1.48,6.91,6.91,0,0,1-1.47-.15A12.08,12.08,0,0,1,206,49a2.58,2.58,0,0,0-.95-.24,1.24,1.24,0,0,0-.67.25,1.76,1.76,0,0,0-.57.74h-.42V43.53h.42a7.12,7.12,0,0,0,2.05,4,4.85,4.85,0,0,0,3.28,1.37,3.09,3.09,0,0,0,2.16-.74,2.27,2.27,0,0,0,.8-1.71,2.2,2.2,0,0,0-.31-1.12,3.69,3.69,0,0,0-.93-1A15.37,15.37,0,0,0,208.6,43a19.88,19.88,0,0,1-3.22-1.87,5.88,5.88,0,0,1-1.49-1.73,4.31,4.31,0,0,1-.53-2.1A4.45,4.45,0,0,1,204.8,34a5,5,0,0,1,3.63-1.38,6.56,6.56,0,0,1,1.54.19,8.38,8.38,0,0,1,1.39.54,3.23,3.23,0,0,0,1.14.39.66.66,0,0,0,.49-.19,2.18,2.18,0,0,0,.34-.93Zm-22.9,1.29V41h.68A7.82,7.82,0,0,0,194,40.7a2.45,2.45,0,0,0,1.31-1.11,4,4,0,0,0,.48-2.08,3.77,3.77,0,0,0-.88-2.76,3.83,3.83,0,0,0-2.82-.89Zm0,8V46.5a5.07,5.07,0,0,0,.16,1.67,1.22,1.22,0,0,0,.57.55,4.08,4.08,0,0,0,1.54.2v.42h-8.38v-.42a3.77,3.77,0,0,0,1.54-.21,1.22,1.22,0,0,0,.57-.55A5,5,0,0,0,187,46.5V35.79a5,5,0,0,0-.16-1.67,1.22,1.22,0,0,0-.57-.55,3.84,3.84,0,0,0-1.54-.21v-.42h7.62a16.2,16.2,0,0,1,4.34.42,4.35,4.35,0,0,1,2.25,1.52,4,4,0,0,1,.87,2.59,3.91,3.91,0,0,1-1.3,3,5.44,5.44,0,0,1-2.34,1.12l3.93,5.55a8.31,8.31,0,0,0,1.11,1.34,2.08,2.08,0,0,0,1.15.41v.44h-5.16l-5.29-7.47Zm-16.35-8v6.68h.32a2.58,2.58,0,0,0,2.27-1,6,6,0,0,0,.9-2.88h.47v8.59h-.47a6.45,6.45,0,0,0-.61-2.3,2.64,2.64,0,0,0-1.09-1.2,4.05,4.05,0,0,0-1.79-.31v4.61a7.08,7.08,0,0,0,.11,1.65,1,1,0,0,0,.43.49,2,2,0,0,0,1,.2h1a5.28,5.28,0,0,0,5.67-4.29h.44l-.73,5.2H168.22v-.42h.54a2.35,2.35,0,0,0,1.14-.25,1.11,1.11,0,0,0,.48-.59,4.85,4.85,0,0,0,.14-1.53V35.74a7.33,7.33,0,0,0-.07-1.38,1.08,1.08,0,0,0-.44-.65,2,2,0,0,0-1.25-.35h-.54v-.42h13.7v4.85h-.47a5.9,5.9,0,0,0-1-2.55,3.75,3.75,0,0,0-1.79-1.14,9.8,9.8,0,0,0-2.52-.22Zm-7-.94v.42a2.61,2.61,0,0,0-1.59,1,14.92,14.92,0,0,0-1.52,2.85l-5.61,12.53h-.4l-5.59-13a16.6,16.6,0,0,0-1.36-2.78,1.94,1.94,0,0,0-1.29-.53v-.42h7.81v.42h-.26a2.68,2.68,0,0,0-1.45.28.59.59,0,0,0-.28.54,1.58,1.58,0,0,0,.1.52c.06.2.28.73.65,1.61l3.49,8.14,3.22-7.25a17.35,17.35,0,0,0,.72-1.78,2.8,2.8,0,0,0,.14-.77,1.18,1.18,0,0,0-.19-.65,1.25,1.25,0,0,0-.57-.43,3.78,3.78,0,0,0-1.38-.21v-.42Zm-18.2,16v.42h-8.53v-.42h.54a2.36,2.36,0,0,0,1.15-.25,1.11,1.11,0,0,0,.48-.59,5,5,0,0,0,.13-1.53V35.74a5.4,5.4,0,0,0-.13-1.58,1.25,1.25,0,0,0-.54-.56,2.1,2.1,0,0,0-1.09-.24h-.54v-.42h8.53v.42h-.54a2.17,2.17,0,0,0-1.13.26,1.17,1.17,0,0,0-.49.59,4.85,4.85,0,0,0-.14,1.53V46.55a5.31,5.31,0,0,0,.14,1.58,1.19,1.19,0,0,0,.54.55,2.11,2.11,0,0,0,1.08.24Zm-20.74-16L136.6,43.1v-7a3.32,3.32,0,0,0-.43-2,2.37,2.37,0,0,0-1.95-.69v-.42h5.42v.42a4.49,4.49,0,0,0-1.4.35,1.47,1.47,0,0,0-.55.7,4.59,4.59,0,0,0-.2,1.65V49.71h-.41L126,36V46.5a2,2,0,0,0,2.14,2.42h.38v.42H122.7v-.42a2,2,0,0,0,2.42-2.42V34.9l-.34-.42a3.15,3.15,0,0,0-.92-.88,2.75,2.75,0,0,0-1.15-.24v-.42Zm-23.44,0h8.46v.42h-.42a2.87,2.87,0,0,0-1.32.21,1.07,1.07,0,0,0-.5.55,5.54,5.54,0,0,0-.16,1.77v8a8.46,8.46,0,0,0,.33,2.91,2.84,2.84,0,0,0,1.1,1.19,3.62,3.62,0,0,0,1.92.47,4.1,4.1,0,0,0,2.26-.6,3.71,3.71,0,0,0,1.4-1.65,10,10,0,0,0,.46-3.66V35.89a4,4,0,0,0-.23-1.59,1.41,1.41,0,0,0-.58-.66,3.5,3.5,0,0,0-1.54-.28v-.42h5.67v.42h-.34a2.19,2.19,0,0,0-1.14.28,1.6,1.6,0,0,0-.67.85,4.4,4.4,0,0,0-.15,1.4v6.22a16.31,16.31,0,0,1-.38,4.17,4.68,4.68,0,0,1-1.85,2.36,6.75,6.75,0,0,1-4,1.07,7.57,7.57,0,0,1-3.28-.57,4.79,4.79,0,0,1-2.24-2,6.92,6.92,0,0,1-.65-3.25v-8a6,6,0,0,0-.15-1.77,1.19,1.19,0,0,0-.55-.56,3.36,3.36,0,0,0-1.43-.2Z"/><polygon class="cls-9" points="259.56 54.36 251.58 54.36 105.08 54.36 105.08 53.35 259.56 53.35 259.56 54.36"/></svg>