<?xml version="1.0" encoding="utf-8"?>
<!-- Generator: Adobe Illustrator 16.0.0, SVG Export Plug-In . SVG Version: 6.00 Build 0)  -->
<!DOCTYPE svg PUBLIC "-//W3C//DTD SVG 1.1//EN" "http://www.w3.org/Graphics/SVG/1.1/DTD/svg11.dtd">
<svg version="1.1" id="Layer_1" xmlns="http://www.w3.org/2000/svg" xmlns:xlink="http://www.w3.org/1999/xlink" x="0px" y="0px"
	 width="418px" height="192px" viewBox="0 0 418 192" enable-background="new 0 0 418 192" xml:space="preserve">
<g>
	<path fill="#393185" d="M3.434,2.809c3.268,0,13.888,0.49,22.548,0.49c8.823,0,18.953-0.49,23.365-0.49
		c0.653,0.98,0.817,5.229,0,6.373c-4.412,0.49-7.353,0.817-9.64,1.47c-3.921,0.98-4.575,2.941-4.902,7.843
		c-0.49,7.026-0.327,18.79-0.327,33.168c0,15.195,0.164,30.554,0.49,36.273c0.163,5.065,0.98,7.353,6.209,8.66
		c2.451,0.49,6.208,1.145,10.947,1.797c0.817,0.654,0.327,5.883-0.49,6.537c-3.595,0-15.359-0.49-24.019-0.49
		c-9.64,0-21.731,0.49-24.672,0.49c-0.98-0.49-0.98-5.883-0.163-6.537c4.412-0.49,6.699-0.815,9.15-1.307
		c5.229-1.307,5.882-3.595,6.372-6.862c0.654-4.738,0.49-14.378,0.49-41.175c0-13.725,0.164-23.038-0.327-30.717
		c-0.327-4.412-0.817-6.209-4.249-7.189c-2.941-0.817-6.045-1.307-10.947-1.96C2.454,8.364,2.781,3.626,3.434,2.809z"/>
	<path fill="#393185" d="M139.535,11.306c-5.065-2.288-12.417-3.268-19.934-3.268c-23.202,0-35.456,17.32-35.456,43.952
		c0,22.221,12.582,46.402,42.482,46.402c8.986,0,14.542-2.939,16.993-4.575c3.758-2.777,8.496-9.313,13.235-16.993
		c1.307-0.163,4.901,1.961,5.392,3.432c-1.307,6.208-8.823,19.771-12.745,22.548c-4.575,1.797-16.175,4.574-26.143,4.574
		c-37.417,0-57.677-20.423-57.677-53.918c0-17.81,8.333-35.783,26.306-45.586c8.823-4.739,19.444-7.516,33.005-7.516
		c15.522,0,26.633,2.941,34.148,3.431c-0.98,6.536-2.287,18.79-2.451,26.469c-0.817,0.98-6.536,1.634-6.699,0.49
		C148.195,17.515,146.234,14.573,139.535,11.306z"/>
	<path fill="#393185" d="M174.987,2.809c3.758,0,13.398,0.49,21.895,0.49h40.685c5.557,0,13.397,0,16.992-0.49
		c0.49,0,0.98,0.98,0.98,1.307c-0.98,3.921-2.124,14.705-2.287,23.855c-0.816,1.144-6.372,1.634-7.354,0.653
		c-0.979-4.902-1.308-7.026-2.287-10.621c-1.635-4.084-2.94-5.718-7.68-5.882c-6.371-0.327-23.201-0.654-28.43-0.164
		c-0.98,0.164-1.961,2.124-1.961,2.941c0,11.764-0.327,23.038-0.163,34.802c0,0.49,0.49,0.98,0.653,0.98
		c10.458,0,21.73,0,27.449-0.49c2.941-0.163,3.922-2.287,5.065-5.718c0.653-1.797,1.308-3.921,1.797-7.026
		c1.634-0.49,6.372-0.327,8.007,0.653c-0.49,4.248-1.145,11.764-1.145,17.156c0,6.209,0.164,11.928,0.49,17.81
		c-1.307,0.817-5.555,0.98-7.516,0.164c-0.818-3.595-1.309-5.229-1.962-7.353c-1.144-3.921-2.614-5.555-6.045-5.718
		c-5.883-0.327-21.567-0.327-26.143-0.327c-0.49,0-0.653,0.49-0.653,0.817c0,10.13-0.164,21.568,0.163,28.267
		c0.164,4.901,1.144,6.699,6.045,7.679c4.248,0.816,8.006,1.307,12.745,1.797c0.816,0.817,0.652,5.719-0.49,6.536
		c-5.393,0-12.744-0.489-27.45-0.489c-11.764,0-16.666,0.489-22.548,0.489c-0.98-0.653-1.144-5.556-0.164-6.372
		c4.085-0.49,7.516-1.145,9.64-1.634c4.902-1.307,5.719-2.451,6.045-8.169c0.327-6.045,0.164-16.176,0.164-36.109
		c0-18.626,0-29.083-0.327-34.149c-0.164-5.392-1.144-6.699-4.738-7.679c-2.451-0.49-5.719-1.144-9.64-1.634
		C173.68,8.364,174.334,3.626,174.987,2.809z"/>
	<path fill="#393185" d="M271.55,82.544c7.188-17.156,23.038-58.167,26.634-68.788c1.308-3.758,2.777-8.006,3.269-10.621
		c0.815,0.164,2.94,0.164,6.045,0.164c3.922,0,5.719,0,6.536-0.164c0.815,3.268,1.797,6.373,2.939,9.64
		c3.27,9.15,21.404,56.86,27.776,71.402c5.229,11.601,6.536,12.582,18.954,14.216c0.979,0.653,0.326,5.719-0.327,6.535
		c-4.248-0.162-12.091-0.49-21.404-0.49c-9.804,0-20.424,0.49-23.69,0.49c-0.654-0.816-0.817-5.719,0-6.535
		c3.595-0.49,7.024-0.98,9.477-1.797c1.961-0.818,2.287-2.942,1.961-4.086c-2.124-6.862-6.373-17.973-8.986-24.345
		c-0.326-0.817-1.308-1.144-1.635-1.144c-2.939-0.164-10.457-0.164-16.502-0.164c-10.457,0-11.438,0-13.234,0.164
		c-0.816,0-1.961,1.144-1.961,1.47c-3.432,9.313-7.68,19.934-7.68,23.202c0,3.104,0.653,4.249,5.393,5.392
		c2.123,0.49,5.719,0.979,8.66,1.308c0.652,0.816,0.326,5.719-0.49,6.535c-3.268,0-11.766-0.49-22.712-0.49
		c-10.62,0-16.013,0.49-19.116,0.49c-0.652-0.816-0.652-5.719,0-6.535C263.544,96.759,265.831,95.779,271.55,82.544z
		 M303.248,22.743c-2.777,8.66-8.66,23.691-11.766,33.495c0,0.49,0.164,0.98,0.654,1.144c1.797,0.164,8.17,0.164,12.907,0.164
		c4.085,0,8.66,0,10.784-0.164c0.49,0,0.979-0.817,0.816-1.634c-3.104-8.497-9.641-26.633-12.418-33.168
		C304.064,22.58,303.575,22.416,303.248,22.743z"/>
	<path fill="#393185" d="M368.11,2.809c3.268,0,13.888,0.49,22.548,0.49c8.823,0,18.953-0.49,23.364-0.49
		c0.653,0.98,0.816,5.229,0,6.373c-4.411,0.49-7.354,0.817-9.641,1.47c-3.921,0.98-4.575,2.941-4.9,7.843
		c-0.49,7.026-0.327,18.79-0.327,33.168c0,15.195,0.163,30.554,0.489,36.273c0.163,5.065,0.98,7.353,6.209,8.66
		c2.45,0.49,6.21,1.145,10.947,1.797c0.816,0.654,0.326,5.883-0.49,6.537c-3.595,0-15.358-0.49-24.019-0.49
		c-9.641,0-21.731,0.49-24.672,0.49c-0.98-0.49-0.98-5.883-0.164-6.537c4.412-0.49,6.699-0.815,9.15-1.307
		c5.229-1.307,5.882-3.595,6.371-6.862c0.653-4.738,0.49-14.378,0.49-41.175c0-13.725,0.163-23.038-0.327-30.717
		c-0.325-4.412-0.815-6.209-4.248-7.189c-2.939-0.817-6.045-1.307-10.946-1.96C367.13,8.364,367.456,3.626,368.11,2.809z"/>
</g>
<rect x="-0.061" y="110.729" fill="#E31E24" width="418" height="45.494"/>
<g>
	<path fill="#FFFFFF" d="M69.78,120.061h5.412v14.518c0,2.304,0.067,3.797,0.201,4.479c0.231,1.098,0.783,1.979,1.655,2.643
		c0.871,0.665,2.063,0.996,3.574,0.996c1.536,0,2.693-0.313,3.474-0.941c0.78-0.627,1.249-1.398,1.408-2.313
		c0.158-0.914,0.238-2.433,0.238-4.553v-14.828h5.412v14.078c0,3.219-0.146,5.491-0.439,6.819c-0.292,1.329-0.832,2.45-1.618,3.364
		c-0.786,0.914-1.837,1.643-3.153,2.185s-3.035,0.813-5.156,0.813c-2.56,0-4.501-0.297-5.823-0.887
		c-1.323-0.592-2.368-1.358-3.135-2.305c-0.768-0.943-1.274-1.936-1.518-2.971c-0.354-1.536-0.53-3.803-0.53-6.801v-14.297H69.78z"
		/>
	<path fill="#FFFFFF" d="M102.902,146.863v-26.803h5.266l10.97,17.898v-17.898h5.027v26.803h-5.43l-10.805-17.479v17.479H102.902
		L102.902,146.863z"/>
	<path fill="#FFFFFF" d="M135.714,146.863v-26.803h5.412v26.803H135.714z"/>
	<path fill="#FFFFFF" d="M159.11,146.863l-9.58-26.803h5.869l6.783,19.836l6.563-19.836h5.74l-9.598,26.803H159.11z"/>
	<path fill="#FFFFFF" d="M183.236,146.863v-26.803h19.874v4.533h-14.462v5.942h13.456v4.516h-13.456v7.296h14.974v4.516H183.236z"/>
	<path fill="#FFFFFF" d="M214.221,146.863v-26.803h11.391c2.863,0,4.945,0.24,6.242,0.723c1.299,0.482,2.338,1.338,3.117,2.568
		c0.78,1.23,1.17,2.64,1.17,4.224c0,2.011-0.591,3.672-1.772,4.981c-1.183,1.311-2.949,2.137-5.302,2.478
		c1.17,0.683,2.136,1.433,2.896,2.249c0.762,0.816,1.789,2.267,3.081,4.352l3.272,5.229h-6.473l-3.912-5.832
		c-1.391-2.084-2.341-3.397-2.853-3.94c-0.513-0.542-1.056-0.914-1.627-1.115c-0.573-0.201-1.481-0.302-2.726-0.302h-1.097v11.188
		H214.221L214.221,146.863z M219.632,131.396h4.005c2.596,0,4.217-0.11,4.862-0.33c0.646-0.219,1.151-0.598,1.519-1.133
		c0.364-0.537,0.547-1.207,0.547-2.012c0-0.902-0.239-1.631-0.722-2.186c-0.481-0.555-1.161-0.904-2.038-1.051
		c-0.438-0.062-1.756-0.093-3.949-0.093h-4.224V131.396z"/>
	<path fill="#FFFFFF" d="M245.861,138.143l5.266-0.512c0.316,1.768,0.96,3.064,1.93,3.895c0.969,0.828,2.275,1.242,3.922,1.242
		c1.742,0,3.056-0.367,3.938-1.104s1.326-1.601,1.326-2.587c0-0.635-0.187-1.174-0.558-1.618c-0.373-0.444-1.021-0.832-1.947-1.161
		c-0.635-0.22-2.078-0.609-4.334-1.17c-2.9-0.719-4.937-1.604-6.105-2.65c-1.646-1.476-2.468-3.272-2.468-5.395
		c0-1.364,0.387-2.643,1.16-3.83c0.774-1.188,1.89-2.093,3.346-2.715c1.457-0.621,3.215-0.934,5.274-0.934
		c3.363,0,5.896,0.738,7.597,2.213c1.7,1.476,2.594,3.443,2.679,5.906l-5.412,0.236c-0.23-1.377-0.728-2.367-1.488-2.971
		c-0.762-0.604-1.905-0.905-3.43-0.905c-1.572,0-2.803,0.323-3.691,0.969c-0.573,0.415-0.859,0.97-0.859,1.664
		c0,0.634,0.268,1.177,0.805,1.627c0.683,0.573,2.34,1.171,4.974,1.792c2.633,0.621,4.579,1.266,5.841,1.93s2.249,1.572,2.962,2.725
		c0.713,1.15,1.069,2.574,1.069,4.27c0,1.535-0.428,2.974-1.279,4.313c-0.854,1.341-2.061,2.338-3.62,2.989
		c-1.562,0.652-3.504,0.979-5.832,0.979c-3.389,0-5.991-0.783-7.807-2.35C247.3,143.423,246.215,141.141,245.861,138.143z"/>
	<path fill="#FFFFFF" d="M278.033,146.863v-26.803h5.412v26.803H278.033z"/>
	<path fill="#FFFFFF" d="M300.625,146.863v-22.27h-7.953v-4.533h21.299v4.533h-7.935v22.27H300.625z"/>
	<path fill="#FFFFFF" d="M330.492,146.863v-11.28l-9.817-15.522h6.344l6.309,10.604l6.18-10.604h6.234l-9.854,15.56v11.244
		L330.492,146.863L330.492,146.863z"/>
</g>
<g>
	<g>
		<path d="M79.027,161.342l5.078,15.828l5.063-15.828h7.219v22.75h-5.5v-5.313l0.531-10.875l-5.5,16.188h-3.625l-5.516-16.203
			l0.531,10.891v5.313h-5.484v-22.75L79.027,161.342L79.027,161.342z"/>
		<path d="M124.86,174.436h-8.625v5.438h10.188v4.219h-15.672v-22.75h15.703v4.234h-10.219v4.797h8.625V174.436z"/>
		<path d="M158.162,181.279c-0.844,0.938-2.078,1.693-3.703,2.266c-1.625,0.573-3.406,0.859-5.344,0.859
			c-2.979,0-5.359-0.911-7.141-2.734c-1.781-1.822-2.734-4.359-2.859-7.609l-0.016-1.969c0-2.238,0.396-4.195,1.188-5.867
			c0.791-1.672,1.924-2.957,3.398-3.858c1.474-0.9,3.18-1.353,5.117-1.353c2.833,0,5.033,0.648,6.602,1.945
			c1.567,1.297,2.481,3.232,2.742,5.805h-5.281c-0.188-1.271-0.594-2.177-1.219-2.719c-0.625-0.541-1.511-0.813-2.656-0.813
			c-1.375,0-2.438,0.584-3.188,1.75s-1.131,2.834-1.141,5v1.375c0,2.271,0.388,3.977,1.164,5.117
			c0.775,1.141,1.997,1.711,3.664,1.711c1.427,0,2.489-0.317,3.188-0.953v-3.531h-3.813v-3.766h9.297L158.162,181.279
			L158.162,181.279z"/>
		<path d="M191.245,184.092h-5.453v-9.5h-8.078v9.5h-5.484v-22.75h5.484v9.031h8.078v-9.031h5.453V184.092z"/>
		<path d="M218.797,179.842h-7.516l-1.313,4.25h-5.859l8.344-22.75h5.156l8.406,22.75h-5.892L218.797,179.842z M212.594,175.607
			h4.891l-2.452-7.892L212.594,175.607z"/>
		<path d="M244.036,179.873h9.547v4.219h-15.031v-22.75h5.484V179.873L244.036,179.873z"/>
		<path d="M279.994,179.842h-7.516l-1.313,4.25h-5.858l8.344-22.75h5.156l8.405,22.75h-5.892L279.994,179.842z M273.791,175.607
			h4.891l-2.453-7.892L273.791,175.607z"/>
		<path d="M305.732,171.217l4.188-9.875h5.922l-7.328,14.578v8.172h-5.563v-8.172l-7.313-14.578h5.891L305.732,171.217z"/>
		<path d="M338.957,179.842h-7.516l-1.313,4.25h-5.859l8.345-22.75h5.155l8.406,22.75h-5.891L338.957,179.842z M332.754,175.607
			h4.891l-2.452-7.892L332.754,175.607z"/>
	</g>
</g>
</svg>
