<?xml version="1.0" encoding="utf-8"?>
<!-- Generator: Adobe Illustrator 25.3.1, SVG Export Plug-In . SVG Version: 6.00 Build 0)  -->
<svg version="1.1" id="Layer_1" xmlns="http://www.w3.org/2000/svg" xmlns:xlink="http://www.w3.org/1999/xlink" x="0px" y="0px"
	 viewBox="0 0 418 234" style="enable-background:new 0 0 418 234;" xml:space="preserve" width="325px" height="145px">
<style type="text/css">
	.st0{enable-background:new    ;}
	.st1{fill:#2C1985;}
	.st2{fill:#E31E24;}
	.st3{fill:#FFFFFF;}
	.st4{fill:#271770;}
	.st5{fill:#271875;}
</style>
<g class="st0">
	<path class="st1" d="M3.4,12.9c3.3,0,13.9,0.5,22.5,0.5c8.8,0,19-0.5,23.4-0.5c0.7,1,0.8,5.2,0,6.4c-4.4,0.5-7.4,0.8-9.6,1.5
		c-3.9,1-4.6,2.9-4.9,7.8c-0.5,7-0.3,18.8-0.3,33.2C34.5,77,34.6,92.3,35,98c0.2,5.1,1,7.4,6.2,8.7c2.5,0.5,6.2,1.1,10.9,1.8
		c0.8,0.7,0.3,5.9-0.5,6.5c-3.6,0-15.4-0.5-24-0.5c-9.6,0-21.7,0.5-24.7,0.5c-1-0.5-1-5.9-0.2-6.5c4.4-0.5,6.7-0.8,9.1-1.3
		c5.2-1.3,5.9-3.6,6.4-6.9c0.7-4.7,0.5-14.4,0.5-41.2c0-13.7,0.2-23-0.3-30.7c-0.3-4.4-0.8-6.2-4.2-7.2c-2.9-0.8-6-1.3-10.9-2
		C2.5,18.5,2.8,13.7,3.4,12.9z"/>
	<path class="st1" d="M139.5,21.4c-5.1-2.3-12.4-3.3-19.9-3.3c-23.2,0-35.5,17.3-35.5,44c0,22.2,12.6,46.4,42.5,46.4
		c9,0,14.5-2.9,17-4.6c3.8-2.8,8.5-9.3,13.2-17c1.3-0.2,4.9,2,5.4,3.4c-1.3,6.2-8.8,19.8-12.7,22.5c-4.6,1.8-16.2,4.6-26.1,4.6
		c-37.4,0-57.7-20.4-57.7-53.9C65.7,45.8,74,27.8,92,18c8.8-4.7,19.4-7.5,33-7.5c15.5,0,26.6,2.9,34.1,3.4c-1,6.5-2.3,18.8-2.5,26.5
		c-0.8,1-6.5,1.6-6.7,0.5C148.2,27.6,146.2,24.7,139.5,21.4z"/>
	<path class="st1" d="M175,12.9c3.8,0,13.4,0.5,21.9,0.5h40.7c5.6,0,13.4,0,17-0.5c0.5,0,1,1,1,1.3c-1,3.9-2.1,14.7-2.3,23.9
		c-0.8,1.1-6.4,1.6-7.4,0.7c-1-4.9-1.3-7-2.3-10.6c-1.6-4.1-2.9-5.7-7.7-5.9c-6.4-0.3-23.2-0.7-28.4-0.2c-1,0.2-2,2.1-2,2.9
		c0,11.8-0.3,23-0.2,34.8c0,0.5,0.5,1,0.7,1c10.5,0,21.7,0,27.4-0.5c2.9-0.2,3.9-2.3,5.1-5.7c0.7-1.8,1.3-3.9,1.8-7
		c1.6-0.5,6.4-0.3,8,0.7c-0.5,4.2-1.1,11.8-1.1,17.2c0,6.2,0.2,11.9,0.5,17.8c-1.3,0.8-5.6,1-7.5,0.2c-0.8-3.6-1.3-5.2-2-7.4
		c-1.1-3.9-2.6-5.6-6-5.7c-5.9-0.3-21.6-0.3-26.1-0.3c-0.5,0-0.7,0.5-0.7,0.8c0,10.1-0.2,21.6,0.2,28.3c0.2,4.9,1.1,6.7,6,7.7
		c4.2,0.8,8,1.3,12.7,1.8c0.8,0.8,0.7,5.7-0.5,6.5c-5.4,0-12.7-0.5-27.5-0.5c-11.8,0-16.7,0.5-22.5,0.5c-1-0.7-1.1-5.6-0.2-6.4
		c4.1-0.5,7.5-1.1,9.6-1.6c4.9-1.3,5.7-2.5,6-8.2c0.3-6,0.2-16.2,0.2-36.1c0-18.6,0-29.1-0.3-34.1c-0.2-5.4-1.1-6.7-4.7-7.7
		c-2.5-0.5-5.7-1.1-9.6-1.6C173.7,18.5,174.3,13.7,175,12.9z"/>
	<path class="st1" d="M271.6,92.6c7.2-17.2,23-58.2,26.6-68.8c1.3-3.8,2.8-8,3.3-10.6c0.8,0.2,2.9,0.2,6,0.2c3.9,0,5.7,0,6.5-0.2
		c0.8,3.3,1.8,6.4,2.9,9.6c3.3,9.1,21.4,56.9,27.8,71.4c5.2,11.6,6.5,12.6,19,14.2c1,0.7,0.3,5.7-0.3,6.5
		c-4.2-0.2-12.1-0.5-21.4-0.5c-9.8,0-20.4,0.5-23.7,0.5c-0.7-0.8-0.8-5.7,0-6.5c3.6-0.5,7-1,9.5-1.8c2-0.8,2.3-2.9,2-4.1
		c-2.1-6.9-6.4-18-9-24.3c-0.3-0.8-1.3-1.1-1.6-1.1c-2.9-0.2-10.5-0.2-16.5-0.2c-10.5,0-11.4,0-13.2,0.2c-0.8,0-2,1.1-2,1.5
		c-3.4,9.3-7.7,19.9-7.7,23.2c0,3.1,0.7,4.2,5.4,5.4c2.1,0.5,5.7,1,8.7,1.3c0.7,0.8,0.3,5.7-0.5,6.5c-3.3,0-11.8-0.5-22.7-0.5
		c-10.6,0-16,0.5-19.1,0.5c-0.7-0.8-0.7-5.7,0-6.5C263.5,106.9,265.8,105.9,271.6,92.6z M303.2,32.8c-2.8,8.7-8.7,23.7-11.8,33.5
		c0,0.5,0.2,1,0.7,1.1c1.8,0.2,8.2,0.2,12.9,0.2c4.1,0,8.7,0,10.8-0.2c0.5,0,1-0.8,0.8-1.6c-3.1-8.5-9.6-26.6-12.4-33.2
		C304.1,32.7,303.6,32.5,303.2,32.8z"/>
	<path class="st1" d="M368.1,12.9c3.3,0,13.9,0.5,22.5,0.5c8.8,0,19-0.5,23.4-0.5c0.7,1,0.8,5.2,0,6.4c-4.4,0.5-7.4,0.8-9.6,1.5
		c-3.9,1-4.6,2.9-4.9,7.8c-0.5,7-0.3,18.8-0.3,33.2c0,15.2,0.2,30.6,0.5,36.3c0.2,5.1,1,7.4,6.2,8.7c2.5,0.5,6.2,1.1,10.9,1.8
		c0.8,0.7,0.3,5.9-0.5,6.5c-3.6,0-15.4-0.5-24-0.5c-9.6,0-21.7,0.5-24.7,0.5c-1-0.5-1-5.9-0.2-6.5c4.4-0.5,6.7-0.8,9.2-1.3
		c5.2-1.3,5.9-3.6,6.4-6.9c0.7-4.7,0.5-14.4,0.5-41.2c0-13.7,0.2-23-0.3-30.7c-0.3-4.4-0.8-6.2-4.2-7.2c-2.9-0.8-6-1.3-10.9-2
		C367.1,18.5,367.5,13.7,368.1,12.9z"/>
</g>
<rect x="-0.1" y="120.8" class="st2" width="418" height="45.5"/>
<g class="st0">
	<path class="st3" d="M69.8,130.2h5.4v14.5c0,2.3,0.1,3.8,0.2,4.5c0.2,1.1,0.8,2,1.7,2.6c0.9,0.7,2.1,1,3.6,1s2.7-0.3,3.5-0.9
		c0.8-0.6,1.2-1.4,1.4-2.3c0.2-0.9,0.2-2.4,0.2-4.6v-14.8h5.4v14.1c0,3.2-0.1,5.5-0.4,6.8s-0.8,2.5-1.6,3.4s-1.8,1.6-3.2,2.2
		c-1.3,0.5-3,0.8-5.2,0.8c-2.6,0-4.5-0.3-5.8-0.9s-2.4-1.4-3.1-2.3c-0.8-0.9-1.3-1.9-1.5-3c-0.4-1.5-0.5-3.8-0.5-6.8L69.8,130.2
		L69.8,130.2z"/>
	<path class="st3" d="M101.9,157v-26.8h5.3l11,17.9v-17.9h5V157h-5.4L107,139.5V157H101.9L101.9,157z"/>
	<path class="st3" d="M133.7,157v-26.8h5.4V157H133.7z"/>
	<path class="st3" d="M156.1,157l-9.6-26.8h5.9l6.8,19.8l6.6-19.8h5.7l-9.6,26.8H156.1z"/>
	<path class="st3" d="M179.2,157v-26.8h19.9v4.5h-14.5v5.9h13.5v4.5h-13.5v7.3h15v4.5h-20.4V157z"/>
	<path class="st3" d="M209.2,157v-26.8h11.4c2.9,0,4.9,0.2,6.2,0.7s2.3,1.3,3.1,2.6c0.8,1.2,1.2,2.6,1.2,4.2c0,2-0.6,3.7-1.8,5
		s-2.9,2.1-5.3,2.5c1.2,0.7,2.1,1.4,2.9,2.2c0.8,0.8,1.8,2.3,3.1,4.4l3.3,5.2h-6.5l-3.9-5.8c-1.4-2.1-2.3-3.4-2.9-3.9
		c-0.5-0.5-1.1-0.9-1.6-1.1c-0.6-0.2-1.5-0.3-2.7-0.3h-1.1v11.2L209.2,157L209.2,157z M214.6,141.5h4c2.6,0,4.2-0.1,4.9-0.3
		c0.6-0.2,1.2-0.6,1.5-1.1c0.4-0.5,0.5-1.2,0.5-2c0-0.9-0.2-1.6-0.7-2.2c-0.5-0.6-1.2-0.9-2-1.1c-0.4-0.1-1.8-0.1-3.9-0.1h-4.2v6.8
		L214.6,141.5L214.6,141.5z"/>
	<path class="st3" d="M239.8,148.2l5.3-0.5c0.3,1.8,1,3.1,1.9,3.9c1,0.8,2.3,1.2,3.9,1.2c1.7,0,3.1-0.4,3.9-1.1s1.3-1.6,1.3-2.6
		c0-0.6-0.2-1.2-0.6-1.6c-0.4-0.4-1-0.8-1.9-1.2c-0.6-0.2-2.1-0.6-4.3-1.2c-2.9-0.7-4.9-1.6-6.1-2.7c-1.6-1.5-2.5-3.3-2.5-5.4
		c0-1.4,0.4-2.6,1.2-3.8s1.9-2.1,3.3-2.7c1.5-0.6,3.2-0.9,5.3-0.9c3.4,0,5.9,0.7,7.6,2.2s2.6,3.4,2.7,5.9l-5.4,0.2
		c-0.2-1.4-0.7-2.4-1.5-3s-1.9-0.9-3.4-0.9c-1.6,0-2.8,0.3-3.7,1c-0.6,0.4-0.9,1-0.9,1.7c0,0.6,0.3,1.2,0.8,1.6
		c0.7,0.6,2.3,1.2,5,1.8c2.6,0.6,4.6,1.3,5.8,1.9c1.2,0.6,2.2,1.6,3,2.7c0.7,1.2,1.1,2.6,1.1,4.3c0,1.5-0.4,3-1.3,4.3
		s-2.1,2.3-3.6,3c-1.6,0.7-3.5,1-5.8,1c-3.4,0-6-0.8-7.8-2.3C241.2,153.5,240.1,151.2,239.8,148.2z"/>
	<path class="st3" d="M271,157v-26.8h5.4V157H271z"/>
	<path class="st3" d="M292.5,157v-22.3h-8v-4.5h21.3v4.5h-7.9V157H292.5z"/>
	<path class="st3" d="M321.4,157v-11.3l-9.8-15.5h6.3l6.3,10.6l6.2-10.6h6.2l-9.9,15.6V157H321.4z"/>
</g>
<g class="st0">
	<path class="st4" d="M124.9,178.4h-1.2c-0.3-0.9-0.8-2-1.6-3c-0.7-1.1-1.4-1.7-2-1.8c-0.3,0-0.7-0.1-1.2-0.1s-0.9,0-1.3,0h-0.7
		v17.4c0,0.4,0.1,0.7,0.2,1s0.4,0.5,0.8,0.7c0.2,0.1,0.6,0.2,1.1,0.3s0.9,0.2,1.3,0.2v1.2H108v-1.2c0.3,0,0.7-0.1,1.3-0.1
		c0.5-0.1,0.9-0.1,1.1-0.2c0.4-0.2,0.7-0.4,0.8-0.7c0.1-0.3,0.2-0.6,0.2-1v-17.5h-0.7c-0.4,0-0.8,0-1.3,0s-0.9,0.1-1.2,0.1
		c-0.6,0.1-1.3,0.7-2,1.8s-1.2,2.1-1.6,3h-1.2v-6.3h21.5C124.9,172.2,124.9,178.4,124.9,178.4z"/>
	<path class="st4" d="M161.6,194.2h-8.5c-1.5-2.2-2.7-4-3.7-5.4c-1-1.3-2.2-2.9-3.6-4.6h-0.9v6.7c0,0.4,0.1,0.7,0.2,1
		c0.1,0.3,0.4,0.5,0.8,0.7c0.2,0.1,0.5,0.2,0.9,0.3s0.8,0.1,1.1,0.2v1.2h-11.8v-1.2c0.3,0,0.7-0.1,1.2-0.1c0.5-0.1,0.8-0.1,1.1-0.2
		c0.4-0.2,0.7-0.4,0.8-0.6c0.1-0.3,0.2-0.6,0.2-1v-15.6c0-0.4-0.1-0.7-0.2-0.9c-0.1-0.2-0.4-0.5-0.8-0.7c-0.3-0.1-0.7-0.2-1.2-0.3
		s-0.8-0.2-1.1-0.2v-1.2h12.4c2.8,0,4.9,0.4,6.3,1.3c1.4,0.9,2.2,2.2,2.2,3.9c0,1.6-0.4,2.8-1.3,3.7c-0.9,0.9-2.2,1.7-4.1,2.2
		c0.7,0.9,1.5,2,2.5,3.2c0.9,1.2,1.9,2.4,2.9,3.7c0.3,0.4,0.8,0.9,1.3,1.5c0.6,0.6,1,1,1.5,1.1c0.2,0.1,0.5,0.1,0.9,0.2
		c0.4,0.1,0.6,0.1,0.8,0.1v1L161.6,194.2L161.6,194.2z M151,177.7c0-1.5-0.4-2.6-1.2-3.2c-0.8-0.7-2-1-3.5-1h-1.2v9.3h1.2
		c1.5,0,2.7-0.4,3.6-1.2C150.5,180.7,151,179.4,151,177.7z"/>
	<path class="st4" d="M183.8,194.2h-12.3V193c0.3,0,0.7-0.1,1.2-0.1s0.9-0.1,1.1-0.2c0.4-0.2,0.6-0.4,0.8-0.6c0.1-0.3,0.2-0.6,0.2-1
		v-15.7c0-0.4-0.1-0.7-0.2-0.9c-0.1-0.3-0.4-0.5-0.8-0.7c-0.2-0.1-0.6-0.2-1.1-0.3s-0.9-0.2-1.3-0.2v-1.2h12.3v1.2
		c-0.3,0-0.7,0.1-1.2,0.1c-0.5,0.1-0.9,0.1-1.2,0.2c-0.4,0.1-0.7,0.3-0.8,0.6s-0.2,0.6-0.2,1v15.7c0,0.4,0.1,0.7,0.2,1
		c0.1,0.3,0.4,0.5,0.8,0.6c0.2,0.1,0.6,0.2,1.1,0.3s0.9,0.1,1.3,0.2L183.8,194.2L183.8,194.2z"/>
	<path class="st4" d="M216.7,177.6c0,1.2-0.3,2.3-0.8,3.2s-1.2,1.6-2.1,2.2c-0.9,0.6-2,1-3.2,1.3s-2.6,0.4-4.1,0.4h-1.8v6.2
		c0,0.4,0.1,0.7,0.2,1c0.1,0.3,0.4,0.5,0.8,0.7c0.2,0.1,0.5,0.2,1,0.3s0.9,0.2,1.2,0.2v1.2h-12v-1.2c0.3,0,0.7-0.1,1.2-0.1
		c0.5-0.1,0.8-0.1,1-0.2c0.4-0.2,0.7-0.4,0.8-0.6s0.2-0.6,0.2-1v-15.6c0-0.4-0.1-0.7-0.2-0.9c-0.1-0.2-0.4-0.5-0.8-0.7
		c-0.3-0.1-0.7-0.2-1.2-0.3s-0.8-0.2-1.1-0.2v-1.2H208c2.9,0,5,0.5,6.4,1.4C216,174.3,216.7,175.7,216.7,177.6z M210.6,178.4
		c0-1.7-0.3-2.9-1-3.7s-1.9-1.2-3.6-1.2h-1.3v9.7h0.7c1.7,0,3-0.4,3.9-1.2C210.1,181.2,210.6,180,210.6,178.4z"/>
	<path class="st4" d="M253.8,173.2c-0.3,0-0.7,0.1-1.3,0.2c-0.6,0.1-1,0.3-1.4,0.6s-0.7,0.7-0.8,1.4c-0.2,0.7-0.2,1.7-0.2,3v8.2
		c0,2.4-0.8,4.4-2.5,5.9c-1.6,1.5-3.8,2.2-6.5,2.2c-3.2,0-5.6-0.7-7.3-2.1c-1.7-1.4-2.6-3.4-2.6-6v-11.3c0-0.4-0.1-0.7-0.2-0.9
		c-0.1-0.3-0.4-0.5-0.8-0.7c-0.3-0.1-0.6-0.2-1-0.3s-0.7-0.1-1-0.2V172h11.6v1.2c-0.3,0-0.7,0.1-1,0.1c-0.3,0.1-0.7,0.1-1,0.3
		c-0.4,0.1-0.7,0.3-0.8,0.6s-0.2,0.6-0.2,1v11.2c0,2.2,0.5,3.8,1.5,4.8s2.4,1.5,4.2,1.5s3.2-0.6,4.3-1.7c1-1.1,1.5-2.7,1.5-4.9v-7.5
		c0-1.3-0.1-2.3-0.3-3s-0.5-1.1-0.8-1.4c-0.3-0.2-0.7-0.4-1.4-0.6s-1.1-0.3-1.4-0.3v-1.2h9.6v1.1L253.8,173.2L253.8,173.2z"/>
	<path class="st4" d="M290.4,194.2h-8.5c-1.5-2.2-2.7-4-3.7-5.4c-1-1.3-2.2-2.9-3.6-4.6h-0.9v6.7c0,0.4,0.1,0.7,0.2,1
		s0.4,0.5,0.8,0.7c0.2,0.1,0.5,0.2,0.9,0.3s0.8,0.1,1.1,0.2v1.2H265v-1.2c0.3,0,0.7-0.1,1.2-0.1c0.5-0.1,0.8-0.1,1.1-0.2
		c0.4-0.2,0.7-0.4,0.8-0.6c0.1-0.3,0.2-0.6,0.2-1v-15.6c0-0.4-0.1-0.7-0.2-0.9s-0.4-0.5-0.8-0.7c-0.3-0.1-0.7-0.2-1.2-0.3
		s-0.8-0.2-1.1-0.2v-1.2h12.4c2.8,0,4.9,0.4,6.3,1.3c1.4,0.9,2.2,2.2,2.2,3.9c0,1.6-0.4,2.8-1.3,3.7s-2.2,1.7-4.1,2.2
		c0.7,0.9,1.5,2,2.5,3.2c0.9,1.2,1.9,2.4,2.9,3.7c0.3,0.4,0.8,0.9,1.3,1.5c0.6,0.6,1,1,1.5,1.1c0.2,0.1,0.5,0.1,0.9,0.2
		c0.4,0.1,0.6,0.1,0.8,0.1L290.4,194.2L290.4,194.2z M279.8,177.7c0-1.5-0.4-2.6-1.2-3.2c-0.8-0.7-2-1-3.5-1h-1.2v9.3h1.2
		c1.5,0,2.7-0.4,3.6-1.2C279.4,180.7,279.8,179.4,279.8,177.7z"/>
	<path class="st4" d="M324.5,194.2h-12.1V193c0.6,0,1.2-0.1,2-0.3s1.1-0.4,1.1-0.6c0-0.1,0-0.2,0-0.3s-0.1-0.2-0.1-0.4l-1.9-4.6
		h-7.7c-0.2,0.4-0.4,0.9-0.6,1.5s-0.4,1.1-0.6,1.5c-0.2,0.6-0.3,1-0.3,1.3s-0.1,0.4-0.1,0.5c0,0.3,0.3,0.6,0.8,0.9s1.3,0.4,2.5,0.5
		v1.2h-9.1V193c0.3,0,0.7-0.1,1.2-0.2c0.4-0.1,0.8-0.2,1-0.4c0.4-0.2,0.8-0.6,1.1-0.9c0.3-0.4,0.5-0.8,0.7-1.3
		c1.2-2.9,2.4-5.9,3.6-8.8c1.2-2.9,2.6-6.2,4-9.7h3.1c2,5,3.6,9,4.8,11.9c1.2,2.9,2.1,5.3,3,7.2c0.1,0.3,0.3,0.6,0.5,0.9
		c0.2,0.3,0.5,0.5,0.9,0.7c0.3,0.2,0.6,0.3,1,0.4s0.7,0.1,1,0.2v1.2L324.5,194.2L324.5,194.2z M312.9,185.2l-3.2-8l-3.2,8H312.9z"/>
</g>
<g class="st0">
	<path class="st5" d="M26.1,227.1h-5.5l-8.1-14.2v14.2H7.1v-22.8h5.5l8,14.2v-14.2h5.5V227.1z"/>
	<path class="st5" d="M42.7,222.9h-7.5l-1.3,4.2H28l8.3-22.8h5.2l8.5,22.8h-5.9L42.7,222.9z M36.5,218.6h4.9l-2.5-7.9L36.5,218.6z"
		/>
	<path class="st5" d="M64.5,222.9H57l-1.3,4.2h-5.9l8.3-22.8h5.2l8.4,22.8h-5.9L64.5,222.9z M58.3,218.6h4.9l-2.5-7.9L58.3,218.6z"
		/>
	<path class="st5" d="M91.5,219.4c-0.1,1.6-0.5,3-1.3,4.2s-1.9,2.2-3.3,2.8c-1.4,0.7-3,1-4.8,1c-3,0-5.3-1-7.1-2.9
		c-1.7-1.9-2.6-4.7-2.6-8.2v-1.2c0-2.2,0.4-4.2,1.2-5.9c0.8-1.7,1.9-3,3.4-3.9s3.1-1.4,5.1-1.4c2.8,0,5,0.7,6.7,2.2s2.6,3.5,2.9,6
		h-5.5c0-1.4-0.4-2.4-1-3c-0.7-0.6-1.7-0.9-3-0.9c-1.4,0-2.4,0.5-3,1.5s-1,2.7-1,4.9v1.6c0,2.4,0.3,4.2,0.9,5.2s1.7,1.6,3.1,1.6
		c1.3,0,2.2-0.3,2.9-0.9c0.7-0.6,1-1.5,1.1-2.8L91.5,219.4L91.5,219.4z"/>
	<path class="st5" d="M115,222.9h-7.5l-1.3,4.2h-5.9l8.3-22.8h5.2l8.4,22.8h-5.9L115,222.9z M108.8,218.6h4.9l-2.5-7.9L108.8,218.6z
		"/>
	<path class="st5" d="M130.8,223.3c0.7,0,1.3-0.2,1.7-0.6c0.4-0.4,0.6-1,0.6-1.7h4.9c0,1.9-0.7,3.4-2,4.6s-3,1.8-5.1,1.8
		c-2.5,0-4.4-0.8-5.8-2.3s-2.1-3.7-2.1-6.4v-0.2c0-1.7,0.3-3.2,0.9-4.5s1.5-2.3,2.7-3s2.6-1.1,4.2-1.1c2.2,0,3.9,0.6,5.2,1.8
		s1.9,2.9,1.9,5H133c0-0.9-0.2-1.5-0.6-2c-0.4-0.5-1-0.7-1.7-0.7c-1.4,0-2.2,0.9-2.4,2.6c-0.1,0.6-0.1,1.3-0.1,2.3
		c0,1.7,0.2,2.9,0.6,3.5S129.9,223.3,130.8,223.3z"/>
	<path class="st5" d="M147.4,223.3c0.7,0,1.3-0.2,1.7-0.6c0.4-0.4,0.6-1,0.6-1.7h4.9c0,1.9-0.7,3.4-2,4.6s-3,1.8-5.1,1.8
		c-2.5,0-4.4-0.8-5.8-2.3c-1.4-1.5-2.1-3.7-2.1-6.4v-0.2c0-1.7,0.3-3.2,0.9-4.5c0.6-1.3,1.5-2.3,2.7-3s2.6-1.1,4.2-1.1
		c2.2,0,3.9,0.6,5.2,1.8s1.9,2.9,1.9,5h-4.9c0-0.9-0.2-1.5-0.6-2c-0.4-0.5-1-0.7-1.7-0.7c-1.4,0-2.2,0.9-2.4,2.6
		c-0.1,0.6-0.1,1.3-0.1,2.3c0,1.7,0.2,2.9,0.6,3.5S146.5,223.3,147.4,223.3z"/>
	<path class="st5" d="M167.1,215l-1.7-0.1c-1.7,0-2.7,0.5-3.2,1.6v10.6h-5.3v-16.9h4.9l0.2,2.2c0.9-1.7,2.1-2.5,3.7-2.5
		c0.6,0,1.1,0.1,1.5,0.2L167.1,215z"/>
	<path class="st5" d="M176.9,227.4c-2.6,0-4.7-0.8-6.3-2.3s-2.4-3.6-2.4-6v-0.4c0-1.7,0.3-3.3,1-4.6c0.6-1.3,1.6-2.3,2.8-3.1
		c1.2-0.7,2.7-1.1,4.4-1.1c2.4,0,4.2,0.7,5.6,2.2c1.4,1.5,2.1,3.5,2.1,6.2v2h-10.5c0.2,0.9,0.6,1.7,1.2,2.2c0.6,0.5,1.5,0.8,2.5,0.8
		c1.7,0,3-0.6,3.9-1.8l2.4,2.8c-0.7,0.9-1.6,1.6-2.8,2.2C179.6,227.1,178.3,227.4,176.9,227.4z M176.3,213.9c-1.5,0-2.5,1-2.8,3.1
		h5.3v-0.4c0-0.8-0.2-1.5-0.6-2C177.7,214.2,177.1,213.9,176.3,213.9z"/>
	<path class="st5" d="M185.4,218.5c0-2.7,0.6-4.8,1.7-6.3c1.2-1.5,2.8-2.3,4.8-2.3c1.5,0,2.8,0.6,3.8,1.8v-8.6h5.3v24h-4.7l-0.3-1.8
		c-1.1,1.4-2.5,2.1-4.1,2.1c-2,0-3.6-0.8-4.8-2.3C186,223.6,185.4,221.4,185.4,218.5z M190.7,218.9c0,3,0.9,4.5,2.6,4.5
		c1.2,0,2-0.5,2.5-1.5v-6.4c-0.5-1-1.3-1.5-2.5-1.5c-1.6,0-2.5,1.3-2.6,3.9V218.9z"/>
	<path class="st5" d="M204.1,205.8c0-0.8,0.3-1.4,0.8-1.8c0.5-0.5,1.2-0.7,2.1-0.7c0.9,0,1.6,0.2,2.1,0.7s0.8,1.1,0.8,1.8
		s-0.3,1.4-0.8,1.8c-0.5,0.5-1.2,0.7-2.1,0.7c-0.9,0-1.6-0.2-2.1-0.7C204.3,207.2,204.1,206.6,204.1,205.8z M209.7,227.1h-5.3v-16.9
		h5.3V227.1z"/>
	<path class="st5" d="M219,206v4.2h2.8v3.7H219v7.7c0,0.6,0.1,1.1,0.3,1.3s0.7,0.4,1.4,0.4c0.5,0,1,0,1.3-0.1v3.8
		c-0.9,0.3-1.9,0.5-3,0.5c-1.8,0-3.2-0.4-4-1.3c-0.9-0.9-1.3-2.2-1.3-3.9v-8.4h-2.2v-3.7h2.2V206H219z"/>
	<path class="st5" d="M232.1,227.4c-2.6,0-4.7-0.8-6.3-2.3s-2.4-3.6-2.4-6v-0.4c0-1.7,0.3-3.3,1-4.6c0.6-1.3,1.6-2.3,2.8-3.1
		c1.2-0.7,2.7-1.1,4.4-1.1c2.4,0,4.2,0.7,5.6,2.2c1.4,1.5,2.1,3.5,2.1,6.2v2h-10.5c0.2,0.9,0.6,1.7,1.2,2.2c0.6,0.5,1.5,0.8,2.5,0.8
		c1.7,0,3-0.6,3.9-1.8l2.4,2.8c-0.7,0.9-1.6,1.6-2.8,2.2C234.8,227.1,233.5,227.4,232.1,227.4z M231.5,213.9c-1.5,0-2.5,1-2.8,3.1
		h5.3v-0.4c0-0.8-0.2-1.5-0.6-2C233,214.2,232.3,213.9,231.5,213.9z"/>
	<path class="st5" d="M240.6,218.5c0-2.7,0.6-4.8,1.7-6.3c1.2-1.5,2.8-2.3,4.8-2.3c1.5,0,2.8,0.6,3.8,1.8v-8.6h5.3v24h-4.7l-0.3-1.8
		c-1.1,1.4-2.5,2.1-4.1,2.1c-2,0-3.6-0.8-4.8-2.3C241.2,223.6,240.6,221.4,240.6,218.5z M245.9,218.9c0,3,0.9,4.5,2.6,4.5
		c1.2,0,2-0.5,2.5-1.5v-6.4c-0.5-1-1.3-1.5-2.5-1.5c-1.6,0-2.5,1.3-2.6,3.9V218.9z"/>
	<path class="st5" d="M285.4,204.3v14.9c0,1.7-0.4,3.1-1.1,4.4s-1.8,2.2-3.1,2.8c-1.3,0.6-2.9,1-4.8,1c-2.8,0-5-0.7-6.5-2.2
		s-2.4-3.4-2.4-5.9v-15h5.5v15.1c0.1,2.5,1.2,3.7,3.5,3.7c1.1,0,2-0.3,2.6-0.9c0.6-0.6,0.9-1.6,0.9-3v-14.9L285.4,204.3L285.4,204.3
		z"/>
	<path class="st5" d="M293.4,210.2l0.2,2c1.2-1.5,2.8-2.3,4.8-2.3c1.8,0,3.1,0.5,3.9,1.6c0.9,1.1,1.3,2.6,1.4,4.8v10.8h-5.3v-10.7
		c0-0.9-0.2-1.5-0.5-1.9s-1-0.6-1.9-0.6c-1,0-1.8,0.4-2.3,1.2v12h-5.3v-16.9L293.4,210.2L293.4,210.2z"/>
	<path class="st5" d="M306.6,205.8c0-0.8,0.3-1.4,0.8-1.8c0.5-0.5,1.2-0.7,2.1-0.7s1.6,0.2,2.1,0.7s0.8,1.1,0.8,1.8
		s-0.3,1.4-0.8,1.8c-0.5,0.5-1.2,0.7-2.1,0.7s-1.6-0.2-2.1-0.7C306.8,207.2,306.6,206.6,306.6,205.8z M312.1,227.1h-5.3v-16.9h5.3
		V227.1z"/>
	<path class="st5" d="M322.1,220.8l2.7-10.6h5.5l-5.5,16.9h-5.4l-5.5-16.9h5.6L322.1,220.8z"/>
	<path class="st5" d="M339.9,227.4c-2.6,0-4.7-0.8-6.3-2.3c-1.6-1.5-2.4-3.6-2.4-6v-0.4c0-1.7,0.3-3.3,1-4.6
		c0.6-1.3,1.6-2.3,2.8-3.1c1.2-0.7,2.7-1.1,4.4-1.1c2.4,0,4.2,0.7,5.6,2.2s2.1,3.5,2.1,6.2v2h-10.5c0.2,0.9,0.6,1.7,1.2,2.2
		s1.5,0.8,2.5,0.8c1.7,0,3-0.6,3.9-1.8l2.4,2.8c-0.7,0.9-1.6,1.6-2.8,2.2C342.6,227.1,341.3,227.4,339.9,227.4z M339.3,213.9
		c-1.5,0-2.5,1-2.8,3.1h5.3v-0.4c0-0.8-0.2-1.5-0.6-2C340.8,214.2,340.1,213.9,339.3,213.9z"/>
	<path class="st5" d="M359.4,215l-1.7-0.1c-1.7,0-2.7,0.5-3.2,1.6v10.6h-5.3v-16.9h4.9l0.2,2.2c0.9-1.7,2.1-2.5,3.7-2.5
		c0.6,0,1.1,0.1,1.5,0.2L359.4,215z"/>
	<path class="st5" d="M370.1,222.3c0-0.4-0.2-0.8-0.7-1.1s-1.4-0.6-2.7-0.8c-1.3-0.3-2.4-0.7-3.2-1.1c-0.9-0.5-1.5-1-2-1.7
		c-0.4-0.7-0.7-1.5-0.7-2.3c0-1.6,0.6-2.8,1.9-3.8s3-1.5,5-1.5c2.2,0,4,0.5,5.4,1.5s2,2.3,2,4h-5.3c0-1.4-0.7-2-2.1-2
		c-0.6,0-1,0.2-1.4,0.5s-0.6,0.7-0.6,1.1c0,0.5,0.2,0.8,0.7,1.1s1.2,0.5,2.2,0.7s1.9,0.4,2.6,0.7c2.5,0.9,3.8,2.4,3.8,4.7
		c0,1.5-0.7,2.8-2.1,3.8s-3.1,1.5-5.3,1.5c-1.4,0-2.7-0.3-3.9-0.8c-1.1-0.5-2-1.2-2.7-2.1c-0.6-0.9-1-1.8-1-2.8h4.9
		c0,0.8,0.3,1.4,0.8,1.7s1.1,0.5,1.9,0.5c0.7,0,1.3-0.1,1.6-0.4C369.9,223.2,370.1,222.8,370.1,222.3z"/>
	<path class="st5" d="M377.6,205.8c0-0.8,0.3-1.4,0.8-1.8c0.5-0.5,1.2-0.7,2.1-0.7s1.6,0.2,2.1,0.7s0.8,1.1,0.8,1.8
		s-0.3,1.4-0.8,1.8c-0.5,0.5-1.2,0.7-2.1,0.7s-1.6-0.2-2.1-0.7C377.9,207.2,377.6,206.6,377.6,205.8z M383.2,227.1h-5.3v-16.9h5.3
		V227.1z"/>
	<path class="st5" d="M392.6,206v4.2h2.8v3.7h-2.8v7.7c0,0.6,0.1,1.1,0.3,1.3c0.2,0.2,0.7,0.4,1.4,0.4c0.5,0,1,0,1.3-0.1v3.8
		c-0.9,0.3-1.9,0.5-3,0.5c-1.8,0-3.2-0.4-4-1.3c-0.9-0.9-1.3-2.2-1.3-3.9v-8.4h-2.2v-3.7h2.2V206H392.6z"/>
	<path class="st5" d="M404.2,219.7l2.8-9.5h5.6l-6.9,19.7l-0.3,0.7c-1,2.2-2.7,3.3-5.2,3.3c-0.7,0-1.4-0.1-2.2-0.3v-3.8h0.7
		c0.7,0,1.3-0.1,1.7-0.3c0.4-0.2,0.7-0.6,0.9-1.1l0.4-1.1l-5.9-17.1h5.6L404.2,219.7z"/>
</g>
</svg>
