<?xml version="1.0" encoding="utf-8"?>
<!-- Generator: Adobe Illustrator 25.3.1, SVG Export Plug-In . SVG Version: 6.00 Build 0)  -->
<svg version="1.1" id="Layer_1" xmlns="http://www.w3.org/2000/svg" xmlns:xlink="http://www.w3.org/1999/xlink" x="0px" y="0px"
	 viewBox="0 0 454 225.8" style="enable-background:new 0 0 454 225.8;" xml:space="preserve">
<style type="text/css">
	.st0{display:none;fill:#CCCCCC;}
	.st1{fill:#393185;}
	.st2{fill:#D6251F;}
	.st3{fill:#FFFFFF;}
</style>
<rect y="-1" class="st0" width="418" height="192"/>
<g>
	<path class="st1" d="M21.4,3.8c3.3,0,13.9,0.5,22.5,0.5c8.8,0,19-0.5,23.4-0.5c0.7,1,0.8,5.2,0,6.4c-4.4,0.5-7.4,0.8-9.6,1.5
		c-3.9,1-4.6,2.9-4.9,7.8c-0.5,7-0.3,18.8-0.3,33.2c0,15.2,0.2,30.6,0.5,36.3c0.2,5.1,1,7.4,6.2,8.7c2.5,0.5,6.2,1.1,10.9,1.8
		c0.8,0.7,0.3,5.9-0.5,6.5c-3.6,0-15.4-0.5-24-0.5c-9.6,0-21.7,0.5-24.7,0.5c-1-0.5-1-5.9-0.2-6.5c4.4-0.5,6.7-0.8,9.1-1.3
		c5.2-1.3,5.9-3.6,6.4-6.9c0.7-4.7,0.5-14.4,0.5-41.2c0-13.7,0.2-23-0.3-30.7c-0.3-4.4-0.8-6.2-4.2-7.2c-2.9-0.8-6-1.3-10.9-2
		C20.4,9.4,20.7,4.6,21.4,3.8z"/>
	<path class="st1" d="M157.5,12.3c-5.1-2.3-12.4-3.3-20-3.3C114.3,9,102,26.3,102,53c0,22.2,12.6,46.4,42.5,46.4
		c9,0,14.5-2.9,17-4.6c3.8-2.8,8.5-9.3,13.2-17c1.3-0.2,4.9,2,5.4,3.4c-1.3,6.2-8.8,19.8-12.7,22.5c-4.6,1.8-16.2,4.6-26.1,4.6
		c-37.4,0-57.7-20.4-57.7-53.9c0-17.8,8.3-35.8,26.3-45.6c8.8-4.7,19.4-7.5,33-7.5c15.5,0,26.6,2.9,34.1,3.4
		c-1,6.5-2.3,18.8-2.5,26.5c-0.8,1-6.5,1.6-6.7,0.5C166.1,18.5,164.2,15.6,157.5,12.3z"/>
	<path class="st1" d="M192.9,3.8c3.8,0,13.4,0.5,21.9,0.5h40.7c5.6,0,13.4,0,17-0.5c0.5,0,1,1,1,1.3c-1,3.9-2.1,14.7-2.3,23.9
		c-0.8,1.1-6.4,1.6-7.4,0.7c-1-4.9-1.3-7-2.3-10.6c-1.6-4.1-2.9-5.7-7.7-5.9c-6.4-0.3-23.2-0.7-28.4-0.2c-1,0.2-2,2.1-2,2.9
		c0,11.8-0.3,23-0.2,34.8c0,0.5,0.5,1,0.7,1c10.5,0,21.7,0,27.4-0.5c2.9-0.2,3.9-2.3,5.1-5.7c0.7-1.8,1.3-3.9,1.8-7
		c1.6-0.5,6.4-0.3,8,0.7c-0.5,4.2-1.1,11.8-1.1,17.2c0,6.2,0.2,11.9,0.5,17.8c-1.3,0.8-5.6,1-7.5,0.2c-0.8-3.6-1.3-5.2-2-7.4
		c-1.1-3.9-2.6-5.6-6-5.7C244.2,61,228.5,61,224,61c-0.5,0-0.7,0.5-0.7,0.8c0,10.1-0.2,21.6,0.2,28.3c0.2,4.9,1.1,6.7,6,7.7
		c4.2,0.8,8,1.3,12.7,1.8c0.8,0.8,0.7,5.7-0.5,6.5c-5.4,0-12.7-0.5-27.4-0.5c-11.8,0-16.7,0.5-22.5,0.5c-1-0.7-1.1-5.6-0.2-6.4
		c4.1-0.5,7.5-1.1,9.6-1.6c4.9-1.3,5.7-2.5,6-8.2c0.3-6,0.2-16.2,0.2-36.1c0-18.6,0-29.1-0.3-34.1c-0.2-5.4-1.1-6.7-4.7-7.7
		c-2.5-0.5-5.7-1.1-9.6-1.6C191.6,9.4,192.3,4.6,192.9,3.8z"/>
	<path class="st1" d="M289.5,83.5c7.2-17.2,23-58.2,26.6-68.8c1.3-3.8,2.8-8,3.3-10.6c0.8,0.2,2.9,0.2,6,0.2c3.9,0,5.7,0,6.5-0.2
		c0.8,3.3,1.8,6.4,2.9,9.6c3.3,9.1,21.4,56.9,27.8,71.4c5.2,11.6,6.5,12.6,19,14.2c1,0.7,0.3,5.7-0.3,6.5
		c-4.2-0.2-12.1-0.5-21.4-0.5c-9.8,0-20.4,0.5-23.7,0.5c-0.7-0.8-0.8-5.7,0-6.5c3.6-0.5,7-1,9.5-1.8c2-0.8,2.3-2.9,2-4.1
		c-2.1-6.9-6.4-18-9-24.3c-0.3-0.8-1.3-1.1-1.6-1.1c-2.9-0.2-10.5-0.2-16.5-0.2c-10.5,0-11.4,0-13.2,0.2c-0.8,0-2,1.1-2,1.5
		c-3.4,9.3-7.7,19.9-7.7,23.2c0,3.1,0.7,4.2,5.4,5.4c2.1,0.5,5.7,1,8.7,1.3c0.7,0.8,0.3,5.7-0.5,6.5c-3.3,0-11.8-0.5-22.7-0.5
		c-10.6,0-16,0.5-19.1,0.5c-0.7-0.8-0.7-5.7,0-6.5C281.5,97.8,283.8,96.8,289.5,83.5z M321.2,23.7c-2.8,8.7-8.7,23.7-11.8,33.5
		c0,0.5,0.2,1,0.7,1.1c1.8,0.2,8.2,0.2,12.9,0.2c4.1,0,8.7,0,10.8-0.2c0.5,0,1-0.8,0.8-1.6c-3.1-8.5-9.6-26.6-12.4-33.2
		C322,23.6,321.5,23.4,321.2,23.7z"/>
	<path class="st1" d="M386.1,3.8c3.3,0,13.9,0.5,22.5,0.5c8.8,0,19-0.5,23.4-0.5c0.7,1,0.8,5.2,0,6.4c-4.4,0.5-7.4,0.8-9.6,1.5
		c-3.9,1-4.6,2.9-4.9,7.8c-0.5,7-0.3,18.8-0.3,33.2c0,15.2,0.2,30.6,0.5,36.3c0.2,5.1,1,7.4,6.2,8.7c2.5,0.5,6.2,1.1,10.9,1.8
		c0.8,0.7,0.3,5.9-0.5,6.5c-3.6,0-15.4-0.5-24-0.5c-9.6,0-21.7,0.5-24.7,0.5c-1-0.5-1-5.9-0.2-6.5c4.4-0.5,6.7-0.8,9.2-1.3
		c5.2-1.3,5.9-3.6,6.4-6.9c0.7-4.7,0.5-14.4,0.5-41.2c0-13.7,0.2-23-0.3-30.7c-0.3-4.4-0.8-6.2-4.2-7.2c-2.9-0.8-6-1.3-10.9-2
		C385.1,9.4,385.4,4.6,386.1,3.8z"/>
</g>
<rect y="110.8" class="st2" width="453.9" height="45.3"/>
<g>
	<path class="st3" d="M85.7,119.7h5.5v14.7c0,2.3,0.1,3.9,0.2,4.5c0.2,1.1,0.8,2,1.7,2.7c0.9,0.7,2.1,1,3.6,1c1.6,0,2.7-0.3,3.5-1
		c0.8-0.6,1.3-1.4,1.4-2.3c0.2-0.9,0.2-2.5,0.2-4.6v-15h5.5V134c0,3.3-0.1,5.6-0.4,6.9c-0.3,1.3-0.8,2.5-1.6,3.4s-1.9,1.7-3.2,2.2
		c-1.3,0.5-3.1,0.8-5.2,0.8c-2.6,0-4.6-0.3-5.9-0.9c-1.3-0.6-2.4-1.4-3.2-2.3c-0.8-1-1.3-2-1.5-3c-0.4-1.6-0.5-3.9-0.5-6.9
		L85.7,119.7L85.7,119.7z"/>
	<path class="st3" d="M119.3,146.9v-27.2h5.3l11.1,18.2v-18.2h5.1v27.2h-5.5l-11-17.7v17.7H119.3z"/>
	<path class="st3" d="M152.6,146.9v-27.2h5.5v27.2H152.6z"/>
	<path class="st3" d="M176.3,146.9l-9.7-27.2h6l6.9,20.1l6.7-20.1h5.8l-9.7,27.2L176.3,146.9L176.3,146.9z"/>
	<path class="st3" d="M200.8,146.9v-27.2H221v4.6h-14.7v6H220v4.6h-13.7v7.4h15.2v4.6H200.8z"/>
	<path class="st3" d="M232.2,146.9v-27.2h11.6c2.9,0,5,0.2,6.3,0.7s2.4,1.4,3.2,2.6s1.2,2.7,1.2,4.3c0,2-0.6,3.7-1.8,5.1
		c-1.2,1.3-3,2.2-5.4,2.5c1.2,0.7,2.2,1.5,2.9,2.3c0.8,0.8,1.8,2.3,3.1,4.4l3.3,5.3H250l-4-5.9c-1.4-2.1-2.4-3.4-2.9-4
		c-0.5-0.5-1.1-0.9-1.7-1.1c-0.6-0.2-1.5-0.3-2.8-0.3h-1.1V147L232.2,146.9L232.2,146.9z M237.7,131.2h4.1c2.6,0,4.3-0.1,4.9-0.3
		c0.7-0.2,1.2-0.6,1.5-1.2c0.4-0.5,0.6-1.2,0.6-2c0-0.9-0.2-1.7-0.7-2.2c-0.5-0.6-1.2-0.9-2.1-1.1c-0.4-0.1-1.8-0.1-4-0.1h-4.3
		V131.2z"/>
	<path class="st3" d="M264.4,138l5.3-0.5c0.3,1.8,1,3.1,2,4c1,0.8,2.3,1.3,4,1.3c1.8,0,3.1-0.4,4-1.1c0.9-0.7,1.3-1.6,1.3-2.6
		c0-0.6-0.2-1.2-0.6-1.6c-0.4-0.5-1-0.8-2-1.2c-0.6-0.2-2.1-0.6-4.4-1.2c-2.9-0.7-5-1.6-6.2-2.7c-1.7-1.5-2.5-3.3-2.5-5.5
		c0-1.4,0.4-2.7,1.2-3.9c0.8-1.2,1.9-2.1,3.4-2.8c1.5-0.6,3.3-0.9,5.4-0.9c3.4,0,6,0.7,7.7,2.2s2.6,3.5,2.7,6l-5.5,0.2
		c-0.2-1.4-0.7-2.4-1.5-3s-1.9-0.9-3.5-0.9s-2.8,0.3-3.7,1c-0.6,0.4-0.9,1-0.9,1.7c0,0.6,0.3,1.2,0.8,1.7c0.7,0.6,2.4,1.2,5,1.8
		s4.6,1.3,5.9,2s2.3,1.6,3,2.8s1.1,2.6,1.1,4.3c0,1.6-0.4,3-1.3,4.4s-2.1,2.4-3.7,3c-1.6,0.7-3.6,1-5.9,1c-3.4,0-6.1-0.8-7.9-2.4
		C265.8,143.4,264.7,141.1,264.4,138z"/>
	<path class="st3" d="M297,146.9v-27.2h5.5v27.2H297z"/>
	<path class="st3" d="M319.9,146.9v-22.6h-8.1v-4.6h21.6v4.6h-8.1v22.6H319.9z"/>
	<path class="st3" d="M350.2,146.9v-11.4l-10-15.8h6.4l6.4,10.8l6.3-10.8h6.3l-10,15.8v11.4H350.2z"/>
</g>
<g>
	<g>
		<path d="M118.7,195.7c-1.2,0-2.3-0.1-3.2-0.4v-4.5c0.9,0.2,1.8,0.4,2.6,0.4c1.2,0,2.1-0.4,2.6-1.1s0.8-1.9,0.8-3.5v-24.1h5.4v24
			c0,3-0.7,5.3-2.1,6.9S121.4,195.7,118.7,195.7z"/>
		<path d="M154.4,188.1H149V177h-10.2v11.1h-5.4v-25.7h5.4v10.1H149v-10.1h5.4V188.1z"/>
		<path d="M176.6,188.1l-1.9-6.1h-9.4l-1.9,6.1h-5.9l9.1-25.8h6.7l9.1,25.8H176.6z M173.5,177.4c-1.7-5.5-2.7-8.7-2.9-9.4
			s-0.4-1.3-0.5-1.7c-0.4,1.5-1.5,5.2-3.3,11.1L173.5,177.4L173.5,177.4z"/>
		<path d="M191.2,178.2v9.9h-5.4v-25.7h7.5c3.5,0,6.1,0.6,7.8,1.9s2.5,3.2,2.5,5.8c0,1.5-0.4,2.9-1.2,4s-2,2.1-3.5,2.8
			c3.9,5.8,6.4,9.5,7.6,11.2h-6l-6.1-9.9H191.2z M191.2,173.8h1.8c1.7,0,3-0.3,3.8-0.9s1.2-1.5,1.2-2.7s-0.4-2.1-1.3-2.6
			s-2.1-0.8-3.9-0.8h-1.7L191.2,173.8L191.2,173.8z"/>
		<path d="M230.2,188.1H224l-6.7-10.8L215,179v9.2h-5.4v-25.7h5.4v11.8l2.1-3l7-8.7h6l-9,11.4L230.2,188.1z"/>
		<path d="M254.5,188.1H249V177h-10.2v11.1h-5.4v-25.7h5.4v10.1H249v-10.1h5.4v25.7H254.5z"/>
		<path d="M276.7,188.1l-1.9-6.1h-9.4l-1.9,6.1h-5.9l9.1-25.8h6.7l9.1,25.8H276.7z M273.5,177.4c-1.7-5.5-2.7-8.7-2.9-9.4
			s-0.4-1.3-0.5-1.7c-0.4,1.5-1.5,5.2-3.3,11.1L273.5,177.4L273.5,177.4z"/>
		<path d="M308.6,188.1h-6.9l-11.2-19.4h-0.2c0.2,3.4,0.3,5.9,0.3,7.3v12.1h-4.9v-25.7h6.9l11.2,19.2h0.1c-0.2-3.3-0.3-5.7-0.3-7.1
			v-12.2h4.9v25.8L308.6,188.1L308.6,188.1z"/>
		<path d="M336.4,175c0,4.2-1.2,7.5-3.6,9.7s-5.9,3.4-10.4,3.4h-7.3v-25.7h8.1c4.2,0,7.5,1.1,9.8,3.3S336.4,171,336.4,175z
			 M330.7,175.1c0-5.5-2.4-8.3-7.3-8.3h-2.9v16.7h2.3C328.1,183.6,330.7,180.8,330.7,175.1z"/>
	</g>
</g>
<g>
	<path class="st1" d="M4.4,205.2c1-1.3,2.2-2.3,3.6-3s2.9-1.1,4.5-1.1c1.9,0,3.4,0.5,4.7,1.4c1.2,0.9,2,2.2,2.2,3.9h-3.9
		c-0.3-0.7-0.7-1.2-1.3-1.6c-0.6-0.4-1.4-0.6-2.3-0.6c-1,0-1.9,0.2-2.8,0.7c-0.8,0.4-1.6,1.1-2.1,1.9c-0.6,0.8-1,1.8-1.2,2.9
		c-0.1,0.4-0.1,0.8-0.1,1.3c0,1.3,0.4,2.3,1.2,3.1c0.8,0.7,1.8,1.1,3.2,1.1c1.3,0,2.4-0.3,3.3-1c1-0.7,1.7-1.6,2.1-2.9H9.9l0.4-2.5
		h9.1l-0.5,2.9c-0.4,1.2-1.1,2.2-2,3.2s-2,1.8-3.3,2.4c-1.3,0.6-2.6,0.9-4.1,0.9c-1.4,0-2.7-0.3-3.8-0.9s-1.9-1.4-2.5-2.4
		s-0.9-2.2-0.9-3.6c0-0.5,0-1.1,0.1-1.7C2.8,208,3.5,206.5,4.4,205.2z"/>
	<path class="st1" d="M27.6,205.2c0.8-0.4,1.6-0.7,2.5-0.7l-0.6,3.5h-0.9c-1,0-1.8,0.2-2.4,0.6c-0.6,0.4-1,1.2-1.3,2.2l-1.2,7.1
		h-3.4l2.4-13.3H26l-0.4,2.4C26.2,206.3,26.8,205.6,27.6,205.2z"/>
	<path class="st1" d="M32.9,217.5c-0.9-0.5-1.5-1.1-2-2c-0.5-0.8-0.7-1.8-0.7-2.9c0-1.5,0.4-2.9,1.1-4.1c0.7-1.2,1.7-2.2,2.9-2.9
		s2.6-1.1,4.1-1.1c1.1,0,2.1,0.2,3,0.7s1.6,1.1,2.1,2c0.5,0.8,0.7,1.8,0.7,2.9c0,1.5-0.4,2.9-1.1,4.1c-0.7,1.2-1.7,2.2-3,2.9
		s-2.6,1.1-4.2,1.1C34.8,218.2,33.8,218,32.9,217.5z M38.6,214.6c0.7-0.5,1.2-1.1,1.5-1.8c0.4-0.8,0.6-1.6,0.6-2.4
		c0-1-0.3-1.7-0.8-2.2s-1.2-0.8-2-0.8s-1.5,0.2-2.2,0.7c-0.6,0.5-1.1,1.1-1.5,1.9c-0.4,0.8-0.5,1.6-0.5,2.5s0.3,1.7,0.8,2.2
		s1.2,0.8,2,0.8C37.2,215.3,37.9,215.1,38.6,214.6z"/>
	<path class="st1" d="M48.2,217.5c-0.9-0.5-1.5-1.1-2-2c-0.5-0.8-0.7-1.8-0.7-2.9c0-1.5,0.4-2.9,1.1-4.1c0.7-1.2,1.7-2.2,2.9-2.9
		s2.6-1.1,4.1-1.1c1.1,0,2.1,0.2,3,0.7s1.6,1.1,2.1,2c0.5,0.8,0.7,1.8,0.7,2.9c0,1.5-0.4,2.9-1.1,4.1c-0.7,1.2-1.7,2.2-3,2.9
		s-2.6,1.1-4.2,1.1C50.1,218.2,49.1,218,48.2,217.5z M53.9,214.6c0.7-0.5,1.2-1.1,1.5-1.8c0.4-0.8,0.6-1.6,0.6-2.4
		c0-1-0.3-1.7-0.8-2.2s-1.2-0.8-2-0.8s-1.5,0.2-2.2,0.7c-0.6,0.5-1.1,1.1-1.5,1.9c-0.4,0.8-0.5,1.6-0.5,2.5s0.3,1.7,0.8,2.2
		s1.2,0.8,2,0.8C52.5,215.3,53.2,215.1,53.9,214.6z"/>
	<path class="st1" d="M82.8,205.6c0.8,0.8,1.2,1.8,1.2,3.2c0,0.5,0,1-0.1,1.4l-1.4,7.8h-3.3l1.3-7.3c0-0.3,0.1-0.6,0.1-0.8
		c0-0.8-0.2-1.4-0.6-1.8c-0.4-0.4-1-0.6-1.8-0.6c-0.9,0-1.7,0.3-2.4,0.8c-0.6,0.6-1,1.3-1.2,2.4l0,0l-1.3,7.4H70l1.3-7.3
		c0-0.3,0.1-0.6,0.1-0.8c0-0.8-0.2-1.4-0.6-1.8c-0.4-0.4-1-0.6-1.8-0.6c-0.9,0-1.6,0.3-2.3,0.8c-0.6,0.5-1,1.3-1.2,2.2L64,218h-3.4
		l2.4-13.3h3.4l-0.3,1.6c0.5-0.5,1.2-1,1.9-1.3s1.5-0.5,2.3-0.5c1,0,1.9,0.2,2.7,0.7c0.7,0.4,1.3,1.1,1.6,1.9
		c0.6-0.8,1.3-1.4,2.2-1.8c0.9-0.5,1.8-0.7,2.8-0.7C80.9,204.5,82,204.9,82.8,205.6z"/>
	<path class="st1" d="M91.5,204.7L89.1,218h-3.4l2.4-13.3H91.5z M88.8,202.7c-0.3-0.3-0.5-0.7-0.5-1.2c0-0.6,0.2-1.2,0.7-1.6
		c0.5-0.5,1.1-0.7,1.7-0.7c0.5,0,0.9,0.2,1.2,0.5c0.3,0.3,0.5,0.7,0.5,1.2c0,0.6-0.2,1.2-0.7,1.6c-0.5,0.5-1,0.7-1.7,0.7
		C89.6,203.1,89.1,203,88.8,202.7z"/>
	<path class="st1" d="M105.4,205.6c0.8,0.7,1.2,1.8,1.2,3.2c0,0.5,0,1-0.1,1.4l-1.4,7.8h-3.3l1.3-7.3c0-0.3,0.1-0.6,0.1-0.8
		c0-0.8-0.2-1.4-0.6-1.8c-0.4-0.4-1-0.6-1.8-0.6c-0.9,0-1.7,0.3-2.3,0.8c-0.6,0.5-1.1,1.3-1.3,2.3l-1.3,7.5h-3.4l2.4-13.3h3.4
		l-0.3,1.6c0.5-0.6,1.2-1,1.9-1.3s1.5-0.5,2.4-0.5C103.5,204.5,104.6,204.9,105.4,205.6z"/>
	<path class="st1" d="M118.4,205.1c0.7,0.4,1.2,0.9,1.5,1.5l0.3-1.9h3.4l-2.4,13.4c-0.2,1.2-0.7,2.3-1.3,3.3c-0.7,1-1.6,1.7-2.6,2.3
		c-1.1,0.6-2.3,0.9-3.7,0.9c-1.9,0-3.3-0.4-4.4-1.3c-1-0.9-1.5-2.1-1.4-3.6h3.3c0.1,0.6,0.4,1.1,0.9,1.5s1.2,0.5,2,0.5
		c1,0,1.8-0.3,2.5-0.9c0.7-0.6,1.2-1.5,1.4-2.7l0.4-2.1c-0.5,0.6-1.2,1.1-2.1,1.6c-0.8,0.4-1.7,0.6-2.7,0.6s-1.8-0.2-2.6-0.7
		c-0.8-0.4-1.4-1.1-1.8-1.9c-0.4-0.8-0.6-1.7-0.6-2.8c0-0.5,0-1,0.1-1.6c0.2-1.3,0.7-2.5,1.4-3.6c0.7-1,1.6-1.8,2.6-2.4
		c1-0.6,2.1-0.8,3.2-0.8C116.9,204.5,117.7,204.7,118.4,205.1z M119.1,210.4c0-0.9-0.3-1.7-0.8-2.2c-0.6-0.5-1.2-0.8-2.1-0.8
		c-0.6,0-1.2,0.2-1.8,0.5c-0.6,0.3-1.1,0.7-1.5,1.3s-0.7,1.3-0.9,2.1c0,0.3-0.1,0.6-0.1,0.9c0,1,0.3,1.7,0.8,2.3s1.2,0.8,2.1,0.8
		c0.6,0,1.2-0.2,1.8-0.5c0.6-0.3,1.1-0.8,1.5-1.4c0.4-0.6,0.7-1.3,0.9-2.1C119.1,210.9,119.1,210.6,119.1,210.4z"/>
	<path class="st1" d="M144.2,209c-0.6,0.8-1.3,1.4-2.3,1.9s-2.2,0.7-3.5,0.7h-2.8l-1.1,6.4H131l3-16.8h6.2c1.7,0,3,0.4,3.9,1.1
		c0.9,0.8,1.3,1.8,1.3,3c0,0.4,0,0.7-0.1,1C145.1,207.3,144.7,208.2,144.2,209z M140.8,208.3c0.5-0.4,0.9-1.1,1-1.8
		c0-0.1,0-0.4,0-0.6c0-1.3-0.8-1.9-2.4-1.9h-2.6l-0.9,5h2.7C139.5,208.9,140.3,208.7,140.8,208.3z"/>
	<path class="st1" d="M152.9,205.2c0.8-0.4,1.6-0.7,2.5-0.7l-0.6,3.5h-0.9c-1,0-1.8,0.2-2.4,0.6c-0.6,0.4-1,1.2-1.3,2.2L149,218
		h-3.4l2.4-13.3h3.4l-0.4,2.4C151.5,206.3,152.1,205.6,152.9,205.2z"/>
	<path class="st1" d="M158.2,217.5c-0.9-0.5-1.5-1.1-2-2c-0.5-0.8-0.7-1.8-0.7-2.9c0-1.5,0.4-2.9,1.1-4.1c0.7-1.2,1.7-2.2,2.9-2.9
		s2.6-1.1,4.1-1.1c1.1,0,2.1,0.2,3,0.7s1.6,1.1,2.1,2c0.5,0.8,0.7,1.8,0.7,2.9c0,1.5-0.4,2.9-1.1,4.1c-0.7,1.2-1.7,2.2-3,2.9
		s-2.6,1.1-4.2,1.1C160.1,218.2,159.1,218,158.2,217.5z M163.9,214.6c0.7-0.5,1.2-1.1,1.5-1.8s0.6-1.6,0.6-2.4c0-1-0.3-1.7-0.8-2.2
		s-1.2-0.8-2-0.8s-1.5,0.2-2.2,0.7s-1.1,1.1-1.5,1.9c-0.4,0.8-0.5,1.6-0.5,2.5s0.3,1.7,0.8,2.2s1.2,0.8,2,0.8
		C162.5,215.3,163.2,215.1,163.9,214.6z"/>
	<path class="st1" d="M175.4,200.4c1.1-0.8,2.5-1.1,4.4-1.1l-0.5,2.8c-0.8,0-1.4,0.1-1.8,0.4c-0.4,0.3-0.6,0.8-0.8,1.6l-0.1,0.6h2.3
		l-0.5,2.8h-2.3l-1.9,10.5H171l1.9-10.5h-1.5l0.5-2.8h1.5l0.1-0.7C173.7,202.4,174.4,201.2,175.4,200.4z"/>
	<path class="st1" d="M191.1,205.9c1,0.9,1.5,2.2,1.5,3.8c0,0.5,0,1-0.1,1.4c-0.1,0.5-0.2,0.9-0.3,1.2h-9.7c0,0.1,0,0.3,0,0.5
		c0,0.8,0.2,1.5,0.7,2s1.1,0.7,1.9,0.7c0.7,0,1.3-0.1,1.7-0.4c0.5-0.3,0.9-0.7,1.2-1.2h3.6c-0.6,1.3-1.5,2.3-2.7,3.2
		s-2.6,1.2-4.2,1.2c-1.7,0-3.1-0.5-4.1-1.4c-1-1-1.5-2.3-1.5-3.9c0-0.5,0-1,0.1-1.5c0.2-1.4,0.7-2.6,1.5-3.6c0.7-1,1.7-1.8,2.8-2.4
		c1.1-0.6,2.3-0.8,3.6-0.8C188.8,204.5,190.1,205,191.1,205.9z M189.2,209.7c0-0.8-0.2-1.4-0.7-1.8c-0.5-0.4-1.1-0.6-1.9-0.6
		c-0.8,0-1.6,0.3-2.3,0.8s-1.1,1.3-1.4,2.2h6.3C189.2,210,189.2,209.8,189.2,209.7z"/>
	<path class="st1" d="M196.2,217.7c-0.8-0.3-1.4-0.8-1.9-1.4s-0.7-1.3-0.7-2c0-0.1,0-0.3,0-0.6h3.3c0,0.6,0.1,1,0.5,1.4
		c0.4,0.3,0.9,0.5,1.6,0.5c0.6,0,1.2-0.1,1.6-0.3c0.4-0.2,0.6-0.6,0.6-1s-0.2-0.7-0.6-1c-0.4-0.2-1-0.5-1.9-0.8
		c-0.8-0.3-1.6-0.6-2.1-0.9c-0.6-0.3-1-0.7-1.4-1.2s-0.6-1.2-0.6-1.9s0.2-1.5,0.7-2.1s1.1-1.1,1.9-1.4s1.8-0.5,2.8-0.5
		s1.9,0.2,2.7,0.5s1.4,0.8,1.8,1.4c0.4,0.6,0.6,1.3,0.6,2.1c0,0.2,0,0.3,0,0.4H202c0-0.6-0.1-1-0.5-1.3s-0.9-0.5-1.6-0.5
		c-0.6,0-1,0.1-1.4,0.4s-0.6,0.6-0.6,1s0.2,0.8,0.6,1c0.4,0.3,1.1,0.6,1.9,0.9c0.9,0.3,1.6,0.6,2.1,0.9c0.5,0.3,1,0.7,1.4,1.2
		s0.6,1.1,0.6,1.8c0,0.8-0.2,1.5-0.7,2.1s-1.2,1.1-2,1.4c-0.9,0.3-1.8,0.5-2.9,0.5C197.9,218.2,197,218.1,196.2,217.7z"/>
	<path class="st1" d="M209.3,217.7c-0.8-0.3-1.4-0.8-1.9-1.4s-0.7-1.3-0.7-2c0-0.1,0-0.3,0-0.6h3.3c0,0.6,0.1,1,0.5,1.4
		c0.4,0.3,0.9,0.5,1.6,0.5c0.6,0,1.2-0.1,1.6-0.3c0.4-0.2,0.6-0.6,0.6-1s-0.2-0.7-0.6-1c-0.4-0.2-1-0.5-1.9-0.8
		c-0.8-0.3-1.6-0.6-2.1-0.9c-0.6-0.3-1-0.7-1.4-1.2s-0.6-1.2-0.6-1.9s0.2-1.5,0.7-2.1s1.1-1.1,1.9-1.4s1.8-0.5,2.8-0.5
		s1.9,0.2,2.7,0.5s1.4,0.8,1.8,1.4c0.4,0.6,0.6,1.3,0.6,2.1c0,0.2,0,0.3,0,0.4h-3.1c0-0.6-0.1-1-0.5-1.3s-0.9-0.5-1.6-0.5
		c-0.6,0-1,0.1-1.4,0.4s-0.6,0.6-0.6,1s0.2,0.8,0.6,1c0.4,0.3,1.1,0.6,1.9,0.9c0.9,0.3,1.6,0.6,2.1,0.9c0.5,0.3,1,0.7,1.4,1.2
		s0.6,1.1,0.6,1.8c0,0.8-0.2,1.5-0.7,2.1s-1.2,1.1-2,1.4c-0.9,0.3-1.8,0.5-2.9,0.5C211,218.2,210.1,218.1,209.3,217.7z"/>
	<path class="st1" d="M225.6,204.7l-2.4,13.3h-3.4l2.4-13.3H225.6z M222.9,202.7c-0.3-0.3-0.5-0.7-0.5-1.2c0-0.6,0.2-1.2,0.7-1.6
		c0.5-0.5,1.1-0.7,1.7-0.7c0.5,0,0.9,0.2,1.2,0.5s0.5,0.7,0.5,1.2c0,0.6-0.2,1.2-0.7,1.6c-0.5,0.5-1,0.7-1.7,0.7
		C223.6,203.1,223.2,203,222.9,202.7z"/>
	<path class="st1" d="M229.4,217.5c-0.9-0.5-1.5-1.1-2-2c-0.5-0.8-0.7-1.8-0.7-2.9c0-1.5,0.4-2.9,1.1-4.1c0.7-1.2,1.7-2.2,2.9-2.9
		s2.6-1.1,4.1-1.1c1.1,0,2.1,0.2,3,0.7s1.6,1.1,2.1,2c0.5,0.8,0.7,1.8,0.7,2.9c0,1.5-0.4,2.9-1.1,4.1c-0.7,1.2-1.7,2.2-3,2.9
		s-2.6,1.1-4.2,1.1C231.3,218.2,230.3,218,229.4,217.5z M235.1,214.6c0.7-0.5,1.2-1.1,1.5-1.8s0.6-1.6,0.6-2.4c0-1-0.3-1.7-0.8-2.2
		s-1.2-0.8-2-0.8s-1.5,0.2-2.2,0.7s-1.1,1.1-1.5,1.9c-0.4,0.8-0.5,1.6-0.5,2.5s0.3,1.7,0.8,2.2s1.2,0.8,2,0.8
		C233.7,215.3,234.4,215.1,235.1,214.6z"/>
	<path class="st1" d="M254.8,205.6c0.8,0.7,1.2,1.8,1.2,3.2c0,0.5,0,1-0.1,1.4l-1.4,7.8h-3.3l1.3-7.3c0-0.3,0.1-0.6,0.1-0.8
		c0-0.8-0.2-1.4-0.6-1.8s-1-0.6-1.8-0.6c-0.9,0-1.7,0.3-2.3,0.8s-1.1,1.3-1.3,2.3l-1.3,7.5h-3.4l2.4-13.3h3.4l-0.3,1.6
		c0.5-0.6,1.2-1,1.9-1.3s1.5-0.5,2.4-0.5C252.9,204.5,254,204.9,254.8,205.6z"/>
	<path class="st1" d="M259.4,207.7c0.7-1,1.6-1.8,2.6-2.4c1-0.6,2.1-0.8,3.2-0.8c1,0,1.8,0.2,2.5,0.6c0.7,0.4,1.2,0.9,1.5,1.5
		l0.3-1.9h3.4l-2.4,13.3h-3.4l0.4-1.9c-0.5,0.6-1.2,1.1-2.1,1.5c-0.8,0.4-1.8,0.6-2.7,0.6c-1,0-1.8-0.2-2.6-0.7
		c-0.8-0.4-1.3-1.1-1.8-1.9c-0.4-0.8-0.6-1.7-0.6-2.8c0-0.5,0-1,0.1-1.6C258.2,210,258.7,208.8,259.4,207.7z M268.5,210.4
		c0-0.9-0.3-1.7-0.8-2.2c-0.6-0.5-1.2-0.8-2.1-0.8c-0.6,0-1.2,0.2-1.8,0.5c-0.6,0.3-1.1,0.7-1.5,1.3s-0.7,1.3-0.9,2.1
		c0,0.3-0.1,0.6-0.1,0.9c0,1,0.3,1.7,0.8,2.3s1.2,0.8,2.1,0.8c0.6,0,1.2-0.2,1.8-0.5c0.6-0.3,1.1-0.8,1.5-1.4s0.7-1.3,0.9-2.1
		C268.5,210.9,268.5,210.6,268.5,210.4z"/>
	<path class="st1" d="M280.5,200.2l-3.1,17.8H274l3.1-17.8H280.5z"/>
	<path class="st1" d="M283.2,217.7c-0.8-0.3-1.4-0.8-1.9-1.4s-0.7-1.3-0.7-2c0-0.1,0-0.3,0-0.6h3.3c0,0.6,0.1,1,0.5,1.4
		c0.4,0.3,0.9,0.5,1.6,0.5c0.6,0,1.2-0.1,1.6-0.3s0.6-0.6,0.6-1s-0.2-0.7-0.6-1c-0.4-0.2-1-0.5-1.9-0.8c-0.8-0.3-1.6-0.6-2.1-0.9
		c-0.6-0.3-1-0.7-1.4-1.2s-0.6-1.2-0.6-1.9s0.2-1.5,0.7-2.1s1.1-1.1,1.9-1.4s1.8-0.5,2.8-0.5s1.9,0.2,2.7,0.5
		c0.8,0.3,1.4,0.8,1.8,1.4c0.4,0.6,0.6,1.3,0.6,2.1c0,0.2,0,0.3,0,0.4H289c0-0.6-0.1-1-0.5-1.3s-0.9-0.5-1.6-0.5
		c-0.6,0-1,0.1-1.4,0.4s-0.6,0.6-0.6,1s0.2,0.8,0.6,1c0.4,0.3,1.1,0.6,1.9,0.9c0.9,0.3,1.6,0.6,2.1,0.9c0.5,0.3,1,0.7,1.4,1.2
		s0.6,1.1,0.6,1.8c0,0.8-0.2,1.5-0.7,2.1s-1.2,1.1-2,1.4c-0.9,0.3-1.8,0.5-2.9,0.5C284.8,218.2,284,218.1,283.2,217.7z"/>
	<path class="st1" d="M293.9,217.7c-0.3-0.3-0.5-0.7-0.5-1.2c0-0.6,0.2-1.2,0.7-1.6s1.1-0.7,1.7-0.7c0.5,0,0.9,0.1,1.3,0.4
		c0.3,0.3,0.5,0.7,0.5,1.2c0,0.6-0.2,1.2-0.7,1.6c-0.5,0.5-1,0.7-1.7,0.7C294.6,218.2,294.2,218,293.9,217.7z"/>
	<path class="st2" d="M331.7,201.2L324,218h-4l-1-11.9l-5.4,11.9h-3.9l-1.6-16.8h3.6l0.7,13l5.7-13h3.7l0.9,12.9l5.3-12.9H331.7z"/>
	<path class="st2" d="M336.7,204.7l-2.4,13.3h-3.4l2.4-13.3H336.7z M334,202.7c-0.3-0.3-0.5-0.7-0.5-1.2c0-0.6,0.2-1.2,0.7-1.6
		c0.5-0.5,1.1-0.7,1.7-0.7c0.5,0,0.9,0.2,1.2,0.5c0.3,0.3,0.5,0.7,0.5,1.2c0,0.6-0.2,1.2-0.7,1.6c-0.5,0.5-1,0.7-1.7,0.7
		C334.8,203.1,334.3,203,334,202.7z"/>
	<path class="st2" d="M342.3,213.9c0,0.1,0,0.2,0,0.4c0,0.3,0.1,0.5,0.3,0.7c0.2,0.1,0.5,0.2,0.9,0.2h1.6l-0.5,2.8h-2.1
		c-2.4,0-3.6-1-3.6-3c0-0.4,0-0.8,0.1-1.1l1.1-6.4h-1.6l0.5-2.8h1.6l0.6-3.3h3.4l-0.6,3.3h3l-0.5,2.8h-3L342.3,213.9z"/>
	<path class="st2" d="M359.9,205.6c0.8,0.8,1.2,1.8,1.2,3.2c0,0.5,0,1-0.1,1.4l-1.4,7.8h-3.3l1.3-7.3c0-0.3,0.1-0.6,0.1-0.8
		c0-0.8-0.2-1.4-0.6-1.8s-1-0.6-1.8-0.6c-0.9,0-1.7,0.3-2.3,0.8s-1,1.3-1.2,2.3l-1.3,7.5h-3.4l3.1-17.8h3.4l-1.1,6.1
		c0.5-0.6,1.2-1,2-1.3s1.6-0.5,2.5-0.5C358.1,204.5,359.2,204.9,359.9,205.6z"/>
	<path class="st2" d="M374.5,201.2l2.2,13.3l7-13.3h3.6l-9.1,16.8h-4.1l-3.2-16.8H374.5z"/>
	<path class="st2" d="M388,207.7c0.7-1,1.6-1.8,2.6-2.4c1-0.6,2.1-0.8,3.2-0.8c1,0,1.8,0.2,2.5,0.6c0.7,0.4,1.2,0.9,1.5,1.5l0.3-1.9
		h3.4l-2.4,13.3h-3.4l0.4-1.9c-0.5,0.6-1.2,1.1-2.1,1.5c-0.8,0.4-1.8,0.6-2.7,0.6c-1,0-1.8-0.2-2.6-0.7c-0.8-0.4-1.3-1.1-1.8-1.9
		c-0.4-0.8-0.6-1.7-0.6-2.8c0-0.5,0-1,0.1-1.6C386.9,210,387.3,208.8,388,207.7z M397.2,210.4c0-0.9-0.3-1.7-0.8-2.2
		c-0.6-0.5-1.2-0.8-2.1-0.8c-0.6,0-1.2,0.2-1.8,0.5c-0.6,0.3-1.1,0.7-1.5,1.3s-0.7,1.3-0.9,2.1c0,0.3-0.1,0.6-0.1,0.9
		c0,1,0.3,1.7,0.8,2.3s1.2,0.8,2.1,0.8c0.6,0,1.2-0.2,1.8-0.5c0.6-0.3,1.1-0.8,1.5-1.4s0.7-1.3,0.9-2.1
		C397.1,210.9,397.2,210.6,397.2,210.4z"/>
	<path class="st2" d="M409.1,200.2L406,218h-3.4l3.1-17.8H409.1z"/>
	<path class="st2" d="M424.1,204.7l-2.4,13.3h-3.4l0.3-1.7c-0.5,0.6-1.1,1-1.9,1.4c-0.8,0.3-1.5,0.5-2.4,0.5c-1.4,0-2.5-0.4-3.3-1.1
		c-0.8-0.7-1.2-1.8-1.2-3.2c0-0.5,0-1,0.1-1.4l1.4-7.8h3.4l-1.3,7.3c0,0.3-0.1,0.6-0.1,0.8c0,0.8,0.2,1.4,0.6,1.8
		c0.4,0.4,1,0.6,1.8,0.6c0.9,0,1.7-0.3,2.3-0.9c0.6-0.6,1-1.4,1.2-2.4l1.3-7.3L424.1,204.7L424.1,204.7z"/>
	<path class="st2" d="M437.3,205.9c1,0.9,1.5,2.2,1.5,3.8c0,0.5,0,1-0.1,1.4c-0.1,0.5-0.2,0.9-0.3,1.2h-9.7c0,0.1,0,0.3,0,0.5
		c0,0.8,0.2,1.5,0.7,2s1.1,0.7,1.9,0.7c0.7,0,1.3-0.1,1.7-0.4c0.5-0.3,0.9-0.7,1.2-1.2h3.6c-0.6,1.3-1.5,2.3-2.7,3.2
		s-2.6,1.2-4.2,1.2c-1.7,0-3.1-0.5-4.1-1.4c-1-1-1.5-2.3-1.5-3.9c0-0.5,0-1,0.1-1.5c0.2-1.4,0.7-2.6,1.5-3.6c0.7-1,1.7-1.8,2.8-2.4
		c1.1-0.6,2.3-0.8,3.6-0.8C435,204.5,436.3,205,437.3,205.9z M435.4,209.7c0-0.8-0.2-1.4-0.7-1.8c-0.5-0.4-1.1-0.6-1.9-0.6
		s-1.6,0.3-2.3,0.8c-0.7,0.5-1.1,1.3-1.4,2.2h6.3C435.4,210,435.4,209.8,435.4,209.7z"/>
	<path class="st2" d="M442.5,217.7c-0.8-0.3-1.4-0.8-1.9-1.4s-0.7-1.3-0.7-2c0-0.1,0-0.3,0-0.6h3.3c0,0.6,0.1,1,0.5,1.4
		c0.4,0.3,0.9,0.5,1.6,0.5c0.6,0,1.2-0.1,1.6-0.3s0.6-0.6,0.6-1s-0.2-0.7-0.6-1c-0.4-0.2-1-0.5-1.9-0.8c-0.8-0.3-1.6-0.6-2.1-0.9
		c-0.6-0.3-1-0.7-1.4-1.2s-0.6-1.2-0.6-1.9s0.2-1.5,0.7-2.1s1.1-1.1,1.9-1.4s1.8-0.5,2.8-0.5s1.9,0.2,2.7,0.5
		c0.8,0.3,1.4,0.8,1.8,1.4c0.4,0.6,0.6,1.3,0.6,2.1c0,0.2,0,0.3,0,0.4h-3.1c0-0.6-0.1-1-0.5-1.3s-0.9-0.5-1.6-0.5
		c-0.6,0-1,0.1-1.4,0.4s-0.6,0.6-0.6,1s0.2,0.8,0.6,1c0.4,0.3,1.1,0.6,1.9,0.9c0.9,0.3,1.6,0.6,2.1,0.9c0.5,0.3,1,0.7,1.4,1.2
		s0.6,1.1,0.6,1.8c0,0.8-0.2,1.5-0.7,2.1s-1.2,1.1-2,1.4c-0.9,0.3-1.8,0.5-2.9,0.5C444.1,218.2,443.2,218.1,442.5,217.7z"/>
</g>
</svg>
