<?xml version="1.0" encoding="utf-8"?>
<!-- Generator: Adobe Illustrator 25.3.1, SVG Export Plug-In . SVG Version: 6.00 Build 0)  -->
<svg version="1.1" id="Layer_1" xmlns="http://www.w3.org/2000/svg" xmlns:xlink="http://www.w3.org/1999/xlink" x="0px" y="0px"
	 viewBox="0 0 417.8 192" style="enable-background:new 0 0 417.8 192;" xml:space="preserve">
<style type="text/css">
	.st0{display:none;fill:#CCCCCC;}
	.st1{fill:#393185;}
	.st2{fill:#E31E24;}
	.st3{fill:#FFFFFF;}
</style>
<rect x="-0.1" y="0" class="st0" width="418" height="192"/>
<g>
	<path class="st1" d="M3.3,2.8c3.3,0,13.9,0.5,22.5,0.5c8.8,0,19-0.5,23.4-0.5c0.7,1,0.8,5.2,0,6.4c-4.4,0.5-7.4,0.8-9.6,1.5
		c-3.9,1-4.6,2.9-4.9,7.8c-0.5,7-0.3,18.8-0.3,33.2c0,15.2,0.2,30.6,0.5,36.3c0.2,5.1,1,7.4,6.2,8.7c2.5,0.5,6.2,1.1,10.9,1.8
		c0.8,0.7,0.3,5.9-0.5,6.5c-3.6,0-15.4-0.5-24-0.5c-9.6,0-21.7,0.5-24.7,0.5c-1-0.5-1-5.9-0.2-6.5c4.4-0.5,6.7-0.8,9.1-1.3
		c5.2-1.3,5.9-3.6,6.4-6.9c0.7-4.7,0.5-14.4,0.5-41.2c0-13.7,0.2-23-0.3-30.7c-0.3-4.4-0.8-6.2-4.2-7.2c-2.9-0.8-6-1.3-10.9-2
		C2.3,8.4,2.6,3.6,3.3,2.8z"/>
	<path class="st1" d="M139.4,11.3C134.3,9,127,8,119.5,8C96.3,8,84,25.4,84,52c0,22.2,12.6,46.4,42.5,46.4c9,0,14.5-2.9,17-4.6
		c3.8-2.8,8.5-9.3,13.2-17c1.3-0.2,4.9,2,5.4,3.4c-1.3,6.2-8.8,19.8-12.7,22.5c-4.6,1.8-16.2,4.6-26.1,4.6
		c-37.4,0-57.7-20.4-57.7-53.9c0-17.8,8.3-35.8,26.3-45.6c8.8-4.7,19.4-7.5,33-7.5c15.5,0,26.6,2.9,34.1,3.4
		c-1,6.5-2.3,18.8-2.5,26.5c-0.8,1-6.5,1.6-6.7,0.5C148.1,17.5,146.1,14.6,139.4,11.3z"/>
	<path class="st1" d="M174.8,2.8c3.8,0,13.4,0.5,21.9,0.5h40.7c5.6,0,13.4,0,17-0.5c0.5,0,1,1,1,1.3c-1,3.9-2.1,14.7-2.3,23.9
		c-0.8,1.1-6.4,1.6-7.4,0.7c-1-4.9-1.3-7-2.3-10.6c-1.6-4.1-2.9-5.7-7.7-5.9c-6.4-0.3-23.2-0.7-28.4-0.2c-1,0.2-2,2.1-2,2.9
		c0,11.8-0.3,23-0.2,34.8c0,0.5,0.5,1,0.7,1c10.5,0,21.7,0,27.5-0.5c2.9-0.2,3.9-2.3,5.1-5.7c0.7-1.8,1.3-3.9,1.8-7
		c1.6-0.5,6.4-0.3,8,0.7c-0.5,4.2-1.1,11.8-1.1,17.2c0,6.2,0.2,11.9,0.5,17.8c-1.3,0.8-5.6,1-7.5,0.2c-0.8-3.6-1.3-5.2-2-7.4
		c-1.1-3.9-2.6-5.6-6-5.7c-5.9-0.3-21.6-0.3-26.1-0.3c-0.5,0-0.7,0.5-0.7,0.8c0,10.1-0.2,21.6,0.2,28.3c0.2,4.9,1.1,6.7,6,7.7
		c4.2,0.8,8,1.3,12.7,1.8c0.8,0.8,0.7,5.7-0.5,6.5c-5.4,0-12.7-0.5-27.5-0.5c-11.8,0-16.7,0.5-22.5,0.5c-1-0.7-1.1-5.6-0.2-6.4
		c4.1-0.5,7.5-1.1,9.6-1.6c4.9-1.3,5.7-2.5,6-8.2c0.3-6,0.2-16.2,0.2-36.1c0-18.6,0-29.1-0.3-34.1c-0.2-5.4-1.1-6.7-4.7-7.7
		c-2.5-0.5-5.7-1.1-9.6-1.6C173.5,8.4,174.2,3.6,174.8,2.8z"/>
	<path class="st1" d="M271.4,82.5c7.2-17.2,23-58.2,26.6-68.8c1.3-3.8,2.8-8,3.3-10.6c0.8,0.2,2.9,0.2,6,0.2c3.9,0,5.7,0,6.5-0.2
		c0.8,3.3,1.8,6.4,2.9,9.6c3.3,9.1,21.4,56.9,27.8,71.4c5.2,11.6,6.5,12.6,19,14.2c1,0.7,0.3,5.7-0.3,6.5
		c-4.2-0.2-12.1-0.5-21.4-0.5c-9.8,0-20.4,0.5-23.7,0.5c-0.7-0.8-0.8-5.7,0-6.5c3.6-0.5,7-1,9.5-1.8c2-0.8,2.3-2.9,2-4.1
		c-2.1-6.9-6.4-18-9-24.3c-0.3-0.8-1.3-1.1-1.6-1.1c-2.9-0.2-10.5-0.2-16.5-0.2c-10.5,0-11.4,0-13.2,0.2c-0.8,0-2,1.1-2,1.5
		c-3.4,9.3-7.7,19.9-7.7,23.2c0,3.1,0.7,4.2,5.4,5.4c2.1,0.5,5.7,1,8.7,1.3c0.7,0.8,0.3,5.7-0.5,6.5c-3.3,0-11.8-0.5-22.7-0.5
		c-10.6,0-16,0.5-19.1,0.5c-0.7-0.8-0.7-5.7,0-6.5C263.4,96.8,265.7,95.8,271.4,82.5z M303.1,22.7c-2.8,8.7-8.7,23.7-11.8,33.5
		c0,0.5,0.2,1,0.7,1.1c1.8,0.2,8.2,0.2,12.9,0.2c4.1,0,8.7,0,10.8-0.2c0.5,0,1-0.8,0.8-1.6c-3.1-8.5-9.6-26.6-12.4-33.2
		C303.9,22.6,303.4,22.4,303.1,22.7z"/>
	<path class="st1" d="M368,2.8c3.3,0,13.9,0.5,22.5,0.5c8.8,0,19-0.5,23.4-0.5c0.7,1,0.8,5.2,0,6.4c-4.4,0.5-7.4,0.8-9.6,1.5
		c-3.9,1-4.6,2.9-4.9,7.8c-0.5,7-0.3,18.8-0.3,33.2c0,15.2,0.2,30.6,0.5,36.3c0.2,5.1,1,7.4,6.2,8.7c2.5,0.5,6.2,1.1,10.9,1.8
		c0.8,0.7,0.3,5.9-0.5,6.5c-3.6,0-15.4-0.5-24-0.5c-9.6,0-21.7,0.5-24.7,0.5c-1-0.5-1-5.9-0.2-6.5c4.4-0.5,6.7-0.8,9.2-1.3
		c5.2-1.3,5.9-3.6,6.4-6.9c0.7-4.7,0.5-14.4,0.5-41.2c0-13.7,0.2-23-0.3-30.7c-0.3-4.4-0.8-6.2-4.2-7.2c-2.9-0.8-6-1.3-10.9-2
		C367,8.4,367.3,3.6,368,2.8z"/>
</g>
<rect x="-0.2" y="110.7" class="st2" width="418" height="45.5"/>
<g>
	<path class="st3" d="M67.8,120.1h5.4v14.5c0,2.3,0.1,3.8,0.2,4.5c0.2,1.1,0.8,2,1.7,2.6c0.9,0.7,2.1,1,3.6,1c1.5,0,2.7-0.3,3.5-0.9
		c0.8-0.6,1.2-1.4,1.4-2.3c0.2-0.9,0.2-2.4,0.2-4.6v-14.8h5.4v14.1c0,3.2-0.1,5.5-0.4,6.8c-0.3,1.3-0.8,2.5-1.6,3.4
		s-1.8,1.6-3.2,2.2c-1.3,0.5-3,0.8-5.2,0.8c-2.6,0-4.5-0.3-5.8-0.9c-1.3-0.6-2.4-1.4-3.1-2.3c-0.8-0.9-1.3-1.9-1.5-3
		c-0.4-1.5-0.5-3.8-0.5-6.8V120.1z"/>
	<path class="st3" d="M101.2,146.9v-26.8h5.3l11,17.9v-17.9h5v26.8h-5.4l-10.8-17.5v17.5H101.2z"/>
	<path class="st3" d="M134.4,146.9v-26.8h5.4v26.8H134.4z"/>
	<path class="st3" d="M158.2,146.9l-9.6-26.8h5.9l6.8,19.8l6.6-19.8h5.7l-9.6,26.8H158.2z"/>
	<path class="st3" d="M182.7,146.9v-26.8h19.9v4.5h-14.5v5.9h13.5v4.5h-13.5v7.3h15v4.5H182.7z"/>
	<path class="st3" d="M214.1,146.9v-26.8h11.4c2.9,0,4.9,0.2,6.2,0.7s2.3,1.3,3.1,2.6c0.8,1.2,1.2,2.6,1.2,4.2c0,2-0.6,3.7-1.8,5
		c-1.2,1.3-2.9,2.1-5.3,2.5c1.2,0.7,2.1,1.4,2.9,2.2s1.8,2.3,3.1,4.4l3.3,5.2h-6.5l-3.9-5.8c-1.4-2.1-2.3-3.4-2.9-3.9
		c-0.5-0.5-1.1-0.9-1.6-1.1c-0.6-0.2-1.5-0.3-2.7-0.3h-1.1v11.2H214.1z M219.5,131.4h4c2.6,0,4.2-0.1,4.9-0.3
		c0.6-0.2,1.2-0.6,1.5-1.1c0.4-0.5,0.5-1.2,0.5-2c0-0.9-0.2-1.6-0.7-2.2c-0.5-0.6-1.2-0.9-2-1.1c-0.4-0.1-1.8-0.1-3.9-0.1h-4.2
		V131.4z"/>
	<path class="st3" d="M246.1,138.1l5.3-0.5c0.3,1.8,1,3.1,1.9,3.9c1,0.8,2.3,1.2,3.9,1.2c1.7,0,3.1-0.4,3.9-1.1s1.3-1.6,1.3-2.6
		c0-0.6-0.2-1.2-0.6-1.6c-0.4-0.4-1-0.8-1.9-1.2c-0.6-0.2-2.1-0.6-4.3-1.2c-2.9-0.7-4.9-1.6-6.1-2.7c-1.6-1.5-2.5-3.3-2.5-5.4
		c0-1.4,0.4-2.6,1.2-3.8c0.8-1.2,1.9-2.1,3.3-2.7c1.5-0.6,3.2-0.9,5.3-0.9c3.4,0,5.9,0.7,7.6,2.2s2.6,3.4,2.7,5.9l-5.4,0.2
		c-0.2-1.4-0.7-2.4-1.5-3s-1.9-0.9-3.4-0.9c-1.6,0-2.8,0.3-3.7,1c-0.6,0.4-0.9,1-0.9,1.7c0,0.6,0.3,1.2,0.8,1.6
		c0.7,0.6,2.3,1.2,5,1.8c2.6,0.6,4.6,1.3,5.8,1.9s2.2,1.6,3,2.7c0.7,1.2,1.1,2.6,1.1,4.3c0,1.5-0.4,3-1.3,4.3
		c-0.9,1.3-2.1,2.3-3.6,3c-1.6,0.7-3.5,1-5.8,1c-3.4,0-6-0.8-7.8-2.3C247.5,143.4,246.4,141.1,246.1,138.1z"/>
	<path class="st3" d="M278.6,146.9v-26.8h5.4v26.8H278.6z"/>
	<path class="st3" d="M301.6,146.9v-22.3h-8v-4.5h21.3v4.5H307v22.3H301.6z"/>
	<path class="st3" d="M331.8,146.9v-11.3l-9.8-15.5h6.3l6.3,10.6l6.2-10.6h6.2l-9.9,15.6v11.2H331.8z"/>
</g>
<g>
	<g>
		<path d="M104.9,161.3l5.1,15.8l5.1-15.8h7.2v22.8h-5.5v-5.3l0.5-10.9l-5.5,16.2h-3.6l-5.5-16.2l0.5,10.9v5.3h-5.5v-22.8H104.9z"/>
		<path d="M142.5,184.1H137v-22.8h5.5V184.1z"/>
		<path d="M163.3,179.9h10.9v4.2h-17.7v-2.9l10.8-15.6h-10.9v-4.2h17.7v2.8L163.3,179.9z"/>
		<path d="M206.4,173.2c0,2.2-0.4,4.2-1.2,5.9c-0.8,1.7-2,3-3.5,3.9s-3.2,1.4-5.2,1.4s-3.7-0.4-5.2-1.3s-2.7-2.2-3.5-3.8
			c-0.8-1.7-1.3-3.6-1.3-5.7v-1.3c0-2.2,0.4-4.2,1.2-5.9c0.8-1.7,2-3,3.5-3.9c1.5-0.9,3.3-1.4,5.2-1.4c1.9,0,3.6,0.5,5.2,1.4
			c1.5,0.9,2.7,2.2,3.5,3.9c0.8,1.7,1.3,3.6,1.3,5.8V173.2z M200.9,172.2c0-2.3-0.4-4-1.1-5.1c-0.8-1.2-1.8-1.8-3.2-1.8
			c-2.8,0-4.2,2.1-4.4,6.2l0,1.7c0,2.2,0.4,3.9,1.1,5.1c0.7,1.2,1.8,1.8,3.3,1.8c1.4,0,2.5-0.6,3.2-1.8c0.8-1.2,1.1-2.9,1.1-5.1
			V172.2z"/>
		<path d="M228.6,176h-3v8h-5.5v-22.8h9c2.7,0,4.8,0.6,6.3,1.8c1.5,1.2,2.3,2.9,2.3,5.1c0,1.6-0.3,2.9-1,3.9c-0.6,1-1.6,1.9-3,2.5
			l4.8,9.2v0.2h-5.9L228.6,176z M225.6,171.8h3.5c1,0,1.8-0.3,2.4-0.8c0.5-0.5,0.8-1.3,0.8-2.3s-0.3-1.8-0.8-2.3s-1.3-0.8-2.3-0.8
			h-3.5V171.8z"/>
		<path d="M264.8,179.8h-7.5l-1.3,4.2h-5.9l8.3-22.8h5.2l8.4,22.8h-5.9L264.8,179.8z M258.6,175.6h4.9l-2.5-7.9L258.6,175.6z"/>
		<path d="M291.8,161.3l5.1,15.8l5.1-15.8h7.2v22.8h-5.5v-5.3l0.5-10.9l-5.5,16.2h-3.6l-5.5-16.2l0.5,10.9v5.3h-5.5v-22.8H291.8z"/>
	</g>
</g>
</svg>
